<svg xmlns="http://www.w3.org/2000/svg" xmlns:xlink="http://www.w3.org/1999/xlink" width="1920" height="947" version="1.1">
<style type="text/css">
.l0{
  fill: #000000;
  stroke: #000000;
  stroke-linecap:round;
  stroke-linejoin:round;
  stroke-width: 1.31314;
}
.l1{
  fill: #00ccee;
  stroke: #00ccee;
  stroke-linecap:round;
  stroke-linejoin:round;
  stroke-width: 1.31314;
}
.l2{
  fill: #4f4f4f; fill-opacity: 0.2;
  stroke: #4f4f4f;
  stroke-linecap:round;
  stroke-linejoin:round;
  stroke-width: 1.31314;
}
.l3{
  fill: #cccccc; fill-opacity: 0.5;
  stroke: #cccccc;
  stroke-linecap:round;
  stroke-linejoin:round;
  stroke-width: 1.31314;
}
.l4{
  fill: #88dd00;
  stroke: #88dd00;
  stroke-linecap:round;
  stroke-linejoin:round;
  stroke-width: 1.31314;
}
.l5{
  fill: #bb2200;
  stroke: #bb2200;
  stroke-linecap:round;
  stroke-linejoin:round;
  stroke-width: 1.31314;
}
.l6{
  fill: #00ccee; fill-opacity: 0.5;
  stroke: #00ccee;
  stroke-linecap:round;
  stroke-linejoin:round;
  stroke-width: 1.31314;
}
.l7{
  fill: #ff0000; fill-opacity: 0.5;
  stroke: #ff0000;
  stroke-linecap:round;
  stroke-linejoin:round;
  stroke-width: 1.31314;
}
.l8{
  fill: #ffff00; fill-opacity: 0.5;
  stroke: #ffff00;
  stroke-linecap:round;
  stroke-linejoin:round;
  stroke-width: 1.31314;
}
.l9{
  fill: #ffffff; fill-opacity: 0.5;
  stroke: #ffffff;
  stroke-linecap:round;
  stroke-linejoin:round;
  stroke-width: 1.31314;
}
.l10{
  fill: #ff00ff;
  stroke: #ff00ff;
  stroke-linecap:round;
  stroke-linejoin:round;
  stroke-width: 1.31314;
}
.l11{
  fill: #00ff00; fill-opacity: 0.5;
  stroke: #00ff00;
  stroke-linecap:round;
  stroke-linejoin:round;
  stroke-width: 1.31314;
}
.l12{
  fill: #0044ff; fill-opacity: 0.5;
  stroke: #0044ff;
  stroke-linecap:round;
  stroke-linejoin:round;
  stroke-width: 1.31314;
}
.l13{
  fill: #aaaa00; fill-opacity: 0.5;
  stroke: #aaaa00;
  stroke-linecap:round;
  stroke-linejoin:round;
  stroke-width: 1.31314;
}
.l14{
  fill: #aaccaa; fill-opacity: 0.2;
  stroke: #aaccaa;
  stroke-linecap:round;
  stroke-linejoin:round;
  stroke-width: 1.31314;
}
.l15{
  fill: #ff7777; fill-opacity: 0.5;
  stroke: #ff7777;
  stroke-linecap:round;
  stroke-linejoin:round;
  stroke-width: 1.31314;
}
.l16{
  fill: #bfff81; fill-opacity: 0.5;
  stroke: #bfff81;
  stroke-linecap:round;
  stroke-linejoin:round;
  stroke-width: 1.31314;
}
.l17{
  fill: #00ffcc; fill-opacity: 0.2;
  stroke: #00ffcc;
  stroke-linecap:round;
  stroke-linejoin:round;
  stroke-width: 1.31314;
}
.l18{
  fill: #ce0097; fill-opacity: 0.5;
  stroke: #ce0097;
  stroke-linecap:round;
  stroke-linejoin:round;
  stroke-width: 1.31314;
}
.l19{
  fill: #d2d46b; fill-opacity: 0.2;
  stroke: #d2d46b;
  stroke-linecap:round;
  stroke-linejoin:round;
  stroke-width: 1.31314;
}
.l20{
  fill: #ef6158; fill-opacity: 0.2;
  stroke: #ef6158;
  stroke-linecap:round;
  stroke-linejoin:round;
  stroke-width: 1.31314;
}
.l21{
  fill: #fdb200; fill-opacity: 0.2;
  stroke: #fdb200;
  stroke-linecap:round;
  stroke-linejoin:round;
  stroke-width: 1.31314;
}
text {font-family: Sans-Serif;}
</style>
<rect class="l0" x="0" y="0" width="1920" height="947"/>
<path class="l4" d="M595.543 224.166L663.632 224.166"/>
<path class="l4" d="M595.543 224.166L595.543 243.619"/>
<path class="l4" d="M960.304 729.967L974.894 729.967"/>
<path class="l4" d="M960.304 715.376L960.304 729.967"/>
<path class="l4" d="M925.652 715.376L965.775 715.376"/>
<path class="l4" d="M931.123 715.376L931.123 729.967"/>
<path class="l4" d="M916.533 729.967L931.123 729.967"/>
<path class="l4" d="M931.123 711.729L960.304 711.729"/>
<path class="l4" d="M945.714 700.786L945.714 706.257"/>
<circle class="l4" cx="945.714" cy="708.993" r="2.7357" style="fill:none;" />
<path class="l4" d="M960.304 457.612L974.894 457.612"/>
<path class="l4" d="M960.304 443.022L960.304 457.612"/>
<path class="l4" d="M925.652 443.022L965.775 443.022"/>
<path class="l4" d="M931.123 443.022L931.123 457.612"/>
<path class="l4" d="M916.533 457.612L931.123 457.612"/>
<path class="l4" d="M931.123 439.374L960.304 439.374"/>
<path class="l4" d="M945.714 428.431L945.714 433.903"/>
<circle class="l4" cx="945.714" cy="436.639" r="2.7357" style="fill:none;" />
<path class="l4" d="M960.304 593.79L974.894 593.79"/>
<path class="l4" d="M960.304 579.199L960.304 593.79"/>
<path class="l4" d="M925.652 579.199L965.775 579.199"/>
<path class="l4" d="M931.123 579.199L931.123 593.79"/>
<path class="l4" d="M916.533 593.79L931.123 593.79"/>
<path class="l4" d="M931.123 575.552L960.304 575.552"/>
<path class="l4" d="M945.714 564.609L945.714 570.08"/>
<circle class="l4" cx="945.714" cy="572.816" r="2.7357" style="fill:none;" />
<path class="l4" d="M960.304 321.435L974.894 321.435"/>
<path class="l4" d="M960.304 306.845L960.304 321.435"/>
<path class="l4" d="M925.652 306.845L965.775 306.845"/>
<path class="l4" d="M931.123 306.845L931.123 321.435"/>
<path class="l4" d="M916.533 321.435L931.123 321.435"/>
<path class="l4" d="M931.123 303.197L960.304 303.197"/>
<path class="l4" d="M945.714 292.254L945.714 297.726"/>
<circle class="l4" cx="945.714" cy="300.461" r="2.7357" style="fill:none;" />
<path class="l4" d="M1135.39 321.435L1149.98 321.435"/>
<path class="l4" d="M1135.39 306.845L1135.39 321.435"/>
<path class="l4" d="M1100.74 306.845L1140.86 306.845"/>
<path class="l4" d="M1106.21 306.845L1106.21 321.435"/>
<path class="l4" d="M1091.62 321.435L1106.21 321.435"/>
<path class="l4" d="M1106.21 303.197L1135.39 303.197"/>
<path class="l4" d="M1120.8 292.254L1120.8 303.197"/>
<path class="l4" d="M1135.39 457.612L1149.98 457.612"/>
<path class="l4" d="M1135.39 443.022L1135.39 457.612"/>
<path class="l4" d="M1100.74 443.022L1140.86 443.022"/>
<path class="l4" d="M1106.21 443.022L1106.21 457.612"/>
<path class="l4" d="M1091.62 457.612L1106.21 457.612"/>
<path class="l4" d="M1106.21 439.374L1135.39 439.374"/>
<path class="l4" d="M1120.8 428.431L1120.8 439.374"/>
<path class="l4" d="M1091.62 759.148L1106.21 759.148"/>
<path class="l4" d="M1106.21 759.148L1106.21 773.738"/>
<path class="l4" d="M1100.74 773.738L1140.86 773.738"/>
<path class="l4" d="M1135.39 759.148L1135.39 773.738"/>
<path class="l4" d="M1135.39 759.148L1149.98 759.148"/>
<path class="l4" d="M1106.21 777.386L1135.39 777.386"/>
<path class="l4" d="M1120.8 777.386L1120.8 788.328"/>
<path class="l4" d="M1135.39 593.79L1149.98 593.79"/>
<path class="l4" d="M1135.39 579.199L1135.39 593.79"/>
<path class="l4" d="M1100.74 579.199L1140.86 579.199"/>
<path class="l4" d="M1106.21 579.199L1106.21 593.79"/>
<path class="l4" d="M1091.62 593.79L1106.21 593.79"/>
<path class="l4" d="M1106.21 575.552L1135.39 575.552"/>
<path class="l4" d="M1120.8 564.609L1120.8 575.552"/>
<path class="l4" d="M1281.29 185.258L1295.88 185.258"/>
<path class="l4" d="M1281.29 170.667L1281.29 185.258"/>
<path class="l4" d="M1246.64 170.667L1286.76 170.667"/>
<path class="l4" d="M1252.11 170.667L1252.11 185.258"/>
<path class="l4" d="M1237.52 185.258L1252.11 185.258"/>
<path class="l4" d="M1252.11 167.02L1281.29 167.02"/>
<path class="l4" d="M1266.7 156.077L1266.7 167.02"/>
<path class="l4" d="M1198.61 759.148L1208.34 759.148"/>
<path class="l4" d="M1208.34 759.148L1210.77 766.443"/>
<path class="l4" d="M1210.77 766.443L1215.64 751.852"/>
<path class="l4" d="M1215.64 751.852L1220.5 766.443"/>
<path class="l4" d="M1220.5 766.443L1225.36 751.852"/>
<path class="l4" d="M1225.36 751.852L1230.23 766.443"/>
<path class="l4" d="M1230.23 766.443L1235.09 751.852"/>
<path class="l4" d="M1235.09 751.852L1239.95 766.443"/>
<path class="l4" d="M1239.95 766.443L1244.82 751.852"/>
<path class="l4" d="M1244.82 751.852L1247.25 759.148"/>
<path class="l4" d="M1247.25 759.148L1256.98 759.148"/>
<path class="l5" d="M916.046 729.48L917.019 729.48L917.019 730.453L916.046 730.453L916.046 729.48z"/>
<path class="l5" d="M945.227 700.3L946.2 700.3L946.2 701.272L945.227 701.272L945.227 700.3z"/>
<path class="l5" d="M974.408 729.48L975.381 729.48L975.381 730.453L974.408 730.453L974.408 729.48z"/>
<path class="l5" d="M916.046 457.126L917.019 457.126L917.019 458.099L916.046 458.099L916.046 457.126z"/>
<path class="l5" d="M945.227 427.945L946.2 427.945L946.2 428.918L945.227 428.918L945.227 427.945z"/>
<path class="l5" d="M974.408 457.126L975.381 457.126L975.381 458.099L974.408 458.099L974.408 457.126z"/>
<path class="l5" d="M916.046 593.303L917.019 593.303L917.019 594.276L916.046 594.276L916.046 593.303z"/>
<path class="l5" d="M945.227 564.122L946.2 564.122L946.2 565.095L945.227 565.095L945.227 564.122z"/>
<path class="l5" d="M974.408 593.303L975.381 593.303L975.381 594.276L974.408 594.276L974.408 593.303z"/>
<path class="l5" d="M916.046 320.949L917.019 320.949L917.019 321.921L916.046 321.921L916.046 320.949z"/>
<path class="l5" d="M945.227 291.768L946.2 291.768L946.2 292.741L945.227 292.741L945.227 291.768z"/>
<path class="l5" d="M974.408 320.949L975.381 320.949L975.381 321.921L974.408 321.921L974.408 320.949z"/>
<path class="l5" d="M945.714 60.0233L945.714 68.5344"/>
<path class="l5" d="M945.714 51.5122L940.85 55.1598L940.85 63.6709L945.714 60.0233L950.577 63.6709L950.577 55.1598L945.714 51.5122"/>
<path class="l5" d="M944.498 67.3185L946.929 67.3185L946.929 69.7502L944.498 69.7502L944.498 67.3185z"/>
<path class="l5" d="M897.079 65.4947L897.079 68.5344"/>
<path class="l5" d="M901.942 55.1598L897.079 51.5122L892.215 55.1598L892.215 61.8471L897.079 65.4947L901.942 61.8471L901.942 55.1598"/>
<path class="l5" d="M895.863 67.3185L898.295 67.3185L898.295 69.7502L895.863 69.7502L895.863 67.3185z"/>
<path class="l5" d="M1149.49 320.949L1150.47 320.949L1150.47 321.921L1149.49 321.921L1149.49 320.949z"/>
<path class="l5" d="M1120.31 291.768L1121.28 291.768L1121.28 292.741L1120.31 292.741L1120.31 291.768z"/>
<path class="l5" d="M1091.13 320.949L1092.1 320.949L1092.1 321.921L1091.13 321.921L1091.13 320.949z"/>
<path class="l5" d="M1149.49 457.126L1150.47 457.126L1150.47 458.099L1149.49 458.099L1149.49 457.126z"/>
<path class="l5" d="M1120.31 427.945L1121.28 427.945L1121.28 428.918L1120.31 428.918L1120.31 427.945z"/>
<path class="l5" d="M1091.13 457.126L1092.1 457.126L1092.1 458.099L1091.13 458.099L1091.13 457.126z"/>
<path class="l5" d="M1120.8 60.0233L1120.8 68.5344"/>
<path class="l5" d="M1120.8 51.5122L1115.94 55.1598L1115.94 63.6709L1120.8 60.0233L1125.66 63.6709L1125.66 55.1598L1120.8 51.5122"/>
<path class="l5" d="M1119.58 67.3185L1122.01 67.3185L1122.01 69.7502L1119.58 69.7502L1119.58 67.3185z"/>
<path class="l5" d="M1091.13 758.661L1092.1 758.661L1092.1 759.634L1091.13 759.634L1091.13 758.661z"/>
<path class="l5" d="M1120.31 787.842L1121.28 787.842L1121.28 788.815L1120.31 788.815L1120.31 787.842z"/>
<path class="l5" d="M1149.49 758.661L1150.47 758.661L1150.47 759.634L1149.49 759.634L1149.49 758.661z"/>
<path class="l5" d="M1149.49 593.303L1150.47 593.303L1150.47 594.276L1149.49 594.276L1149.49 593.303z"/>
<path class="l5" d="M1120.31 564.122L1121.28 564.122L1121.28 565.095L1120.31 565.095L1120.31 564.122z"/>
<path class="l5" d="M1091.13 593.303L1092.1 593.303L1092.1 594.276L1091.13 594.276L1091.13 593.303z"/>
<path class="l5" d="M1295.4 184.771L1296.37 184.771L1296.37 185.744L1295.4 185.744L1295.4 184.771z"/>
<path class="l5" d="M1266.22 155.591L1267.19 155.591L1267.19 156.563L1266.22 156.563L1266.22 155.591z"/>
<path class="l5" d="M1237.04 184.771L1238.01 184.771L1238.01 185.744L1237.04 185.744L1237.04 184.771z"/>
<path class="l5" d="M1315.34 875.871L1315.34 878.911"/>
<path class="l5" d="M1310.47 889.246L1315.34 892.893L1320.2 889.246L1320.2 882.558L1315.34 878.911L1310.47 882.558L1310.47 889.246"/>
<path class="l5" d="M1314.12 874.655L1316.55 874.655L1316.55 877.087L1314.12 877.087L1314.12 874.655z"/>
<path class="l5" d="M1196.18 756.716L1201.05 756.716L1201.05 761.579L1196.18 761.579L1196.18 756.716z"/>
<path class="l5" d="M1254.54 756.716L1259.41 756.716L1259.41 761.579L1254.54 761.579L1254.54 756.716z"/>
<path class="l5" d="M1225.36 737.262L1230.23 737.262L1230.23 742.125L1225.36 742.125L1225.36 737.262z"/>
<text fill="#cccccc"  xml:space="preserve" font-size="15.174" transform="translate(600.407, 218.49)" >SPICE</text>
<text fill="#cccccc"  xml:space="preserve" font-size="15.174" style="font-family:Monospace;" transform="translate(610.134, 242.807)" >.param len=4 wid=3</text>
<text fill="#cccccc"  xml:space="preserve" font-size="10.116" transform="translate(972.181, 755.83) rotate(270)" >M28</text>
<text fill="#cccccc"  xml:space="preserve" font-size="10.116" transform="translate(957.591, 781.83) rotate(270)" >pfet_01v8</text>
<text fill="#aaaa00"  xml:space="preserve" font-size="10.116" transform="translate(943.001, 809.83) rotate(270)" >1 x {wid} / {len}</text>
<text fill="#cccccc"  xml:space="preserve" font-size="10.116" transform="translate(972.181, 483.476) rotate(270)" >M29</text>
<text fill="#cccccc"  xml:space="preserve" font-size="10.116" transform="translate(957.591, 509.476) rotate(270)" >pfet_01v8</text>
<text fill="#aaaa00"  xml:space="preserve" font-size="10.116" transform="translate(943.001, 537.476) rotate(270)" >1 x {wid} / {len}</text>
<text fill="#cccccc"  xml:space="preserve" font-size="10.116" transform="translate(972.181, 619.653) rotate(270)" >M30</text>
<text fill="#cccccc"  xml:space="preserve" font-size="10.116" transform="translate(957.591, 645.653) rotate(270)" >pfet_01v8</text>
<text fill="#aaaa00"  xml:space="preserve" font-size="10.116" transform="translate(943.001, 673.653) rotate(270)" >1 x {wid} / {len}</text>
<text fill="#cccccc"  xml:space="preserve" font-size="10.116" transform="translate(972.181, 347.298) rotate(270)" >M31</text>
<text fill="#cccccc"  xml:space="preserve" font-size="10.116" transform="translate(957.591, 373.298) rotate(270)" >pfet_01v8</text>
<text fill="#aaaa00"  xml:space="preserve" font-size="10.116" transform="translate(943.001, 401.298) rotate(270)" >1 x {wid} / {len}</text>
<text fill="#00ccee"  xml:space="preserve" font-size="16.6914" transform="translate(952.358, 49.0805) rotate(270)" >Vbp</text>
<text fill="#00ccee"  xml:space="preserve" font-size="16.6914" transform="translate(903.116, 49.2324) rotate(270)" >VDD</text>
<text fill="#cccccc"  xml:space="preserve" font-size="10.116" transform="translate(1132.68, 347.298) rotate(270)" >M32</text>
<text fill="#cccccc"  xml:space="preserve" font-size="10.116" transform="translate(1118.09, 373.298) rotate(270)" >nfet_01v8</text>
<text fill="#aaaa00"  xml:space="preserve" font-size="10.116" transform="translate(1103.5, 401.298) rotate(270)" >1 x {wid} / {len}</text>
<text fill="#cccccc"  xml:space="preserve" font-size="10.116" transform="translate(1132.68, 483.476) rotate(270)" >M33</text>
<text fill="#cccccc"  xml:space="preserve" font-size="10.116" transform="translate(1118.09, 509.476) rotate(270)" >nfet_01v8</text>
<text fill="#aaaa00"  xml:space="preserve" font-size="10.116" transform="translate(1103.5, 537.476) rotate(270)" >1 x {wid} / {len}</text>
<text fill="#00ccee"  xml:space="preserve" font-size="16.6914" transform="translate(1127.44, 49.0805) rotate(270)" >Vbn</text>
<text fill="#cccccc"  xml:space="preserve" font-size="10.116" transform="translate(1115.69, 754.284) rotate(270)" >M34</text>
<text fill="#cccccc"  xml:space="preserve" font-size="10.116" transform="translate(1130.28, 754.284) rotate(270)" >nfet_01v8</text>
<text fill="#aaaa00"  xml:space="preserve" font-size="10.116" transform="translate(1144.87, 754.284) rotate(270)" >20 x {wid} / {len}</text>
<text fill="#cccccc"  xml:space="preserve" font-size="10.116" transform="translate(1132.68, 619.653) rotate(270)" >M35</text>
<text fill="#cccccc"  xml:space="preserve" font-size="10.116" transform="translate(1118.09, 645.653) rotate(270)" >nfet_01v8</text>
<text fill="#aaaa00"  xml:space="preserve" font-size="10.116" transform="translate(1103.5, 673.653) rotate(270)" >1 x {wid} / {len}</text>
<text fill="#cccccc"  xml:space="preserve" font-size="10.116" transform="translate(1278.58, 211.121) rotate(270)" >M36</text>
<text fill="#cccccc"  xml:space="preserve" font-size="10.116" transform="translate(1263.99, 237.121) rotate(270)" >nfet_01v8</text>
<text fill="#aaaa00"  xml:space="preserve" font-size="10.116" transform="translate(1249.4, 241.121) rotate(270)" >1 x 10 / 10</text>
<text fill="#00ccee"  xml:space="preserve" font-size="16.6914" transform="translate(1320.47, 932.173) rotate(270)" >GND</text>
<text fill="#ff0000"  xml:space="preserve" font-size="7.58702" transform="translate(1238.14, 744.557) rotate(270)" >B</text>
<text fill="#cccccc"  xml:space="preserve" font-size="10.116" transform="translate(1252.13, 785.738) rotate(270)" >R1</text>
<text fill="#aaaa00"  xml:space="preserve" font-size="10.116" transform="translate(1212, 843.738) rotate(270)" >1 * 0.35 / 17.5</text>
<text fill="#cccccc"  xml:space="preserve" font-size="10.116" transform="translate(1238.75, 862.738) rotate(270)" >res_xhigh_po_0p35</text>
<text fill="#aaaa00"  xml:space="preserve" font-size="10.116" transform="translate(1225.38, 809.738) rotate(270)" >R=100k</text>
<path class="l1" d="M945.714 292.254L945.714 428.431"/>
<path class="l1" d="M897.079 593.79L897.079 729.967"/>
<path class="l1" d="M897.079 457.612L897.079 593.79"/>
<path class="l1" d="M897.079 321.435L897.079 457.612"/>
<path class="l1" d="M897.079 204.712L897.079 321.435"/>
<path class="l1" d="M945.714 185.258L945.714 292.254"/>
<path class="l1" d="M945.714 428.431L945.714 535.428"/>
<path class="l1" d="M945.714 671.605L945.714 700.786"/>
<path class="l1" d="M945.714 564.609L945.714 671.605"/>
<path class="l1" d="M897.079 185.258L897.079 204.712"/>
<path class="l1" d="M1120.8 185.258L1120.8 263.073"/>
<path class="l1" d="M1159.71 321.435L1315.34 321.435"/>
<path class="l1" d="M1159.71 457.612L1315.34 457.612"/>
<path class="l1" d="M1159.71 593.79L1315.34 593.79"/>
<path class="l1" d="M897.079 68.5344L897.079 185.258"/>
<path class="l1" d="M945.714 68.5344L945.714 185.258"/>
<path class="l1" d="M1120.8 68.5344L1120.8 185.258"/>
<path class="l1" d="M945.714 156.077L1130.53 156.077"/>
<path class="l1" d="M1315.34 399.251L1315.34 535.428"/>
<path class="l1" d="M1315.34 321.435L1315.34 399.251"/>
<path class="l1" d="M1315.34 185.258L1315.34 321.435"/>
<path class="l1" d="M1315.34 759.148L1315.34 817.509"/>
<path class="l1" d="M1315.34 817.509L1315.34 875.871"/>
<path class="l1" d="M1315.34 535.428L1315.34 613.243"/>
<path class="l1" d="M974.894 535.428L974.894 593.79"/>
<path class="l1" d="M945.714 535.428L974.894 535.428"/>
<path class="l1" d="M945.714 700.786L974.894 700.786"/>
<path class="l1" d="M974.894 700.786L974.894 729.967"/>
<path class="l1" d="M897.079 729.967L916.533 729.967"/>
<path class="l1" d="M897.079 593.79L916.533 593.79"/>
<path class="l1" d="M897.079 457.612L916.533 457.612"/>
<path class="l1" d="M897.079 321.435L916.533 321.435"/>
<path class="l1" d="M1120.8 263.073L1120.8 428.431"/>
<path class="l1" d="M1149.98 593.79L1159.71 593.79"/>
<path class="l1" d="M1149.98 457.612L1159.71 457.612"/>
<path class="l1" d="M945.714 418.704L1072.16 418.704"/>
<path class="l1" d="M1072.16 418.704L1072.16 457.612"/>
<path class="l1" d="M1072.16 457.612L1091.62 457.612"/>
<path class="l1" d="M945.714 613.243L1072.16 613.243"/>
<path class="l1" d="M1072.16 593.79L1072.16 613.243"/>
<path class="l1" d="M1072.16 593.79L1091.62 593.79"/>
<path class="l1" d="M1120.8 515.974L1120.8 564.609"/>
<path class="l1" d="M1033.26 515.974L1120.8 515.974"/>
<path class="l1" d="M1033.26 457.612L1033.26 515.974"/>
<path class="l1" d="M974.894 457.612L1033.26 457.612"/>
<path class="l1" d="M1120.8 564.609L1120.8 671.605"/>
<path class="l1" d="M974.894 321.435L1023.53 321.435"/>
<path class="l1" d="M1033.26 321.435L1091.62 321.435"/>
<path class="l1" d="M1149.98 321.435L1159.71 321.435"/>
<path class="l1" d="M1130.53 156.077L1266.7 156.077"/>
<path class="l1" d="M1237.52 185.258L1295.88 185.258"/>
<path class="l1" d="M1120.8 671.605L1120.8 788.328"/>
<path class="l1" d="M1091.62 759.148L1091.62 788.328"/>
<path class="l1" d="M1091.62 788.328L1120.8 788.328"/>
<path class="l1" d="M1149.98 759.148L1198.61 759.148"/>
<path class="l1" d="M1315.34 613.243L1315.34 759.148"/>
<path class="l1" d="M1256.98 759.148L1315.34 759.148"/>
<path class="l1" d="M1295.88 185.258L1315.34 185.258"/>
<path class="l1" d="M1072.16 272.8L1072.16 321.435"/>
<path class="l1" d="M1072.16 272.8L1120.8 272.8"/>
<path class="l1" d="M1227.8 720.24L1315.34 720.24"/>
<path class="l1" d="M1227.8 720.24L1227.8 739.694"/>
<path class="l1" d="M1023.53 321.435L1033.26 321.435"/>
<circle class="l1" cx="945.714" cy="418.704" r="3.59897"/>
<circle class="l1" cx="897.079" cy="321.435" r="3.59897"/>
<circle class="l1" cx="897.079" cy="457.612" r="3.59897"/>
<circle class="l1" cx="945.714" cy="156.077" r="3.59897"/>
<circle class="l1" cx="897.079" cy="321.435" r="3.59897"/>
<circle class="l1" cx="897.079" cy="321.435" r="3.59897"/>
<circle class="l1" cx="897.079" cy="457.612" r="3.59897"/>
<circle class="l1" cx="897.079" cy="457.612" r="3.59897"/>
<circle class="l1" cx="897.079" cy="593.79" r="3.59897"/>
<circle class="l1" cx="945.714" cy="613.243" r="3.59897"/>
<circle class="l1" cx="897.079" cy="593.79" r="3.59897"/>
<circle class="l1" cx="897.079" cy="593.79" r="3.59897"/>
<circle class="l1" cx="1120.8" cy="272.8" r="3.59897"/>
<circle class="l1" cx="1072.16" cy="321.435" r="3.59897"/>
<circle class="l1" cx="1315.34" cy="321.435" r="3.59897"/>
<circle class="l1" cx="1315.34" cy="321.435" r="3.59897"/>
<circle class="l1" cx="1315.34" cy="457.612" r="3.59897"/>
<circle class="l1" cx="1315.34" cy="321.435" r="3.59897"/>
<circle class="l1" cx="1315.34" cy="720.24" r="3.59897"/>
<circle class="l1" cx="1315.34" cy="759.148" r="3.59897"/>
<circle class="l1" cx="1315.34" cy="759.148" r="3.59897"/>
<circle class="l1" cx="1315.34" cy="759.148" r="3.59897"/>
<circle class="l1" cx="1315.34" cy="593.79" r="3.59897"/>
</svg>
