<svg xmlns="http://www.w3.org/2000/svg" xmlns:xlink="http://www.w3.org/1999/xlink" width="1920" height="947" version="1.1">
<style type="text/css">
.l0{
  fill: #000000;
  stroke: #000000;
  stroke-linecap:round;
  stroke-linejoin:round;
  stroke-width: 2.84193;
}
.l1{
  fill: #00ccee;
  stroke: #00ccee;
  stroke-linecap:round;
  stroke-linejoin:round;
  stroke-width: 2.84193;
}
.l2{
  fill: #4f4f4f; fill-opacity: 0.2;
  stroke: #4f4f4f;
  stroke-linecap:round;
  stroke-linejoin:round;
  stroke-width: 2.84193;
}
.l3{
  fill: #cccccc; fill-opacity: 0.5;
  stroke: #cccccc;
  stroke-linecap:round;
  stroke-linejoin:round;
  stroke-width: 2.84193;
}
.l4{
  fill: #88dd00;
  stroke: #88dd00;
  stroke-linecap:round;
  stroke-linejoin:round;
  stroke-width: 2.84193;
}
.l5{
  fill: #bb2200;
  stroke: #bb2200;
  stroke-linecap:round;
  stroke-linejoin:round;
  stroke-width: 2.84193;
}
.l6{
  fill: #00ccee; fill-opacity: 0.5;
  stroke: #00ccee;
  stroke-linecap:round;
  stroke-linejoin:round;
  stroke-width: 2.84193;
}
.l7{
  fill: #ff0000; fill-opacity: 0.5;
  stroke: #ff0000;
  stroke-linecap:round;
  stroke-linejoin:round;
  stroke-width: 2.84193;
}
.l8{
  fill: #ffff00; fill-opacity: 0.5;
  stroke: #ffff00;
  stroke-linecap:round;
  stroke-linejoin:round;
  stroke-width: 2.84193;
}
.l9{
  fill: #ffffff; fill-opacity: 0.5;
  stroke: #ffffff;
  stroke-linecap:round;
  stroke-linejoin:round;
  stroke-width: 2.84193;
}
.l10{
  fill: #ff00ff;
  stroke: #ff00ff;
  stroke-linecap:round;
  stroke-linejoin:round;
  stroke-width: 2.84193;
}
.l11{
  fill: #00ff00; fill-opacity: 0.5;
  stroke: #00ff00;
  stroke-linecap:round;
  stroke-linejoin:round;
  stroke-width: 2.84193;
}
.l12{
  fill: #0044ff; fill-opacity: 0.5;
  stroke: #0044ff;
  stroke-linecap:round;
  stroke-linejoin:round;
  stroke-width: 2.84193;
}
.l13{
  fill: #aaaa00; fill-opacity: 0.5;
  stroke: #aaaa00;
  stroke-linecap:round;
  stroke-linejoin:round;
  stroke-width: 2.84193;
}
.l14{
  fill: #aaccaa; fill-opacity: 0.2;
  stroke: #aaccaa;
  stroke-linecap:round;
  stroke-linejoin:round;
  stroke-width: 2.84193;
}
.l15{
  fill: #ff7777; fill-opacity: 0.5;
  stroke: #ff7777;
  stroke-linecap:round;
  stroke-linejoin:round;
  stroke-width: 2.84193;
}
.l16{
  fill: #bfff81; fill-opacity: 0.5;
  stroke: #bfff81;
  stroke-linecap:round;
  stroke-linejoin:round;
  stroke-width: 2.84193;
}
.l17{
  fill: #00ffcc; fill-opacity: 0.2;
  stroke: #00ffcc;
  stroke-linecap:round;
  stroke-linejoin:round;
  stroke-width: 2.84193;
}
.l18{
  fill: #ce0097; fill-opacity: 0.5;
  stroke: #ce0097;
  stroke-linecap:round;
  stroke-linejoin:round;
  stroke-width: 2.84193;
}
.l19{
  fill: #d2d46b; fill-opacity: 0.2;
  stroke: #d2d46b;
  stroke-linecap:round;
  stroke-linejoin:round;
  stroke-width: 2.84193;
}
.l20{
  fill: #ef6158; fill-opacity: 0.2;
  stroke: #ef6158;
  stroke-linecap:round;
  stroke-linejoin:round;
  stroke-width: 2.84193;
}
.l21{
  fill: #fdb200; fill-opacity: 0.2;
  stroke: #fdb200;
  stroke-linecap:round;
  stroke-linejoin:round;
  stroke-width: 2.84193;
}
text {font-family: Sans-Serif;}
</style>
<rect class="l0" x="0" y="0" width="1920" height="947"/>
<path class="l4" d="M28.8 606.142L176.159 606.142"/>
<path class="l4" d="M28.8 606.142L28.8 648.245"/>
<path class="l4" d="M849.803 227.218L849.803 258.795"/>
<path class="l4" d="M818.226 258.795L849.803 258.795"/>
<path class="l4" d="M818.226 246.953L818.226 333.79"/>
<path class="l4" d="M818.226 321.949L849.803 321.949"/>
<path class="l4" d="M849.803 321.949L849.803 353.526"/>
<path class="l4" d="M810.332 258.795L810.332 321.949"/>
<path class="l4" d="M786.649 290.372L798.49 290.372"/>
<circle class="l4" cx="804.411" cy="290.372" r="5.92069" style="fill:none;" />
<path class="l4" d="M1144.52 227.218L1144.52 258.795"/>
<path class="l4" d="M1112.94 258.795L1144.52 258.795"/>
<path class="l4" d="M1112.94 246.953L1112.94 333.79"/>
<path class="l4" d="M1112.94 321.949L1144.52 321.949"/>
<path class="l4" d="M1144.52 321.949L1144.52 353.526"/>
<path class="l4" d="M1105.05 258.795L1105.05 321.949"/>
<path class="l4" d="M1081.37 290.372L1093.21 290.372"/>
<circle class="l4" cx="1099.13" cy="290.372" r="5.92069" style="fill:none;" />
<path class="l4" d="M1439.24 227.218L1439.24 258.795"/>
<path class="l4" d="M1407.66 258.795L1439.24 258.795"/>
<path class="l4" d="M1407.66 246.953L1407.66 333.79"/>
<path class="l4" d="M1407.66 321.949L1439.24 321.949"/>
<path class="l4" d="M1439.24 321.949L1439.24 353.526"/>
<path class="l4" d="M1399.77 258.795L1399.77 321.949"/>
<path class="l4" d="M1376.09 290.372L1387.93 290.372"/>
<circle class="l4" cx="1393.85" cy="290.372" r="5.92069" style="fill:none;" />
<path class="l4" d="M1733.96 227.218L1733.96 258.795"/>
<path class="l4" d="M1702.38 258.795L1733.96 258.795"/>
<path class="l4" d="M1702.38 246.953L1702.38 333.79"/>
<path class="l4" d="M1702.38 321.949L1733.96 321.949"/>
<path class="l4" d="M1733.96 321.949L1733.96 353.526"/>
<path class="l4" d="M1694.49 258.795L1694.49 321.949"/>
<path class="l4" d="M1670.81 290.372L1682.65 290.372"/>
<circle class="l4" cx="1688.57" cy="290.372" r="5.92069" style="fill:none;" />
<path class="l4" d="M849.803 585.091L849.803 616.668"/>
<path class="l4" d="M818.226 616.668L849.803 616.668"/>
<path class="l4" d="M818.226 604.826L818.226 691.663"/>
<path class="l4" d="M818.226 679.822L849.803 679.822"/>
<path class="l4" d="M849.803 679.822L849.803 711.399"/>
<path class="l4" d="M810.332 616.668L810.332 679.822"/>
<path class="l4" d="M786.649 648.245L810.332 648.245"/>
<path class="l4" d="M1144.52 585.091L1144.52 616.668"/>
<path class="l4" d="M1112.94 616.668L1144.52 616.668"/>
<path class="l4" d="M1112.94 604.826L1112.94 691.663"/>
<path class="l4" d="M1112.94 679.822L1144.52 679.822"/>
<path class="l4" d="M1144.52 679.822L1144.52 711.399"/>
<path class="l4" d="M1105.05 616.668L1105.05 679.822"/>
<path class="l4" d="M1081.37 648.245L1105.05 648.245"/>
<path class="l4" d="M1439.24 585.091L1439.24 616.668"/>
<path class="l4" d="M1407.66 616.668L1439.24 616.668"/>
<path class="l4" d="M1407.66 604.826L1407.66 691.663"/>
<path class="l4" d="M1407.66 679.822L1439.24 679.822"/>
<path class="l4" d="M1439.24 679.822L1439.24 711.399"/>
<path class="l4" d="M1399.77 616.668L1399.77 679.822"/>
<path class="l4" d="M1376.09 648.245L1399.77 648.245"/>
<path class="l4" d="M1733.96 585.091L1733.96 616.668"/>
<path class="l4" d="M1702.38 616.668L1733.96 616.668"/>
<path class="l4" d="M1702.38 604.826L1702.38 691.663"/>
<path class="l4" d="M1702.38 679.822L1733.96 679.822"/>
<path class="l4" d="M1733.96 679.822L1733.96 711.399"/>
<path class="l4" d="M1694.49 616.668L1694.49 679.822"/>
<path class="l4" d="M1670.81 648.245L1694.49 648.245"/>
<path class="l5" d="M848.75 352.473L850.855 352.473L850.855 354.578L848.75 354.578L848.75 352.473z"/>
<path class="l5" d="M785.596 289.319L787.701 289.319L787.701 291.424L785.596 291.424L785.596 289.319z"/>
<path class="l5" d="M848.75 226.165L850.855 226.165L850.855 228.27L848.75 228.27L848.75 226.165z"/>
<path class="l5" d="M1143.47 352.473L1145.57 352.473L1145.57 354.578L1143.47 354.578L1143.47 352.473z"/>
<path class="l5" d="M1080.32 289.319L1082.42 289.319L1082.42 291.424L1080.32 291.424L1080.32 289.319z"/>
<path class="l5" d="M1143.47 226.165L1145.57 226.165L1145.57 228.27L1143.47 228.27L1143.47 226.165z"/>
<path class="l5" d="M1438.19 352.473L1440.29 352.473L1440.29 354.578L1438.19 354.578L1438.19 352.473z"/>
<path class="l5" d="M1375.03 289.319L1377.14 289.319L1377.14 291.424L1375.03 291.424L1375.03 289.319z"/>
<path class="l5" d="M1438.19 226.165L1440.29 226.165L1440.29 228.27L1438.19 228.27L1438.19 226.165z"/>
<path class="l5" d="M1732.91 352.473L1735.01 352.473L1735.01 354.578L1732.91 354.578L1732.91 352.473z"/>
<path class="l5" d="M1669.75 289.319L1671.86 289.319L1671.86 291.424L1669.75 291.424L1669.75 289.319z"/>
<path class="l5" d="M1732.91 226.165L1735.01 226.165L1735.01 228.27L1732.91 228.27L1732.91 226.165z"/>
<path class="l5" d="M848.75 584.038L850.855 584.038L850.855 586.143L848.75 586.143L848.75 584.038z"/>
<path class="l5" d="M785.596 647.192L787.701 647.192L787.701 649.297L785.596 649.297L785.596 647.192z"/>
<path class="l5" d="M848.75 710.346L850.855 710.346L850.855 712.451L848.75 712.451L848.75 710.346z"/>
<path class="l5" d="M1143.47 584.038L1145.57 584.038L1145.57 586.143L1143.47 586.143L1143.47 584.038z"/>
<path class="l5" d="M1080.32 647.192L1082.42 647.192L1082.42 649.297L1080.32 649.297L1080.32 647.192z"/>
<path class="l5" d="M1143.47 710.346L1145.57 710.346L1145.57 712.451L1143.47 712.451L1143.47 710.346z"/>
<path class="l5" d="M1438.19 584.038L1440.29 584.038L1440.29 586.143L1438.19 586.143L1438.19 584.038z"/>
<path class="l5" d="M1375.03 647.192L1377.14 647.192L1377.14 649.297L1375.03 649.297L1375.03 647.192z"/>
<path class="l5" d="M1438.19 710.346L1440.29 710.346L1440.29 712.451L1438.19 712.451L1438.19 710.346z"/>
<path class="l5" d="M1732.91 584.038L1735.01 584.038L1735.01 586.143L1732.91 586.143L1732.91 584.038z"/>
<path class="l5" d="M1669.75 647.192L1671.86 647.192L1671.86 649.297L1669.75 649.297L1669.75 647.192z"/>
<path class="l5" d="M1732.91 710.346L1735.01 710.346L1735.01 712.451L1732.91 712.451L1732.91 710.346z"/>
<path class="l5" d="M1144.52 711.399L1144.52 717.977"/>
<path class="l5" d="M1155.05 740.344L1144.52 748.239L1134 740.344L1134 725.872L1144.52 717.977L1155.05 725.872L1155.05 740.344"/>
<path class="l5" d="M1141.89 708.767L1147.15 708.767L1147.15 714.03L1141.89 714.03L1141.89 708.767z"/>
<path class="l5" d="M744.546 711.399L744.546 729.819"/>
<path class="l5" d="M744.546 748.239L734.02 740.344L734.02 721.924L744.546 729.819L755.072 721.924L755.072 740.344L744.546 748.239"/>
<path class="l5" d="M741.915 708.767L747.178 708.767L747.178 714.03L741.915 714.03L741.915 708.767z"/>
<path class="l5" d="M849.803 220.639L849.803 227.218"/>
<path class="l5" d="M839.277 198.272L849.803 190.378L860.329 198.272L860.329 212.745L849.803 220.639L839.277 212.745L839.277 198.272"/>
<path class="l5" d="M847.171 224.586L852.434 224.586L852.434 229.849L847.171 229.849L847.171 224.586z"/>
<path class="l5" d="M744.546 216.692L744.546 227.218"/>
<path class="l5" d="M744.546 216.692L734.02 208.798L734.02 190.378L744.546 198.272L755.072 190.378L755.072 208.798L744.546 216.692"/>
<path class="l5" d="M741.915 224.586L747.178 224.586L747.178 229.849L741.915 229.849L741.915 224.586z"/>
<text fill="#cccccc"  xml:space="preserve" font-size="32.8401" transform="translate(39.3257, 593.858)" >SPICE</text>
<text fill="#cccccc"  xml:space="preserve" font-size="32.8401" style="font-family:Monospace;" transform="translate(60.377, 646.486)" >.param wid=3 len=4</text>
<text fill="#cccccc"  xml:space="preserve" font-size="21.8934" transform="translate(860.329, 247.885)" >M23</text>
<text fill="#cccccc"  xml:space="preserve" font-size="21.8934" transform="translate(860.329, 279.462)" >pfet_01v8</text>
<text fill="#aaaa00"  xml:space="preserve" font-size="21.8934" transform="translate(860.329, 311.039)" >1 x {wid} / {len}</text>
<text fill="#cccccc"  xml:space="preserve" font-size="21.8934" transform="translate(1155.05, 247.885)" >M24</text>
<text fill="#cccccc"  xml:space="preserve" font-size="21.8934" transform="translate(1155.05, 279.462)" >pfet_01v8</text>
<text fill="#aaaa00"  xml:space="preserve" font-size="21.8934" transform="translate(1155.05, 311.039)" >1 x {wid} / {len}</text>
<text fill="#cccccc"  xml:space="preserve" font-size="21.8934" transform="translate(1449.77, 247.885)" >M25</text>
<text fill="#cccccc"  xml:space="preserve" font-size="21.8934" transform="translate(1449.77, 279.462)" >pfet_01v8</text>
<text fill="#aaaa00"  xml:space="preserve" font-size="21.8934" transform="translate(1449.77, 311.039)" >1 x {wid} / {len}</text>
<text fill="#cccccc"  xml:space="preserve" font-size="21.8934" transform="translate(1744.49, 247.885)" >M26</text>
<text fill="#cccccc"  xml:space="preserve" font-size="21.8934" transform="translate(1744.49, 279.462)" >pfet_01v8</text>
<text fill="#aaaa00"  xml:space="preserve" font-size="21.8934" transform="translate(1744.49, 311.039)" >1 x {wid} / {len}</text>
<text fill="#cccccc"  xml:space="preserve" font-size="21.8934" transform="translate(860.329, 637.335)" >M37</text>
<text fill="#cccccc"  xml:space="preserve" font-size="21.8934" transform="translate(860.329, 668.912)" >nfet_01v8</text>
<text fill="#aaaa00"  xml:space="preserve" font-size="21.8934" transform="translate(860.329, 700.489)" >1 x {wid} / {len}</text>
<text fill="#cccccc"  xml:space="preserve" font-size="21.8934" transform="translate(1155.05, 637.335)" >M38</text>
<text fill="#cccccc"  xml:space="preserve" font-size="21.8934" transform="translate(1155.05, 668.912)" >nfet_01v8</text>
<text fill="#aaaa00"  xml:space="preserve" font-size="21.8934" transform="translate(1155.05, 700.489)" >1 x {wid} / {len}</text>
<text fill="#cccccc"  xml:space="preserve" font-size="21.8934" transform="translate(1449.77, 637.335)" >M39</text>
<text fill="#cccccc"  xml:space="preserve" font-size="21.8934" transform="translate(1449.77, 668.912)" >nfet_01v8</text>
<text fill="#aaaa00"  xml:space="preserve" font-size="21.8934" transform="translate(1449.77, 700.489)" >1 x {wid} / {len}</text>
<text fill="#cccccc"  xml:space="preserve" font-size="21.8934" transform="translate(1744.49, 637.335)" >M40</text>
<text fill="#cccccc"  xml:space="preserve" font-size="21.8934" transform="translate(1744.49, 668.912)" >nfet_01v8</text>
<text fill="#aaaa00"  xml:space="preserve" font-size="21.8934" transform="translate(1744.49, 700.489)" >1 x {wid} / {len}</text>
<text fill="#00ccee"  xml:space="preserve" font-size="36.1241" transform="translate(1157.59, 833.173) rotate(270)" >GND</text>
<text fill="#00ccee"  xml:space="preserve" font-size="36.1241" transform="translate(758.927, 793.501) rotate(270)" >Vc</text>
<text fill="#00ccee"  xml:space="preserve" font-size="36.1241" transform="translate(860.905, 185.444) rotate(270)" >VDD</text>
<text fill="#00ccee"  xml:space="preserve" font-size="36.1241" transform="translate(758.927, 187.746) rotate(270)" >Vbp</text>
<path class="l1" d="M849.803 227.218L1144.52 227.218"/>
<path class="l1" d="M1144.52 353.526L1439.24 353.526"/>
<path class="l1" d="M1439.24 227.218L1733.96 227.218"/>
<path class="l1" d="M786.649 290.372L1081.37 290.372"/>
<path class="l1" d="M1081.37 290.372L1376.09 290.372"/>
<path class="l1" d="M1376.09 290.372L1670.81 290.372"/>
<path class="l1" d="M1081.37 648.245L1376.09 648.245"/>
<path class="l1" d="M849.803 585.091L1144.52 585.091"/>
<path class="l1" d="M1144.52 585.091L1439.24 585.091"/>
<path class="l1" d="M1439.24 585.091L1733.96 585.091"/>
<path class="l1" d="M1376.09 648.245L1670.81 648.245"/>
<path class="l1" d="M786.649 648.245L786.649 711.399"/>
<path class="l1" d="M786.649 711.399L849.803 711.399"/>
<path class="l1" d="M744.546 711.399L786.649 711.399"/>
<path class="l1" d="M744.546 416.68L744.546 711.399"/>
<path class="l1" d="M744.546 416.68L849.803 416.68"/>
<path class="l1" d="M849.803 353.526L849.803 416.68"/>
<path class="l1" d="M1733.96 353.526L1839.22 353.526"/>
<path class="l1" d="M1839.22 353.526L1839.22 648.245"/>
<path class="l1" d="M1670.81 648.245L1839.22 648.245"/>
<path class="l1" d="M1439.24 711.399L1733.96 711.399"/>
<path class="l1" d="M1733.96 711.399L1839.22 711.399"/>
<path class="l1" d="M1839.22 648.245L1839.22 711.399"/>
<path class="l1" d="M744.546 227.218L744.546 290.372"/>
<path class="l1" d="M744.546 290.372L786.649 290.372"/>
<circle class="l1" cx="786.649" cy="711.399" r="7.789"/>
<circle class="l1" cx="786.649" cy="711.399" r="7.789"/>
<circle class="l1" cx="786.649" cy="711.399" r="7.789"/>
<circle class="l1" cx="1839.22" cy="648.245" r="7.789"/>
<circle class="l1" cx="1839.22" cy="648.245" r="7.789"/>
<circle class="l1" cx="1839.22" cy="648.245" r="7.789"/>
</svg>
