<svg xmlns="http://www.w3.org/2000/svg" xmlns:xlink="http://www.w3.org/1999/xlink" width="1920" height="947" version="1.1">
<style type="text/css">
.l0{
  fill: #000000;
  stroke: #000000;
  stroke-linecap:round;
  stroke-linejoin:round;
  stroke-width: 0.739588;
}
.l1{
  fill: #00ccee;
  stroke: #00ccee;
  stroke-linecap:round;
  stroke-linejoin:round;
  stroke-width: 0.739588;
}
.l2{
  fill: #4f4f4f; fill-opacity: 0.2;
  stroke: #4f4f4f;
  stroke-linecap:round;
  stroke-linejoin:round;
  stroke-width: 0.739588;
}
.l3{
  fill: #cccccc; fill-opacity: 0.5;
  stroke: #cccccc;
  stroke-linecap:round;
  stroke-linejoin:round;
  stroke-width: 0.739588;
}
.l4{
  fill: #88dd00;
  stroke: #88dd00;
  stroke-linecap:round;
  stroke-linejoin:round;
  stroke-width: 0.739588;
}
.l5{
  fill: #bb2200;
  stroke: #bb2200;
  stroke-linecap:round;
  stroke-linejoin:round;
  stroke-width: 0.739588;
}
.l6{
  fill: #00ccee; fill-opacity: 0.5;
  stroke: #00ccee;
  stroke-linecap:round;
  stroke-linejoin:round;
  stroke-width: 0.739588;
}
.l7{
  fill: #ff0000; fill-opacity: 0.5;
  stroke: #ff0000;
  stroke-linecap:round;
  stroke-linejoin:round;
  stroke-width: 0.739588;
}
.l8{
  fill: #ffff00; fill-opacity: 0.5;
  stroke: #ffff00;
  stroke-linecap:round;
  stroke-linejoin:round;
  stroke-width: 0.739588;
}
.l9{
  fill: #ffffff; fill-opacity: 0.5;
  stroke: #ffffff;
  stroke-linecap:round;
  stroke-linejoin:round;
  stroke-width: 0.739588;
}
.l10{
  fill: #ff00ff;
  stroke: #ff00ff;
  stroke-linecap:round;
  stroke-linejoin:round;
  stroke-width: 0.739588;
}
.l11{
  fill: #00ff00; fill-opacity: 0.5;
  stroke: #00ff00;
  stroke-linecap:round;
  stroke-linejoin:round;
  stroke-width: 0.739588;
}
.l12{
  fill: #0044ff; fill-opacity: 0.5;
  stroke: #0044ff;
  stroke-linecap:round;
  stroke-linejoin:round;
  stroke-width: 0.739588;
}
.l13{
  fill: #aaaa00; fill-opacity: 0.5;
  stroke: #aaaa00;
  stroke-linecap:round;
  stroke-linejoin:round;
  stroke-width: 0.739588;
}
.l14{
  fill: #aaccaa; fill-opacity: 0.2;
  stroke: #aaccaa;
  stroke-linecap:round;
  stroke-linejoin:round;
  stroke-width: 0.739588;
}
.l15{
  fill: #ff7777; fill-opacity: 0.5;
  stroke: #ff7777;
  stroke-linecap:round;
  stroke-linejoin:round;
  stroke-width: 0.739588;
}
.l16{
  fill: #bfff81; fill-opacity: 0.5;
  stroke: #bfff81;
  stroke-linecap:round;
  stroke-linejoin:round;
  stroke-width: 0.739588;
}
.l17{
  fill: #00ffcc; fill-opacity: 0.2;
  stroke: #00ffcc;
  stroke-linecap:round;
  stroke-linejoin:round;
  stroke-width: 0.739588;
}
.l18{
  fill: #ce0097; fill-opacity: 0.5;
  stroke: #ce0097;
  stroke-linecap:round;
  stroke-linejoin:round;
  stroke-width: 0.739588;
}
.l19{
  fill: #d2d46b; fill-opacity: 0.2;
  stroke: #d2d46b;
  stroke-linecap:round;
  stroke-linejoin:round;
  stroke-width: 0.739588;
}
.l20{
  fill: #ef6158; fill-opacity: 0.2;
  stroke: #ef6158;
  stroke-linecap:round;
  stroke-linejoin:round;
  stroke-width: 0.739588;
}
.l21{
  fill: #fdb200; fill-opacity: 0.2;
  stroke: #fdb200;
  stroke-linecap:round;
  stroke-linejoin:round;
  stroke-width: 0.739588;
}
text {font-family: Sans-Serif;}
</style>
<rect class="l0" x="0" y="0" width="1920" height="947"/>
<path class="l4" d="M595.856 230.964L634.205 230.964"/>
<path class="l4" d="M595.856 230.964L595.856 241.921"/>
<path class="l4" d="M1294.36 126.874L1302.57 126.874"/>
<path class="l4" d="M1294.36 118.656L1294.36 126.874"/>
<path class="l4" d="M1274.84 118.656L1297.44 118.656"/>
<path class="l4" d="M1277.92 118.656L1277.92 126.874"/>
<path class="l4" d="M1269.7 126.874L1277.92 126.874"/>
<path class="l4" d="M1277.92 116.602L1294.36 116.602"/>
<path class="l4" d="M1286.14 110.438L1286.14 113.52"/>
<circle class="l4" cx="1286.14" cy="115.061" r="1.54081" style="fill:none;" />
<path class="l4" d="M1195.74 126.874L1203.96 126.874"/>
<path class="l4" d="M1195.74 118.656L1195.74 126.874"/>
<path class="l4" d="M1176.23 118.656L1198.83 118.656"/>
<path class="l4" d="M1179.31 118.656L1179.31 126.874"/>
<path class="l4" d="M1171.09 126.874L1179.31 126.874"/>
<path class="l4" d="M1179.31 116.602L1195.74 116.602"/>
<path class="l4" d="M1187.53 110.438L1187.53 113.52"/>
<circle class="l4" cx="1187.53" cy="115.061" r="1.54081" style="fill:none;" />
<path class="l4" d="M1195.74 252.877L1203.96 252.877"/>
<path class="l4" d="M1195.74 244.66L1195.74 252.877"/>
<path class="l4" d="M1176.23 244.66L1198.83 244.66"/>
<path class="l4" d="M1179.31 244.66L1179.31 252.877"/>
<path class="l4" d="M1171.09 252.877L1179.31 252.877"/>
<path class="l4" d="M1179.31 242.605L1195.74 242.605"/>
<path class="l4" d="M1187.53 236.442L1187.53 239.524"/>
<circle class="l4" cx="1187.53" cy="241.065" r="1.54081" style="fill:none;" />
<path class="l4" d="M1261.48 252.877L1269.7 252.877"/>
<path class="l4" d="M1261.48 244.66L1261.48 252.877"/>
<path class="l4" d="M1241.97 244.66L1264.57 244.66"/>
<path class="l4" d="M1245.05 244.66L1245.05 252.877"/>
<path class="l4" d="M1236.83 252.877L1245.05 252.877"/>
<path class="l4" d="M1245.05 242.605L1261.48 242.605"/>
<path class="l4" d="M1253.27 236.442L1253.27 239.524"/>
<circle class="l4" cx="1253.27" cy="241.065" r="1.54081" style="fill:none;" />
<path class="l4" d="M1261.48 296.705L1269.7 296.705"/>
<path class="l4" d="M1261.48 288.487L1261.48 296.705"/>
<path class="l4" d="M1241.97 288.487L1264.57 288.487"/>
<path class="l4" d="M1245.05 288.487L1245.05 296.705"/>
<path class="l4" d="M1236.83 296.705L1245.05 296.705"/>
<path class="l4" d="M1245.05 286.433L1261.48 286.433"/>
<path class="l4" d="M1253.27 280.27L1253.27 283.351"/>
<circle class="l4" cx="1253.27" cy="284.892" r="1.54081" style="fill:none;" />
<path class="l4" d="M1195.74 165.223L1203.96 165.223"/>
<path class="l4" d="M1195.74 157.005L1195.74 165.223"/>
<path class="l4" d="M1176.23 157.005L1198.83 157.005"/>
<path class="l4" d="M1179.31 157.005L1179.31 165.223"/>
<path class="l4" d="M1171.09 165.223L1179.31 165.223"/>
<path class="l4" d="M1179.31 154.951L1195.74 154.951"/>
<path class="l4" d="M1187.53 148.787L1187.53 151.869"/>
<circle class="l4" cx="1187.53" cy="153.41" r="1.54081" style="fill:none;" />
<path class="l4" d="M1195.74 417.23L1203.96 417.23"/>
<path class="l4" d="M1195.74 409.013L1195.74 417.23"/>
<path class="l4" d="M1176.23 409.013L1198.83 409.013"/>
<path class="l4" d="M1179.31 409.013L1179.31 417.23"/>
<path class="l4" d="M1171.09 417.23L1179.31 417.23"/>
<path class="l4" d="M1179.31 406.958L1195.74 406.958"/>
<path class="l4" d="M1187.53 400.795L1187.53 403.877"/>
<circle class="l4" cx="1187.53" cy="405.417" r="1.54081" style="fill:none;" />
<path class="l4" d="M1261.48 417.23L1269.7 417.23"/>
<path class="l4" d="M1261.48 409.013L1261.48 417.23"/>
<path class="l4" d="M1241.97 409.013L1264.57 409.013"/>
<path class="l4" d="M1245.05 409.013L1245.05 417.23"/>
<path class="l4" d="M1236.83 417.23L1245.05 417.23"/>
<path class="l4" d="M1245.05 406.958L1261.48 406.958"/>
<path class="l4" d="M1253.27 400.795L1253.27 403.877"/>
<circle class="l4" cx="1253.27" cy="405.417" r="1.54081" style="fill:none;" />
<path class="l4" d="M1261.48 461.058L1269.7 461.058"/>
<path class="l4" d="M1261.48 452.84L1261.48 461.058"/>
<path class="l4" d="M1241.97 452.84L1264.57 452.84"/>
<path class="l4" d="M1245.05 452.84L1245.05 461.058"/>
<path class="l4" d="M1236.83 461.058L1245.05 461.058"/>
<path class="l4" d="M1245.05 450.786L1261.48 450.786"/>
<path class="l4" d="M1253.27 444.622L1253.27 447.704"/>
<circle class="l4" cx="1253.27" cy="449.245" r="1.54081" style="fill:none;" />
<path class="l4" d="M1195.74 581.583L1203.96 581.583"/>
<path class="l4" d="M1195.74 573.365L1195.74 581.583"/>
<path class="l4" d="M1176.23 573.365L1198.83 573.365"/>
<path class="l4" d="M1179.31 573.365L1179.31 581.583"/>
<path class="l4" d="M1171.09 581.583L1179.31 581.583"/>
<path class="l4" d="M1179.31 571.311L1195.74 571.311"/>
<path class="l4" d="M1187.53 565.148L1187.53 568.229"/>
<circle class="l4" cx="1187.53" cy="569.77" r="1.54081" style="fill:none;" />
<path class="l4" d="M1261.48 581.583L1269.7 581.583"/>
<path class="l4" d="M1261.48 573.365L1261.48 581.583"/>
<path class="l4" d="M1241.97 573.365L1264.57 573.365"/>
<path class="l4" d="M1245.05 573.365L1245.05 581.583"/>
<path class="l4" d="M1236.83 581.583L1245.05 581.583"/>
<path class="l4" d="M1245.05 571.311L1261.48 571.311"/>
<path class="l4" d="M1253.27 565.148L1253.27 568.229"/>
<circle class="l4" cx="1253.27" cy="569.77" r="1.54081" style="fill:none;" />
<path class="l4" d="M1261.48 625.41L1269.7 625.41"/>
<path class="l4" d="M1261.48 617.193L1261.48 625.41"/>
<path class="l4" d="M1241.97 617.193L1264.57 617.193"/>
<path class="l4" d="M1245.05 617.193L1245.05 625.41"/>
<path class="l4" d="M1236.83 625.41L1245.05 625.41"/>
<path class="l4" d="M1245.05 615.138L1261.48 615.138"/>
<path class="l4" d="M1253.27 608.975L1253.27 612.057"/>
<circle class="l4" cx="1253.27" cy="613.598" r="1.54081" style="fill:none;" />
<path class="l4" d="M1195.74 745.936L1203.96 745.936"/>
<path class="l4" d="M1195.74 737.718L1195.74 745.936"/>
<path class="l4" d="M1176.23 737.718L1198.83 737.718"/>
<path class="l4" d="M1179.31 737.718L1179.31 745.936"/>
<path class="l4" d="M1171.09 745.936L1179.31 745.936"/>
<path class="l4" d="M1179.31 735.664L1195.74 735.664"/>
<path class="l4" d="M1187.53 729.501L1187.53 732.582"/>
<circle class="l4" cx="1187.53" cy="734.123" r="1.54081" style="fill:none;" />
<path class="l4" d="M1261.48 745.936L1269.7 745.936"/>
<path class="l4" d="M1261.48 737.718L1261.48 745.936"/>
<path class="l4" d="M1241.97 737.718L1264.57 737.718"/>
<path class="l4" d="M1245.05 737.718L1245.05 745.936"/>
<path class="l4" d="M1236.83 745.936L1245.05 745.936"/>
<path class="l4" d="M1245.05 735.664L1261.48 735.664"/>
<path class="l4" d="M1253.27 729.501L1253.27 732.582"/>
<circle class="l4" cx="1253.27" cy="734.123" r="1.54081" style="fill:none;" />
<path class="l4" d="M1261.48 789.763L1269.7 789.763"/>
<path class="l4" d="M1261.48 781.546L1261.48 789.763"/>
<path class="l4" d="M1241.97 781.546L1264.57 781.546"/>
<path class="l4" d="M1245.05 781.546L1245.05 789.763"/>
<path class="l4" d="M1236.83 789.763L1245.05 789.763"/>
<path class="l4" d="M1245.05 779.491L1261.48 779.491"/>
<path class="l4" d="M1253.27 773.328L1253.27 776.41"/>
<circle class="l4" cx="1253.27" cy="777.95" r="1.54081" style="fill:none;" />
<path class="l4" d="M1195.74 789.763L1203.96 789.763"/>
<path class="l4" d="M1195.74 781.546L1195.74 789.763"/>
<path class="l4" d="M1176.23 781.546L1198.83 781.546"/>
<path class="l4" d="M1179.31 781.546L1179.31 789.763"/>
<path class="l4" d="M1171.09 789.763L1179.31 789.763"/>
<path class="l4" d="M1179.31 779.491L1195.74 779.491"/>
<path class="l4" d="M1187.53 773.328L1187.53 776.41"/>
<circle class="l4" cx="1187.53" cy="777.95" r="1.54081" style="fill:none;" />
<path class="l4" d="M1130 745.936L1138.22 745.936"/>
<path class="l4" d="M1130 745.936L1130 754.153"/>
<path class="l4" d="M1110.49 754.153L1133.08 754.153"/>
<path class="l4" d="M1113.57 745.936L1113.57 754.153"/>
<path class="l4" d="M1105.35 745.936L1113.57 745.936"/>
<path class="l4" d="M1113.57 756.208L1130 756.208"/>
<path class="l4" d="M1121.78 756.208L1121.78 762.371"/>
<path class="l4" d="M1149.18 745.936L1154.66 745.936"/>
<path class="l4" d="M1145.75 742.854L1158.08 742.854"/>
<path class="l4" d="M1149.86 743.881L1150.89 744.395"/>
<path class="l4" d="M1148.58 743.368L1149.86 743.881"/>
<path class="l4" d="M1147.81 743.111L1148.58 743.368"/>
<path class="l4" d="M1146.27 742.854L1147.81 743.111"/>
<path class="l4" d="M1146.27 742.854L1147.81 742.597"/>
<path class="l4" d="M1147.81 742.597L1148.58 742.341"/>
<path class="l4" d="M1148.58 742.341L1149.86 741.827"/>
<path class="l4" d="M1149.86 741.827L1150.89 741.313"/>
<path class="l4" d="M820.471 126.874L828.689 126.874"/>
<path class="l4" d="M828.689 118.656L828.689 126.874"/>
<path class="l4" d="M825.607 118.656L848.206 118.656"/>
<path class="l4" d="M845.124 118.656L845.124 126.874"/>
<path class="l4" d="M845.124 126.874L853.342 126.874"/>
<path class="l4" d="M828.689 116.602L845.124 116.602"/>
<path class="l4" d="M836.907 110.438L836.907 113.52"/>
<circle class="l4" cx="836.907" cy="115.061" r="1.54081" style="fill:none;" />
<path class="l4" d="M919.083 126.874L927.301 126.874"/>
<path class="l4" d="M927.301 118.656L927.301 126.874"/>
<path class="l4" d="M924.219 118.656L946.818 118.656"/>
<path class="l4" d="M943.736 118.656L943.736 126.874"/>
<path class="l4" d="M943.736 126.874L951.954 126.874"/>
<path class="l4" d="M927.301 116.602L943.736 116.602"/>
<path class="l4" d="M935.518 110.438L935.518 113.52"/>
<circle class="l4" cx="935.518" cy="115.061" r="1.54081" style="fill:none;" />
<path class="l4" d="M919.083 252.877L927.301 252.877"/>
<path class="l4" d="M927.301 244.66L927.301 252.877"/>
<path class="l4" d="M924.219 244.66L946.818 244.66"/>
<path class="l4" d="M943.736 244.66L943.736 252.877"/>
<path class="l4" d="M943.736 252.877L951.954 252.877"/>
<path class="l4" d="M927.301 242.605L943.736 242.605"/>
<path class="l4" d="M935.518 236.442L935.518 239.524"/>
<circle class="l4" cx="935.518" cy="241.065" r="1.54081" style="fill:none;" />
<path class="l4" d="M853.342 252.877L861.56 252.877"/>
<path class="l4" d="M861.56 244.66L861.56 252.877"/>
<path class="l4" d="M858.478 244.66L881.076 244.66"/>
<path class="l4" d="M877.995 244.66L877.995 252.877"/>
<path class="l4" d="M877.995 252.877L886.212 252.877"/>
<path class="l4" d="M861.56 242.605L877.995 242.605"/>
<path class="l4" d="M869.777 236.442L869.777 239.524"/>
<circle class="l4" cx="869.777" cy="241.065" r="1.54081" style="fill:none;" />
<path class="l4" d="M853.342 296.705L861.56 296.705"/>
<path class="l4" d="M861.56 288.487L861.56 296.705"/>
<path class="l4" d="M858.478 288.487L881.076 288.487"/>
<path class="l4" d="M877.995 288.487L877.995 296.705"/>
<path class="l4" d="M877.995 296.705L886.212 296.705"/>
<path class="l4" d="M861.56 286.433L877.995 286.433"/>
<path class="l4" d="M869.777 280.27L869.777 283.351"/>
<circle class="l4" cx="869.777" cy="284.892" r="1.54081" style="fill:none;" />
<path class="l4" d="M919.083 165.223L927.301 165.223"/>
<path class="l4" d="M927.301 157.005L927.301 165.223"/>
<path class="l4" d="M924.219 157.005L946.818 157.005"/>
<path class="l4" d="M943.736 157.005L943.736 165.223"/>
<path class="l4" d="M943.736 165.223L951.954 165.223"/>
<path class="l4" d="M927.301 154.951L943.736 154.951"/>
<path class="l4" d="M935.518 148.787L935.518 151.869"/>
<circle class="l4" cx="935.518" cy="153.41" r="1.54081" style="fill:none;" />
<path class="l4" d="M919.083 417.23L927.301 417.23"/>
<path class="l4" d="M927.301 409.013L927.301 417.23"/>
<path class="l4" d="M924.219 409.013L946.818 409.013"/>
<path class="l4" d="M943.736 409.013L943.736 417.23"/>
<path class="l4" d="M943.736 417.23L951.954 417.23"/>
<path class="l4" d="M927.301 406.958L943.736 406.958"/>
<path class="l4" d="M935.518 400.795L935.518 403.877"/>
<circle class="l4" cx="935.518" cy="405.417" r="1.54081" style="fill:none;" />
<path class="l4" d="M853.342 417.23L861.56 417.23"/>
<path class="l4" d="M861.56 409.013L861.56 417.23"/>
<path class="l4" d="M858.478 409.013L881.076 409.013"/>
<path class="l4" d="M877.995 409.013L877.995 417.23"/>
<path class="l4" d="M877.995 417.23L886.212 417.23"/>
<path class="l4" d="M861.56 406.958L877.995 406.958"/>
<path class="l4" d="M869.777 400.795L869.777 403.877"/>
<circle class="l4" cx="869.777" cy="405.417" r="1.54081" style="fill:none;" />
<path class="l4" d="M853.342 461.058L861.56 461.058"/>
<path class="l4" d="M861.56 452.84L861.56 461.058"/>
<path class="l4" d="M858.478 452.84L881.076 452.84"/>
<path class="l4" d="M877.995 452.84L877.995 461.058"/>
<path class="l4" d="M877.995 461.058L886.212 461.058"/>
<path class="l4" d="M861.56 450.786L877.995 450.786"/>
<path class="l4" d="M869.777 444.622L869.777 447.704"/>
<circle class="l4" cx="869.777" cy="449.245" r="1.54081" style="fill:none;" />
<path class="l4" d="M919.083 581.583L927.301 581.583"/>
<path class="l4" d="M927.301 573.365L927.301 581.583"/>
<path class="l4" d="M924.219 573.365L946.818 573.365"/>
<path class="l4" d="M943.736 573.365L943.736 581.583"/>
<path class="l4" d="M943.736 581.583L951.954 581.583"/>
<path class="l4" d="M927.301 571.311L943.736 571.311"/>
<path class="l4" d="M935.518 565.148L935.518 568.229"/>
<circle class="l4" cx="935.518" cy="569.77" r="1.54081" style="fill:none;" />
<path class="l4" d="M853.342 581.583L861.56 581.583"/>
<path class="l4" d="M861.56 573.365L861.56 581.583"/>
<path class="l4" d="M858.478 573.365L881.076 573.365"/>
<path class="l4" d="M877.995 573.365L877.995 581.583"/>
<path class="l4" d="M877.995 581.583L886.212 581.583"/>
<path class="l4" d="M861.56 571.311L877.995 571.311"/>
<path class="l4" d="M869.777 565.148L869.777 568.229"/>
<circle class="l4" cx="869.777" cy="569.77" r="1.54081" style="fill:none;" />
<path class="l4" d="M853.342 625.41L861.56 625.41"/>
<path class="l4" d="M861.56 617.193L861.56 625.41"/>
<path class="l4" d="M858.478 617.193L881.076 617.193"/>
<path class="l4" d="M877.995 617.193L877.995 625.41"/>
<path class="l4" d="M877.995 625.41L886.212 625.41"/>
<path class="l4" d="M861.56 615.138L877.995 615.138"/>
<path class="l4" d="M869.777 608.975L869.777 612.057"/>
<circle class="l4" cx="869.777" cy="613.598" r="1.54081" style="fill:none;" />
<path class="l4" d="M919.083 745.936L927.301 745.936"/>
<path class="l4" d="M927.301 737.718L927.301 745.936"/>
<path class="l4" d="M924.219 737.718L946.818 737.718"/>
<path class="l4" d="M943.736 737.718L943.736 745.936"/>
<path class="l4" d="M943.736 745.936L951.954 745.936"/>
<path class="l4" d="M927.301 735.664L943.736 735.664"/>
<path class="l4" d="M935.518 729.501L935.518 732.582"/>
<circle class="l4" cx="935.518" cy="734.123" r="1.54081" style="fill:none;" />
<path class="l4" d="M853.342 745.936L861.56 745.936"/>
<path class="l4" d="M861.56 737.718L861.56 745.936"/>
<path class="l4" d="M858.478 737.718L881.076 737.718"/>
<path class="l4" d="M877.995 737.718L877.995 745.936"/>
<path class="l4" d="M877.995 745.936L886.212 745.936"/>
<path class="l4" d="M861.56 735.664L877.995 735.664"/>
<path class="l4" d="M869.777 729.501L869.777 732.582"/>
<circle class="l4" cx="869.777" cy="734.123" r="1.54081" style="fill:none;" />
<path class="l4" d="M853.342 789.763L861.56 789.763"/>
<path class="l4" d="M861.56 781.546L861.56 789.763"/>
<path class="l4" d="M858.478 781.546L881.076 781.546"/>
<path class="l4" d="M877.995 781.546L877.995 789.763"/>
<path class="l4" d="M877.995 789.763L886.212 789.763"/>
<path class="l4" d="M861.56 779.491L877.995 779.491"/>
<path class="l4" d="M869.777 773.328L869.777 776.41"/>
<circle class="l4" cx="869.777" cy="777.95" r="1.54081" style="fill:none;" />
<path class="l4" d="M919.083 789.763L927.301 789.763"/>
<path class="l4" d="M927.301 781.546L927.301 789.763"/>
<path class="l4" d="M924.219 781.546L946.818 781.546"/>
<path class="l4" d="M943.736 781.546L943.736 789.763"/>
<path class="l4" d="M943.736 789.763L951.954 789.763"/>
<path class="l4" d="M927.301 779.491L943.736 779.491"/>
<path class="l4" d="M935.518 773.328L935.518 776.41"/>
<circle class="l4" cx="935.518" cy="777.95" r="1.54081" style="fill:none;" />
<path class="l4" d="M984.824 745.936L993.042 745.936"/>
<path class="l4" d="M993.042 745.936L993.042 754.153"/>
<path class="l4" d="M989.96 754.153L1012.56 754.153"/>
<path class="l4" d="M1009.48 745.936L1009.48 754.153"/>
<path class="l4" d="M1009.48 745.936L1017.69 745.936"/>
<path class="l4" d="M993.042 756.208L1009.48 756.208"/>
<path class="l4" d="M1001.26 756.208L1001.26 762.371"/>
<path class="l4" d="M968.389 745.936L973.867 745.936"/>
<path class="l4" d="M964.965 742.854L977.291 742.854"/>
<path class="l4" d="M972.155 744.395L973.182 743.881"/>
<path class="l4" d="M973.182 743.881L974.466 743.368"/>
<path class="l4" d="M974.466 743.368L975.237 743.111"/>
<path class="l4" d="M975.237 743.111L976.778 742.854"/>
<path class="l4" d="M975.237 742.597L976.778 742.854"/>
<path class="l4" d="M974.466 742.341L975.237 742.597"/>
<path class="l4" d="M973.182 741.827L974.466 742.341"/>
<path class="l4" d="M972.155 741.313L973.182 741.827"/>
<path class="l5" d="M1286.14 41.958L1286.14 44.6972"/>
<path class="l5" d="M1286.14 41.958L1283.4 39.9036L1283.4 35.11L1286.14 37.1644L1288.88 35.11L1288.88 39.9036L1286.14 41.958"/>
<path class="l5" d="M1285.45 44.0124L1286.82 44.0124L1286.82 45.382L1285.45 45.382L1285.45 44.0124z"/>
<path class="l5" d="M1319.01 42.9852L1319.01 44.6972"/>
<path class="l5" d="M1316.27 37.1644L1319.01 35.11L1321.75 37.1644L1321.75 40.9308L1319.01 42.9852L1316.27 40.9308L1316.27 37.1644"/>
<path class="l5" d="M1318.32 44.0124L1319.69 44.0124L1319.69 45.382L1318.32 45.382L1318.32 44.0124z"/>
<path class="l5" d="M1269.43 126.6L1269.98 126.6L1269.98 127.148L1269.43 127.148L1269.43 126.6z"/>
<path class="l5" d="M1285.86 110.164L1286.41 110.164L1286.41 110.712L1285.86 110.712L1285.86 110.164z"/>
<path class="l5" d="M1302.3 126.6L1302.85 126.6L1302.85 127.148L1302.3 127.148L1302.3 126.6z"/>
<path class="l5" d="M1170.82 126.6L1171.36 126.6L1171.36 127.148L1170.82 127.148L1170.82 126.6z"/>
<path class="l5" d="M1187.25 110.164L1187.8 110.164L1187.8 110.712L1187.25 110.712L1187.25 110.164z"/>
<path class="l5" d="M1203.69 126.6L1204.24 126.6L1204.24 127.148L1203.69 127.148L1203.69 126.6z"/>
<path class="l5" d="M1170.82 252.604L1171.36 252.604L1171.36 253.151L1170.82 253.151L1170.82 252.604z"/>
<path class="l5" d="M1187.25 236.168L1187.8 236.168L1187.8 236.716L1187.25 236.716L1187.25 236.168z"/>
<path class="l5" d="M1203.69 252.604L1204.24 252.604L1204.24 253.151L1203.69 253.151L1203.69 252.604z"/>
<path class="l5" d="M1236.56 252.604L1237.11 252.604L1237.11 253.151L1236.56 253.151L1236.56 252.604z"/>
<path class="l5" d="M1252.99 236.168L1253.54 236.168L1253.54 236.716L1252.99 236.716L1252.99 236.168z"/>
<path class="l5" d="M1269.43 252.604L1269.98 252.604L1269.98 253.151L1269.43 253.151L1269.43 252.604z"/>
<path class="l5" d="M1236.56 296.431L1237.11 296.431L1237.11 296.979L1236.56 296.979L1236.56 296.431z"/>
<path class="l5" d="M1252.99 279.996L1253.54 279.996L1253.54 280.543L1252.99 280.543L1252.99 279.996z"/>
<path class="l5" d="M1269.43 296.431L1269.98 296.431L1269.98 296.979L1269.43 296.979L1269.43 296.431z"/>
<path class="l5" d="M1170.82 164.949L1171.36 164.949L1171.36 165.497L1170.82 165.497L1170.82 164.949z"/>
<path class="l5" d="M1187.25 148.513L1187.8 148.513L1187.8 149.061L1187.25 149.061L1187.25 148.513z"/>
<path class="l5" d="M1203.69 164.949L1204.24 164.949L1204.24 165.497L1203.69 165.497L1203.69 164.949z"/>
<path class="l5" d="M1170.82 416.956L1171.36 416.956L1171.36 417.504L1170.82 417.504L1170.82 416.956z"/>
<path class="l5" d="M1187.25 400.521L1187.8 400.521L1187.8 401.069L1187.25 401.069L1187.25 400.521z"/>
<path class="l5" d="M1203.69 416.956L1204.24 416.956L1204.24 417.504L1203.69 417.504L1203.69 416.956z"/>
<path class="l5" d="M1236.56 416.956L1237.11 416.956L1237.11 417.504L1236.56 417.504L1236.56 416.956z"/>
<path class="l5" d="M1252.99 400.521L1253.54 400.521L1253.54 401.069L1252.99 401.069L1252.99 400.521z"/>
<path class="l5" d="M1269.43 416.956L1269.98 416.956L1269.98 417.504L1269.43 417.504L1269.43 416.956z"/>
<path class="l5" d="M1236.56 460.784L1237.11 460.784L1237.11 461.332L1236.56 461.332L1236.56 460.784z"/>
<path class="l5" d="M1252.99 444.348L1253.54 444.348L1253.54 444.896L1252.99 444.896L1252.99 444.348z"/>
<path class="l5" d="M1269.43 460.784L1269.98 460.784L1269.98 461.332L1269.43 461.332L1269.43 460.784z"/>
<path class="l5" d="M1170.82 581.309L1171.36 581.309L1171.36 581.857L1170.82 581.857L1170.82 581.309z"/>
<path class="l5" d="M1187.25 564.874L1187.8 564.874L1187.8 565.422L1187.25 565.422L1187.25 564.874z"/>
<path class="l5" d="M1203.69 581.309L1204.24 581.309L1204.24 581.857L1203.69 581.857L1203.69 581.309z"/>
<path class="l5" d="M1236.56 581.309L1237.11 581.309L1237.11 581.857L1236.56 581.857L1236.56 581.309z"/>
<path class="l5" d="M1252.99 564.874L1253.54 564.874L1253.54 565.422L1252.99 565.422L1252.99 564.874z"/>
<path class="l5" d="M1269.43 581.309L1269.98 581.309L1269.98 581.857L1269.43 581.857L1269.43 581.309z"/>
<path class="l5" d="M1236.56 625.137L1237.11 625.137L1237.11 625.684L1236.56 625.684L1236.56 625.137z"/>
<path class="l5" d="M1252.99 608.701L1253.54 608.701L1253.54 609.249L1252.99 609.249L1252.99 608.701z"/>
<path class="l5" d="M1269.43 625.137L1269.98 625.137L1269.98 625.684L1269.43 625.684L1269.43 625.137z"/>
<path class="l5" d="M1170.82 745.662L1171.36 745.662L1171.36 746.21L1170.82 746.21L1170.82 745.662z"/>
<path class="l5" d="M1187.25 729.227L1187.8 729.227L1187.8 729.774L1187.25 729.774L1187.25 729.227z"/>
<path class="l5" d="M1203.69 745.662L1204.24 745.662L1204.24 746.21L1203.69 746.21L1203.69 745.662z"/>
<path class="l5" d="M1236.56 745.662L1237.11 745.662L1237.11 746.21L1236.56 746.21L1236.56 745.662z"/>
<path class="l5" d="M1252.99 729.227L1253.54 729.227L1253.54 729.774L1252.99 729.774L1252.99 729.227z"/>
<path class="l5" d="M1269.43 745.662L1269.98 745.662L1269.98 746.21L1269.43 746.21L1269.43 745.662z"/>
<path class="l5" d="M1236.56 789.489L1237.11 789.489L1237.11 790.037L1236.56 790.037L1236.56 789.489z"/>
<path class="l5" d="M1252.99 773.054L1253.54 773.054L1253.54 773.602L1252.99 773.602L1252.99 773.054z"/>
<path class="l5" d="M1269.43 789.489L1269.98 789.489L1269.98 790.037L1269.43 790.037L1269.43 789.489z"/>
<path class="l5" d="M1170.82 789.489L1171.36 789.489L1171.36 790.037L1170.82 790.037L1170.82 789.489z"/>
<path class="l5" d="M1187.25 773.054L1187.8 773.054L1187.8 773.602L1187.25 773.602L1187.25 773.054z"/>
<path class="l5" d="M1203.69 789.489L1204.24 789.489L1204.24 790.037L1203.69 790.037L1203.69 789.489z"/>
<path class="l5" d="M1061.52 888.375L1061.52 890.087"/>
<path class="l5" d="M1058.78 895.908L1061.52 897.962L1064.26 895.908L1064.26 892.141L1061.52 890.087L1058.78 892.141L1058.78 895.908"/>
<path class="l5" d="M1060.84 887.69L1062.21 887.69L1062.21 889.06L1060.84 889.06L1060.84 887.69z"/>
<path class="l5" d="M1143.7 899.332L1143.7 904.125"/>
<path class="l5" d="M1143.7 908.919L1146.44 906.865L1146.44 902.071L1143.7 904.125L1140.96 902.071L1140.96 906.865L1143.7 908.919"/>
<path class="l5" d="M1143.01 898.647L1144.38 898.647L1144.38 900.017L1143.01 900.017L1143.01 898.647z"/>
<path class="l5" d="M1137.95 745.662L1138.49 745.662L1138.49 746.21L1137.95 746.21L1137.95 745.662z"/>
<path class="l5" d="M1121.51 762.097L1122.06 762.097L1122.06 762.645L1121.51 762.645L1121.51 762.097z"/>
<path class="l5" d="M1105.08 745.662L1105.62 745.662L1105.62 746.21L1105.08 746.21L1105.08 745.662z"/>
<path class="l5" d="M1154.38 745.662L1154.93 745.662L1154.93 746.21L1154.38 746.21L1154.38 745.662z"/>
<path class="l5" d="M1148.9 745.662L1149.45 745.662L1149.45 746.21L1148.9 746.21L1148.9 745.662z"/>
<path class="l5" d="M853.068 126.6L853.616 126.6L853.616 127.148L853.068 127.148L853.068 126.6z"/>
<path class="l5" d="M836.633 110.164L837.181 110.164L837.181 110.712L836.633 110.712L836.633 110.164z"/>
<path class="l5" d="M820.197 126.6L820.745 126.6L820.745 127.148L820.197 127.148L820.197 126.6z"/>
<path class="l5" d="M951.68 126.6L952.227 126.6L952.227 127.148L951.68 127.148L951.68 126.6z"/>
<path class="l5" d="M935.244 110.164L935.792 110.164L935.792 110.712L935.244 110.712L935.244 110.164z"/>
<path class="l5" d="M918.809 126.6L919.357 126.6L919.357 127.148L918.809 127.148L918.809 126.6z"/>
<path class="l5" d="M951.68 252.604L952.227 252.604L952.227 253.151L951.68 253.151L951.68 252.604z"/>
<path class="l5" d="M935.244 236.168L935.792 236.168L935.792 236.716L935.244 236.716L935.244 236.168z"/>
<path class="l5" d="M918.809 252.604L919.357 252.604L919.357 253.151L918.809 253.151L918.809 252.604z"/>
<path class="l5" d="M885.939 252.604L886.486 252.604L886.486 253.151L885.939 253.151L885.939 252.604z"/>
<path class="l5" d="M869.503 236.168L870.051 236.168L870.051 236.716L869.503 236.716L869.503 236.168z"/>
<path class="l5" d="M853.068 252.604L853.616 252.604L853.616 253.151L853.068 253.151L853.068 252.604z"/>
<path class="l5" d="M885.939 296.431L886.486 296.431L886.486 296.979L885.939 296.979L885.939 296.431z"/>
<path class="l5" d="M869.503 279.996L870.051 279.996L870.051 280.543L869.503 280.543L869.503 279.996z"/>
<path class="l5" d="M853.068 296.431L853.616 296.431L853.616 296.979L853.068 296.979L853.068 296.431z"/>
<path class="l5" d="M951.68 164.949L952.227 164.949L952.227 165.497L951.68 165.497L951.68 164.949z"/>
<path class="l5" d="M935.244 148.513L935.792 148.513L935.792 149.061L935.244 149.061L935.244 148.513z"/>
<path class="l5" d="M918.809 164.949L919.357 164.949L919.357 165.497L918.809 165.497L918.809 164.949z"/>
<path class="l5" d="M951.68 416.956L952.227 416.956L952.227 417.504L951.68 417.504L951.68 416.956z"/>
<path class="l5" d="M935.244 400.521L935.792 400.521L935.792 401.069L935.244 401.069L935.244 400.521z"/>
<path class="l5" d="M918.809 416.956L919.357 416.956L919.357 417.504L918.809 417.504L918.809 416.956z"/>
<path class="l5" d="M885.939 416.956L886.486 416.956L886.486 417.504L885.939 417.504L885.939 416.956z"/>
<path class="l5" d="M869.503 400.521L870.051 400.521L870.051 401.069L869.503 401.069L869.503 400.521z"/>
<path class="l5" d="M853.068 416.956L853.616 416.956L853.616 417.504L853.068 417.504L853.068 416.956z"/>
<path class="l5" d="M885.939 460.784L886.486 460.784L886.486 461.332L885.939 461.332L885.939 460.784z"/>
<path class="l5" d="M869.503 444.348L870.051 444.348L870.051 444.896L869.503 444.896L869.503 444.348z"/>
<path class="l5" d="M853.068 460.784L853.616 460.784L853.616 461.332L853.068 461.332L853.068 460.784z"/>
<path class="l5" d="M951.68 581.309L952.227 581.309L952.227 581.857L951.68 581.857L951.68 581.309z"/>
<path class="l5" d="M935.244 564.874L935.792 564.874L935.792 565.422L935.244 565.422L935.244 564.874z"/>
<path class="l5" d="M918.809 581.309L919.357 581.309L919.357 581.857L918.809 581.857L918.809 581.309z"/>
<path class="l5" d="M885.939 581.309L886.486 581.309L886.486 581.857L885.939 581.857L885.939 581.309z"/>
<path class="l5" d="M869.503 564.874L870.051 564.874L870.051 565.422L869.503 565.422L869.503 564.874z"/>
<path class="l5" d="M853.068 581.309L853.616 581.309L853.616 581.857L853.068 581.857L853.068 581.309z"/>
<path class="l5" d="M885.939 625.137L886.486 625.137L886.486 625.684L885.939 625.684L885.939 625.137z"/>
<path class="l5" d="M869.503 608.701L870.051 608.701L870.051 609.249L869.503 609.249L869.503 608.701z"/>
<path class="l5" d="M853.068 625.137L853.616 625.137L853.616 625.684L853.068 625.684L853.068 625.137z"/>
<path class="l5" d="M951.68 745.662L952.227 745.662L952.227 746.21L951.68 746.21L951.68 745.662z"/>
<path class="l5" d="M935.244 729.227L935.792 729.227L935.792 729.774L935.244 729.774L935.244 729.227z"/>
<path class="l5" d="M918.809 745.662L919.357 745.662L919.357 746.21L918.809 746.21L918.809 745.662z"/>
<path class="l5" d="M885.939 745.662L886.486 745.662L886.486 746.21L885.939 746.21L885.939 745.662z"/>
<path class="l5" d="M869.503 729.227L870.051 729.227L870.051 729.774L869.503 729.774L869.503 729.227z"/>
<path class="l5" d="M853.068 745.662L853.616 745.662L853.616 746.21L853.068 746.21L853.068 745.662z"/>
<path class="l5" d="M885.939 789.489L886.486 789.489L886.486 790.037L885.939 790.037L885.939 789.489z"/>
<path class="l5" d="M869.503 773.054L870.051 773.054L870.051 773.602L869.503 773.602L869.503 773.054z"/>
<path class="l5" d="M853.068 789.489L853.616 789.489L853.616 790.037L853.068 790.037L853.068 789.489z"/>
<path class="l5" d="M951.68 789.489L952.227 789.489L952.227 790.037L951.68 790.037L951.68 789.489z"/>
<path class="l5" d="M935.244 773.054L935.792 773.054L935.792 773.602L935.244 773.602L935.244 773.054z"/>
<path class="l5" d="M918.809 789.489L919.357 789.489L919.357 790.037L918.809 790.037L918.809 789.489z"/>
<path class="l5" d="M984.55 745.662L985.098 745.662L985.098 746.21L984.55 746.21L984.55 745.662z"/>
<path class="l5" d="M1000.99 762.097L1001.53 762.097L1001.53 762.645L1000.99 762.645L1000.99 762.097z"/>
<path class="l5" d="M1017.42 745.662L1017.97 745.662L1017.97 746.21L1017.42 746.21L1017.42 745.662z"/>
<path class="l5" d="M968.115 745.662L968.663 745.662L968.663 746.21L968.115 746.21L968.115 745.662z"/>
<path class="l5" d="M973.593 745.662L974.141 745.662L974.141 746.21L973.593 746.21L973.593 745.662z"/>
<text fill="#cccccc"  xml:space="preserve" font-size="8.54635" transform="translate(598.595, 227.767)" >SPICE</text>
<text fill="#cccccc"  xml:space="preserve" font-size="8.54635" style="font-family:Monospace;" transform="translate(604.073, 241.463)" >.param len_div=4 wid_div=3 len=4 wid=3</text>
<text fill="#00ccee"  xml:space="preserve" font-size="9.40098" transform="translate(1289.88, 34.4252) rotate(270)" >Vbp</text>
<text fill="#00ccee"  xml:space="preserve" font-size="9.40098" transform="translate(1321.9, 33.826) rotate(270)" >VDD</text>
<text fill="#cccccc"  xml:space="preserve" font-size="5.69756" transform="translate(1301.1, 140.613) rotate(270)" >M35</text>
<text fill="#cccccc"  xml:space="preserve" font-size="5.69756" transform="translate(1292.88, 154.613) rotate(270)" >pfet_01v8</text>
<text fill="#aaaa00"  xml:space="preserve" font-size="5.69756" transform="translate(1284.67, 192.613) rotate(270)" >1 x {wid_div} / {len_div}</text>
<text fill="#cccccc"  xml:space="preserve" font-size="5.69756" transform="translate(1202.49, 141.613) rotate(270)" >M36</text>
<text fill="#cccccc"  xml:space="preserve" font-size="5.69756" transform="translate(1194.27, 154.613) rotate(270)" >pfet_01v8</text>
<text fill="#aaaa00"  xml:space="preserve" font-size="5.69756" transform="translate(1186.06, 192.613) rotate(270)" >1 x {wid_div} / {len_div}</text>
<text fill="#cccccc"  xml:space="preserve" font-size="5.69756" transform="translate(1202.49, 267.617) rotate(270)" >M37</text>
<text fill="#cccccc"  xml:space="preserve" font-size="5.69756" transform="translate(1194.27, 280.617) rotate(270)" >pfet_01v8</text>
<text fill="#aaaa00"  xml:space="preserve" font-size="5.69756" transform="translate(1186.06, 318.617) rotate(270)" >1 x {wid_div} / {len_div}</text>
<text fill="#cccccc"  xml:space="preserve" font-size="5.69756" transform="translate(1268.23, 266.617) rotate(270)" >M38</text>
<text fill="#cccccc"  xml:space="preserve" font-size="5.69756" transform="translate(1260.01, 280.617) rotate(270)" >pfet_01v8</text>
<text fill="#aaaa00"  xml:space="preserve" font-size="5.69756" transform="translate(1251.8, 318.617) rotate(270)" >1 x {wid_div} / {len_div}</text>
<text fill="#cccccc"  xml:space="preserve" font-size="5.69756" transform="translate(1268.23, 311.444) rotate(270)" >M46</text>
<text fill="#cccccc"  xml:space="preserve" font-size="5.69756" transform="translate(1260.01, 324.444) rotate(270)" >pfet_01v8</text>
<text fill="#aaaa00"  xml:space="preserve" font-size="5.69756" transform="translate(1251.8, 362.444) rotate(270)" >1 x {wid_div} / {len_div}</text>
<text fill="#cccccc"  xml:space="preserve" font-size="5.69756" transform="translate(1202.49, 178.962) rotate(270)" >M50</text>
<text fill="#cccccc"  xml:space="preserve" font-size="5.69756" transform="translate(1194.27, 192.962) rotate(270)" >pfet_01v8</text>
<text fill="#aaaa00"  xml:space="preserve" font-size="5.69756" transform="translate(1186.06, 230.962) rotate(270)" >1 x {wid_div} / {len_div}</text>
<text fill="#cccccc"  xml:space="preserve" font-size="5.69756" transform="translate(1202.49, 430.969) rotate(270)" >M52</text>
<text fill="#cccccc"  xml:space="preserve" font-size="5.69756" transform="translate(1194.27, 444.969) rotate(270)" >pfet_01v8</text>
<text fill="#aaaa00"  xml:space="preserve" font-size="5.69756" transform="translate(1186.06, 482.969) rotate(270)" >1 x {wid_div} / {len_div}</text>
<text fill="#cccccc"  xml:space="preserve" font-size="5.69756" transform="translate(1268.23, 430.969) rotate(270)" >M53</text>
<text fill="#cccccc"  xml:space="preserve" font-size="5.69756" transform="translate(1260.01, 444.969) rotate(270)" >pfet_01v8</text>
<text fill="#aaaa00"  xml:space="preserve" font-size="5.69756" transform="translate(1251.8, 482.969) rotate(270)" >1 x {wid_div} / {len_div}</text>
<text fill="#cccccc"  xml:space="preserve" font-size="5.69756" transform="translate(1268.23, 475.797) rotate(270)" >M54</text>
<text fill="#cccccc"  xml:space="preserve" font-size="5.69756" transform="translate(1260.01, 488.797) rotate(270)" >pfet_01v8</text>
<text fill="#aaaa00"  xml:space="preserve" font-size="5.69756" transform="translate(1251.8, 526.797) rotate(270)" >1 x {wid_div} / {len_div}</text>
<text fill="#cccccc"  xml:space="preserve" font-size="5.69756" transform="translate(1202.49, 595.322) rotate(270)" >M55</text>
<text fill="#cccccc"  xml:space="preserve" font-size="5.69756" transform="translate(1194.27, 609.322) rotate(270)" >pfet_01v8</text>
<text fill="#aaaa00"  xml:space="preserve" font-size="5.69756" transform="translate(1186.06, 647.322) rotate(270)" >1 x {wid_div} / {len_div}</text>
<text fill="#cccccc"  xml:space="preserve" font-size="5.69756" transform="translate(1268.23, 596.322) rotate(270)" >M56</text>
<text fill="#cccccc"  xml:space="preserve" font-size="5.69756" transform="translate(1260.01, 609.322) rotate(270)" >pfet_01v8</text>
<text fill="#aaaa00"  xml:space="preserve" font-size="5.69756" transform="translate(1251.8, 647.322) rotate(270)" >1 x {wid_div} / {len_div}</text>
<text fill="#cccccc"  xml:space="preserve" font-size="5.69756" transform="translate(1268.23, 640.15) rotate(270)" >M57</text>
<text fill="#cccccc"  xml:space="preserve" font-size="5.69756" transform="translate(1260.01, 653.15) rotate(270)" >pfet_01v8</text>
<text fill="#aaaa00"  xml:space="preserve" font-size="5.69756" transform="translate(1251.8, 691.15) rotate(270)" >1 x {wid_div} / {len_div}</text>
<text fill="#cccccc"  xml:space="preserve" font-size="5.69756" transform="translate(1202.49, 759.675) rotate(270)" >M58</text>
<text fill="#cccccc"  xml:space="preserve" font-size="5.69756" transform="translate(1194.27, 773.675) rotate(270)" >pfet_01v8</text>
<text fill="#aaaa00"  xml:space="preserve" font-size="5.69756" transform="translate(1186.06, 811.675) rotate(270)" >1 x {wid_div} / {len_div}</text>
<text fill="#cccccc"  xml:space="preserve" font-size="5.69756" transform="translate(1268.23, 759.675) rotate(270)" >M59</text>
<text fill="#cccccc"  xml:space="preserve" font-size="5.69756" transform="translate(1260.01, 773.675) rotate(270)" >pfet_01v8</text>
<text fill="#aaaa00"  xml:space="preserve" font-size="5.69756" transform="translate(1251.8, 811.675) rotate(270)" >1 x {wid_div} / {len_div}</text>
<text fill="#cccccc"  xml:space="preserve" font-size="5.69756" transform="translate(1268.23, 803.502) rotate(270)" >M60</text>
<text fill="#cccccc"  xml:space="preserve" font-size="5.69756" transform="translate(1260.01, 817.502) rotate(270)" >pfet_01v8</text>
<text fill="#aaaa00"  xml:space="preserve" font-size="5.69756" transform="translate(1251.8, 855.502) rotate(270)" >1 x {wid_div} / {len_div}</text>
<text fill="#cccccc"  xml:space="preserve" font-size="5.69756" transform="translate(1202.49, 803.502) rotate(270)" >M61</text>
<text fill="#cccccc"  xml:space="preserve" font-size="5.69756" transform="translate(1194.27, 817.502) rotate(270)" >pfet_01v8</text>
<text fill="#aaaa00"  xml:space="preserve" font-size="5.69756" transform="translate(1186.06, 855.502) rotate(270)" >1 x {wid_div} / {len_div}</text>
<text fill="#00ccee"  xml:space="preserve" font-size="9.40098" transform="translate(1064.41, 920.246) rotate(270)" >GND</text>
<text fill="#00ccee"  xml:space="preserve" font-size="9.40098" transform="translate(1146.25, 933.289) rotate(270)" >Vbn2</text>
<text fill="#cccccc"  xml:space="preserve" font-size="5.69756" transform="translate(1128.53, 743.197) rotate(270)" >M62</text>
<text fill="#cccccc"  xml:space="preserve" font-size="5.69756" transform="translate(1120.31, 743.197) rotate(270)" >nfet_01v8</text>
<text fill="#aaaa00"  xml:space="preserve" font-size="5.69756" transform="translate(1112.1, 743.197) rotate(270)" >1 x 3 / 3</text>
<text fill="#cccccc"  xml:space="preserve" font-size="5.69756" transform="translate(1154.55, 738.574) rotate(270)" >Vibdiv</text>
<text fill="#cccccc"  xml:space="preserve" font-size="5.69756" transform="translate(825.754, 140.613) rotate(270)" >M39</text>
<text fill="#cccccc"  xml:space="preserve" font-size="5.69756" transform="translate(833.971, 154.613) rotate(270)" >pfet_01v8</text>
<text fill="#aaaa00"  xml:space="preserve" font-size="5.69756" transform="translate(842.189, 192.613) rotate(270)" >1 x {wid_div} / {len_div}</text>
<text fill="#cccccc"  xml:space="preserve" font-size="5.69756" transform="translate(924.365, 140.613) rotate(270)" >M40</text>
<text fill="#cccccc"  xml:space="preserve" font-size="5.69756" transform="translate(932.583, 154.613) rotate(270)" >pfet_01v8</text>
<text fill="#aaaa00"  xml:space="preserve" font-size="5.69756" transform="translate(940.8, 192.613) rotate(270)" >1 x {wid_div} / {len_div}</text>
<text fill="#cccccc"  xml:space="preserve" font-size="5.69756" transform="translate(924.365, 266.617) rotate(270)" >M41</text>
<text fill="#cccccc"  xml:space="preserve" font-size="5.69756" transform="translate(932.583, 280.617) rotate(270)" >pfet_01v8</text>
<text fill="#aaaa00"  xml:space="preserve" font-size="5.69756" transform="translate(940.8, 318.617) rotate(270)" >1 x {wid_div} / {len_div}</text>
<text fill="#cccccc"  xml:space="preserve" font-size="5.69756" transform="translate(858.624, 266.617) rotate(270)" >M42</text>
<text fill="#cccccc"  xml:space="preserve" font-size="5.69756" transform="translate(866.842, 280.617) rotate(270)" >pfet_01v8</text>
<text fill="#aaaa00"  xml:space="preserve" font-size="5.69756" transform="translate(875.059, 318.617) rotate(270)" >1 x {wid_div} / {len_div}</text>
<text fill="#cccccc"  xml:space="preserve" font-size="5.69756" transform="translate(858.624, 310.444) rotate(270)" >M43</text>
<text fill="#cccccc"  xml:space="preserve" font-size="5.69756" transform="translate(866.842, 324.444) rotate(270)" >pfet_01v8</text>
<text fill="#aaaa00"  xml:space="preserve" font-size="5.69756" transform="translate(875.059, 362.444) rotate(270)" >1 x {wid_div} / {len_div}</text>
<text fill="#cccccc"  xml:space="preserve" font-size="5.69756" transform="translate(924.365, 179.962) rotate(270)" >M44</text>
<text fill="#cccccc"  xml:space="preserve" font-size="5.69756" transform="translate(932.583, 192.962) rotate(270)" >pfet_01v8</text>
<text fill="#aaaa00"  xml:space="preserve" font-size="5.69756" transform="translate(940.8, 230.962) rotate(270)" >1 x {wid_div} / {len_div}</text>
<text fill="#cccccc"  xml:space="preserve" font-size="5.69756" transform="translate(924.365, 430.969) rotate(270)" >M45</text>
<text fill="#cccccc"  xml:space="preserve" font-size="5.69756" transform="translate(932.583, 444.969) rotate(270)" >pfet_01v8</text>
<text fill="#aaaa00"  xml:space="preserve" font-size="5.69756" transform="translate(940.8, 482.969) rotate(270)" >1 x {wid_div} / {len_div}</text>
<text fill="#cccccc"  xml:space="preserve" font-size="5.69756" transform="translate(858.624, 431.969) rotate(270)" >M47</text>
<text fill="#cccccc"  xml:space="preserve" font-size="5.69756" transform="translate(866.842, 444.969) rotate(270)" >pfet_01v8</text>
<text fill="#aaaa00"  xml:space="preserve" font-size="5.69756" transform="translate(875.059, 482.969) rotate(270)" >1 x {wid_div} / {len_div}</text>
<text fill="#cccccc"  xml:space="preserve" font-size="5.69756" transform="translate(858.624, 474.797) rotate(270)" >M48</text>
<text fill="#cccccc"  xml:space="preserve" font-size="5.69756" transform="translate(866.842, 488.797) rotate(270)" >pfet_01v8</text>
<text fill="#aaaa00"  xml:space="preserve" font-size="5.69756" transform="translate(875.059, 526.797) rotate(270)" >1 x {wid_div} / {len_div}</text>
<text fill="#cccccc"  xml:space="preserve" font-size="5.69756" transform="translate(924.365, 595.322) rotate(270)" >M49</text>
<text fill="#cccccc"  xml:space="preserve" font-size="5.69756" transform="translate(932.583, 609.322) rotate(270)" >pfet_01v8</text>
<text fill="#aaaa00"  xml:space="preserve" font-size="5.69756" transform="translate(940.8, 647.322) rotate(270)" >1 x {wid_div} / {len_div}</text>
<text fill="#cccccc"  xml:space="preserve" font-size="5.69756" transform="translate(858.624, 595.322) rotate(270)" >M51</text>
<text fill="#cccccc"  xml:space="preserve" font-size="5.69756" transform="translate(866.842, 609.322) rotate(270)" >pfet_01v8</text>
<text fill="#aaaa00"  xml:space="preserve" font-size="5.69756" transform="translate(875.059, 647.322) rotate(270)" >1 x {wid_div} / {len_div}</text>
<text fill="#cccccc"  xml:space="preserve" font-size="5.69756" transform="translate(858.624, 639.15) rotate(270)" >M63</text>
<text fill="#cccccc"  xml:space="preserve" font-size="5.69756" transform="translate(866.842, 653.15) rotate(270)" >pfet_01v8</text>
<text fill="#aaaa00"  xml:space="preserve" font-size="5.69756" transform="translate(875.059, 691.15) rotate(270)" >1 x {wid_div} / {len_div}</text>
<text fill="#cccccc"  xml:space="preserve" font-size="5.69756" transform="translate(924.365, 760.675) rotate(270)" >M64</text>
<text fill="#cccccc"  xml:space="preserve" font-size="5.69756" transform="translate(932.583, 773.675) rotate(270)" >pfet_01v8</text>
<text fill="#aaaa00"  xml:space="preserve" font-size="5.69756" transform="translate(940.8, 811.675) rotate(270)" >1 x {wid_div} / {len_div}</text>
<text fill="#cccccc"  xml:space="preserve" font-size="5.69756" transform="translate(858.624, 759.675) rotate(270)" >M65</text>
<text fill="#cccccc"  xml:space="preserve" font-size="5.69756" transform="translate(866.842, 773.675) rotate(270)" >pfet_01v8</text>
<text fill="#aaaa00"  xml:space="preserve" font-size="5.69756" transform="translate(875.059, 811.675) rotate(270)" >1 x {wid_div} / {len_div}</text>
<text fill="#cccccc"  xml:space="preserve" font-size="5.69756" transform="translate(858.624, 804.502) rotate(270)" >M66</text>
<text fill="#cccccc"  xml:space="preserve" font-size="5.69756" transform="translate(866.842, 817.502) rotate(270)" >pfet_01v8</text>
<text fill="#aaaa00"  xml:space="preserve" font-size="5.69756" transform="translate(875.059, 855.502) rotate(270)" >1 x {wid_div} / {len_div}</text>
<text fill="#cccccc"  xml:space="preserve" font-size="5.69756" transform="translate(924.365, 804.502) rotate(270)" >M67</text>
<text fill="#cccccc"  xml:space="preserve" font-size="5.69756" transform="translate(932.583, 817.502) rotate(270)" >pfet_01v8</text>
<text fill="#aaaa00"  xml:space="preserve" font-size="5.69756" transform="translate(940.8, 855.502) rotate(270)" >1 x {wid_div} / {len_div}</text>
<text fill="#cccccc"  xml:space="preserve" font-size="5.69756" transform="translate(998.324, 743.197) rotate(270)" >M68</text>
<text fill="#cccccc"  xml:space="preserve" font-size="5.69756" transform="translate(1006.54, 743.197) rotate(270)" >nfet_01v8</text>
<text fill="#aaaa00"  xml:space="preserve" font-size="5.69756" transform="translate(1014.76, 743.197) rotate(270)" >1 x 3 / 3</text>
<text fill="#cccccc"  xml:space="preserve" font-size="5.69756" transform="translate(972.301, 738.574) rotate(270)" >Vibdiv3</text>
<path class="l1" d="M1286.14 44.6972L1286.14 88.5246"/>
<path class="l1" d="M1061.52 203.572L1061.52 252.877"/>
<path class="l1" d="M1203.96 252.877L1236.83 252.877"/>
<path class="l1" d="M1061.52 252.877L1105.35 252.877"/>
<path class="l1" d="M1269.7 192.615L1269.7 252.877"/>
<path class="l1" d="M1286.14 88.5246L1286.14 110.438"/>
<path class="l1" d="M1302.57 126.874L1319.01 126.874"/>
<path class="l1" d="M1105.35 252.877L1171.09 252.877"/>
<path class="l1" d="M1203.96 148.787L1203.96 165.223"/>
<path class="l1" d="M1319.01 66.6109L1319.01 126.874"/>
<path class="l1" d="M1319.01 44.6972L1319.01 66.6109"/>
<path class="l1" d="M1171.09 126.874L1171.09 165.223"/>
<path class="l1" d="M1203.96 126.874L1203.96 148.787"/>
<path class="l1" d="M1061.52 165.223L1061.52 203.572"/>
<path class="l1" d="M1203.96 126.874L1236.83 126.874"/>
<path class="l1" d="M1061.52 126.874L1171.09 126.874"/>
<path class="l1" d="M1061.52 126.874L1061.52 165.223"/>
<path class="l1" d="M1269.7 165.223L1269.7 192.615"/>
<path class="l1" d="M1269.7 252.877L1269.7 296.705"/>
<path class="l1" d="M1253.27 236.442L1253.27 280.27"/>
<path class="l1" d="M1236.83 252.877L1236.83 296.705"/>
<path class="l1" d="M1187.53 148.787L1187.53 181.658"/>
<path class="l1" d="M1187.53 110.438L1187.53 148.787"/>
<path class="l1" d="M1187.53 181.658L1187.53 209.05"/>
<path class="l1" d="M1187.53 209.05L1187.53 236.442"/>
<path class="l1" d="M1061.52 367.924L1061.52 417.23"/>
<path class="l1" d="M1203.96 417.23L1236.83 417.23"/>
<path class="l1" d="M1061.52 417.23L1105.35 417.23"/>
<path class="l1" d="M1253.27 373.403L1253.27 400.795"/>
<path class="l1" d="M1105.35 417.23L1171.09 417.23"/>
<path class="l1" d="M1061.52 329.575L1061.52 367.924"/>
<path class="l1" d="M1061.52 291.226L1061.52 329.575"/>
<path class="l1" d="M1269.7 417.23L1269.7 461.058"/>
<path class="l1" d="M1253.27 400.795L1253.27 444.622"/>
<path class="l1" d="M1236.83 417.23L1236.83 461.058"/>
<path class="l1" d="M1187.53 313.14L1187.53 346.011"/>
<path class="l1" d="M1187.53 346.011L1187.53 373.403"/>
<path class="l1" d="M1187.53 373.403L1187.53 400.795"/>
<path class="l1" d="M1214.92 252.877L1214.92 307.662"/>
<path class="l1" d="M1061.52 252.877L1061.52 291.226"/>
<path class="l1" d="M1187.53 236.442L1187.53 313.14"/>
<path class="l1" d="M1214.92 307.662L1214.92 318.619"/>
<path class="l1" d="M1214.92 318.619L1269.7 318.619"/>
<path class="l1" d="M1269.7 126.874L1269.7 165.223"/>
<path class="l1" d="M1061.52 532.277L1061.52 581.583"/>
<path class="l1" d="M1203.96 581.583L1236.83 581.583"/>
<path class="l1" d="M1061.52 581.583L1105.35 581.583"/>
<path class="l1" d="M1253.27 537.756L1253.27 565.148"/>
<path class="l1" d="M1105.35 581.583L1171.09 581.583"/>
<path class="l1" d="M1061.52 493.928L1061.52 532.277"/>
<path class="l1" d="M1061.52 455.579L1061.52 493.928"/>
<path class="l1" d="M1269.7 581.583L1269.7 625.41"/>
<path class="l1" d="M1253.27 565.148L1253.27 608.975"/>
<path class="l1" d="M1236.83 581.583L1236.83 625.41"/>
<path class="l1" d="M1187.53 477.493L1187.53 510.363"/>
<path class="l1" d="M1187.53 510.363L1187.53 537.756"/>
<path class="l1" d="M1187.53 537.756L1187.53 565.148"/>
<path class="l1" d="M1214.92 417.23L1214.92 472.014"/>
<path class="l1" d="M1187.53 400.795L1187.53 477.493"/>
<path class="l1" d="M1214.92 472.014L1214.92 482.971"/>
<path class="l1" d="M1214.92 482.971L1269.7 482.971"/>
<path class="l1" d="M1269.7 482.971L1269.7 581.583"/>
<path class="l1" d="M1061.52 417.23L1061.52 455.579"/>
<path class="l1" d="M1253.27 280.27L1253.27 373.403"/>
<path class="l1" d="M1269.7 318.619L1269.7 417.23"/>
<path class="l1" d="M1253.27 444.622L1253.27 537.756"/>
<path class="l1" d="M1236.83 126.874L1269.7 126.874"/>
<path class="l1" d="M1203.96 745.936L1236.83 745.936"/>
<path class="l1" d="M1253.27 702.108L1253.27 729.501"/>
<path class="l1" d="M1269.7 745.936L1269.7 789.763"/>
<path class="l1" d="M1253.27 729.501L1253.27 773.328"/>
<path class="l1" d="M1236.83 745.936L1236.83 789.763"/>
<path class="l1" d="M1187.53 641.846L1187.53 674.716"/>
<path class="l1" d="M1187.53 674.716L1187.53 702.108"/>
<path class="l1" d="M1187.53 702.108L1187.53 729.501"/>
<path class="l1" d="M1214.92 581.583L1214.92 636.367"/>
<path class="l1" d="M1187.53 565.148L1187.53 641.846"/>
<path class="l1" d="M1214.92 636.367L1214.92 647.324"/>
<path class="l1" d="M1214.92 647.324L1269.7 647.324"/>
<path class="l1" d="M1269.7 647.324L1269.7 745.936"/>
<path class="l1" d="M1253.27 608.975L1253.27 702.108"/>
<path class="l1" d="M1171.09 745.936L1171.09 789.763"/>
<path class="l1" d="M1203.96 745.936L1203.96 789.763"/>
<path class="l1" d="M1187.53 729.501L1187.53 773.328"/>
<path class="l1" d="M1253.27 773.328L1253.27 888.375"/>
<path class="l1" d="M1187.53 773.328L1187.53 888.375"/>
<path class="l1" d="M1061.52 581.583L1061.52 888.375"/>
<path class="l1" d="M1061.52 888.375L1187.53 888.375"/>
<path class="l1" d="M1187.53 888.375L1253.27 888.375"/>
<path class="l1" d="M1143.7 784.285L1143.7 817.155"/>
<path class="l1" d="M1154.66 745.936L1165.61 745.936"/>
<path class="l1" d="M1138.22 745.936L1149.18 745.936"/>
<path class="l1" d="M1143.7 745.936L1143.7 767.85"/>
<path class="l1" d="M1121.78 767.85L1143.7 767.85"/>
<path class="l1" d="M1121.78 762.371L1121.78 767.85"/>
<path class="l1" d="M1165.61 745.936L1171.09 745.936"/>
<path class="l1" d="M1143.7 767.85L1143.7 784.285"/>
<path class="l1" d="M1061.52 745.936L1105.35 745.936"/>
<path class="l1" d="M886.212 252.877L919.083 252.877"/>
<path class="l1" d="M1017.69 252.877L1061.52 252.877"/>
<path class="l1" d="M853.342 192.615L853.342 252.877"/>
<path class="l1" d="M836.907 88.5246L836.907 110.438"/>
<path class="l1" d="M804.036 126.874L820.471 126.874"/>
<path class="l1" d="M951.954 252.877L1017.69 252.877"/>
<path class="l1" d="M919.083 148.787L919.083 165.223"/>
<path class="l1" d="M804.036 66.6109L804.036 126.874"/>
<path class="l1" d="M951.954 126.874L951.954 165.223"/>
<path class="l1" d="M919.083 126.874L919.083 148.787"/>
<path class="l1" d="M886.212 126.874L919.083 126.874"/>
<path class="l1" d="M951.954 126.874L1061.52 126.874"/>
<path class="l1" d="M853.342 165.223L853.342 192.615"/>
<path class="l1" d="M853.342 252.877L853.342 296.705"/>
<path class="l1" d="M869.777 236.442L869.777 280.27"/>
<path class="l1" d="M886.212 252.877L886.212 296.705"/>
<path class="l1" d="M935.518 148.787L935.518 181.658"/>
<path class="l1" d="M935.518 110.438L935.518 148.787"/>
<path class="l1" d="M935.518 181.658L935.518 209.05"/>
<path class="l1" d="M935.518 209.05L935.518 236.442"/>
<path class="l1" d="M886.212 417.23L919.083 417.23"/>
<path class="l1" d="M1017.69 417.23L1061.52 417.23"/>
<path class="l1" d="M869.777 373.403L869.777 400.795"/>
<path class="l1" d="M951.954 417.23L1017.69 417.23"/>
<path class="l1" d="M853.342 417.23L853.342 461.058"/>
<path class="l1" d="M869.777 400.795L869.777 444.622"/>
<path class="l1" d="M886.212 417.23L886.212 461.058"/>
<path class="l1" d="M935.518 313.14L935.518 346.011"/>
<path class="l1" d="M935.518 346.011L935.518 373.403"/>
<path class="l1" d="M935.518 373.403L935.518 400.795"/>
<path class="l1" d="M908.126 252.877L908.126 307.662"/>
<path class="l1" d="M935.518 236.442L935.518 313.14"/>
<path class="l1" d="M908.126 307.662L908.126 318.619"/>
<path class="l1" d="M853.342 318.619L908.126 318.619"/>
<path class="l1" d="M853.342 126.874L853.342 165.223"/>
<path class="l1" d="M886.212 581.583L919.083 581.583"/>
<path class="l1" d="M1017.69 581.583L1061.52 581.583"/>
<path class="l1" d="M869.777 537.756L869.777 565.148"/>
<path class="l1" d="M951.954 581.583L1017.69 581.583"/>
<path class="l1" d="M853.342 581.583L853.342 625.41"/>
<path class="l1" d="M869.777 565.148L869.777 608.975"/>
<path class="l1" d="M886.212 581.583L886.212 625.41"/>
<path class="l1" d="M935.518 477.493L935.518 510.363"/>
<path class="l1" d="M935.518 510.363L935.518 537.756"/>
<path class="l1" d="M935.518 537.756L935.518 565.148"/>
<path class="l1" d="M908.126 417.23L908.126 472.014"/>
<path class="l1" d="M935.518 400.795L935.518 477.493"/>
<path class="l1" d="M908.126 472.014L908.126 482.971"/>
<path class="l1" d="M853.342 482.971L908.126 482.971"/>
<path class="l1" d="M853.342 482.971L853.342 581.583"/>
<path class="l1" d="M869.777 280.27L869.777 373.403"/>
<path class="l1" d="M853.342 318.619L853.342 417.23"/>
<path class="l1" d="M869.777 444.622L869.777 537.756"/>
<path class="l1" d="M853.342 126.874L886.212 126.874"/>
<path class="l1" d="M886.212 745.936L919.083 745.936"/>
<path class="l1" d="M869.777 702.108L869.777 729.501"/>
<path class="l1" d="M853.342 745.936L853.342 789.763"/>
<path class="l1" d="M869.777 729.501L869.777 773.328"/>
<path class="l1" d="M886.212 745.936L886.212 789.763"/>
<path class="l1" d="M935.518 641.846L935.518 674.716"/>
<path class="l1" d="M935.518 674.716L935.518 702.108"/>
<path class="l1" d="M935.518 702.108L935.518 729.501"/>
<path class="l1" d="M908.126 581.583L908.126 636.367"/>
<path class="l1" d="M935.518 565.148L935.518 641.846"/>
<path class="l1" d="M908.126 636.367L908.126 647.324"/>
<path class="l1" d="M853.342 647.324L908.126 647.324"/>
<path class="l1" d="M853.342 647.324L853.342 745.936"/>
<path class="l1" d="M869.777 608.975L869.777 702.108"/>
<path class="l1" d="M951.954 745.936L951.954 789.763"/>
<path class="l1" d="M919.083 745.936L919.083 789.763"/>
<path class="l1" d="M935.518 729.501L935.518 773.328"/>
<path class="l1" d="M869.777 773.328L869.777 888.375"/>
<path class="l1" d="M935.518 773.328L935.518 888.375"/>
<path class="l1" d="M935.518 888.375L1061.52 888.375"/>
<path class="l1" d="M869.777 888.375L935.518 888.375"/>
<path class="l1" d="M979.346 784.285L979.346 817.155"/>
<path class="l1" d="M957.432 745.936L968.389 745.936"/>
<path class="l1" d="M973.867 745.936L984.824 745.936"/>
<path class="l1" d="M979.346 745.936L979.346 767.85"/>
<path class="l1" d="M979.346 767.85L1001.26 767.85"/>
<path class="l1" d="M1001.26 762.371L1001.26 767.85"/>
<path class="l1" d="M951.954 745.936L957.432 745.936"/>
<path class="l1" d="M979.346 767.85L979.346 784.285"/>
<path class="l1" d="M1017.69 745.936L1061.52 745.936"/>
<path class="l1" d="M836.907 88.5246L1286.14 88.5246"/>
<path class="l1" d="M804.036 66.6109L1319.01 66.6109"/>
<path class="l1" d="M979.346 817.155L1143.7 817.155"/>
<path class="l1" d="M1143.7 817.155L1143.7 899.332"/>
<circle class="l1" cx="1319.01" cy="66.6109" r="2.02702"/>
<circle class="l1" cx="1286.14" cy="88.5246" r="2.02702"/>
<circle class="l1" cx="908.126" cy="252.877" r="2.02702"/>
<circle class="l1" cx="908.126" cy="417.23" r="2.02702"/>
<circle class="l1" cx="908.126" cy="581.583" r="2.02702"/>
<circle class="l1" cx="935.518" cy="888.375" r="2.02702"/>
<circle class="l1" cx="935.518" cy="888.375" r="2.02702"/>
<circle class="l1" cx="1061.52" cy="888.375" r="2.02702"/>
<circle class="l1" cx="935.518" cy="888.375" r="2.02702"/>
<circle class="l1" cx="1061.52" cy="126.874" r="2.02702"/>
<circle class="l1" cx="1061.52" cy="252.877" r="2.02702"/>
<circle class="l1" cx="1061.52" cy="252.877" r="2.02702"/>
<circle class="l1" cx="1061.52" cy="126.874" r="2.02702"/>
<circle class="l1" cx="1061.52" cy="126.874" r="2.02702"/>
<circle class="l1" cx="1061.52" cy="252.877" r="2.02702"/>
<circle class="l1" cx="1061.52" cy="252.877" r="2.02702"/>
<circle class="l1" cx="1061.52" cy="417.23" r="2.02702"/>
<circle class="l1" cx="1061.52" cy="417.23" r="2.02702"/>
<circle class="l1" cx="1061.52" cy="581.583" r="2.02702"/>
<circle class="l1" cx="1061.52" cy="417.23" r="2.02702"/>
<circle class="l1" cx="1061.52" cy="417.23" r="2.02702"/>
<circle class="l1" cx="1061.52" cy="745.936" r="2.02702"/>
<circle class="l1" cx="979.346" cy="745.936" r="2.02702"/>
<circle class="l1" cx="979.346" cy="767.85" r="2.02702"/>
<circle class="l1" cx="1061.52" cy="581.583" r="2.02702"/>
<circle class="l1" cx="1061.52" cy="745.936" r="2.02702"/>
<circle class="l1" cx="1143.7" cy="745.936" r="2.02702"/>
<circle class="l1" cx="1143.7" cy="767.85" r="2.02702"/>
<circle class="l1" cx="1061.52" cy="581.583" r="2.02702"/>
<circle class="l1" cx="1061.52" cy="888.375" r="2.02702"/>
<circle class="l1" cx="1061.52" cy="581.583" r="2.02702"/>
<circle class="l1" cx="1143.7" cy="817.155" r="2.02702"/>
<circle class="l1" cx="1143.7" cy="817.155" r="2.02702"/>
<circle class="l1" cx="979.346" cy="767.85" r="2.02702"/>
<circle class="l1" cx="979.346" cy="767.85" r="2.02702"/>
<circle class="l1" cx="1143.7" cy="767.85" r="2.02702"/>
<circle class="l1" cx="1143.7" cy="767.85" r="2.02702"/>
<circle class="l1" cx="1143.7" cy="817.155" r="2.02702"/>
<circle class="l1" cx="1061.52" cy="888.375" r="2.02702"/>
<circle class="l1" cx="1187.53" cy="888.375" r="2.02702"/>
<circle class="l1" cx="1319.01" cy="66.6109" r="2.02702"/>
<circle class="l1" cx="1319.01" cy="66.6109" r="2.02702"/>
<circle class="l1" cx="1286.14" cy="88.5246" r="2.02702"/>
<circle class="l1" cx="1286.14" cy="88.5246" r="2.02702"/>
<circle class="l1" cx="1214.92" cy="252.877" r="2.02702"/>
<circle class="l1" cx="1214.92" cy="417.23" r="2.02702"/>
<circle class="l1" cx="1214.92" cy="581.583" r="2.02702"/>
<circle class="l1" cx="1187.53" cy="888.375" r="2.02702"/>
<circle class="l1" cx="1187.53" cy="888.375" r="2.02702"/>
</svg>
