<svg xmlns="http://www.w3.org/2000/svg" xmlns:xlink="http://www.w3.org/1999/xlink" width="1920" height="947" version="1.1">
<style type="text/css">
.l0{
  fill: #000000;
  stroke: #000000;
  stroke-linecap:round;
  stroke-linejoin:round;
  stroke-width: 1.05283;
}
.l1{
  fill: #00ccee;
  stroke: #00ccee;
  stroke-linecap:round;
  stroke-linejoin:round;
  stroke-width: 1.05283;
}
.l2{
  fill: #4f4f4f; fill-opacity: 0.2;
  stroke: #4f4f4f;
  stroke-linecap:round;
  stroke-linejoin:round;
  stroke-width: 1.05283;
}
.l3{
  fill: #cccccc; fill-opacity: 0.5;
  stroke: #cccccc;
  stroke-linecap:round;
  stroke-linejoin:round;
  stroke-width: 1.05283;
}
.l4{
  fill: #88dd00;
  stroke: #88dd00;
  stroke-linecap:round;
  stroke-linejoin:round;
  stroke-width: 1.05283;
}
.l5{
  fill: #bb2200;
  stroke: #bb2200;
  stroke-linecap:round;
  stroke-linejoin:round;
  stroke-width: 1.05283;
}
.l6{
  fill: #00ccee; fill-opacity: 0.5;
  stroke: #00ccee;
  stroke-linecap:round;
  stroke-linejoin:round;
  stroke-width: 1.05283;
}
.l7{
  fill: #ff0000; fill-opacity: 0.5;
  stroke: #ff0000;
  stroke-linecap:round;
  stroke-linejoin:round;
  stroke-width: 1.05283;
}
.l8{
  fill: #ffff00; fill-opacity: 0.5;
  stroke: #ffff00;
  stroke-linecap:round;
  stroke-linejoin:round;
  stroke-width: 1.05283;
}
.l9{
  fill: #ffffff; fill-opacity: 0.5;
  stroke: #ffffff;
  stroke-linecap:round;
  stroke-linejoin:round;
  stroke-width: 1.05283;
}
.l10{
  fill: #ff00ff;
  stroke: #ff00ff;
  stroke-linecap:round;
  stroke-linejoin:round;
  stroke-width: 1.05283;
}
.l11{
  fill: #00ff00; fill-opacity: 0.5;
  stroke: #00ff00;
  stroke-linecap:round;
  stroke-linejoin:round;
  stroke-width: 1.05283;
}
.l12{
  fill: #0044ff; fill-opacity: 0.5;
  stroke: #0044ff;
  stroke-linecap:round;
  stroke-linejoin:round;
  stroke-width: 1.05283;
}
.l13{
  fill: #aaaa00; fill-opacity: 0.5;
  stroke: #aaaa00;
  stroke-linecap:round;
  stroke-linejoin:round;
  stroke-width: 1.05283;
}
.l14{
  fill: #aaccaa; fill-opacity: 0.2;
  stroke: #aaccaa;
  stroke-linecap:round;
  stroke-linejoin:round;
  stroke-width: 1.05283;
}
.l15{
  fill: #ff7777; fill-opacity: 0.5;
  stroke: #ff7777;
  stroke-linecap:round;
  stroke-linejoin:round;
  stroke-width: 1.05283;
}
.l16{
  fill: #bfff81; fill-opacity: 0.5;
  stroke: #bfff81;
  stroke-linecap:round;
  stroke-linejoin:round;
  stroke-width: 1.05283;
}
.l17{
  fill: #00ffcc; fill-opacity: 0.2;
  stroke: #00ffcc;
  stroke-linecap:round;
  stroke-linejoin:round;
  stroke-width: 1.05283;
}
.l18{
  fill: #ce0097; fill-opacity: 0.5;
  stroke: #ce0097;
  stroke-linecap:round;
  stroke-linejoin:round;
  stroke-width: 1.05283;
}
.l19{
  fill: #d2d46b; fill-opacity: 0.2;
  stroke: #d2d46b;
  stroke-linecap:round;
  stroke-linejoin:round;
  stroke-width: 1.05283;
}
.l20{
  fill: #ef6158; fill-opacity: 0.2;
  stroke: #ef6158;
  stroke-linecap:round;
  stroke-linejoin:round;
  stroke-width: 1.05283;
}
.l21{
  fill: #fdb200; fill-opacity: 0.2;
  stroke: #fdb200;
  stroke-linecap:round;
  stroke-linejoin:round;
  stroke-width: 1.05283;
}
text {font-family: Sans-Serif;}
</style>
<rect class="l0" x="0" y="0" width="1920" height="947"/>
<path class="l4" d="M1030.19 897.034L1084.78 897.034"/>
<path class="l4" d="M1030.19 897.034L1030.19 912.632"/>
<path class="l4" d="M1244.65 772.254L1256.35 772.254"/>
<path class="l4" d="M1244.65 772.254L1244.65 783.952"/>
<path class="l4" d="M1216.87 783.952L1249.04 783.952"/>
<path class="l4" d="M1221.26 772.254L1221.26 783.952"/>
<path class="l4" d="M1209.56 772.254L1221.26 772.254"/>
<path class="l4" d="M1221.26 786.877L1244.65 786.877"/>
<path class="l4" d="M1232.96 791.264L1232.96 795.65"/>
<circle class="l4" cx="1232.96" cy="789.07" r="2.1934" style="fill:none;" />
<path class="l4" d="M1115.98 772.254L1127.67 772.254"/>
<path class="l4" d="M1127.67 760.556L1127.67 772.254"/>
<path class="l4" d="M1123.29 760.556L1155.46 760.556"/>
<path class="l4" d="M1151.07 760.556L1151.07 772.254"/>
<path class="l4" d="M1151.07 772.254L1162.77 772.254"/>
<path class="l4" d="M1127.67 757.631L1151.07 757.631"/>
<path class="l4" d="M1139.37 748.858L1139.37 753.245"/>
<circle class="l4" cx="1139.37" cy="755.438" r="2.1934" style="fill:none;" />
<path class="l4" d="M1115.98 647.474L1127.67 647.474"/>
<path class="l4" d="M1127.67 635.776L1127.67 647.474"/>
<path class="l4" d="M1123.29 635.776L1155.46 635.776"/>
<path class="l4" d="M1151.07 635.776L1151.07 647.474"/>
<path class="l4" d="M1151.07 647.474L1162.77 647.474"/>
<path class="l4" d="M1127.67 632.851L1151.07 632.851"/>
<path class="l4" d="M1139.37 624.078L1139.37 628.464"/>
<circle class="l4" cx="1139.37" cy="630.658" r="2.1934" style="fill:none;" />
<path class="l4" d="M1244.65 647.474L1256.35 647.474"/>
<path class="l4" d="M1244.65 647.474L1244.65 659.172"/>
<path class="l4" d="M1216.87 659.172L1249.04 659.172"/>
<path class="l4" d="M1221.26 647.474L1221.26 659.172"/>
<path class="l4" d="M1209.56 647.474L1221.26 647.474"/>
<path class="l4" d="M1221.26 662.097L1244.65 662.097"/>
<path class="l4" d="M1232.96 666.483L1232.96 670.87"/>
<circle class="l4" cx="1232.96" cy="664.29" r="2.1934" style="fill:none;" />
<path class="l4" d="M1244.65 522.694L1256.35 522.694"/>
<path class="l4" d="M1244.65 522.694L1244.65 534.392"/>
<path class="l4" d="M1216.87 534.392L1249.04 534.392"/>
<path class="l4" d="M1221.26 522.694L1221.26 534.392"/>
<path class="l4" d="M1209.56 522.694L1221.26 522.694"/>
<path class="l4" d="M1221.26 537.316L1244.65 537.316"/>
<path class="l4" d="M1232.96 541.703L1232.96 546.09"/>
<circle class="l4" cx="1232.96" cy="539.51" r="2.1934" style="fill:none;" />
<path class="l4" d="M1115.98 522.694L1127.67 522.694"/>
<path class="l4" d="M1127.67 510.996L1127.67 522.694"/>
<path class="l4" d="M1123.29 510.996L1155.46 510.996"/>
<path class="l4" d="M1151.07 510.996L1151.07 522.694"/>
<path class="l4" d="M1151.07 522.694L1162.77 522.694"/>
<path class="l4" d="M1127.67 508.071L1151.07 508.071"/>
<path class="l4" d="M1139.37 499.298L1139.37 503.684"/>
<circle class="l4" cx="1139.37" cy="505.878" r="2.1934" style="fill:none;" />
<path class="l4" d="M1115.98 397.914L1127.67 397.914"/>
<path class="l4" d="M1127.67 386.216L1127.67 397.914"/>
<path class="l4" d="M1123.29 386.216L1155.46 386.216"/>
<path class="l4" d="M1151.07 386.216L1151.07 397.914"/>
<path class="l4" d="M1151.07 397.914L1162.77 397.914"/>
<path class="l4" d="M1127.67 383.291L1151.07 383.291"/>
<path class="l4" d="M1139.37 374.517L1139.37 378.904"/>
<circle class="l4" cx="1139.37" cy="381.098" r="2.1934" style="fill:none;" />
<path class="l4" d="M1244.65 397.914L1256.35 397.914"/>
<path class="l4" d="M1244.65 397.914L1244.65 409.612"/>
<path class="l4" d="M1216.87 409.612L1249.04 409.612"/>
<path class="l4" d="M1221.26 397.914L1221.26 409.612"/>
<path class="l4" d="M1209.56 397.914L1221.26 397.914"/>
<path class="l4" d="M1221.26 412.536L1244.65 412.536"/>
<path class="l4" d="M1232.96 416.923L1232.96 421.31"/>
<circle class="l4" cx="1232.96" cy="414.73" r="2.1934" style="fill:none;" />
<path class="l4" d="M1244.65 273.134L1256.35 273.134"/>
<path class="l4" d="M1244.65 273.134L1244.65 284.832"/>
<path class="l4" d="M1216.87 284.832L1249.04 284.832"/>
<path class="l4" d="M1221.26 273.134L1221.26 284.832"/>
<path class="l4" d="M1209.56 273.134L1221.26 273.134"/>
<path class="l4" d="M1221.26 287.756L1244.65 287.756"/>
<path class="l4" d="M1232.96 292.143L1232.96 296.53"/>
<circle class="l4" cx="1232.96" cy="289.95" r="2.1934" style="fill:none;" />
<path class="l4" d="M1115.98 273.134L1127.67 273.134"/>
<path class="l4" d="M1127.67 261.435L1127.67 273.134"/>
<path class="l4" d="M1123.29 261.435L1155.46 261.435"/>
<path class="l4" d="M1151.07 261.435L1151.07 273.134"/>
<path class="l4" d="M1151.07 273.134L1162.77 273.134"/>
<path class="l4" d="M1127.67 258.511L1151.07 258.511"/>
<path class="l4" d="M1139.37 249.737L1139.37 254.124"/>
<circle class="l4" cx="1139.37" cy="256.317" r="2.1934" style="fill:none;" />
<path class="l4" d="M1151.07 163.951L1162.77 163.951"/>
<path class="l4" d="M1151.07 152.253L1151.07 163.951"/>
<path class="l4" d="M1123.29 152.253L1155.46 152.253"/>
<path class="l4" d="M1127.67 152.253L1127.67 163.951"/>
<path class="l4" d="M1115.98 163.951L1127.67 163.951"/>
<path class="l4" d="M1127.67 149.328L1151.07 149.328"/>
<path class="l4" d="M1139.37 140.555L1139.37 149.328"/>
<path class="l4" d="M1178.37 163.951L1186.16 163.951"/>
<path class="l4" d="M1173.49 168.338L1191.04 168.338"/>
<path class="l4" d="M1179.34 166.875L1180.8 166.144"/>
<path class="l4" d="M1177.51 167.607L1179.34 166.875"/>
<path class="l4" d="M1176.42 167.972L1177.51 167.607"/>
<path class="l4" d="M1174.22 168.338L1176.42 167.972"/>
<path class="l4" d="M1174.22 168.338L1176.42 168.703"/>
<path class="l4" d="M1176.42 168.703L1177.51 169.069"/>
<path class="l4" d="M1177.51 169.069L1179.34 169.8"/>
<path class="l4" d="M1179.34 169.8L1180.8 170.531"/>
<path class="l4" d="M1322.64 647.474L1334.34 647.474"/>
<path class="l4" d="M1322.64 647.474L1322.64 659.172"/>
<path class="l4" d="M1294.86 659.172L1327.03 659.172"/>
<path class="l4" d="M1299.25 647.474L1299.25 659.172"/>
<path class="l4" d="M1287.55 647.474L1299.25 647.474"/>
<path class="l4" d="M1299.25 662.097L1322.64 662.097"/>
<path class="l4" d="M1310.94 666.483L1310.94 670.87"/>
<circle class="l4" cx="1310.94" cy="664.29" r="2.1934" style="fill:none;" />
<path class="l4" d="M1322.64 522.694L1334.34 522.694"/>
<path class="l4" d="M1322.64 522.694L1322.64 534.392"/>
<path class="l4" d="M1294.86 534.392L1327.03 534.392"/>
<path class="l4" d="M1299.25 522.694L1299.25 534.392"/>
<path class="l4" d="M1287.55 522.694L1299.25 522.694"/>
<path class="l4" d="M1299.25 537.316L1322.64 537.316"/>
<path class="l4" d="M1310.94 541.703L1310.94 546.09"/>
<circle class="l4" cx="1310.94" cy="539.51" r="2.1934" style="fill:none;" />
<path class="l4" d="M1322.64 397.914L1334.34 397.914"/>
<path class="l4" d="M1322.64 397.914L1322.64 409.612"/>
<path class="l4" d="M1294.86 409.612L1327.03 409.612"/>
<path class="l4" d="M1299.25 397.914L1299.25 409.612"/>
<path class="l4" d="M1287.55 397.914L1299.25 397.914"/>
<path class="l4" d="M1299.25 412.536L1322.64 412.536"/>
<path class="l4" d="M1310.94 416.923L1310.94 421.31"/>
<circle class="l4" cx="1310.94" cy="414.73" r="2.1934" style="fill:none;" />
<path class="l4" d="M1322.64 273.134L1334.34 273.134"/>
<path class="l4" d="M1322.64 273.134L1322.64 284.832"/>
<path class="l4" d="M1294.86 284.832L1327.03 284.832"/>
<path class="l4" d="M1299.25 273.134L1299.25 284.832"/>
<path class="l4" d="M1287.55 273.134L1299.25 273.134"/>
<path class="l4" d="M1299.25 287.756L1322.64 287.756"/>
<path class="l4" d="M1310.94 292.143L1310.94 296.53"/>
<circle class="l4" cx="1310.94" cy="289.95" r="2.1934" style="fill:none;" />
<path class="l4" d="M1037.99 772.254L1049.69 772.254"/>
<path class="l4" d="M1049.69 760.556L1049.69 772.254"/>
<path class="l4" d="M1045.3 760.556L1077.47 760.556"/>
<path class="l4" d="M1073.08 760.556L1073.08 772.254"/>
<path class="l4" d="M1073.08 772.254L1084.78 772.254"/>
<path class="l4" d="M1049.69 757.631L1073.08 757.631"/>
<path class="l4" d="M1061.38 748.858L1061.38 753.245"/>
<circle class="l4" cx="1061.38" cy="755.438" r="2.1934" style="fill:none;" />
<path class="l4" d="M1037.99 273.134L1049.69 273.134"/>
<path class="l4" d="M1049.69 261.435L1049.69 273.134"/>
<path class="l4" d="M1045.3 261.435L1077.47 261.435"/>
<path class="l4" d="M1073.08 261.435L1073.08 273.134"/>
<path class="l4" d="M1073.08 273.134L1084.78 273.134"/>
<path class="l4" d="M1049.69 258.511L1073.08 258.511"/>
<path class="l4" d="M1061.38 249.737L1061.38 254.124"/>
<circle class="l4" cx="1061.38" cy="256.317" r="2.1934" style="fill:none;" />
<path class="l4" d="M663.647 772.254L675.345 772.254"/>
<path class="l4" d="M675.345 772.254L675.345 783.952"/>
<path class="l4" d="M670.959 783.952L703.128 783.952"/>
<path class="l4" d="M698.742 772.254L698.742 783.952"/>
<path class="l4" d="M698.742 772.254L710.44 772.254"/>
<path class="l4" d="M675.345 786.877L698.742 786.877"/>
<path class="l4" d="M687.043 791.264L687.043 795.65"/>
<circle class="l4" cx="687.043" cy="789.07" r="2.1934" style="fill:none;" />
<path class="l4" d="M792.327 772.254L804.025 772.254"/>
<path class="l4" d="M792.327 760.556L792.327 772.254"/>
<path class="l4" d="M764.544 760.556L796.713 760.556"/>
<path class="l4" d="M768.93 760.556L768.93 772.254"/>
<path class="l4" d="M757.232 772.254L768.93 772.254"/>
<path class="l4" d="M768.93 757.631L792.327 757.631"/>
<path class="l4" d="M780.629 748.858L780.629 753.245"/>
<circle class="l4" cx="780.629" cy="755.438" r="2.1934" style="fill:none;" />
<path class="l4" d="M792.327 647.474L804.025 647.474"/>
<path class="l4" d="M792.327 635.776L792.327 647.474"/>
<path class="l4" d="M764.544 635.776L796.713 635.776"/>
<path class="l4" d="M768.93 635.776L768.93 647.474"/>
<path class="l4" d="M757.232 647.474L768.93 647.474"/>
<path class="l4" d="M768.93 632.851L792.327 632.851"/>
<path class="l4" d="M780.629 624.078L780.629 628.464"/>
<circle class="l4" cx="780.629" cy="630.658" r="2.1934" style="fill:none;" />
<path class="l4" d="M663.647 647.474L675.345 647.474"/>
<path class="l4" d="M675.345 647.474L675.345 659.172"/>
<path class="l4" d="M670.959 659.172L703.128 659.172"/>
<path class="l4" d="M698.742 647.474L698.742 659.172"/>
<path class="l4" d="M698.742 647.474L710.44 647.474"/>
<path class="l4" d="M675.345 662.097L698.742 662.097"/>
<path class="l4" d="M687.043 666.483L687.043 670.87"/>
<circle class="l4" cx="687.043" cy="664.29" r="2.1934" style="fill:none;" />
<path class="l4" d="M663.647 522.694L675.345 522.694"/>
<path class="l4" d="M675.345 522.694L675.345 534.392"/>
<path class="l4" d="M670.959 534.392L703.128 534.392"/>
<path class="l4" d="M698.742 522.694L698.742 534.392"/>
<path class="l4" d="M698.742 522.694L710.44 522.694"/>
<path class="l4" d="M675.345 537.316L698.742 537.316"/>
<path class="l4" d="M687.043 541.703L687.043 546.09"/>
<circle class="l4" cx="687.043" cy="539.51" r="2.1934" style="fill:none;" />
<path class="l4" d="M792.327 522.694L804.025 522.694"/>
<path class="l4" d="M792.327 510.996L792.327 522.694"/>
<path class="l4" d="M764.544 510.996L796.713 510.996"/>
<path class="l4" d="M768.93 510.996L768.93 522.694"/>
<path class="l4" d="M757.232 522.694L768.93 522.694"/>
<path class="l4" d="M768.93 508.071L792.327 508.071"/>
<path class="l4" d="M780.629 499.298L780.629 503.684"/>
<circle class="l4" cx="780.629" cy="505.878" r="2.1934" style="fill:none;" />
<path class="l4" d="M792.327 397.914L804.025 397.914"/>
<path class="l4" d="M792.327 386.216L792.327 397.914"/>
<path class="l4" d="M764.544 386.216L796.713 386.216"/>
<path class="l4" d="M768.93 386.216L768.93 397.914"/>
<path class="l4" d="M757.232 397.914L768.93 397.914"/>
<path class="l4" d="M768.93 383.291L792.327 383.291"/>
<path class="l4" d="M780.629 374.517L780.629 378.904"/>
<circle class="l4" cx="780.629" cy="381.098" r="2.1934" style="fill:none;" />
<path class="l4" d="M663.647 397.914L675.345 397.914"/>
<path class="l4" d="M675.345 397.914L675.345 409.612"/>
<path class="l4" d="M670.959 409.612L703.128 409.612"/>
<path class="l4" d="M698.742 397.914L698.742 409.612"/>
<path class="l4" d="M698.742 397.914L710.44 397.914"/>
<path class="l4" d="M675.345 412.536L698.742 412.536"/>
<path class="l4" d="M687.043 416.923L687.043 421.31"/>
<circle class="l4" cx="687.043" cy="414.73" r="2.1934" style="fill:none;" />
<path class="l4" d="M663.647 273.134L675.345 273.134"/>
<path class="l4" d="M675.345 273.134L675.345 284.832"/>
<path class="l4" d="M670.959 284.832L703.128 284.832"/>
<path class="l4" d="M698.742 273.134L698.742 284.832"/>
<path class="l4" d="M698.742 273.134L710.44 273.134"/>
<path class="l4" d="M675.345 287.756L698.742 287.756"/>
<path class="l4" d="M687.043 292.143L687.043 296.53"/>
<circle class="l4" cx="687.043" cy="289.95" r="2.1934" style="fill:none;" />
<path class="l4" d="M792.327 273.134L804.025 273.134"/>
<path class="l4" d="M792.327 261.435L792.327 273.134"/>
<path class="l4" d="M764.544 261.435L796.713 261.435"/>
<path class="l4" d="M768.93 261.435L768.93 273.134"/>
<path class="l4" d="M757.232 273.134L768.93 273.134"/>
<path class="l4" d="M768.93 258.511L792.327 258.511"/>
<path class="l4" d="M780.629 249.737L780.629 254.124"/>
<circle class="l4" cx="780.629" cy="256.317" r="2.1934" style="fill:none;" />
<path class="l4" d="M757.232 163.951L768.93 163.951"/>
<path class="l4" d="M768.93 152.253L768.93 163.951"/>
<path class="l4" d="M764.544 152.253L796.713 152.253"/>
<path class="l4" d="M792.327 152.253L792.327 163.951"/>
<path class="l4" d="M792.327 163.951L804.025 163.951"/>
<path class="l4" d="M768.93 149.328L792.327 149.328"/>
<path class="l4" d="M780.629 140.555L780.629 149.328"/>
<path class="l4" d="M733.836 163.951L741.635 163.951"/>
<path class="l4" d="M728.962 168.338L746.509 168.338"/>
<path class="l4" d="M739.198 166.144L740.66 166.875"/>
<path class="l4" d="M740.66 166.875L742.488 167.607"/>
<path class="l4" d="M742.488 167.607L743.584 167.972"/>
<path class="l4" d="M743.584 167.972L745.778 168.338"/>
<path class="l4" d="M743.584 168.703L745.778 168.338"/>
<path class="l4" d="M742.488 169.069L743.584 168.703"/>
<path class="l4" d="M740.66 169.8L742.488 169.069"/>
<path class="l4" d="M739.198 170.531L740.66 169.8"/>
<path class="l4" d="M585.66 647.474L597.358 647.474"/>
<path class="l4" d="M597.358 647.474L597.358 659.172"/>
<path class="l4" d="M592.971 659.172L625.141 659.172"/>
<path class="l4" d="M620.754 647.474L620.754 659.172"/>
<path class="l4" d="M620.754 647.474L632.452 647.474"/>
<path class="l4" d="M597.358 662.097L620.754 662.097"/>
<path class="l4" d="M609.056 666.483L609.056 670.87"/>
<circle class="l4" cx="609.056" cy="664.29" r="2.1934" style="fill:none;" />
<path class="l4" d="M585.66 522.694L597.358 522.694"/>
<path class="l4" d="M597.358 522.694L597.358 534.392"/>
<path class="l4" d="M592.971 534.392L625.141 534.392"/>
<path class="l4" d="M620.754 522.694L620.754 534.392"/>
<path class="l4" d="M620.754 522.694L632.452 522.694"/>
<path class="l4" d="M597.358 537.316L620.754 537.316"/>
<path class="l4" d="M609.056 541.703L609.056 546.09"/>
<circle class="l4" cx="609.056" cy="539.51" r="2.1934" style="fill:none;" />
<path class="l4" d="M585.66 397.914L597.358 397.914"/>
<path class="l4" d="M597.358 397.914L597.358 409.612"/>
<path class="l4" d="M592.971 409.612L625.141 409.612"/>
<path class="l4" d="M620.754 397.914L620.754 409.612"/>
<path class="l4" d="M620.754 397.914L632.452 397.914"/>
<path class="l4" d="M597.358 412.536L620.754 412.536"/>
<path class="l4" d="M609.056 416.923L609.056 421.31"/>
<circle class="l4" cx="609.056" cy="414.73" r="2.1934" style="fill:none;" />
<path class="l4" d="M585.66 273.134L597.358 273.134"/>
<path class="l4" d="M597.358 273.134L597.358 284.832"/>
<path class="l4" d="M592.971 284.832L625.141 284.832"/>
<path class="l4" d="M620.754 273.134L620.754 284.832"/>
<path class="l4" d="M620.754 273.134L632.452 273.134"/>
<path class="l4" d="M597.358 287.756L620.754 287.756"/>
<path class="l4" d="M609.056 292.143L609.056 296.53"/>
<circle class="l4" cx="609.056" cy="289.95" r="2.1934" style="fill:none;" />
<path class="l4" d="M870.314 772.254L882.012 772.254"/>
<path class="l4" d="M870.314 760.556L870.314 772.254"/>
<path class="l4" d="M842.531 760.556L874.701 760.556"/>
<path class="l4" d="M846.918 760.556L846.918 772.254"/>
<path class="l4" d="M835.22 772.254L846.918 772.254"/>
<path class="l4" d="M846.918 757.631L870.314 757.631"/>
<path class="l4" d="M858.616 748.858L858.616 753.245"/>
<circle class="l4" cx="858.616" cy="755.438" r="2.1934" style="fill:none;" />
<path class="l4" d="M870.314 273.134L882.012 273.134"/>
<path class="l4" d="M870.314 261.435L870.314 273.134"/>
<path class="l4" d="M842.531 261.435L874.701 261.435"/>
<path class="l4" d="M846.918 261.435L846.918 273.134"/>
<path class="l4" d="M835.22 273.134L846.918 273.134"/>
<path class="l4" d="M846.918 258.511L870.314 258.511"/>
<path class="l4" d="M858.616 249.737L858.616 254.124"/>
<circle class="l4" cx="858.616" cy="256.317" r="2.1934" style="fill:none;" />
<path class="l5" d="M960 60.1299L960 62.567"/>
<path class="l5" d="M963.899 51.8437L960 48.9192L956.101 51.8437L956.101 57.2054L960 60.1299L963.899 57.2054L963.899 51.8437"/>
<path class="l5" d="M959.025 61.5922L960.975 61.5922L960.975 63.5419L959.025 63.5419L959.025 61.5922z"/>
<path class="l5" d="M1209.17 771.864L1209.95 771.864L1209.95 772.644L1209.17 772.644L1209.17 771.864z"/>
<path class="l5" d="M1232.57 795.26L1233.35 795.26L1233.35 796.04L1232.57 796.04L1232.57 795.26z"/>
<path class="l5" d="M1255.96 771.864L1256.74 771.864L1256.74 772.644L1255.96 772.644L1255.96 771.864z"/>
<path class="l5" d="M1162.38 771.864L1163.16 771.864L1163.16 772.644L1162.38 772.644L1162.38 771.864z"/>
<path class="l5" d="M1138.98 748.468L1139.76 748.468L1139.76 749.248L1138.98 749.248L1138.98 748.468z"/>
<path class="l5" d="M1115.59 771.864L1116.37 771.864L1116.37 772.644L1115.59 772.644L1115.59 771.864z"/>
<path class="l5" d="M1162.38 647.084L1163.16 647.084L1163.16 647.864L1162.38 647.864L1162.38 647.084z"/>
<path class="l5" d="M1138.98 623.688L1139.76 623.688L1139.76 624.468L1138.98 624.468L1138.98 623.688z"/>
<path class="l5" d="M1115.59 647.084L1116.37 647.084L1116.37 647.864L1115.59 647.864L1115.59 647.084z"/>
<path class="l5" d="M1209.17 647.084L1209.95 647.084L1209.95 647.864L1209.17 647.864L1209.17 647.084z"/>
<path class="l5" d="M1232.57 670.48L1233.35 670.48L1233.35 671.26L1232.57 671.26L1232.57 670.48z"/>
<path class="l5" d="M1255.96 647.084L1256.74 647.084L1256.74 647.864L1255.96 647.864L1255.96 647.084z"/>
<path class="l5" d="M1209.17 522.304L1209.95 522.304L1209.95 523.084L1209.17 523.084L1209.17 522.304z"/>
<path class="l5" d="M1232.57 545.7L1233.35 545.7L1233.35 546.48L1232.57 546.48L1232.57 545.7z"/>
<path class="l5" d="M1255.96 522.304L1256.74 522.304L1256.74 523.084L1255.96 523.084L1255.96 522.304z"/>
<path class="l5" d="M1162.38 522.304L1163.16 522.304L1163.16 523.084L1162.38 523.084L1162.38 522.304z"/>
<path class="l5" d="M1138.98 498.908L1139.76 498.908L1139.76 499.687L1138.98 499.687L1138.98 498.908z"/>
<path class="l5" d="M1115.59 522.304L1116.37 522.304L1116.37 523.084L1115.59 523.084L1115.59 522.304z"/>
<path class="l5" d="M1162.38 397.524L1163.16 397.524L1163.16 398.304L1162.38 398.304L1162.38 397.524z"/>
<path class="l5" d="M1138.98 374.127L1139.76 374.127L1139.76 374.907L1138.98 374.907L1138.98 374.127z"/>
<path class="l5" d="M1115.59 397.524L1116.37 397.524L1116.37 398.304L1115.59 398.304L1115.59 397.524z"/>
<path class="l5" d="M1209.17 397.524L1209.95 397.524L1209.95 398.304L1209.17 398.304L1209.17 397.524z"/>
<path class="l5" d="M1232.57 420.92L1233.35 420.92L1233.35 421.7L1232.57 421.7L1232.57 420.92z"/>
<path class="l5" d="M1255.96 397.524L1256.74 397.524L1256.74 398.304L1255.96 398.304L1255.96 397.524z"/>
<path class="l5" d="M1209.17 272.744L1209.95 272.744L1209.95 273.523L1209.17 273.523L1209.17 272.744z"/>
<path class="l5" d="M1232.57 296.14L1233.35 296.14L1233.35 296.92L1232.57 296.92L1232.57 296.14z"/>
<path class="l5" d="M1255.96 272.744L1256.74 272.744L1256.74 273.523L1255.96 273.523L1255.96 272.744z"/>
<path class="l5" d="M1162.38 272.744L1163.16 272.744L1163.16 273.523L1162.38 273.523L1162.38 272.744z"/>
<path class="l5" d="M1138.98 249.347L1139.76 249.347L1139.76 250.127L1138.98 250.127L1138.98 249.347z"/>
<path class="l5" d="M1115.59 272.744L1116.37 272.744L1116.37 273.523L1115.59 273.523L1115.59 272.744z"/>
<path class="l5" d="M1162.38 163.561L1163.16 163.561L1163.16 164.341L1162.38 164.341L1162.38 163.561z"/>
<path class="l5" d="M1138.98 140.165L1139.76 140.165L1139.76 140.945L1138.98 140.945L1138.98 140.165z"/>
<path class="l5" d="M1115.59 163.561L1116.37 163.561L1116.37 164.341L1115.59 164.341L1115.59 163.561z"/>
<path class="l5" d="M1185.77 163.561L1186.55 163.561L1186.55 164.341L1185.77 164.341L1185.77 163.561z"/>
<path class="l5" d="M1177.98 163.561L1178.76 163.561L1178.76 164.341L1177.98 164.341L1177.98 163.561z"/>
<path class="l5" d="M991.195 55.7431L991.195 62.567"/>
<path class="l5" d="M991.195 48.9192L987.296 51.8437L987.296 58.6676L991.195 55.7431L995.094 58.6676L995.094 51.8437L991.195 48.9192"/>
<path class="l5" d="M990.22 61.5922L992.17 61.5922L992.17 63.5419L990.22 63.5419L990.22 61.5922z"/>
<path class="l5" d="M991.195 889.235L991.195 893.135"/>
<path class="l5" d="M991.195 893.135L995.094 896.059L995.094 902.883L991.195 899.959L987.296 902.883L987.296 896.059L991.195 893.135"/>
<path class="l5" d="M990.22 888.261L992.17 888.261L992.17 890.21L990.22 890.21L990.22 888.261z"/>
<path class="l5" d="M928.805 889.235L928.805 891.673"/>
<path class="l5" d="M932.704 899.959L928.805 902.883L924.906 899.959L924.906 894.597L928.805 891.673L932.704 894.597L932.704 899.959"/>
<path class="l5" d="M927.83 888.261L929.78 888.261L929.78 890.21L927.83 890.21L927.83 888.261z"/>
<path class="l5" d="M1287.16 647.084L1287.94 647.084L1287.94 647.864L1287.16 647.864L1287.16 647.084z"/>
<path class="l5" d="M1310.55 670.48L1311.33 670.48L1311.33 671.26L1310.55 671.26L1310.55 670.48z"/>
<path class="l5" d="M1333.95 647.084L1334.73 647.084L1334.73 647.864L1333.95 647.864L1333.95 647.084z"/>
<path class="l5" d="M1287.16 522.304L1287.94 522.304L1287.94 523.084L1287.16 523.084L1287.16 522.304z"/>
<path class="l5" d="M1310.55 545.7L1311.33 545.7L1311.33 546.48L1310.55 546.48L1310.55 545.7z"/>
<path class="l5" d="M1333.95 522.304L1334.73 522.304L1334.73 523.084L1333.95 523.084L1333.95 522.304z"/>
<path class="l5" d="M1287.16 397.524L1287.94 397.524L1287.94 398.304L1287.16 398.304L1287.16 397.524z"/>
<path class="l5" d="M1310.55 420.92L1311.33 420.92L1311.33 421.7L1310.55 421.7L1310.55 420.92z"/>
<path class="l5" d="M1333.95 397.524L1334.73 397.524L1334.73 398.304L1333.95 398.304L1333.95 397.524z"/>
<path class="l5" d="M1287.16 272.744L1287.94 272.744L1287.94 273.523L1287.16 273.523L1287.16 272.744z"/>
<path class="l5" d="M1310.55 296.14L1311.33 296.14L1311.33 296.92L1310.55 296.92L1310.55 296.14z"/>
<path class="l5" d="M1333.95 272.744L1334.73 272.744L1334.73 273.523L1333.95 273.523L1333.95 272.744z"/>
<path class="l5" d="M1084.39 771.864L1085.17 771.864L1085.17 772.644L1084.39 772.644L1084.39 771.864z"/>
<path class="l5" d="M1060.99 748.468L1061.77 748.468L1061.77 749.248L1060.99 749.248L1060.99 748.468z"/>
<path class="l5" d="M1037.6 771.864L1038.38 771.864L1038.38 772.644L1037.6 772.644L1037.6 771.864z"/>
<path class="l5" d="M1084.39 272.744L1085.17 272.744L1085.17 273.523L1084.39 273.523L1084.39 272.744z"/>
<path class="l5" d="M1060.99 249.347L1061.77 249.347L1061.77 250.127L1060.99 250.127L1060.99 249.347z"/>
<path class="l5" d="M1037.6 272.744L1038.38 272.744L1038.38 273.523L1037.6 273.523L1037.6 272.744z"/>
<path class="l5" d="M710.05 771.864L710.83 771.864L710.83 772.644L710.05 772.644L710.05 771.864z"/>
<path class="l5" d="M686.654 795.26L687.433 795.26L687.433 796.04L686.654 796.04L686.654 795.26z"/>
<path class="l5" d="M663.257 771.864L664.037 771.864L664.037 772.644L663.257 772.644L663.257 771.864z"/>
<path class="l5" d="M756.842 771.864L757.622 771.864L757.622 772.644L756.842 772.644L756.842 771.864z"/>
<path class="l5" d="M780.239 748.468L781.018 748.468L781.018 749.248L780.239 749.248L780.239 748.468z"/>
<path class="l5" d="M803.635 771.864L804.415 771.864L804.415 772.644L803.635 772.644L803.635 771.864z"/>
<path class="l5" d="M756.842 647.084L757.622 647.084L757.622 647.864L756.842 647.864L756.842 647.084z"/>
<path class="l5" d="M780.239 623.688L781.018 623.688L781.018 624.468L780.239 624.468L780.239 623.688z"/>
<path class="l5" d="M803.635 647.084L804.415 647.084L804.415 647.864L803.635 647.864L803.635 647.084z"/>
<path class="l5" d="M710.05 647.084L710.83 647.084L710.83 647.864L710.05 647.864L710.05 647.084z"/>
<path class="l5" d="M686.654 670.48L687.433 670.48L687.433 671.26L686.654 671.26L686.654 670.48z"/>
<path class="l5" d="M663.257 647.084L664.037 647.084L664.037 647.864L663.257 647.864L663.257 647.084z"/>
<path class="l5" d="M710.05 522.304L710.83 522.304L710.83 523.084L710.05 523.084L710.05 522.304z"/>
<path class="l5" d="M686.654 545.7L687.433 545.7L687.433 546.48L686.654 546.48L686.654 545.7z"/>
<path class="l5" d="M663.257 522.304L664.037 522.304L664.037 523.084L663.257 523.084L663.257 522.304z"/>
<path class="l5" d="M756.842 522.304L757.622 522.304L757.622 523.084L756.842 523.084L756.842 522.304z"/>
<path class="l5" d="M780.239 498.908L781.018 498.908L781.018 499.687L780.239 499.687L780.239 498.908z"/>
<path class="l5" d="M803.635 522.304L804.415 522.304L804.415 523.084L803.635 523.084L803.635 522.304z"/>
<path class="l5" d="M756.842 397.524L757.622 397.524L757.622 398.304L756.842 398.304L756.842 397.524z"/>
<path class="l5" d="M780.239 374.127L781.018 374.127L781.018 374.907L780.239 374.907L780.239 374.127z"/>
<path class="l5" d="M803.635 397.524L804.415 397.524L804.415 398.304L803.635 398.304L803.635 397.524z"/>
<path class="l5" d="M710.05 397.524L710.83 397.524L710.83 398.304L710.05 398.304L710.05 397.524z"/>
<path class="l5" d="M686.654 420.92L687.433 420.92L687.433 421.7L686.654 421.7L686.654 420.92z"/>
<path class="l5" d="M663.257 397.524L664.037 397.524L664.037 398.304L663.257 398.304L663.257 397.524z"/>
<path class="l5" d="M710.05 272.744L710.83 272.744L710.83 273.523L710.05 273.523L710.05 272.744z"/>
<path class="l5" d="M686.654 296.14L687.433 296.14L687.433 296.92L686.654 296.92L686.654 296.14z"/>
<path class="l5" d="M663.257 272.744L664.037 272.744L664.037 273.523L663.257 273.523L663.257 272.744z"/>
<path class="l5" d="M756.842 272.744L757.622 272.744L757.622 273.523L756.842 273.523L756.842 272.744z"/>
<path class="l5" d="M780.239 249.347L781.018 249.347L781.018 250.127L780.239 250.127L780.239 249.347z"/>
<path class="l5" d="M803.635 272.744L804.415 272.744L804.415 273.523L803.635 273.523L803.635 272.744z"/>
<path class="l5" d="M756.842 163.561L757.622 163.561L757.622 164.341L756.842 164.341L756.842 163.561z"/>
<path class="l5" d="M780.239 140.165L781.018 140.165L781.018 140.945L780.239 140.945L780.239 140.165z"/>
<path class="l5" d="M803.635 163.561L804.415 163.561L804.415 164.341L803.635 164.341L803.635 163.561z"/>
<path class="l5" d="M733.446 163.561L734.226 163.561L734.226 164.341L733.446 164.341L733.446 163.561z"/>
<path class="l5" d="M741.245 163.561L742.025 163.561L742.025 164.341L741.245 164.341L741.245 163.561z"/>
<path class="l5" d="M632.062 647.084L632.842 647.084L632.842 647.864L632.062 647.864L632.062 647.084z"/>
<path class="l5" d="M608.666 670.48L609.446 670.48L609.446 671.26L608.666 671.26L608.666 670.48z"/>
<path class="l5" d="M585.27 647.084L586.05 647.084L586.05 647.864L585.27 647.864L585.27 647.084z"/>
<path class="l5" d="M632.062 522.304L632.842 522.304L632.842 523.084L632.062 523.084L632.062 522.304z"/>
<path class="l5" d="M608.666 545.7L609.446 545.7L609.446 546.48L608.666 546.48L608.666 545.7z"/>
<path class="l5" d="M585.27 522.304L586.05 522.304L586.05 523.084L585.27 523.084L585.27 522.304z"/>
<path class="l5" d="M632.062 397.524L632.842 397.524L632.842 398.304L632.062 398.304L632.062 397.524z"/>
<path class="l5" d="M608.666 420.92L609.446 420.92L609.446 421.7L608.666 421.7L608.666 420.92z"/>
<path class="l5" d="M585.27 397.524L586.05 397.524L586.05 398.304L585.27 398.304L585.27 397.524z"/>
<path class="l5" d="M632.062 272.744L632.842 272.744L632.842 273.523L632.062 273.523L632.062 272.744z"/>
<path class="l5" d="M608.666 296.14L609.446 296.14L609.446 296.92L608.666 296.92L608.666 296.14z"/>
<path class="l5" d="M585.27 272.744L586.05 272.744L586.05 273.523L585.27 273.523L585.27 272.744z"/>
<path class="l5" d="M834.83 771.864L835.61 771.864L835.61 772.644L834.83 772.644L834.83 771.864z"/>
<path class="l5" d="M858.226 748.468L859.006 748.468L859.006 749.248L858.226 749.248L858.226 748.468z"/>
<path class="l5" d="M881.622 771.864L882.402 771.864L882.402 772.644L881.622 772.644L881.622 771.864z"/>
<path class="l5" d="M834.83 272.744L835.61 272.744L835.61 273.523L834.83 273.523L834.83 272.744z"/>
<path class="l5" d="M858.226 249.347L859.006 249.347L859.006 250.127L858.226 250.127L858.226 249.347z"/>
<path class="l5" d="M881.622 272.744L882.402 272.744L882.402 273.523L881.622 273.523L881.622 272.744z"/>
<text fill="#cccccc"  xml:space="preserve" font-size="12.1661" transform="translate(1034.09, 892.483)" >SPICE</text>
<text fill="#cccccc"  xml:space="preserve" font-size="12.1661" style="font-family:Monospace;" transform="translate(1041.89, 911.98)" >.param len_div=4 wid_div=3 len=4 wid=3</text>
<text fill="#00ccee"  xml:space="preserve" font-size="13.3827" transform="translate(964.84, 47.0913) rotate(270)" >GND</text>
<text fill="#cccccc"  xml:space="preserve" font-size="8.11071" transform="translate(1254.07, 768.355) rotate(270)" >M1</text>
<text fill="#cccccc"  xml:space="preserve" font-size="8.11071" transform="translate(1242.37, 768.355) rotate(270)" >pfet_01v8</text>
<text fill="#aaaa00"  xml:space="preserve" font-size="8.11071" transform="translate(1230.67, 768.355) rotate(270)" >1 x {wid_div} / {len_div}</text>
<text fill="#cccccc"  xml:space="preserve" font-size="8.11071" transform="translate(1123.69, 793.153) rotate(270)" >M13</text>
<text fill="#cccccc"  xml:space="preserve" font-size="8.11071" transform="translate(1135.39, 815.153) rotate(270)" >pfet_01v8</text>
<text fill="#aaaa00"  xml:space="preserve" font-size="8.11071" transform="translate(1147.09, 864.153) rotate(270)" >1 x {wid_div} / {len_div}</text>
<text fill="#cccccc"  xml:space="preserve" font-size="8.11071" transform="translate(1123.69, 668.373) rotate(270)" >M14</text>
<text fill="#cccccc"  xml:space="preserve" font-size="8.11071" transform="translate(1135.39, 690.373) rotate(270)" >pfet_01v8</text>
<text fill="#aaaa00"  xml:space="preserve" font-size="8.11071" transform="translate(1147.09, 739.373) rotate(270)" >1 x {wid_div} / {len_div}</text>
<text fill="#cccccc"  xml:space="preserve" font-size="8.11071" transform="translate(1254.07, 643.575) rotate(270)" >M15</text>
<text fill="#cccccc"  xml:space="preserve" font-size="8.11071" transform="translate(1242.37, 643.575) rotate(270)" >pfet_01v8</text>
<text fill="#aaaa00"  xml:space="preserve" font-size="8.11071" transform="translate(1230.67, 643.575) rotate(270)" >1 x {wid_div} / {len_div}</text>
<text fill="#cccccc"  xml:space="preserve" font-size="8.11071" transform="translate(1254.07, 518.794) rotate(270)" >M16</text>
<text fill="#cccccc"  xml:space="preserve" font-size="8.11071" transform="translate(1242.37, 518.794) rotate(270)" >pfet_01v8</text>
<text fill="#aaaa00"  xml:space="preserve" font-size="8.11071" transform="translate(1230.67, 518.794) rotate(270)" >1 x {wid_div} / {len_div}</text>
<text fill="#cccccc"  xml:space="preserve" font-size="8.11071" transform="translate(1123.69, 543.593) rotate(270)" >M17</text>
<text fill="#cccccc"  xml:space="preserve" font-size="8.11071" transform="translate(1135.39, 565.593) rotate(270)" >pfet_01v8</text>
<text fill="#aaaa00"  xml:space="preserve" font-size="8.11071" transform="translate(1147.09, 614.593) rotate(270)" >1 x {wid_div} / {len_div}</text>
<text fill="#cccccc"  xml:space="preserve" font-size="8.11071" transform="translate(1123.69, 418.813) rotate(270)" >M18</text>
<text fill="#cccccc"  xml:space="preserve" font-size="8.11071" transform="translate(1135.39, 440.813) rotate(270)" >pfet_01v8</text>
<text fill="#aaaa00"  xml:space="preserve" font-size="8.11071" transform="translate(1147.09, 489.813) rotate(270)" >1 x {wid_div} / {len_div}</text>
<text fill="#cccccc"  xml:space="preserve" font-size="8.11071" transform="translate(1254.07, 394.014) rotate(270)" >M19</text>
<text fill="#cccccc"  xml:space="preserve" font-size="8.11071" transform="translate(1242.37, 394.014) rotate(270)" >pfet_01v8</text>
<text fill="#aaaa00"  xml:space="preserve" font-size="8.11071" transform="translate(1230.67, 394.014) rotate(270)" >1 x {wid_div} / {len_div}</text>
<text fill="#cccccc"  xml:space="preserve" font-size="8.11071" transform="translate(1254.07, 269.234) rotate(270)" >M20</text>
<text fill="#cccccc"  xml:space="preserve" font-size="8.11071" transform="translate(1242.37, 269.234) rotate(270)" >pfet_01v8</text>
<text fill="#aaaa00"  xml:space="preserve" font-size="8.11071" transform="translate(1230.67, 269.234) rotate(270)" >1 x {wid_div} / {len_div}</text>
<text fill="#cccccc"  xml:space="preserve" font-size="8.11071" transform="translate(1123.69, 294.033) rotate(270)" >M21</text>
<text fill="#cccccc"  xml:space="preserve" font-size="8.11071" transform="translate(1135.39, 316.033) rotate(270)" >pfet_01v8</text>
<text fill="#aaaa00"  xml:space="preserve" font-size="8.11071" transform="translate(1147.09, 365.033) rotate(270)" >1 x {wid_div} / {len_div}</text>
<text fill="#cccccc"  xml:space="preserve" font-size="8.11071" transform="translate(1148.78, 184.85) rotate(270)" >M22</text>
<text fill="#cccccc"  xml:space="preserve" font-size="8.11071" transform="translate(1137.08, 206.85) rotate(270)" >nfet_01v8</text>
<text fill="#aaaa00"  xml:space="preserve" font-size="8.11071" transform="translate(1125.39, 197.85) rotate(270)" >1 x 3 / 3</text>
<text fill="#cccccc"  xml:space="preserve" font-size="8.11071" transform="translate(1185.83, 202.43) rotate(270)" >Vibdiv1</text>
<text fill="#00ccee"  xml:space="preserve" font-size="13.3827" transform="translate(996.523, 46.9695) rotate(270)" >Vbn2</text>
<text fill="#00ccee"  xml:space="preserve" font-size="13.3827" transform="translate(994.82, 927.858) rotate(270)" >Vbp</text>
<text fill="#00ccee"  xml:space="preserve" font-size="13.3827" transform="translate(933.645, 932.711) rotate(270)" >VDD</text>
<text fill="#cccccc"  xml:space="preserve" font-size="8.11071" transform="translate(1332.05, 643.575) rotate(270)" >M23</text>
<text fill="#cccccc"  xml:space="preserve" font-size="8.11071" transform="translate(1320.35, 643.575) rotate(270)" >pfet_01v8</text>
<text fill="#aaaa00"  xml:space="preserve" font-size="8.11071" transform="translate(1308.66, 643.575) rotate(270)" >1 x {wid_div} / {len_div}</text>
<text fill="#cccccc"  xml:space="preserve" font-size="8.11071" transform="translate(1332.05, 518.794) rotate(270)" >M24</text>
<text fill="#cccccc"  xml:space="preserve" font-size="8.11071" transform="translate(1320.35, 518.794) rotate(270)" >pfet_01v8</text>
<text fill="#aaaa00"  xml:space="preserve" font-size="8.11071" transform="translate(1308.66, 518.794) rotate(270)" >1 x {wid_div} / {len_div}</text>
<text fill="#cccccc"  xml:space="preserve" font-size="8.11071" transform="translate(1332.05, 394.014) rotate(270)" >M25</text>
<text fill="#cccccc"  xml:space="preserve" font-size="8.11071" transform="translate(1320.35, 394.014) rotate(270)" >pfet_01v8</text>
<text fill="#aaaa00"  xml:space="preserve" font-size="8.11071" transform="translate(1308.66, 394.014) rotate(270)" >1 x {wid_div} / {len_div}</text>
<text fill="#cccccc"  xml:space="preserve" font-size="8.11071" transform="translate(1332.05, 269.234) rotate(270)" >M26</text>
<text fill="#cccccc"  xml:space="preserve" font-size="8.11071" transform="translate(1320.35, 269.234) rotate(270)" >pfet_01v8</text>
<text fill="#aaaa00"  xml:space="preserve" font-size="8.11071" transform="translate(1308.66, 269.234) rotate(270)" >1 x {wid_div} / {len_div}</text>
<text fill="#cccccc"  xml:space="preserve" font-size="8.11071" transform="translate(1045.7, 793.153) rotate(270)" >M28</text>
<text fill="#cccccc"  xml:space="preserve" font-size="8.11071" transform="translate(1057.4, 815.153) rotate(270)" >pfet_01v8</text>
<text fill="#aaaa00"  xml:space="preserve" font-size="8.11071" transform="translate(1069.1, 864.153) rotate(270)" >1 x {wid_div} / {len_div}</text>
<text fill="#cccccc"  xml:space="preserve" font-size="8.11071" transform="translate(1045.7, 289.033) rotate(270)" >M2</text>
<text fill="#cccccc"  xml:space="preserve" font-size="8.11071" transform="translate(1057.4, 316.033) rotate(270)" >pfet_01v8</text>
<text fill="#aaaa00"  xml:space="preserve" font-size="8.11071" transform="translate(1069.1, 365.033) rotate(270)" >1 x {wid_div} / {len_div}</text>
<text fill="#cccccc"  xml:space="preserve" font-size="8.11071" transform="translate(671.361, 768.355) rotate(270)" >M3</text>
<text fill="#cccccc"  xml:space="preserve" font-size="8.11071" transform="translate(683.059, 768.355) rotate(270)" >pfet_01v8</text>
<text fill="#aaaa00"  xml:space="preserve" font-size="8.11071" transform="translate(694.757, 768.355) rotate(270)" >1 x {wid_div} / {len_div}</text>
<text fill="#cccccc"  xml:space="preserve" font-size="8.11071" transform="translate(801.737, 788.153) rotate(270)" >M4</text>
<text fill="#cccccc"  xml:space="preserve" font-size="8.11071" transform="translate(790.039, 815.153) rotate(270)" >pfet_01v8</text>
<text fill="#aaaa00"  xml:space="preserve" font-size="8.11071" transform="translate(778.341, 864.153) rotate(270)" >1 x {wid_div} / {len_div}</text>
<text fill="#cccccc"  xml:space="preserve" font-size="8.11071" transform="translate(801.737, 663.373) rotate(270)" >M5</text>
<text fill="#cccccc"  xml:space="preserve" font-size="8.11071" transform="translate(790.039, 690.373) rotate(270)" >pfet_01v8</text>
<text fill="#aaaa00"  xml:space="preserve" font-size="8.11071" transform="translate(778.341, 739.373) rotate(270)" >1 x {wid_div} / {len_div}</text>
<text fill="#cccccc"  xml:space="preserve" font-size="8.11071" transform="translate(671.361, 643.575) rotate(270)" >M6</text>
<text fill="#cccccc"  xml:space="preserve" font-size="8.11071" transform="translate(683.059, 643.575) rotate(270)" >pfet_01v8</text>
<text fill="#aaaa00"  xml:space="preserve" font-size="8.11071" transform="translate(694.757, 643.575) rotate(270)" >1 x {wid_div} / {len_div}</text>
<text fill="#cccccc"  xml:space="preserve" font-size="8.11071" transform="translate(671.361, 518.794) rotate(270)" >M7</text>
<text fill="#cccccc"  xml:space="preserve" font-size="8.11071" transform="translate(683.059, 518.794) rotate(270)" >pfet_01v8</text>
<text fill="#aaaa00"  xml:space="preserve" font-size="8.11071" transform="translate(694.757, 518.794) rotate(270)" >1 x {wid_div} / {len_div}</text>
<text fill="#cccccc"  xml:space="preserve" font-size="8.11071" transform="translate(801.737, 538.593) rotate(270)" >M8</text>
<text fill="#cccccc"  xml:space="preserve" font-size="8.11071" transform="translate(790.039, 565.593) rotate(270)" >pfet_01v8</text>
<text fill="#aaaa00"  xml:space="preserve" font-size="8.11071" transform="translate(778.341, 614.593) rotate(270)" >1 x {wid_div} / {len_div}</text>
<text fill="#cccccc"  xml:space="preserve" font-size="8.11071" transform="translate(801.737, 413.813) rotate(270)" >M9</text>
<text fill="#cccccc"  xml:space="preserve" font-size="8.11071" transform="translate(790.039, 440.813) rotate(270)" >pfet_01v8</text>
<text fill="#aaaa00"  xml:space="preserve" font-size="8.11071" transform="translate(778.341, 489.813) rotate(270)" >1 x {wid_div} / {len_div}</text>
<text fill="#cccccc"  xml:space="preserve" font-size="8.11071" transform="translate(671.361, 394.014) rotate(270)" >M10</text>
<text fill="#cccccc"  xml:space="preserve" font-size="8.11071" transform="translate(683.059, 394.014) rotate(270)" >pfet_01v8</text>
<text fill="#aaaa00"  xml:space="preserve" font-size="8.11071" transform="translate(694.757, 394.014) rotate(270)" >1 x {wid_div} / {len_div}</text>
<text fill="#cccccc"  xml:space="preserve" font-size="8.11071" transform="translate(671.361, 269.234) rotate(270)" >M11</text>
<text fill="#cccccc"  xml:space="preserve" font-size="8.11071" transform="translate(683.059, 269.234) rotate(270)" >pfet_01v8</text>
<text fill="#aaaa00"  xml:space="preserve" font-size="8.11071" transform="translate(694.757, 269.234) rotate(270)" >1 x {wid_div} / {len_div}</text>
<text fill="#cccccc"  xml:space="preserve" font-size="8.11071" transform="translate(801.737, 294.033) rotate(270)" >M12</text>
<text fill="#cccccc"  xml:space="preserve" font-size="8.11071" transform="translate(790.039, 316.033) rotate(270)" >pfet_01v8</text>
<text fill="#aaaa00"  xml:space="preserve" font-size="8.11071" transform="translate(778.341, 365.033) rotate(270)" >1 x {wid_div} / {len_div}</text>
<text fill="#cccccc"  xml:space="preserve" font-size="8.11071" transform="translate(776.644, 184.85) rotate(270)" >M27</text>
<text fill="#cccccc"  xml:space="preserve" font-size="8.11071" transform="translate(788.342, 206.85) rotate(270)" >nfet_01v8</text>
<text fill="#aaaa00"  xml:space="preserve" font-size="8.11071" transform="translate(800.04, 197.85) rotate(270)" >1 x 3 / 3</text>
<text fill="#cccccc"  xml:space="preserve" font-size="8.11071" transform="translate(739.6, 202.43) rotate(270)" >Vibdiv2</text>
<text fill="#cccccc"  xml:space="preserve" font-size="8.11071" transform="translate(593.373, 643.575) rotate(270)" >M29</text>
<text fill="#cccccc"  xml:space="preserve" font-size="8.11071" transform="translate(605.071, 643.575) rotate(270)" >pfet_01v8</text>
<text fill="#aaaa00"  xml:space="preserve" font-size="8.11071" transform="translate(616.769, 643.575) rotate(270)" >1 x {wid_div} / {len_div}</text>
<text fill="#cccccc"  xml:space="preserve" font-size="8.11071" transform="translate(593.373, 518.794) rotate(270)" >M30</text>
<text fill="#cccccc"  xml:space="preserve" font-size="8.11071" transform="translate(605.071, 518.794) rotate(270)" >pfet_01v8</text>
<text fill="#aaaa00"  xml:space="preserve" font-size="8.11071" transform="translate(616.769, 518.794) rotate(270)" >1 x {wid_div} / {len_div}</text>
<text fill="#cccccc"  xml:space="preserve" font-size="8.11071" transform="translate(593.373, 394.014) rotate(270)" >M31</text>
<text fill="#cccccc"  xml:space="preserve" font-size="8.11071" transform="translate(605.071, 394.014) rotate(270)" >pfet_01v8</text>
<text fill="#aaaa00"  xml:space="preserve" font-size="8.11071" transform="translate(616.769, 394.014) rotate(270)" >1 x {wid_div} / {len_div}</text>
<text fill="#cccccc"  xml:space="preserve" font-size="8.11071" transform="translate(593.373, 269.234) rotate(270)" >M32</text>
<text fill="#cccccc"  xml:space="preserve" font-size="8.11071" transform="translate(605.071, 269.234) rotate(270)" >pfet_01v8</text>
<text fill="#aaaa00"  xml:space="preserve" font-size="8.11071" transform="translate(616.769, 269.234) rotate(270)" >1 x {wid_div} / {len_div}</text>
<text fill="#cccccc"  xml:space="preserve" font-size="8.11071" transform="translate(879.725, 793.153) rotate(270)" >M33</text>
<text fill="#cccccc"  xml:space="preserve" font-size="8.11071" transform="translate(868.027, 815.153) rotate(270)" >pfet_01v8</text>
<text fill="#aaaa00"  xml:space="preserve" font-size="8.11071" transform="translate(856.329, 864.153) rotate(270)" >1 x {wid_div} / {len_div}</text>
<text fill="#cccccc"  xml:space="preserve" font-size="8.11071" transform="translate(879.725, 294.033) rotate(270)" >M34</text>
<text fill="#cccccc"  xml:space="preserve" font-size="8.11071" transform="translate(868.027, 316.033) rotate(270)" >pfet_01v8</text>
<text fill="#aaaa00"  xml:space="preserve" font-size="8.11071" transform="translate(856.329, 365.033) rotate(270)" >1 x {wid_div} / {len_div}</text>
<path class="l1" d="M1162.77 772.254L1209.56 772.254"/>
<path class="l1" d="M1162.77 647.474L1209.56 647.474"/>
<path class="l1" d="M1162.77 522.694L1209.56 522.694"/>
<path class="l1" d="M1162.77 397.914L1209.56 397.914"/>
<path class="l1" d="M960 647.474L1022.39 647.474"/>
<path class="l1" d="M960 522.694L1022.39 522.694"/>
<path class="l1" d="M960 397.914L1022.39 397.914"/>
<path class="l1" d="M1139.37 624.078L1139.37 748.858"/>
<path class="l1" d="M1139.37 499.298L1139.37 624.078"/>
<path class="l1" d="M1139.37 374.517L1139.37 499.298"/>
<path class="l1" d="M1139.37 249.737L1139.37 374.517"/>
<path class="l1" d="M1139.37 709.864L1232.96 709.864"/>
<path class="l1" d="M1232.96 546.09L1232.96 585.084"/>
<path class="l1" d="M1139.37 585.084L1232.96 585.084"/>
<path class="l1" d="M1232.96 421.31L1232.96 460.304"/>
<path class="l1" d="M1139.37 460.304L1232.96 460.304"/>
<path class="l1" d="M1232.96 296.53L1232.96 335.524"/>
<path class="l1" d="M1139.37 335.524L1232.96 335.524"/>
<path class="l1" d="M1162.77 273.134L1178.37 273.134"/>
<path class="l1" d="M1186.16 163.951L1201.76 163.951"/>
<path class="l1" d="M1162.77 163.951L1178.37 163.951"/>
<path class="l1" d="M1170.57 132.756L1170.57 163.951"/>
<path class="l1" d="M1139.37 132.756L1170.57 132.756"/>
<path class="l1" d="M1139.37 132.756L1139.37 140.555"/>
<path class="l1" d="M960 163.951L1022.39 163.951"/>
<path class="l1" d="M1100.38 210.743L1100.38 273.134"/>
<path class="l1" d="M1100.38 210.743L1209.56 210.743"/>
<path class="l1" d="M1209.56 163.951L1209.56 210.743"/>
<path class="l1" d="M1201.76 163.951L1209.56 163.951"/>
<path class="l1" d="M1178.37 273.134L1209.56 273.134"/>
<path class="l1" d="M1256.35 273.134L1287.55 273.134"/>
<path class="l1" d="M1271.95 273.134L1271.95 358.92"/>
<path class="l1" d="M1178.37 358.92L1178.37 397.914"/>
<path class="l1" d="M1178.37 483.7L1178.37 522.694"/>
<path class="l1" d="M1271.95 397.914L1271.95 483.7"/>
<path class="l1" d="M1256.35 397.914L1287.55 397.914"/>
<path class="l1" d="M1178.37 608.48L1178.37 647.474"/>
<path class="l1" d="M1271.95 522.694L1271.95 608.48"/>
<path class="l1" d="M1256.35 522.694L1287.55 522.694"/>
<path class="l1" d="M1232.96 670.87L1232.96 709.864"/>
<path class="l1" d="M1178.37 733.26L1178.37 772.254"/>
<path class="l1" d="M1271.95 647.474L1271.95 733.26"/>
<path class="l1" d="M1256.35 647.474L1287.55 647.474"/>
<path class="l1" d="M1053.59 335.524L1139.37 335.524"/>
<path class="l1" d="M991.195 62.567L991.195 109.36"/>
<path class="l1" d="M1170.57 109.36L1170.57 132.756"/>
<path class="l1" d="M960 62.567L960 132.756"/>
<path class="l1" d="M1232.96 795.65L1232.96 826.845"/>
<path class="l1" d="M991.195 826.845L991.195 889.235"/>
<path class="l1" d="M1256.35 772.254L1279.75 772.254"/>
<path class="l1" d="M1178.37 733.26L1271.95 733.26"/>
<path class="l1" d="M1209.56 624.078L1209.56 647.474"/>
<path class="l1" d="M1209.56 624.078L1334.34 624.078"/>
<path class="l1" d="M1334.34 624.078L1334.34 647.474"/>
<path class="l1" d="M1232.96 709.864L1310.94 709.864"/>
<path class="l1" d="M1310.94 670.87L1310.94 709.864"/>
<path class="l1" d="M1178.37 608.48L1271.95 608.48"/>
<path class="l1" d="M1232.96 585.084L1310.94 585.084"/>
<path class="l1" d="M1310.94 546.09L1310.94 585.084"/>
<path class="l1" d="M1209.56 499.298L1209.56 522.694"/>
<path class="l1" d="M1209.56 499.298L1334.34 499.298"/>
<path class="l1" d="M1334.34 499.298L1334.34 522.694"/>
<path class="l1" d="M1178.37 483.7L1271.95 483.7"/>
<path class="l1" d="M1209.56 374.517L1209.56 397.914"/>
<path class="l1" d="M1209.56 374.517L1334.34 374.517"/>
<path class="l1" d="M1334.34 374.517L1334.34 397.914"/>
<path class="l1" d="M1310.94 421.31L1310.94 460.304"/>
<path class="l1" d="M1232.96 460.304L1310.94 460.304"/>
<path class="l1" d="M1178.37 358.92L1271.95 358.92"/>
<path class="l1" d="M1310.94 296.53L1310.94 335.524"/>
<path class="l1" d="M1232.96 335.524L1310.94 335.524"/>
<path class="l1" d="M1209.56 249.737L1209.56 273.134"/>
<path class="l1" d="M1209.56 249.737L1334.34 249.737"/>
<path class="l1" d="M1334.34 249.737L1334.34 273.134"/>
<path class="l1" d="M1022.39 163.951L1115.98 163.951"/>
<path class="l1" d="M1084.78 273.134L1115.98 273.134"/>
<path class="l1" d="M1162.77 273.134L1162.77 296.53"/>
<path class="l1" d="M1037.99 296.53L1162.77 296.53"/>
<path class="l1" d="M1037.99 273.134L1037.99 296.53"/>
<path class="l1" d="M960 335.524L1053.59 335.524"/>
<path class="l1" d="M1022.39 397.914L1115.98 397.914"/>
<path class="l1" d="M1022.39 522.694L1115.98 522.694"/>
<path class="l1" d="M1022.39 647.474L1115.98 647.474"/>
<path class="l1" d="M1084.78 772.254L1115.98 772.254"/>
<path class="l1" d="M1162.77 772.254L1162.77 795.65"/>
<path class="l1" d="M1037.99 772.254L1037.99 795.65"/>
<path class="l1" d="M1037.99 795.65L1162.77 795.65"/>
<path class="l1" d="M1100.38 717.663L1100.38 772.254"/>
<path class="l1" d="M960 717.663L1100.38 717.663"/>
<path class="l1" d="M960 132.756L960 163.951"/>
<path class="l1" d="M960 163.951L960 335.524"/>
<path class="l1" d="M960 335.524L960 397.914"/>
<path class="l1" d="M960 397.914L960 522.694"/>
<path class="l1" d="M960 522.694L960 647.474"/>
<path class="l1" d="M960 647.474L960 717.663"/>
<path class="l1" d="M1061.38 249.737L1061.38 335.524"/>
<path class="l1" d="M1061.38 335.524L1061.38 748.858"/>
<path class="l1" d="M710.44 772.254L757.232 772.254"/>
<path class="l1" d="M710.44 647.474L757.232 647.474"/>
<path class="l1" d="M710.44 522.694L757.232 522.694"/>
<path class="l1" d="M710.44 397.914L757.232 397.914"/>
<path class="l1" d="M897.61 647.474L960 647.474"/>
<path class="l1" d="M897.61 522.694L960 522.694"/>
<path class="l1" d="M897.61 397.914L960 397.914"/>
<path class="l1" d="M780.629 624.078L780.629 748.858"/>
<path class="l1" d="M780.629 499.298L780.629 624.078"/>
<path class="l1" d="M780.629 374.517L780.629 499.298"/>
<path class="l1" d="M780.629 249.737L780.629 374.517"/>
<path class="l1" d="M687.043 709.864L780.629 709.864"/>
<path class="l1" d="M687.043 546.09L687.043 585.084"/>
<path class="l1" d="M687.043 585.084L780.629 585.084"/>
<path class="l1" d="M687.043 421.31L687.043 460.304"/>
<path class="l1" d="M687.043 460.304L780.629 460.304"/>
<path class="l1" d="M687.043 296.53L687.043 335.524"/>
<path class="l1" d="M687.043 335.524L780.629 335.524"/>
<path class="l1" d="M741.635 273.134L757.232 273.134"/>
<path class="l1" d="M718.238 163.951L733.836 163.951"/>
<path class="l1" d="M741.635 163.951L757.232 163.951"/>
<path class="l1" d="M749.434 132.756L749.434 163.951"/>
<path class="l1" d="M749.434 132.756L780.629 132.756"/>
<path class="l1" d="M780.629 132.756L780.629 140.555"/>
<path class="l1" d="M897.61 163.951L960 163.951"/>
<path class="l1" d="M819.622 210.743L819.622 273.134"/>
<path class="l1" d="M710.44 210.743L819.622 210.743"/>
<path class="l1" d="M710.44 163.951L710.44 210.743"/>
<path class="l1" d="M710.44 163.951L718.238 163.951"/>
<path class="l1" d="M710.44 273.134L741.635 273.134"/>
<path class="l1" d="M632.452 273.134L663.647 273.134"/>
<path class="l1" d="M648.05 273.134L648.05 358.92"/>
<path class="l1" d="M741.635 358.92L741.635 397.914"/>
<path class="l1" d="M741.635 483.7L741.635 522.694"/>
<path class="l1" d="M648.05 397.914L648.05 483.7"/>
<path class="l1" d="M632.452 397.914L663.647 397.914"/>
<path class="l1" d="M741.635 608.48L741.635 647.474"/>
<path class="l1" d="M648.05 522.694L648.05 608.48"/>
<path class="l1" d="M632.452 522.694L663.647 522.694"/>
<path class="l1" d="M687.043 670.87L687.043 709.864"/>
<path class="l1" d="M741.635 733.26L741.635 772.254"/>
<path class="l1" d="M648.05 647.474L648.05 733.26"/>
<path class="l1" d="M632.452 647.474L663.647 647.474"/>
<path class="l1" d="M780.629 335.524L866.415 335.524"/>
<path class="l1" d="M749.434 109.36L749.434 132.756"/>
<path class="l1" d="M687.043 795.65L687.043 826.845"/>
<path class="l1" d="M640.251 772.254L663.647 772.254"/>
<path class="l1" d="M648.05 733.26L741.635 733.26"/>
<path class="l1" d="M710.44 624.078L710.44 647.474"/>
<path class="l1" d="M585.66 624.078L710.44 624.078"/>
<path class="l1" d="M585.66 624.078L585.66 647.474"/>
<path class="l1" d="M609.056 709.864L687.043 709.864"/>
<path class="l1" d="M609.056 670.87L609.056 709.864"/>
<path class="l1" d="M648.05 608.48L741.635 608.48"/>
<path class="l1" d="M609.056 585.084L687.043 585.084"/>
<path class="l1" d="M609.056 546.09L609.056 585.084"/>
<path class="l1" d="M710.44 499.298L710.44 522.694"/>
<path class="l1" d="M585.66 499.298L710.44 499.298"/>
<path class="l1" d="M585.66 499.298L585.66 522.694"/>
<path class="l1" d="M648.05 483.7L741.635 483.7"/>
<path class="l1" d="M710.44 374.517L710.44 397.914"/>
<path class="l1" d="M585.66 374.517L710.44 374.517"/>
<path class="l1" d="M585.66 374.517L585.66 397.914"/>
<path class="l1" d="M609.056 421.31L609.056 460.304"/>
<path class="l1" d="M609.056 460.304L687.043 460.304"/>
<path class="l1" d="M648.05 358.92L741.635 358.92"/>
<path class="l1" d="M609.056 296.53L609.056 335.524"/>
<path class="l1" d="M609.056 335.524L687.043 335.524"/>
<path class="l1" d="M710.44 249.737L710.44 273.134"/>
<path class="l1" d="M585.66 249.737L710.44 249.737"/>
<path class="l1" d="M585.66 249.737L585.66 273.134"/>
<path class="l1" d="M804.025 163.951L897.61 163.951"/>
<path class="l1" d="M804.025 273.134L835.22 273.134"/>
<path class="l1" d="M757.232 273.134L757.232 296.53"/>
<path class="l1" d="M757.232 296.53L882.012 296.53"/>
<path class="l1" d="M882.012 273.134L882.012 296.53"/>
<path class="l1" d="M866.415 335.524L960 335.524"/>
<path class="l1" d="M804.025 397.914L897.61 397.914"/>
<path class="l1" d="M804.025 522.694L897.61 522.694"/>
<path class="l1" d="M804.025 647.474L897.61 647.474"/>
<path class="l1" d="M804.025 772.254L835.22 772.254"/>
<path class="l1" d="M757.232 772.254L757.232 795.65"/>
<path class="l1" d="M882.012 772.254L882.012 795.65"/>
<path class="l1" d="M757.232 795.65L882.012 795.65"/>
<path class="l1" d="M819.622 717.663L819.622 772.254"/>
<path class="l1" d="M819.622 717.663L960 717.663"/>
<path class="l1" d="M858.616 249.737L858.616 335.524"/>
<path class="l1" d="M858.616 335.524L858.616 748.858"/>
<path class="l1" d="M687.043 826.845L1232.96 826.845"/>
<path class="l1" d="M640.251 858.04L1279.75 858.04"/>
<path class="l1" d="M1279.75 772.254L1279.75 858.04"/>
<path class="l1" d="M640.251 772.254L640.251 858.04"/>
<path class="l1" d="M928.805 858.04L928.805 889.235"/>
<path class="l1" d="M749.434 109.36L1170.57 109.36"/>
<circle class="l1" cx="858.616" cy="335.524" r="2.88554"/>
<circle class="l1" cx="749.434" cy="132.756" r="2.88554"/>
<circle class="l1" cx="648.05" cy="273.134" r="2.88554"/>
<circle class="l1" cx="819.622" cy="273.134" r="2.88554"/>
<circle class="l1" cx="749.434" cy="132.756" r="2.88554"/>
<circle class="l1" cx="749.434" cy="132.756" r="2.88554"/>
<circle class="l1" cx="749.434" cy="163.951" r="2.88554"/>
<circle class="l1" cx="858.616" cy="335.524" r="2.88554"/>
<circle class="l1" cx="960" cy="335.524" r="2.88554"/>
<circle class="l1" cx="687.043" cy="335.524" r="2.88554"/>
<circle class="l1" cx="687.043" cy="460.304" r="2.88554"/>
<circle class="l1" cx="687.043" cy="585.084" r="2.88554"/>
<circle class="l1" cx="780.629" cy="335.524" r="2.88554"/>
<circle class="l1" cx="648.05" cy="522.694" r="2.88554"/>
<circle class="l1" cx="648.05" cy="397.914" r="2.88554"/>
<circle class="l1" cx="741.635" cy="522.694" r="2.88554"/>
<circle class="l1" cx="741.635" cy="397.914" r="2.88554"/>
<circle class="l1" cx="687.043" cy="335.524" r="2.88554"/>
<circle class="l1" cx="780.629" cy="335.524" r="2.88554"/>
<circle class="l1" cx="687.043" cy="335.524" r="2.88554"/>
<circle class="l1" cx="687.043" cy="460.304" r="2.88554"/>
<circle class="l1" cx="780.629" cy="460.304" r="2.88554"/>
<circle class="l1" cx="687.043" cy="460.304" r="2.88554"/>
<circle class="l1" cx="687.043" cy="585.084" r="2.88554"/>
<circle class="l1" cx="780.629" cy="585.084" r="2.88554"/>
<circle class="l1" cx="687.043" cy="585.084" r="2.88554"/>
<circle class="l1" cx="960" cy="717.663" r="2.88554"/>
<circle class="l1" cx="819.622" cy="772.254" r="2.88554"/>
<circle class="l1" cx="687.043" cy="709.864" r="2.88554"/>
<circle class="l1" cx="648.05" cy="647.474" r="2.88554"/>
<circle class="l1" cx="741.635" cy="772.254" r="2.88554"/>
<circle class="l1" cx="687.043" cy="709.864" r="2.88554"/>
<circle class="l1" cx="741.635" cy="647.474" r="2.88554"/>
<circle class="l1" cx="687.043" cy="709.864" r="2.88554"/>
<circle class="l1" cx="780.629" cy="709.864" r="2.88554"/>
<circle class="l1" cx="960" cy="163.951" r="2.88554"/>
<circle class="l1" cx="1061.38" cy="335.524" r="2.88554"/>
<circle class="l1" cx="960" cy="163.951" r="2.88554"/>
<circle class="l1" cx="960" cy="335.524" r="2.88554"/>
<circle class="l1" cx="960" cy="163.951" r="2.88554"/>
<circle class="l1" cx="1170.57" cy="132.756" r="2.88554"/>
<circle class="l1" cx="991.195" cy="109.36" r="2.88554"/>
<circle class="l1" cx="1100.38" cy="273.134" r="2.88554"/>
<circle class="l1" cx="960" cy="163.951" r="2.88554"/>
<circle class="l1" cx="1170.57" cy="132.756" r="2.88554"/>
<circle class="l1" cx="1170.57" cy="132.756" r="2.88554"/>
<circle class="l1" cx="1170.57" cy="163.951" r="2.88554"/>
<circle class="l1" cx="960" cy="397.914" r="2.88554"/>
<circle class="l1" cx="960" cy="522.694" r="2.88554"/>
<circle class="l1" cx="1061.38" cy="335.524" r="2.88554"/>
<circle class="l1" cx="960" cy="522.694" r="2.88554"/>
<circle class="l1" cx="960" cy="647.474" r="2.88554"/>
<circle class="l1" cx="960" cy="397.914" r="2.88554"/>
<circle class="l1" cx="960" cy="522.694" r="2.88554"/>
<circle class="l1" cx="960" cy="335.524" r="2.88554"/>
<circle class="l1" cx="960" cy="397.914" r="2.88554"/>
<circle class="l1" cx="960" cy="335.524" r="2.88554"/>
<circle class="l1" cx="1139.37" cy="335.524" r="2.88554"/>
<circle class="l1" cx="1178.37" cy="522.694" r="2.88554"/>
<circle class="l1" cx="1178.37" cy="397.914" r="2.88554"/>
<circle class="l1" cx="1139.37" cy="335.524" r="2.88554"/>
<circle class="l1" cx="1232.96" cy="335.524" r="2.88554"/>
<circle class="l1" cx="1139.37" cy="460.304" r="2.88554"/>
<circle class="l1" cx="1232.96" cy="460.304" r="2.88554"/>
<circle class="l1" cx="1139.37" cy="585.084" r="2.88554"/>
<circle class="l1" cx="1232.96" cy="585.084" r="2.88554"/>
<circle class="l1" cx="960" cy="397.914" r="2.88554"/>
<circle class="l1" cx="960" cy="522.694" r="2.88554"/>
<circle class="l1" cx="928.805" cy="858.04" r="2.88554"/>
<circle class="l1" cx="960" cy="647.474" r="2.88554"/>
<circle class="l1" cx="960" cy="647.474" r="2.88554"/>
<circle class="l1" cx="960" cy="717.663" r="2.88554"/>
<circle class="l1" cx="960" cy="717.663" r="2.88554"/>
<circle class="l1" cx="1100.38" cy="772.254" r="2.88554"/>
<circle class="l1" cx="991.195" cy="826.845" r="2.88554"/>
<circle class="l1" cx="1178.37" cy="772.254" r="2.88554"/>
<circle class="l1" cx="1178.37" cy="647.474" r="2.88554"/>
<circle class="l1" cx="1139.37" cy="709.864" r="2.88554"/>
<circle class="l1" cx="1232.96" cy="709.864" r="2.88554"/>
<circle class="l1" cx="960" cy="647.474" r="2.88554"/>
<circle class="l1" cx="1271.95" cy="273.134" r="2.88554"/>
<circle class="l1" cx="1232.96" cy="335.524" r="2.88554"/>
<circle class="l1" cx="1232.96" cy="460.304" r="2.88554"/>
<circle class="l1" cx="1232.96" cy="585.084" r="2.88554"/>
<circle class="l1" cx="1271.95" cy="522.694" r="2.88554"/>
<circle class="l1" cx="1271.95" cy="397.914" r="2.88554"/>
<circle class="l1" cx="1232.96" cy="335.524" r="2.88554"/>
<circle class="l1" cx="1232.96" cy="460.304" r="2.88554"/>
<circle class="l1" cx="1232.96" cy="585.084" r="2.88554"/>
<circle class="l1" cx="1232.96" cy="709.864" r="2.88554"/>
<circle class="l1" cx="1271.95" cy="647.474" r="2.88554"/>
<circle class="l1" cx="1232.96" cy="709.864" r="2.88554"/>
</svg>
