<svg xmlns="http://www.w3.org/2000/svg" xmlns:xlink="http://www.w3.org/1999/xlink" width="1920" height="947" version="1.1">
<style type="text/css">
.l0{
  fill: #000000;
  stroke: #000000;
  stroke-linecap:round;
  stroke-linejoin:round;
  stroke-width: 1.28159;
}
.l1{
  fill: #00ccee;
  stroke: #00ccee;
  stroke-linecap:round;
  stroke-linejoin:round;
  stroke-width: 1.28159;
}
.l2{
  fill: #4f4f4f; fill-opacity: 0.2;
  stroke: #4f4f4f;
  stroke-linecap:round;
  stroke-linejoin:round;
  stroke-width: 1.28159;
}
.l3{
  fill: #cccccc; fill-opacity: 0.5;
  stroke: #cccccc;
  stroke-linecap:round;
  stroke-linejoin:round;
  stroke-width: 1.28159;
}
.l4{
  fill: #88dd00;
  stroke: #88dd00;
  stroke-linecap:round;
  stroke-linejoin:round;
  stroke-width: 1.28159;
}
.l5{
  fill: #bb2200;
  stroke: #bb2200;
  stroke-linecap:round;
  stroke-linejoin:round;
  stroke-width: 1.28159;
}
.l6{
  fill: #00ccee; fill-opacity: 0.5;
  stroke: #00ccee;
  stroke-linecap:round;
  stroke-linejoin:round;
  stroke-width: 1.28159;
}
.l7{
  fill: #ff0000; fill-opacity: 0.5;
  stroke: #ff0000;
  stroke-linecap:round;
  stroke-linejoin:round;
  stroke-width: 1.28159;
}
.l8{
  fill: #ffff00; fill-opacity: 0.5;
  stroke: #ffff00;
  stroke-linecap:round;
  stroke-linejoin:round;
  stroke-width: 1.28159;
}
.l9{
  fill: #ffffff; fill-opacity: 0.5;
  stroke: #ffffff;
  stroke-linecap:round;
  stroke-linejoin:round;
  stroke-width: 1.28159;
}
.l10{
  fill: #ff00ff;
  stroke: #ff00ff;
  stroke-linecap:round;
  stroke-linejoin:round;
  stroke-width: 1.28159;
}
.l11{
  fill: #00ff00; fill-opacity: 0.5;
  stroke: #00ff00;
  stroke-linecap:round;
  stroke-linejoin:round;
  stroke-width: 1.28159;
}
.l12{
  fill: #0044ff; fill-opacity: 0.5;
  stroke: #0044ff;
  stroke-linecap:round;
  stroke-linejoin:round;
  stroke-width: 1.28159;
}
.l13{
  fill: #aaaa00; fill-opacity: 0.5;
  stroke: #aaaa00;
  stroke-linecap:round;
  stroke-linejoin:round;
  stroke-width: 1.28159;
}
.l14{
  fill: #aaccaa; fill-opacity: 0.2;
  stroke: #aaccaa;
  stroke-linecap:round;
  stroke-linejoin:round;
  stroke-width: 1.28159;
}
.l15{
  fill: #ff7777; fill-opacity: 0.5;
  stroke: #ff7777;
  stroke-linecap:round;
  stroke-linejoin:round;
  stroke-width: 1.28159;
}
.l16{
  fill: #bfff81; fill-opacity: 0.5;
  stroke: #bfff81;
  stroke-linecap:round;
  stroke-linejoin:round;
  stroke-width: 1.28159;
}
.l17{
  fill: #00ffcc; fill-opacity: 0.2;
  stroke: #00ffcc;
  stroke-linecap:round;
  stroke-linejoin:round;
  stroke-width: 1.28159;
}
.l18{
  fill: #ce0097; fill-opacity: 0.5;
  stroke: #ce0097;
  stroke-linecap:round;
  stroke-linejoin:round;
  stroke-width: 1.28159;
}
.l19{
  fill: #d2d46b; fill-opacity: 0.2;
  stroke: #d2d46b;
  stroke-linecap:round;
  stroke-linejoin:round;
  stroke-width: 1.28159;
}
.l20{
  fill: #ef6158; fill-opacity: 0.2;
  stroke: #ef6158;
  stroke-linecap:round;
  stroke-linejoin:round;
  stroke-width: 1.28159;
}
.l21{
  fill: #fdb200; fill-opacity: 0.2;
  stroke: #fdb200;
  stroke-linecap:round;
  stroke-linejoin:round;
  stroke-width: 1.28159;
}
text {font-family: Sans-Serif;}
</style>
<rect class="l0" x="0" y="0" width="1920" height="947"/>
<path class="l4" d="M421.258 43.1594L421.258 57.3993"/>
<path class="l4" d="M421.258 85.879L421.258 100.119"/>
<path class="l4" d="M417.698 64.5192L424.818 64.5192"/>
<path class="l4" d="M421.258 60.9592L421.258 68.0792"/>
<path class="l4" d="M417.698 78.7591L424.818 78.7591"/>
<circle class="l4" cx="421.258" cy="71.6391" r="14.2399" style="fill:none;" />
<path class="l4" d="M421.258 33.6661L421.258 43.1594"/>
<path class="l4" d="M412.359 33.6661L430.158 33.6661"/>
<circle class="l4" cx="421.258" cy="33.6661" r="3.32264" />
<path class="l4" d="M421.258 100.119L421.258 104.865"/>
<path class="l4" d="M412.359 104.865L430.158 104.865"/>
<path class="l4" d="M421.258 117.325L430.158 104.865"/>
<path class="l4" d="M412.359 104.865L421.258 117.325"/>
<path class="l4" d="M1399.06 90.6256L1437.04 90.6256"/>
<path class="l4" d="M1399.06 100.119L1418.05 100.119"/>
<path class="l4" d="M1399.06 109.612L1437.04 109.612"/>
<path class="l4" d="M1399.06 119.105L1427.54 119.105"/>
<path class="l4" d="M1399.06 128.599L1427.54 128.599"/>
<path class="l4" d="M1399.06 138.092L1465.52 138.092"/>
<path class="l4" d="M1399.06 147.585L1418.05 147.585"/>
<path class="l4" d="M1399.06 81.1324L1446.53 81.1324"/>
<path class="l4" d="M1399.06 71.6391L1418.05 71.6391"/>
<path class="l4" d="M1475.01 71.6391L1484.5 71.6391"/>
<path class="l4" d="M1484.5 71.6391L1484.5 166.572"/>
<path class="l4" d="M1399.06 166.572L1484.5 166.572"/>
<path class="l4" d="M1399.06 157.078L1399.06 166.572"/>
<path class="l4" d="M1475.01 62.1459L1475.01 157.078"/>
<path class="l4" d="M1389.57 157.078L1475.01 157.078"/>
<path class="l4" d="M1389.57 62.1459L1389.57 157.078"/>
<path class="l4" d="M1389.57 62.1459L1475.01 62.1459"/>
<path class="l4" d="M1389.57 204.545L1456.02 204.545"/>
<path class="l4" d="M1389.57 204.545L1389.57 223.531"/>
<path class="l4" d="M231.394 43.1594L231.394 57.3993"/>
<path class="l4" d="M231.394 85.879L231.394 100.119"/>
<path class="l4" d="M227.834 64.5192L234.954 64.5192"/>
<path class="l4" d="M231.394 60.9592L231.394 68.0792"/>
<path class="l4" d="M227.834 78.7591L234.954 78.7591"/>
<circle class="l4" cx="231.394" cy="71.6391" r="14.2399" style="fill:none;" />
<path class="l4" d="M231.394 176.065L231.394 190.305"/>
<path class="l4" d="M231.394 218.784L231.394 233.024"/>
<path class="l4" d="M227.834 197.425L234.954 197.425"/>
<path class="l4" d="M231.394 193.865L231.394 200.985"/>
<path class="l4" d="M227.834 211.664L234.954 211.664"/>
<circle class="l4" cx="231.394" cy="204.545" r="14.2399" style="fill:none;" />
<path class="l4" d="M231.394 308.97L231.394 323.21"/>
<path class="l4" d="M231.394 351.69L231.394 365.93"/>
<path class="l4" d="M227.834 330.33L234.954 330.33"/>
<path class="l4" d="M231.394 326.77L231.394 333.89"/>
<path class="l4" d="M227.834 344.57L234.954 344.57"/>
<circle class="l4" cx="231.394" cy="337.45" r="14.2399" style="fill:none;" />
<path class="l4" d="M231.394 100.119L231.394 104.865"/>
<path class="l4" d="M222.494 104.865L240.293 104.865"/>
<path class="l4" d="M231.394 117.325L240.293 104.865"/>
<path class="l4" d="M222.494 104.865L231.394 117.325"/>
<path class="l4" d="M231.394 233.024L231.394 237.771"/>
<path class="l4" d="M222.494 237.771L240.293 237.771"/>
<path class="l4" d="M231.394 250.231L240.293 237.771"/>
<path class="l4" d="M222.494 237.771L231.394 250.231"/>
<path class="l4" d="M231.394 365.93L231.394 370.676"/>
<path class="l4" d="M222.494 370.676L240.293 370.676"/>
<path class="l4" d="M231.394 383.136L240.293 370.676"/>
<path class="l4" d="M222.494 370.676L231.394 383.136"/>
<path class="l4" d="M231.394 441.876L231.394 456.115"/>
<path class="l4" d="M231.394 484.595L231.394 498.835"/>
<path class="l4" d="M227.834 463.235L234.954 463.235"/>
<path class="l4" d="M231.394 459.675L231.394 466.795"/>
<path class="l4" d="M227.834 477.475L234.954 477.475"/>
<circle class="l4" cx="231.394" cy="470.355" r="14.2399" style="fill:none;" />
<path class="l4" d="M231.394 498.835L231.394 503.582"/>
<path class="l4" d="M222.494 503.582L240.293 503.582"/>
<path class="l4" d="M231.394 516.042L240.293 503.582"/>
<path class="l4" d="M222.494 503.582L231.394 516.042"/>
<path class="l4" d="M231.394 574.781L231.394 589.021"/>
<path class="l4" d="M231.394 617.501L231.394 631.741"/>
<path class="l4" d="M227.834 596.141L234.954 596.141"/>
<path class="l4" d="M231.394 592.581L231.394 599.701"/>
<path class="l4" d="M227.834 610.381L234.954 610.381"/>
<circle class="l4" cx="231.394" cy="603.261" r="14.2399" style="fill:none;" />
<path class="l4" d="M231.394 631.741L231.394 636.487"/>
<path class="l4" d="M222.494 636.487L240.293 636.487"/>
<path class="l4" d="M231.394 648.947L240.293 636.487"/>
<path class="l4" d="M222.494 636.487L231.394 648.947"/>
<path class="l4" d="M231.394 707.686L231.394 721.926"/>
<path class="l4" d="M231.394 750.406L231.394 764.646"/>
<path class="l4" d="M227.834 729.046L234.954 729.046"/>
<path class="l4" d="M231.394 725.486L231.394 732.606"/>
<path class="l4" d="M227.834 743.286L234.954 743.286"/>
<circle class="l4" cx="231.394" cy="736.166" r="14.2399" style="fill:none;" />
<path class="l4" d="M231.394 764.646L231.394 769.393"/>
<path class="l4" d="M222.494 769.393L240.293 769.393"/>
<path class="l4" d="M231.394 781.852L240.293 769.393"/>
<path class="l4" d="M222.494 769.393L231.394 781.852"/>
<path class="l4" d="M231.394 840.592L231.394 854.832"/>
<path class="l4" d="M231.394 883.311L231.394 897.551"/>
<path class="l4" d="M227.834 861.952L234.954 861.952"/>
<path class="l4" d="M231.394 858.392L231.394 865.512"/>
<path class="l4" d="M227.834 876.192L234.954 876.192"/>
<circle class="l4" cx="231.394" cy="869.072" r="14.2399" style="fill:none;" />
<path class="l4" d="M231.394 897.551L231.394 902.298"/>
<path class="l4" d="M222.494 902.298L240.293 902.298"/>
<path class="l4" d="M231.394 914.758L240.293 902.298"/>
<path class="l4" d="M222.494 902.298L231.394 914.758"/>
<path class="l4" d="M924.4 128.599L933.894 128.599"/>
<path class="l4" d="M918.467 133.939L939.827 133.939"/>
<path class="l4" d="M925.587 132.159L927.367 131.269"/>
<path class="l4" d="M923.362 133.049L925.587 132.159"/>
<path class="l4" d="M922.027 133.494L923.362 133.049"/>
<path class="l4" d="M919.357 133.939L922.027 133.494"/>
<path class="l4" d="M919.357 133.939L922.027 134.384"/>
<path class="l4" d="M922.027 134.384L923.362 134.829"/>
<path class="l4" d="M923.362 134.829L925.587 135.719"/>
<path class="l4" d="M925.587 135.719L927.367 136.609"/>
<path class="l4" d="M1076.29 204.545L1076.29 209.291"/>
<path class="l4" d="M1067.39 209.291L1085.19 209.291"/>
<path class="l4" d="M1076.29 221.751L1085.19 209.291"/>
<path class="l4" d="M1067.39 209.291L1076.29 221.751"/>
<path class="l4" d="M1076.29 62.1459L1076.29 71.6391"/>
<path class="l4" d="M1067.39 62.1459L1085.19 62.1459"/>
<circle class="l4" cx="1076.29" cy="62.1459" r="3.32264" />
<path class="l4" d="M867.441 337.45L867.441 346.943"/>
<path class="l4" d="M858.541 337.45L876.341 337.45"/>
<circle class="l4" cx="867.441" cy="337.45" r="3.32264" />
<path class="l4" d="M867.441 479.849L867.441 484.595"/>
<path class="l4" d="M858.541 484.595L876.341 484.595"/>
<path class="l4" d="M867.441 497.055L876.341 484.595"/>
<path class="l4" d="M858.541 484.595L867.441 497.055"/>
<path class="l4" d="M810.481 280.49L810.481 285.237"/>
<path class="l4" d="M801.581 285.237L819.381 285.237"/>
<path class="l4" d="M810.481 297.697L819.381 285.237"/>
<path class="l4" d="M801.581 285.237L810.481 297.697"/>
<path class="l4" d="M810.481 33.6661L810.481 43.1594"/>
<path class="l4" d="M801.581 33.6661L819.381 33.6661"/>
<circle class="l4" cx="810.481" cy="33.6661" r="3.32264" />
<path class="l4" d="M734.535 71.6391L734.535 81.1324"/>
<path class="l4" d="M725.636 71.6391L743.435 71.6391"/>
<circle class="l4" cx="734.535" cy="71.6391" r="3.32264" />
<path class="l4" d="M1161.73 128.599L1161.73 138.092"/>
<path class="l4" d="M1167.07 122.665L1167.07 144.025"/>
<path class="l4" d="M1164.4 135.125L1165.29 136.905"/>
<path class="l4" d="M1165.29 136.905L1166.18 139.13"/>
<path class="l4" d="M1166.18 139.13L1166.63 140.465"/>
<path class="l4" d="M1166.63 140.465L1167.07 143.135"/>
<path class="l4" d="M1167.07 143.135L1167.52 140.465"/>
<path class="l4" d="M1167.52 140.465L1167.96 139.13"/>
<path class="l4" d="M1167.96 139.13L1168.85 136.905"/>
<path class="l4" d="M1168.85 136.905L1169.74 135.125"/>
<path class="l4" d="M696.562 356.436L696.562 365.93"/>
<path class="l4" d="M687.663 356.436L705.462 356.436"/>
<circle class="l4" cx="696.562" cy="356.436" r="3.32264" />
<path class="l4" d="M696.562 460.862L696.562 465.609"/>
<path class="l4" d="M687.663 465.609L705.462 465.609"/>
<path class="l4" d="M696.562 478.069L705.462 465.609"/>
<path class="l4" d="M687.663 465.609L696.562 478.069"/>
<path class="l4" d="M1161.73 166.572L1161.73 179.031"/>
<path class="l4" d="M1161.73 179.031L1167.07 181.701"/>
<path class="l4" d="M1156.39 187.041L1167.07 181.701"/>
<path class="l4" d="M1156.39 187.041L1167.07 192.381"/>
<path class="l4" d="M1156.39 197.721L1167.07 192.381"/>
<path class="l4" d="M1156.39 197.721L1167.07 203.061"/>
<path class="l4" d="M1156.39 208.401L1167.07 203.061"/>
<path class="l4" d="M1156.39 208.401L1161.73 211.071"/>
<path class="l4" d="M1161.73 211.071L1161.73 223.531"/>
<path class="l4" d="M1161.73 223.531L1161.73 228.278"/>
<path class="l4" d="M1152.83 228.278L1170.63 228.278"/>
<path class="l4" d="M1161.73 240.738L1170.63 228.278"/>
<path class="l4" d="M1152.83 228.278L1161.73 240.738"/>
<path class="l4" d="M1114.27 299.477L1114.27 308.97"/>
<path class="l4" d="M1105.37 299.477L1123.17 299.477"/>
<circle class="l4" cx="1114.27" cy="299.477" r="3.32264" />
<path class="l4" d="M1114.27 498.835L1114.27 503.582"/>
<path class="l4" d="M1105.37 503.582L1123.17 503.582"/>
<path class="l4" d="M1114.27 516.042L1123.17 503.582"/>
<path class="l4" d="M1105.37 503.582L1114.27 516.042"/>
<path class="l4" d="M867.441 128.599L886.427 128.599"/>
<path class="l4" d="M734.535 252.011L753.522 252.011"/>
<path class="l4" d="M734.535 233.024L753.522 233.024"/>
<path class="l4" d="M734.535 214.038L753.522 214.038"/>
<path class="l4" d="M734.535 195.051L753.522 195.051"/>
<path class="l4" d="M734.535 176.065L753.522 176.065"/>
<path class="l4" d="M734.535 157.078L753.522 157.078"/>
<path class="l4" d="M734.535 138.092L753.522 138.092"/>
<path class="l4" d="M734.535 100.119L753.522 100.119"/>
<path class="l4" d="M734.535 81.1324L753.522 81.1324"/>
<path class="l4" d="M734.535 119.105L753.522 119.105"/>
<path class="l4" style="fill:none;" d="M867.441 62.1459L753.522 62.1459L753.522 261.504L867.441 261.504L867.441 62.1459"/>
<path class="l4" d="M639.603 413.396L658.59 413.396"/>
<path class="l4" d="M734.535 413.396L753.522 413.396"/>
<path class="l4" style="fill:none;" d="M734.535 384.916L658.59 384.916L658.59 441.876L734.535 441.876L734.535 384.916"/>
<path class="l4" d="M1114.27 128.599L1133.25 128.599"/>
<path class="l4" d="M1019.33 128.599L1038.32 128.599"/>
<path class="l4" d="M1019.33 147.585L1038.32 147.585"/>
<path class="l4" d="M1076.29 71.6391L1076.29 90.6256"/>
<path class="l4" d="M1076.29 185.558L1076.29 204.545"/>
<path class="l4" style="fill:none;" d="M1114.27 90.6256L1038.32 90.6256L1038.32 185.558L1114.27 185.558L1114.27 90.6256"/>
<path class="l4" d="M905.414 403.903L924.4 403.903"/>
<path class="l4" d="M905.414 422.889L924.4 422.889"/>
<path class="l4" style="fill:none;" d="M905.414 365.93L829.468 365.93L829.468 460.862L905.414 460.862L905.414 365.93"/>
<path class="l4" d="M1057.31 403.903L1076.29 403.903"/>
<path class="l4" d="M1152.24 403.903L1171.22 403.903"/>
<path class="l4" style="fill:none;" d="M1152.24 327.957L1076.29 327.957L1076.29 479.849L1152.24 479.849L1152.24 327.957"/>
<path class="l5" d="M420.784 42.6847L421.733 42.6847L421.733 43.6341L420.784 43.6341L420.784 42.6847z"/>
<path class="l5" d="M420.784 99.6442L421.733 99.6442L421.733 100.594L420.784 100.594L420.784 99.6442z"/>
<path class="l5" d="M420.784 42.6847L421.733 42.6847L421.733 43.6341L420.784 43.6341L420.784 42.6847z"/>
<path class="l5" d="M420.784 99.6442L421.733 99.6442L421.733 100.594L420.784 100.594L420.784 99.6442z"/>
<path class="l5" d="M230.919 42.6847L231.868 42.6847L231.868 43.6341L230.919 43.6341L230.919 42.6847z"/>
<path class="l5" d="M230.919 99.6442L231.868 99.6442L231.868 100.594L230.919 100.594L230.919 99.6442z"/>
<path class="l5" d="M230.919 175.59L231.868 175.59L231.868 176.539L230.919 176.539L230.919 175.59z"/>
<path class="l5" d="M230.919 232.55L231.868 232.55L231.868 233.499L230.919 233.499L230.919 232.55z"/>
<path class="l5" d="M230.919 308.496L231.868 308.496L231.868 309.445L230.919 309.445L230.919 308.496z"/>
<path class="l5" d="M230.919 365.455L231.868 365.455L231.868 366.404L230.919 366.404L230.919 365.455z"/>
<path class="l5" d="M230.919 99.6442L231.868 99.6442L231.868 100.594L230.919 100.594L230.919 99.6442z"/>
<path class="l5" d="M230.919 232.55L231.868 232.55L231.868 233.499L230.919 233.499L230.919 232.55z"/>
<path class="l5" d="M230.919 365.455L231.868 365.455L231.868 366.404L230.919 366.404L230.919 365.455z"/>
<path class="l5" d="M230.207 41.9727L232.58 41.9727L232.58 44.346L230.207 44.346L230.207 41.9727z"/>
<path class="l5" d="M230.207 174.878L232.58 174.878L232.58 177.251L230.207 177.251L230.207 174.878z"/>
<path class="l5" d="M230.207 307.784L232.58 307.784L232.58 310.157L230.207 310.157L230.207 307.784z"/>
<path class="l5" d="M230.207 440.689L232.58 440.689L232.58 443.062L230.207 443.062L230.207 440.689z"/>
<path class="l5" d="M230.919 441.401L231.868 441.401L231.868 442.35L230.919 442.35L230.919 441.401z"/>
<path class="l5" d="M230.919 498.36L231.868 498.36L231.868 499.31L230.919 499.31L230.919 498.36z"/>
<path class="l5" d="M230.919 498.36L231.868 498.36L231.868 499.31L230.919 499.31L230.919 498.36z"/>
<path class="l5" d="M230.207 573.594L232.58 573.594L232.58 575.968L230.207 575.968L230.207 573.594z"/>
<path class="l5" d="M230.919 574.306L231.868 574.306L231.868 575.256L230.919 575.256L230.919 574.306z"/>
<path class="l5" d="M230.919 631.266L231.868 631.266L231.868 632.215L230.919 632.215L230.919 631.266z"/>
<path class="l5" d="M230.919 631.266L231.868 631.266L231.868 632.215L230.919 632.215L230.919 631.266z"/>
<path class="l5" d="M230.207 706.5L232.58 706.5L232.58 708.873L230.207 708.873L230.207 706.5z"/>
<path class="l5" d="M230.919 707.212L231.868 707.212L231.868 708.161L230.919 708.161L230.919 707.212z"/>
<path class="l5" d="M230.919 764.171L231.868 764.171L231.868 765.121L230.919 765.121L230.919 764.171z"/>
<path class="l5" d="M230.919 764.171L231.868 764.171L231.868 765.121L230.919 765.121L230.919 764.171z"/>
<path class="l5" d="M230.207 839.405L232.58 839.405L232.58 841.779L230.207 841.779L230.207 839.405z"/>
<path class="l5" d="M230.919 840.117L231.868 840.117L231.868 841.067L230.919 841.067L230.919 840.117z"/>
<path class="l5" d="M230.919 897.077L231.868 897.077L231.868 898.026L230.919 898.026L230.919 897.077z"/>
<path class="l5" d="M230.919 897.077L231.868 897.077L231.868 898.026L230.919 898.026L230.919 897.077z"/>
<path class="l5" d="M933.419 128.124L934.368 128.124L934.368 129.073L933.419 129.073L933.419 128.124z"/>
<path class="l5" d="M923.926 128.124L924.875 128.124L924.875 129.073L923.926 129.073L923.926 128.124z"/>
<path class="l5" d="M1160.54 165.385L1162.92 165.385L1162.92 167.758L1160.54 167.758L1160.54 165.385z"/>
<path class="l5" d="M1075.82 204.07L1076.77 204.07L1076.77 205.019L1075.82 205.019L1075.82 204.07z"/>
<path class="l5" d="M1075.82 71.1645L1076.77 71.1645L1076.77 72.1138L1075.82 72.1138L1075.82 71.1645z"/>
<path class="l5" d="M866.966 346.469L867.916 346.469L867.916 347.418L866.966 347.418L866.966 346.469z"/>
<path class="l5" d="M866.966 479.374L867.916 479.374L867.916 480.323L866.966 480.323L866.966 479.374z"/>
<path class="l5" d="M810.007 280.016L810.956 280.016L810.956 280.965L810.007 280.965L810.007 280.016z"/>
<path class="l5" d="M810.007 42.6847L810.956 42.6847L810.956 43.6341L810.007 43.6341L810.007 42.6847z"/>
<path class="l5" d="M734.061 80.6577L735.01 80.6577L735.01 81.607L734.061 81.607L734.061 80.6577z"/>
<path class="l5" d="M733.349 117.919L735.722 117.919L735.722 120.292L733.349 120.292L733.349 117.919z"/>
<path class="l5" d="M733.349 136.905L735.722 136.905L735.722 139.278L733.349 139.278L733.349 136.905z"/>
<path class="l5" d="M733.349 155.892L735.722 155.892L735.722 158.265L733.349 158.265L733.349 155.892z"/>
<path class="l5" d="M733.349 174.878L735.722 174.878L735.722 177.251L733.349 177.251L733.349 174.878z"/>
<path class="l5" d="M733.349 193.865L735.722 193.865L735.722 196.238L733.349 196.238L733.349 193.865z"/>
<path class="l5" d="M733.349 212.851L735.722 212.851L735.722 215.224L733.349 215.224L733.349 212.851z"/>
<path class="l5" d="M733.349 231.838L735.722 231.838L735.722 234.211L733.349 234.211L733.349 231.838z"/>
<path class="l5" d="M733.349 250.824L735.722 250.824L735.722 253.197L733.349 253.197L733.349 250.824z"/>
<path class="l5" d="M980.173 127.412L982.546 127.412L982.546 129.785L980.173 129.785L980.173 127.412z"/>
<path class="l5" d="M923.214 421.702L925.587 421.702L925.587 424.076L923.214 424.076L923.214 421.702z"/>
<path class="l5" d="M1161.26 128.124L1162.21 128.124L1162.21 129.073L1161.26 129.073L1161.26 128.124z"/>
<path class="l5" d="M1161.26 137.617L1162.21 137.617L1162.21 138.566L1161.26 138.566L1161.26 137.617z"/>
<path class="l5" d="M1018.15 146.398L1020.52 146.398L1020.52 148.772L1018.15 148.772L1018.15 146.398z"/>
<path class="l5" d="M923.214 402.716L925.587 402.716L925.587 405.089L923.214 405.089L923.214 402.716z"/>
<path class="l5" d="M638.416 412.209L640.79 412.209L640.79 414.583L638.416 414.583L638.416 412.209z"/>
<path class="l5" d="M696.088 365.455L697.037 365.455L697.037 366.404L696.088 366.404L696.088 365.455z"/>
<path class="l5" d="M696.088 460.387L697.037 460.387L697.037 461.337L696.088 461.337L696.088 460.387z"/>
<path class="l5" d="M752.335 412.209L754.709 412.209L754.709 414.583L752.335 414.583L752.335 412.209z"/>
<path class="l5" d="M1161.26 166.097L1162.21 166.097L1162.21 167.046L1161.26 167.046L1161.26 166.097z"/>
<path class="l5" d="M1161.26 223.056L1162.21 223.056L1162.21 224.006L1161.26 224.006L1161.26 223.056z"/>
<path class="l5" d="M1161.26 223.056L1162.21 223.056L1162.21 224.006L1161.26 224.006L1161.26 223.056z"/>
<path class="l5" d="M1056.12 402.716L1058.49 402.716L1058.49 405.089L1056.12 405.089L1056.12 402.716z"/>
<path class="l5" d="M1113.79 308.496L1114.74 308.496L1114.74 309.445L1113.79 309.445L1113.79 308.496z"/>
<path class="l5" d="M1113.79 498.36L1114.74 498.36L1114.74 499.31L1113.79 499.31L1113.79 498.36z"/>
<path class="l5" d="M1170.04 402.716L1172.41 402.716L1172.41 405.089L1170.04 405.089L1170.04 402.716z"/>
<path class="l5" d="M733.349 98.9322L735.722 98.9322L735.722 101.306L733.349 101.306L733.349 98.9322z"/>
<path class="l5" d="M884.054 126.225L888.801 126.225L888.801 130.972L884.054 130.972L884.054 126.225z"/>
<path class="l5" d="M732.162 249.637L736.909 249.637L736.909 254.384L732.162 254.384L732.162 249.637z"/>
<path class="l5" d="M732.162 230.651L736.909 230.651L736.909 235.398L732.162 235.398L732.162 230.651z"/>
<path class="l5" d="M732.162 211.664L736.909 211.664L736.909 216.411L732.162 216.411L732.162 211.664z"/>
<path class="l5" d="M732.162 192.678L736.909 192.678L736.909 197.425L732.162 197.425L732.162 192.678z"/>
<path class="l5" d="M732.162 173.691L736.909 173.691L736.909 178.438L732.162 178.438L732.162 173.691z"/>
<path class="l5" d="M732.162 154.705L736.909 154.705L736.909 159.452L732.162 159.452L732.162 154.705z"/>
<path class="l5" d="M732.162 135.719L736.909 135.719L736.909 140.465L732.162 140.465L732.162 135.719z"/>
<path class="l5" d="M732.162 97.7455L736.909 97.7455L736.909 102.492L732.162 102.492L732.162 97.7455z"/>
<path class="l5" d="M732.162 78.7591L736.909 78.7591L736.909 83.5057L732.162 83.5057L732.162 78.7591z"/>
<path class="l5" d="M808.108 278.117L812.855 278.117L812.855 282.864L808.108 282.864L808.108 278.117z"/>
<path class="l5" d="M732.162 116.732L736.909 116.732L736.909 121.479L732.162 121.479L732.162 116.732z"/>
<path class="l5" d="M808.108 40.7861L812.855 40.7861L812.855 45.5327L808.108 45.5327L808.108 40.7861z"/>
<path class="l5" d="M637.23 411.023L641.976 411.023L641.976 415.769L637.23 415.769L637.23 411.023z"/>
<path class="l5" d="M694.189 363.556L698.936 363.556L698.936 368.303L694.189 368.303L694.189 363.556z"/>
<path class="l5" d="M751.149 411.023L755.895 411.023L755.895 415.769L751.149 415.769L751.149 411.023z"/>
<path class="l5" d="M694.189 458.489L698.936 458.489L698.936 463.235L694.189 463.235L694.189 458.489z"/>
<path class="l5" d="M1130.88 126.225L1135.63 126.225L1135.63 130.972L1130.88 130.972L1130.88 126.225z"/>
<path class="l5" d="M1016.96 126.225L1021.71 126.225L1021.71 130.972L1016.96 130.972L1016.96 126.225z"/>
<path class="l5" d="M1073.92 202.171L1078.67 202.171L1078.67 206.918L1073.92 206.918L1073.92 202.171z"/>
<path class="l5" d="M1016.96 145.212L1021.71 145.212L1021.71 149.958L1016.96 149.958L1016.96 145.212z"/>
<path class="l5" d="M1073.92 69.2658L1078.67 69.2658L1078.67 74.0124L1073.92 74.0124L1073.92 69.2658z"/>
<path class="l5" d="M865.068 344.57L869.814 344.57L869.814 349.317L865.068 349.317L865.068 344.57z"/>
<path class="l5" d="M922.027 401.529L926.774 401.529L926.774 406.276L922.027 406.276L922.027 401.529z"/>
<path class="l5" d="M922.027 420.516L926.774 420.516L926.774 425.262L922.027 425.262L922.027 420.516z"/>
<path class="l5" d="M865.068 477.475L869.814 477.475L869.814 482.222L865.068 482.222L865.068 477.475z"/>
<path class="l5" d="M1054.93 401.529L1059.68 401.529L1059.68 406.276L1054.93 406.276L1054.93 401.529z"/>
<path class="l5" d="M1111.89 306.597L1116.64 306.597L1116.64 311.344L1111.89 311.344L1111.89 306.597z"/>
<path class="l5" d="M1168.85 401.529L1173.6 401.529L1173.6 406.276L1168.85 406.276L1168.85 401.529z"/>
<path class="l5" d="M1111.89 496.462L1116.64 496.462L1116.64 501.208L1111.89 501.208L1111.89 496.462z"/>
<path class="l7" d="M810.481 261.504L810.481 280.49"/>
<path class="l7" d="M810.481 43.1594L810.481 62.1459"/>
<path class="l7" d="M696.562 365.93L696.562 384.916"/>
<path class="l7" d="M696.562 441.876L696.562 460.862"/>
<path class="l7" d="M867.441 346.943L867.441 365.93"/>
<path class="l7" d="M867.441 460.862L867.441 479.849"/>
<path class="l7" d="M1114.27 308.97L1114.27 327.957"/>
<path class="l7" d="M1114.27 479.849L1114.27 498.835"/>
<text fill="#cccccc"  xml:space="preserve" font-size="9.87297" transform="translate(440.245, 66.9839)" >Vdd</text>
<text fill="#cccccc"  xml:space="preserve" font-size="9.87297" transform="translate(440.245, 81.2237)" >1.8</text>
<text fill="#00ccee"  xml:space="preserve" font-size="9.87297" transform="translate(411.258, 23.6443)" >VDD</text>
<text fill="#00ccee"  xml:space="preserve" font-size="9.87297" transform="translate(410.258, 131.037)" >GND</text>
<text fill="#cccccc"  xml:space="preserve" font-size="14.8095" transform="translate(1384.82, 51.8598)" >Corner: tt</text>
<text fill="#cccccc"  xml:space="preserve" font-size="14.8095" transform="translate(1394.32, 199.005)" >SPICE</text>
<text fill="#cccccc"  xml:space="preserve" font-size="14.8095" style="font-family:Monospace;" transform="translate(1403.81, 222.738)" >*.param len=1 wid=2 len_b=1 wid_b=2</text>
<text fill="#cccccc"  xml:space="preserve" font-size="14.8095" style="font-family:Monospace;" transform="translate(1403.81, 239.725)" >*.dc Vout 0 1.8 0.01</text>
<text fill="#cccccc"  xml:space="preserve" font-size="14.8095" style="font-family:Monospace;" transform="translate(1403.81, 256.711)" >.tran 500n 100m</text>
<text fill="#cccccc"  xml:space="preserve" font-size="14.8095" style="font-family:Monospace;" transform="translate(1403.81, 273.698)" >.save all</text>
<text fill="#cccccc"  xml:space="preserve" font-size="9.87297" transform="translate(250.38, 66.9839)" >VD0</text>
<text fill="#cccccc"  xml:space="preserve" font-size="9.87297" transform="translate(250.38, 81.2237)" >pwl(0 0 99u 0 100u 1.8)</text>
<text fill="#cccccc"  xml:space="preserve" font-size="9.87297" transform="translate(250.38, 199.889)" >VD1</text>
<text fill="#cccccc"  xml:space="preserve" font-size="9.87297" transform="translate(250.38, 214.129)" >pwl(0 0 199u 0 200u 1.8)</text>
<text fill="#cccccc"  xml:space="preserve" font-size="9.87297" transform="translate(250.38, 332.795)" >VD2</text>
<text fill="#cccccc"  xml:space="preserve" font-size="9.87297" transform="translate(250.38, 347.035)" >pwl(0 0 299u 0 300u 1.8)</text>
<text fill="#00ccee"  xml:space="preserve" font-size="9.87297" transform="translate(220.394, 131.037)" >GND</text>
<text fill="#00ccee"  xml:space="preserve" font-size="9.87297" transform="translate(220.394, 263.942)" >GND</text>
<text fill="#00ccee"  xml:space="preserve" font-size="9.87297" transform="translate(220.394, 396.847)" >GND</text>
<text fill="#00ccee"  xml:space="preserve" font-size="16.2904" transform="translate(238.472, 36.0395) rotate(270)" >D0</text>
<text fill="#00ccee"  xml:space="preserve" font-size="16.2904" transform="translate(238.472, 168.945) rotate(270)" >D1</text>
<text fill="#00ccee"  xml:space="preserve" font-size="16.2904" transform="translate(238.472, 301.85) rotate(270)" >D2</text>
<text fill="#00ccee"  xml:space="preserve" font-size="16.2904" transform="translate(238.472, 434.756) rotate(270)" >D3</text>
<text fill="#cccccc"  xml:space="preserve" font-size="9.87297" transform="translate(250.38, 465.7)" >VD3</text>
<text fill="#cccccc"  xml:space="preserve" font-size="9.87297" transform="translate(250.38, 479.94)" >pwl(0 0 399u 0 400u 1.8)</text>
<text fill="#00ccee"  xml:space="preserve" font-size="9.87297" transform="translate(220.394, 529.753)" >GND</text>
<text fill="#00ccee"  xml:space="preserve" font-size="16.2904" transform="translate(238.472, 567.661) rotate(270)" >D4</text>
<text fill="#cccccc"  xml:space="preserve" font-size="9.87297" transform="translate(250.38, 598.606)" >VD4</text>
<text fill="#cccccc"  xml:space="preserve" font-size="9.87297" transform="translate(250.38, 612.845)" >pwl(0 0 399u 0 400u 1.8)</text>
<text fill="#00ccee"  xml:space="preserve" font-size="9.87297" transform="translate(220.394, 662.658)" >GND</text>
<text fill="#00ccee"  xml:space="preserve" font-size="16.2904" transform="translate(238.472, 700.567) rotate(270)" >D5</text>
<text fill="#cccccc"  xml:space="preserve" font-size="9.87297" transform="translate(250.38, 731.511)" >VD5</text>
<text fill="#cccccc"  xml:space="preserve" font-size="9.87297" transform="translate(250.38, 745.751)" >pwl(0 0 399u 0 400u 1.8)</text>
<text fill="#00ccee"  xml:space="preserve" font-size="9.87297" transform="translate(220.394, 795.564)" >GND</text>
<text fill="#00ccee"  xml:space="preserve" font-size="16.2904" transform="translate(238.472, 833.472) rotate(270)" >D6</text>
<text fill="#cccccc"  xml:space="preserve" font-size="9.87297" transform="translate(250.38, 864.416)" >VD6</text>
<text fill="#cccccc"  xml:space="preserve" font-size="9.87297" transform="translate(250.38, 878.656)" >pwl(0 0 399u 0 400u 1.8)</text>
<text fill="#00ccee"  xml:space="preserve" font-size="9.87297" transform="translate(220.394, 928.469)" >GND</text>
<text fill="#cccccc"  xml:space="preserve" font-size="9.87297" transform="translate(933.287, 173.355) rotate(270)" >ViTEST</text>
<text fill="#00ccee"  xml:space="preserve" font-size="16.2904" transform="translate(1168.85, 170.391)" >Vout</text>
<text fill="#00ccee"  xml:space="preserve" font-size="9.87297" transform="translate(1065.29, 235.462)" >GND</text>
<text fill="#00ccee"  xml:space="preserve" font-size="9.87297" transform="translate(1066.29, 52.1241)" >VDD</text>
<text fill="#00ccee"  xml:space="preserve" font-size="9.87297" transform="translate(857.441, 327.428)" >VDD</text>
<text fill="#00ccee"  xml:space="preserve" font-size="9.87297" transform="translate(856.441, 510.766)" >GND</text>
<text fill="#00ccee"  xml:space="preserve" font-size="9.87297" transform="translate(799.481, 311.408)" >GND</text>
<text fill="#00ccee"  xml:space="preserve" font-size="9.87297" transform="translate(800.481, 23.6443)" >VDD</text>
<text fill="#00ccee"  xml:space="preserve" font-size="9.87297" transform="translate(724.535, 61.6173)" >VDD</text>
<text fill="#00ccee"  xml:space="preserve" font-size="16.2904" transform="translate(697.416, 126.184)" >Vbn</text>
<text fill="#00ccee"  xml:space="preserve" font-size="16.2904" transform="translate(706.416, 141.912)" >D0</text>
<text fill="#00ccee"  xml:space="preserve" font-size="16.2904" transform="translate(706.416, 160.898)" >D1</text>
<text fill="#00ccee"  xml:space="preserve" font-size="16.2904" transform="translate(706.416, 179.885)" >D2</text>
<text fill="#00ccee"  xml:space="preserve" font-size="16.2904" transform="translate(706.416, 198.871)" >D3</text>
<text fill="#00ccee"  xml:space="preserve" font-size="16.2904" transform="translate(706.416, 217.858)" >D4</text>
<text fill="#00ccee"  xml:space="preserve" font-size="16.2904" transform="translate(706.416, 236.844)" >D5</text>
<text fill="#00ccee"  xml:space="preserve" font-size="16.2904" transform="translate(706.416, 255.831)" >D6</text>
<text fill="#00ccee"  xml:space="preserve" font-size="16.2904" transform="translate(985.18, 121.479) rotate(270)" >VTEST</text>
<text fill="#00ccee"  xml:space="preserve" font-size="16.2904" transform="translate(931.52, 426.709)" >Vbn</text>
<text fill="#cccccc"  xml:space="preserve" font-size="9.87297" transform="translate(1174.49, 135.81)" >Viout</text>
<text fill="#00ccee"  xml:space="preserve" font-size="16.2904" transform="translate(973.213, 154.664)" >Vbn2</text>
<text fill="#00ccee"  xml:space="preserve" font-size="16.2904" transform="translate(931.52, 407.723)" >Vbp</text>
<text fill="#00ccee"  xml:space="preserve" font-size="16.2904" transform="translate(602.483, 420.474)" >Vbp</text>
<text fill="#00ccee"  xml:space="preserve" font-size="9.87297" transform="translate(686.562, 346.415)" >VDD</text>
<text fill="#00ccee"  xml:space="preserve" font-size="9.87297" transform="translate(685.562, 491.78)" >GND</text>
<text fill="#00ccee"  xml:space="preserve" font-size="16.2904" transform="translate(760.642, 417.216)" >Vbn2</text>
<text fill="#cccccc"  xml:space="preserve" font-size="9.87297" transform="translate(1172.77, 190.396)" >R1</text>
<text fill="#cccccc"  xml:space="preserve" font-size="9.87297" transform="translate(1172.77, 204.636)" >1k</text>
<text fill="#aaaa00"  xml:space="preserve" font-size="9.87297" transform="translate(1172.77, 218.876)" >m=1</text>
<text fill="#00ccee"  xml:space="preserve" font-size="9.87297" transform="translate(1150.73, 254.449)" >GND</text>
<text fill="#00ccee"  xml:space="preserve" font-size="16.2904" transform="translate(1020.19, 410.981)" >Vbp</text>
<text fill="#00ccee"  xml:space="preserve" font-size="9.87297" transform="translate(1104.27, 289.455)" >VDD</text>
<text fill="#00ccee"  xml:space="preserve" font-size="9.87297" transform="translate(1103.27, 529.753)" >GND</text>
<text fill="#00ccee"  xml:space="preserve" font-size="16.2904" transform="translate(1178.34, 407.723)" >Vc</text>
<text fill="#00ccee"  xml:space="preserve" font-size="16.2904" transform="translate(709.416, 107.197)" >Vc</text>
<text fill="#cccccc"  xml:space="preserve" font-size="14.8095" transform="translate(812.638, 187.257) rotate(270)" >ladder_lds</text>
<text fill="#cccccc"  xml:space="preserve" font-size="9.87297" transform="translate(824.721, 278.063)" >x1</text>
<text fill="#cccccc"  xml:space="preserve" font-size="9.87297" transform="translate(842.694, 133.766)" >Iout</text>
<text fill="#cccccc"  xml:space="preserve" font-size="9.87297" transform="translate(758.269, 253.448)" >D6</text>
<text fill="#cccccc"  xml:space="preserve" font-size="9.87297" transform="translate(758.269, 234.462)" >D5</text>
<text fill="#cccccc"  xml:space="preserve" font-size="9.87297" transform="translate(758.269, 215.475)" >D4</text>
<text fill="#cccccc"  xml:space="preserve" font-size="9.87297" transform="translate(758.269, 196.489)" >D3</text>
<text fill="#cccccc"  xml:space="preserve" font-size="9.87297" transform="translate(758.269, 177.502)" >D2</text>
<text fill="#cccccc"  xml:space="preserve" font-size="9.87297" transform="translate(758.269, 158.516)" >D1</text>
<text fill="#cccccc"  xml:space="preserve" font-size="9.87297" transform="translate(758.269, 139.529)" >D0</text>
<text fill="#cccccc"  xml:space="preserve" font-size="9.87297" transform="translate(758.269, 101.557)" >Vc</text>
<text fill="#cccccc"  xml:space="preserve" font-size="9.87297" transform="translate(758.269, 82.57)" >Vg</text>
<text fill="#cccccc"  xml:space="preserve" font-size="9.87297" transform="translate(811.919, 256.757) rotate(270)" >GND</text>
<text fill="#cccccc"  xml:space="preserve" font-size="9.87297" transform="translate(758.269, 120.543)" >Vbn</text>
<text fill="#cccccc"  xml:space="preserve" font-size="9.87297" transform="translate(815.649, 86.8925) rotate(270)" >VDD</text>
<text fill="#cccccc"  xml:space="preserve" font-size="9.87297" transform="translate(702.733, 378.692)" >current_divider_lds</text>
<text fill="#cccccc"  xml:space="preserve" font-size="9.87297" transform="translate(701.309, 458.435)" >x2</text>
<text fill="#cccccc"  xml:space="preserve" font-size="9.87297" transform="translate(663.336, 418.563)" >Vbp</text>
<text fill="#cccccc"  xml:space="preserve" font-size="9.87297" transform="translate(701.73, 409.663) rotate(270)" >VDD</text>
<text fill="#cccccc"  xml:space="preserve" font-size="9.87297" transform="translate(705.789, 418.563)" >Vbn2</text>
<text fill="#cccccc"  xml:space="preserve" font-size="9.87297" transform="translate(698, 437.129) rotate(270)" >GND</text>
<text fill="#cccccc"  xml:space="preserve" font-size="9.87297" transform="translate(1082.94, 84.4011)" >mirror_lds</text>
<text fill="#cccccc"  xml:space="preserve" font-size="9.87297" transform="translate(1081.04, 202.117)" >X3</text>
<text fill="#cccccc"  xml:space="preserve" font-size="9.87297" transform="translate(1089.52, 133.766)" >Iout</text>
<text fill="#cccccc"  xml:space="preserve" font-size="9.87297" transform="translate(1043.07, 133.766)" >Iin</text>
<text fill="#cccccc"  xml:space="preserve" font-size="9.87297" transform="translate(1077.73, 180.811) rotate(270)" >GND</text>
<text fill="#cccccc"  xml:space="preserve" font-size="9.87297" transform="translate(1043.07, 152.752)" >Vbn</text>
<text fill="#cccccc"  xml:space="preserve" font-size="9.87297" transform="translate(1081.46, 115.372) rotate(270)" >VDD</text>
<text fill="#cccccc"  xml:space="preserve" font-size="9.87297" transform="translate(875.035, 359.705)" >bias_gen_lds</text>
<text fill="#cccccc"  xml:space="preserve" font-size="9.87297" transform="translate(872.187, 467.928)" >x4</text>
<text fill="#cccccc"  xml:space="preserve" font-size="9.87297" transform="translate(872.608, 390.676) rotate(270)" >VDD</text>
<text fill="#cccccc"  xml:space="preserve" font-size="9.87297" transform="translate(882.667, 409.07)" >Vbp</text>
<text fill="#cccccc"  xml:space="preserve" font-size="9.87297" transform="translate(882.667, 428.057)" >Vbn</text>
<text fill="#cccccc"  xml:space="preserve" font-size="9.87297" transform="translate(868.879, 456.115) rotate(270)" >GND</text>
<text fill="#cccccc"  xml:space="preserve" font-size="9.87297" transform="translate(1117.6, 456.423) rotate(270)" >cascode_bias_lds</text>
<text fill="#cccccc"  xml:space="preserve" font-size="9.87297" transform="translate(1119.01, 486.915)" >x5</text>
<text fill="#cccccc"  xml:space="preserve" font-size="9.87297" transform="translate(1081.04, 409.07)" >Vbp</text>
<text fill="#cccccc"  xml:space="preserve" font-size="9.87297" transform="translate(1119.43, 352.703) rotate(270)" >VDD</text>
<text fill="#cccccc"  xml:space="preserve" font-size="9.87297" transform="translate(1136.49, 409.07)" >Vc</text>
<text fill="#cccccc"  xml:space="preserve" font-size="9.87297" transform="translate(1115.7, 475.102) rotate(270)" >GND</text>
<path class="l1" d="M933.894 128.599L1019.33 128.599"/>
<path class="l1" d="M1133.25 128.599L1161.73 128.599"/>
<path class="l1" d="M1161.73 138.092L1161.73 166.572"/>
<path class="l1" d="M886.427 128.599L924.4 128.599"/>
</svg>
