<svg xmlns="http://www.w3.org/2000/svg" xmlns:xlink="http://www.w3.org/1999/xlink" width="1920" height="947" version="1.1">
<style type="text/css">
.l0{
  fill: #000000;
  stroke: #000000;
  stroke-linecap:round;
  stroke-linejoin:round;
  stroke-width: 1.54097;
}
.l1{
  fill: #00ccee;
  stroke: #00ccee;
  stroke-linecap:round;
  stroke-linejoin:round;
  stroke-width: 1.54097;
}
.l2{
  fill: #4f4f4f; fill-opacity: 0.2;
  stroke: #4f4f4f;
  stroke-linecap:round;
  stroke-linejoin:round;
  stroke-width: 1.54097;
}
.l3{
  fill: #cccccc; fill-opacity: 0.5;
  stroke: #cccccc;
  stroke-linecap:round;
  stroke-linejoin:round;
  stroke-width: 1.54097;
}
.l4{
  fill: #88dd00;
  stroke: #88dd00;
  stroke-linecap:round;
  stroke-linejoin:round;
  stroke-width: 1.54097;
}
.l5{
  fill: #bb2200;
  stroke: #bb2200;
  stroke-linecap:round;
  stroke-linejoin:round;
  stroke-width: 1.54097;
}
.l6{
  fill: #00ccee; fill-opacity: 0.5;
  stroke: #00ccee;
  stroke-linecap:round;
  stroke-linejoin:round;
  stroke-width: 1.54097;
}
.l7{
  fill: #ff0000; fill-opacity: 0.5;
  stroke: #ff0000;
  stroke-linecap:round;
  stroke-linejoin:round;
  stroke-width: 1.54097;
}
.l8{
  fill: #ffff00; fill-opacity: 0.5;
  stroke: #ffff00;
  stroke-linecap:round;
  stroke-linejoin:round;
  stroke-width: 1.54097;
}
.l9{
  fill: #ffffff; fill-opacity: 0.5;
  stroke: #ffffff;
  stroke-linecap:round;
  stroke-linejoin:round;
  stroke-width: 1.54097;
}
.l10{
  fill: #ff00ff;
  stroke: #ff00ff;
  stroke-linecap:round;
  stroke-linejoin:round;
  stroke-width: 1.54097;
}
.l11{
  fill: #00ff00; fill-opacity: 0.5;
  stroke: #00ff00;
  stroke-linecap:round;
  stroke-linejoin:round;
  stroke-width: 1.54097;
}
.l12{
  fill: #0044ff; fill-opacity: 0.5;
  stroke: #0044ff;
  stroke-linecap:round;
  stroke-linejoin:round;
  stroke-width: 1.54097;
}
.l13{
  fill: #aaaa00; fill-opacity: 0.5;
  stroke: #aaaa00;
  stroke-linecap:round;
  stroke-linejoin:round;
  stroke-width: 1.54097;
}
.l14{
  fill: #aaccaa; fill-opacity: 0.2;
  stroke: #aaccaa;
  stroke-linecap:round;
  stroke-linejoin:round;
  stroke-width: 1.54097;
}
.l15{
  fill: #ff7777; fill-opacity: 0.5;
  stroke: #ff7777;
  stroke-linecap:round;
  stroke-linejoin:round;
  stroke-width: 1.54097;
}
.l16{
  fill: #bfff81; fill-opacity: 0.5;
  stroke: #bfff81;
  stroke-linecap:round;
  stroke-linejoin:round;
  stroke-width: 1.54097;
}
.l17{
  fill: #00ffcc; fill-opacity: 0.2;
  stroke: #00ffcc;
  stroke-linecap:round;
  stroke-linejoin:round;
  stroke-width: 1.54097;
}
.l18{
  fill: #ce0097; fill-opacity: 0.5;
  stroke: #ce0097;
  stroke-linecap:round;
  stroke-linejoin:round;
  stroke-width: 1.54097;
}
.l19{
  fill: #d2d46b; fill-opacity: 0.2;
  stroke: #d2d46b;
  stroke-linecap:round;
  stroke-linejoin:round;
  stroke-width: 1.54097;
}
.l20{
  fill: #ef6158; fill-opacity: 0.2;
  stroke: #ef6158;
  stroke-linecap:round;
  stroke-linejoin:round;
  stroke-width: 1.54097;
}
.l21{
  fill: #fdb200; fill-opacity: 0.2;
  stroke: #fdb200;
  stroke-linecap:round;
  stroke-linejoin:round;
  stroke-width: 1.54097;
}
text {font-family: Sans-Serif;}
</style>
<rect class="l0" x="0" y="0" width="1920" height="947"/>
<path class="l4" d="M454.233 85.9401L454.233 103.062"/>
<path class="l4" d="M454.233 85.9401L471.355 85.9401"/>
<path class="l4" d="M471.355 45.2756L471.355 92.3609"/>
<path class="l4" d="M454.233 51.6963L471.355 51.6963"/>
<path class="l4" d="M454.233 34.5744L454.233 51.6963"/>
<path class="l4" d="M475.636 51.6963L475.636 85.9401"/>
<path class="l4" d="M475.636 68.8182L488.477 68.8182"/>
<path class="l4" d="M591.209 85.9401L591.209 103.062"/>
<path class="l4" d="M591.209 85.9401L608.331 85.9401"/>
<path class="l4" d="M608.331 45.2756L608.331 92.3609"/>
<path class="l4" d="M591.209 51.6963L608.331 51.6963"/>
<path class="l4" d="M591.209 34.5744L591.209 51.6963"/>
<path class="l4" d="M612.611 51.6963L612.611 85.9401"/>
<path class="l4" d="M612.611 68.8182L625.453 68.8182"/>
<path class="l4" d="M728.184 85.9401L728.184 103.062"/>
<path class="l4" d="M728.184 85.9401L745.306 85.9401"/>
<path class="l4" d="M745.306 45.2756L745.306 92.3609"/>
<path class="l4" d="M728.184 51.6963L745.306 51.6963"/>
<path class="l4" d="M728.184 34.5744L728.184 51.6963"/>
<path class="l4" d="M749.586 51.6963L749.586 85.9401"/>
<path class="l4" d="M749.586 68.8182L762.428 68.8182"/>
<path class="l4" d="M865.16 85.9401L865.16 103.062"/>
<path class="l4" d="M865.16 85.9401L882.281 85.9401"/>
<path class="l4" d="M882.281 45.2756L882.281 92.3609"/>
<path class="l4" d="M865.16 51.6963L882.281 51.6963"/>
<path class="l4" d="M865.16 34.5744L865.16 51.6963"/>
<path class="l4" d="M886.562 51.6963L886.562 85.9401"/>
<path class="l4" d="M886.562 68.8182L899.403 68.8182"/>
<path class="l4" d="M1002.13 85.9401L1002.13 103.062"/>
<path class="l4" d="M1002.13 85.9401L1019.26 85.9401"/>
<path class="l4" d="M1019.26 45.2756L1019.26 92.3609"/>
<path class="l4" d="M1002.13 51.6963L1019.26 51.6963"/>
<path class="l4" d="M1002.13 34.5744L1002.13 51.6963"/>
<path class="l4" d="M1023.54 51.6963L1023.54 85.9401"/>
<path class="l4" d="M1023.54 68.8182L1036.38 68.8182"/>
<path class="l4" d="M1139.11 85.9401L1139.11 103.062"/>
<path class="l4" d="M1139.11 85.9401L1156.23 85.9401"/>
<path class="l4" d="M1156.23 45.2756L1156.23 92.3609"/>
<path class="l4" d="M1139.11 51.6963L1156.23 51.6963"/>
<path class="l4" d="M1139.11 34.5744L1139.11 51.6963"/>
<path class="l4" d="M1160.51 51.6963L1160.51 85.9401"/>
<path class="l4" d="M1160.51 68.8182L1173.35 68.8182"/>
<path class="l4" d="M1276.09 85.9401L1276.09 103.062"/>
<path class="l4" d="M1276.09 85.9401L1293.21 85.9401"/>
<path class="l4" d="M1293.21 45.2756L1293.21 92.3609"/>
<path class="l4" d="M1276.09 51.6963L1293.21 51.6963"/>
<path class="l4" d="M1276.09 34.5744L1276.09 51.6963"/>
<path class="l4" d="M1297.49 51.6963L1297.49 85.9401"/>
<path class="l4" d="M1297.49 68.8182L1310.33 68.8182"/>
<path class="l4" d="M1413.06 85.9401L1413.06 103.062"/>
<path class="l4" d="M1413.06 85.9401L1430.18 85.9401"/>
<path class="l4" d="M1430.18 45.2756L1430.18 92.3609"/>
<path class="l4" d="M1413.06 51.6963L1430.18 51.6963"/>
<path class="l4" d="M1413.06 34.5744L1413.06 51.6963"/>
<path class="l4" d="M1434.46 51.6963L1434.46 85.9401"/>
<path class="l4" d="M1434.46 68.8182L1447.31 68.8182"/>
<path class="l4" d="M1550.04 85.9401L1550.04 103.062"/>
<path class="l4" d="M1550.04 85.9401L1567.16 85.9401"/>
<path class="l4" d="M1567.16 45.2756L1567.16 92.3609"/>
<path class="l4" d="M1550.04 51.6963L1567.16 51.6963"/>
<path class="l4" d="M1550.04 34.5744L1550.04 51.6963"/>
<path class="l4" d="M1571.44 51.6963L1571.44 85.9401"/>
<path class="l4" d="M1571.44 68.8182L1584.28 68.8182"/>
<path class="l4" d="M591.209 222.916L591.209 240.038"/>
<path class="l4" d="M591.209 222.916L608.331 222.916"/>
<path class="l4" d="M608.331 182.251L608.331 229.336"/>
<path class="l4" d="M591.209 188.672L608.331 188.672"/>
<path class="l4" d="M591.209 171.55L591.209 188.672"/>
<path class="l4" d="M612.611 188.672L612.611 222.916"/>
<path class="l4" d="M612.611 205.794L625.453 205.794"/>
<path class="l4" d="M591.209 337.062L591.209 354.184"/>
<path class="l4" d="M591.209 337.062L608.331 337.062"/>
<path class="l4" d="M608.331 296.397L608.331 343.482"/>
<path class="l4" d="M591.209 302.818L608.331 302.818"/>
<path class="l4" d="M591.209 285.696L591.209 302.818"/>
<path class="l4" d="M612.611 302.818L612.611 337.062"/>
<path class="l4" d="M612.611 319.94L625.453 319.94"/>
<path class="l4" d="M728.184 222.916L728.184 240.038"/>
<path class="l4" d="M728.184 222.916L745.306 222.916"/>
<path class="l4" d="M745.306 182.251L745.306 229.336"/>
<path class="l4" d="M728.184 188.672L745.306 188.672"/>
<path class="l4" d="M728.184 171.55L728.184 188.672"/>
<path class="l4" d="M749.586 188.672L749.586 222.916"/>
<path class="l4" d="M749.586 205.794L762.428 205.794"/>
<path class="l4" d="M728.184 337.062L728.184 354.184"/>
<path class="l4" d="M728.184 337.062L745.306 337.062"/>
<path class="l4" d="M745.306 296.397L745.306 343.482"/>
<path class="l4" d="M728.184 302.818L745.306 302.818"/>
<path class="l4" d="M728.184 285.696L728.184 302.818"/>
<path class="l4" d="M749.586 302.818L749.586 337.062"/>
<path class="l4" d="M749.586 319.94L762.428 319.94"/>
<path class="l4" d="M865.16 222.916L865.16 240.038"/>
<path class="l4" d="M865.16 222.916L882.281 222.916"/>
<path class="l4" d="M882.281 182.251L882.281 229.336"/>
<path class="l4" d="M865.16 188.672L882.281 188.672"/>
<path class="l4" d="M865.16 171.55L865.16 188.672"/>
<path class="l4" d="M886.562 188.672L886.562 222.916"/>
<path class="l4" d="M886.562 205.794L899.403 205.794"/>
<path class="l4" d="M865.16 337.062L865.16 354.184"/>
<path class="l4" d="M865.16 337.062L882.281 337.062"/>
<path class="l4" d="M882.281 296.397L882.281 343.482"/>
<path class="l4" d="M865.16 302.818L882.281 302.818"/>
<path class="l4" d="M865.16 285.696L865.16 302.818"/>
<path class="l4" d="M886.562 302.818L886.562 337.062"/>
<path class="l4" d="M886.562 319.94L899.403 319.94"/>
<path class="l4" d="M1002.13 222.916L1002.13 240.038"/>
<path class="l4" d="M1002.13 222.916L1019.26 222.916"/>
<path class="l4" d="M1019.26 182.251L1019.26 229.336"/>
<path class="l4" d="M1002.13 188.672L1019.26 188.672"/>
<path class="l4" d="M1002.13 171.55L1002.13 188.672"/>
<path class="l4" d="M1023.54 188.672L1023.54 222.916"/>
<path class="l4" d="M1023.54 205.794L1036.38 205.794"/>
<path class="l4" d="M1002.13 337.062L1002.13 354.184"/>
<path class="l4" d="M1002.13 337.062L1019.26 337.062"/>
<path class="l4" d="M1019.26 296.397L1019.26 343.482"/>
<path class="l4" d="M1002.13 302.818L1019.26 302.818"/>
<path class="l4" d="M1002.13 285.696L1002.13 302.818"/>
<path class="l4" d="M1023.54 302.818L1023.54 337.062"/>
<path class="l4" d="M1023.54 319.94L1036.38 319.94"/>
<path class="l4" d="M1139.11 222.916L1139.11 240.038"/>
<path class="l4" d="M1139.11 222.916L1156.23 222.916"/>
<path class="l4" d="M1156.23 182.251L1156.23 229.336"/>
<path class="l4" d="M1139.11 188.672L1156.23 188.672"/>
<path class="l4" d="M1139.11 171.55L1139.11 188.672"/>
<path class="l4" d="M1160.51 188.672L1160.51 222.916"/>
<path class="l4" d="M1160.51 205.794L1173.35 205.794"/>
<path class="l4" d="M1139.11 337.062L1139.11 354.184"/>
<path class="l4" d="M1139.11 337.062L1156.23 337.062"/>
<path class="l4" d="M1156.23 296.397L1156.23 343.482"/>
<path class="l4" d="M1139.11 302.818L1156.23 302.818"/>
<path class="l4" d="M1139.11 285.696L1139.11 302.818"/>
<path class="l4" d="M1160.51 302.818L1160.51 337.062"/>
<path class="l4" d="M1160.51 319.94L1173.35 319.94"/>
<path class="l4" d="M1276.09 222.916L1276.09 240.038"/>
<path class="l4" d="M1276.09 222.916L1293.21 222.916"/>
<path class="l4" d="M1293.21 182.251L1293.21 229.336"/>
<path class="l4" d="M1276.09 188.672L1293.21 188.672"/>
<path class="l4" d="M1276.09 171.55L1276.09 188.672"/>
<path class="l4" d="M1297.49 188.672L1297.49 222.916"/>
<path class="l4" d="M1297.49 205.794L1310.33 205.794"/>
<path class="l4" d="M1276.09 337.062L1276.09 354.184"/>
<path class="l4" d="M1276.09 337.062L1293.21 337.062"/>
<path class="l4" d="M1293.21 296.397L1293.21 343.482"/>
<path class="l4" d="M1276.09 302.818L1293.21 302.818"/>
<path class="l4" d="M1276.09 285.696L1276.09 302.818"/>
<path class="l4" d="M1297.49 302.818L1297.49 337.062"/>
<path class="l4" d="M1297.49 319.94L1310.33 319.94"/>
<path class="l4" d="M591.209 719.452L591.209 736.573"/>
<path class="l4" d="M574.087 736.573L591.209 736.573"/>
<path class="l4" d="M574.087 730.153L574.087 777.238"/>
<path class="l4" d="M574.087 770.817L591.209 770.817"/>
<path class="l4" d="M591.209 770.817L591.209 787.939"/>
<path class="l4" d="M569.806 736.573L569.806 770.817"/>
<path class="l4" d="M556.965 753.695L569.806 753.695"/>
<path class="l4" d="M591.209 810.768L591.209 822.183"/>
<path class="l4" d="M597.629 803.634L597.629 829.317"/>
<path class="l4" d="M594.419 818.616L595.489 820.756"/>
<path class="l4" d="M595.489 820.756L596.559 823.432"/>
<path class="l4" d="M596.559 823.432L597.094 825.037"/>
<path class="l4" d="M597.094 825.037L597.629 828.247"/>
<path class="l4" d="M597.629 828.247L598.164 825.037"/>
<path class="l4" d="M598.164 825.037L598.699 823.432"/>
<path class="l4" d="M598.699 823.432L599.77 820.756"/>
<path class="l4" d="M599.77 820.756L600.84 818.616"/>
<path class="l4" d="M591.209 399.842L591.209 416.964"/>
<path class="l4" d="M574.087 416.964L591.209 416.964"/>
<path class="l4" d="M574.087 410.543L574.087 457.629"/>
<path class="l4" d="M574.087 451.208L591.209 451.208"/>
<path class="l4" d="M591.209 451.208L591.209 468.33"/>
<path class="l4" d="M569.806 416.964L569.806 451.208"/>
<path class="l4" d="M556.965 434.086L569.806 434.086"/>
<path class="l4" d="M728.184 399.842L728.184 416.964"/>
<path class="l4" d="M711.062 416.964L728.184 416.964"/>
<path class="l4" d="M711.062 410.543L711.062 457.629"/>
<path class="l4" d="M711.062 451.208L728.184 451.208"/>
<path class="l4" d="M728.184 451.208L728.184 468.33"/>
<path class="l4" d="M706.782 416.964L706.782 451.208"/>
<path class="l4" d="M693.94 434.086L706.782 434.086"/>
<path class="l4" d="M865.16 399.842L865.16 416.964"/>
<path class="l4" d="M848.038 416.964L865.16 416.964"/>
<path class="l4" d="M848.038 410.543L848.038 457.629"/>
<path class="l4" d="M848.038 451.208L865.16 451.208"/>
<path class="l4" d="M865.16 451.208L865.16 468.33"/>
<path class="l4" d="M843.757 416.964L843.757 451.208"/>
<path class="l4" d="M830.916 434.086L843.757 434.086"/>
<path class="l4" d="M1002.13 399.842L1002.13 416.964"/>
<path class="l4" d="M985.013 416.964L1002.13 416.964"/>
<path class="l4" d="M985.013 410.543L985.013 457.629"/>
<path class="l4" d="M985.013 451.208L1002.13 451.208"/>
<path class="l4" d="M1002.13 451.208L1002.13 468.33"/>
<path class="l4" d="M980.733 416.964L980.733 451.208"/>
<path class="l4" d="M967.891 434.086L980.733 434.086"/>
<path class="l4" d="M1139.11 399.842L1139.11 416.964"/>
<path class="l4" d="M1121.99 416.964L1139.11 416.964"/>
<path class="l4" d="M1121.99 410.543L1121.99 457.629"/>
<path class="l4" d="M1121.99 451.208L1139.11 451.208"/>
<path class="l4" d="M1139.11 451.208L1139.11 468.33"/>
<path class="l4" d="M1117.71 416.964L1117.71 451.208"/>
<path class="l4" d="M1104.87 434.086L1117.71 434.086"/>
<path class="l4" d="M1276.09 399.842L1276.09 416.964"/>
<path class="l4" d="M1258.96 416.964L1276.09 416.964"/>
<path class="l4" d="M1258.96 410.543L1258.96 457.629"/>
<path class="l4" d="M1258.96 451.208L1276.09 451.208"/>
<path class="l4" d="M1276.09 451.208L1276.09 468.33"/>
<path class="l4" d="M1254.68 416.964L1254.68 451.208"/>
<path class="l4" d="M1241.84 434.086L1254.68 434.086"/>
<path class="l4" d="M1413.06 399.842L1413.06 416.964"/>
<path class="l4" d="M1395.94 416.964L1413.06 416.964"/>
<path class="l4" d="M1395.94 410.543L1395.94 457.629"/>
<path class="l4" d="M1395.94 451.208L1413.06 451.208"/>
<path class="l4" d="M1413.06 451.208L1413.06 468.33"/>
<path class="l4" d="M1391.66 416.964L1391.66 451.208"/>
<path class="l4" d="M1378.82 434.086L1391.66 434.086"/>
<path class="l4" d="M728.184 719.452L728.184 736.573"/>
<path class="l4" d="M711.062 736.573L728.184 736.573"/>
<path class="l4" d="M711.062 730.153L711.062 777.238"/>
<path class="l4" d="M711.062 770.817L728.184 770.817"/>
<path class="l4" d="M728.184 770.817L728.184 787.939"/>
<path class="l4" d="M706.782 736.573L706.782 770.817"/>
<path class="l4" d="M693.94 753.695L706.782 753.695"/>
<path class="l4" d="M865.16 719.452L865.16 736.573"/>
<path class="l4" d="M848.038 736.573L865.16 736.573"/>
<path class="l4" d="M848.038 730.153L848.038 777.238"/>
<path class="l4" d="M848.038 770.817L865.16 770.817"/>
<path class="l4" d="M865.16 770.817L865.16 787.939"/>
<path class="l4" d="M843.757 736.573L843.757 770.817"/>
<path class="l4" d="M830.916 753.695L843.757 753.695"/>
<path class="l4" d="M1002.13 719.452L1002.13 736.573"/>
<path class="l4" d="M985.013 736.573L1002.13 736.573"/>
<path class="l4" d="M985.013 730.153L985.013 777.238"/>
<path class="l4" d="M985.013 770.817L1002.13 770.817"/>
<path class="l4" d="M1002.13 770.817L1002.13 787.939"/>
<path class="l4" d="M980.733 736.573L980.733 770.817"/>
<path class="l4" d="M967.891 753.695L980.733 753.695"/>
<path class="l4" d="M1139.11 719.452L1139.11 736.573"/>
<path class="l4" d="M1121.99 736.573L1139.11 736.573"/>
<path class="l4" d="M1121.99 730.153L1121.99 777.238"/>
<path class="l4" d="M1121.99 770.817L1139.11 770.817"/>
<path class="l4" d="M1139.11 770.817L1139.11 787.939"/>
<path class="l4" d="M1117.71 736.573L1117.71 770.817"/>
<path class="l4" d="M1104.87 753.695L1117.71 753.695"/>
<path class="l4" d="M1276.09 719.452L1276.09 736.573"/>
<path class="l4" d="M1258.96 736.573L1276.09 736.573"/>
<path class="l4" d="M1258.96 730.153L1258.96 777.238"/>
<path class="l4" d="M1258.96 770.817L1276.09 770.817"/>
<path class="l4" d="M1276.09 770.817L1276.09 787.939"/>
<path class="l4" d="M1254.68 736.573L1254.68 770.817"/>
<path class="l4" d="M1241.84 753.695L1254.68 753.695"/>
<path class="l4" d="M1413.06 719.452L1413.06 736.573"/>
<path class="l4" d="M1395.94 736.573L1413.06 736.573"/>
<path class="l4" d="M1395.94 730.153L1395.94 777.238"/>
<path class="l4" d="M1395.94 770.817L1413.06 770.817"/>
<path class="l4" d="M1413.06 770.817L1413.06 787.939"/>
<path class="l4" d="M1391.66 736.573L1391.66 770.817"/>
<path class="l4" d="M1378.82 753.695L1391.66 753.695"/>
<path class="l4" d="M591.209 559.647L591.209 576.769"/>
<path class="l4" d="M574.087 576.769L591.209 576.769"/>
<path class="l4" d="M574.087 570.348L574.087 617.433"/>
<path class="l4" d="M574.087 611.013L591.209 611.013"/>
<path class="l4" d="M591.209 611.013L591.209 628.135"/>
<path class="l4" d="M569.806 576.769L569.806 611.013"/>
<path class="l4" d="M556.965 593.891L569.806 593.891"/>
<path class="l4" d="M728.184 559.647L728.184 576.769"/>
<path class="l4" d="M711.062 576.769L728.184 576.769"/>
<path class="l4" d="M711.062 570.348L711.062 617.433"/>
<path class="l4" d="M711.062 611.013L728.184 611.013"/>
<path class="l4" d="M728.184 611.013L728.184 628.135"/>
<path class="l4" d="M706.782 576.769L706.782 611.013"/>
<path class="l4" d="M693.94 593.891L706.782 593.891"/>
<path class="l4" d="M865.16 559.647L865.16 576.769"/>
<path class="l4" d="M848.038 576.769L865.16 576.769"/>
<path class="l4" d="M848.038 570.348L848.038 617.433"/>
<path class="l4" d="M848.038 611.013L865.16 611.013"/>
<path class="l4" d="M865.16 611.013L865.16 628.135"/>
<path class="l4" d="M843.757 576.769L843.757 611.013"/>
<path class="l4" d="M830.916 593.891L843.757 593.891"/>
<path class="l4" d="M1002.13 559.647L1002.13 576.769"/>
<path class="l4" d="M985.013 576.769L1002.13 576.769"/>
<path class="l4" d="M985.013 570.348L985.013 617.433"/>
<path class="l4" d="M985.013 611.013L1002.13 611.013"/>
<path class="l4" d="M1002.13 611.013L1002.13 628.135"/>
<path class="l4" d="M980.733 576.769L980.733 611.013"/>
<path class="l4" d="M967.891 593.891L980.733 593.891"/>
<path class="l4" d="M1139.11 559.647L1139.11 576.769"/>
<path class="l4" d="M1121.99 576.769L1139.11 576.769"/>
<path class="l4" d="M1121.99 570.348L1121.99 617.433"/>
<path class="l4" d="M1121.99 611.013L1139.11 611.013"/>
<path class="l4" d="M1139.11 611.013L1139.11 628.135"/>
<path class="l4" d="M1117.71 576.769L1117.71 611.013"/>
<path class="l4" d="M1104.87 593.891L1117.71 593.891"/>
<path class="l4" d="M1276.09 559.647L1276.09 576.769"/>
<path class="l4" d="M1258.96 576.769L1276.09 576.769"/>
<path class="l4" d="M1258.96 570.348L1258.96 617.433"/>
<path class="l4" d="M1258.96 611.013L1276.09 611.013"/>
<path class="l4" d="M1276.09 611.013L1276.09 628.135"/>
<path class="l4" d="M1254.68 576.769L1254.68 611.013"/>
<path class="l4" d="M1241.84 593.891L1254.68 593.891"/>
<path class="l4" d="M1413.06 559.647L1413.06 576.769"/>
<path class="l4" d="M1395.94 576.769L1413.06 576.769"/>
<path class="l4" d="M1395.94 570.348L1395.94 617.433"/>
<path class="l4" d="M1395.94 611.013L1413.06 611.013"/>
<path class="l4" d="M1413.06 611.013L1413.06 628.135"/>
<path class="l4" d="M1391.66 576.769L1391.66 611.013"/>
<path class="l4" d="M1378.82 593.891L1391.66 593.891"/>
<path class="l4" d="M659.696 902.085L739.599 902.085"/>
<path class="l4" d="M659.696 902.085L659.696 924.915"/>
<path class="l4" d="M728.184 810.768L728.184 822.183"/>
<path class="l4" d="M734.605 803.634L734.605 829.317"/>
<path class="l4" d="M731.394 818.616L732.465 820.756"/>
<path class="l4" d="M732.465 820.756L733.535 823.432"/>
<path class="l4" d="M733.535 823.432L734.07 825.037"/>
<path class="l4" d="M734.07 825.037L734.605 828.247"/>
<path class="l4" d="M734.605 828.247L735.14 825.037"/>
<path class="l4" d="M735.14 825.037L735.675 823.432"/>
<path class="l4" d="M735.675 823.432L736.745 820.756"/>
<path class="l4" d="M736.745 820.756L737.815 818.616"/>
<path class="l4" d="M865.16 810.768L865.16 822.183"/>
<path class="l4" d="M871.58 803.634L871.58 829.317"/>
<path class="l4" d="M868.37 818.616L869.44 820.756"/>
<path class="l4" d="M869.44 820.756L870.51 823.432"/>
<path class="l4" d="M870.51 823.432L871.045 825.037"/>
<path class="l4" d="M871.045 825.037L871.58 828.247"/>
<path class="l4" d="M871.58 828.247L872.115 825.037"/>
<path class="l4" d="M872.115 825.037L872.65 823.432"/>
<path class="l4" d="M872.65 823.432L873.72 820.756"/>
<path class="l4" d="M873.72 820.756L874.791 818.616"/>
<path class="l4" d="M1002.13 810.768L1002.13 822.183"/>
<path class="l4" d="M1008.56 803.634L1008.56 829.317"/>
<path class="l4" d="M1005.35 818.616L1006.42 820.756"/>
<path class="l4" d="M1006.42 820.756L1007.49 823.432"/>
<path class="l4" d="M1007.49 823.432L1008.02 825.037"/>
<path class="l4" d="M1008.02 825.037L1008.56 828.247"/>
<path class="l4" d="M1008.56 828.247L1009.09 825.037"/>
<path class="l4" d="M1009.09 825.037L1009.63 823.432"/>
<path class="l4" d="M1009.63 823.432L1010.7 820.756"/>
<path class="l4" d="M1010.7 820.756L1011.77 818.616"/>
<path class="l4" d="M1139.11 810.768L1139.11 822.183"/>
<path class="l4" d="M1145.53 803.634L1145.53 829.317"/>
<path class="l4" d="M1142.32 818.616L1143.39 820.756"/>
<path class="l4" d="M1143.39 820.756L1144.46 823.432"/>
<path class="l4" d="M1144.46 823.432L1145 825.037"/>
<path class="l4" d="M1145 825.037L1145.53 828.247"/>
<path class="l4" d="M1145.53 828.247L1146.07 825.037"/>
<path class="l4" d="M1146.07 825.037L1146.6 823.432"/>
<path class="l4" d="M1146.6 823.432L1147.67 820.756"/>
<path class="l4" d="M1147.67 820.756L1148.74 818.616"/>
<path class="l4" d="M1276.09 810.768L1276.09 822.183"/>
<path class="l4" d="M1282.51 803.634L1282.51 829.317"/>
<path class="l4" d="M1279.3 818.616L1280.37 820.756"/>
<path class="l4" d="M1280.37 820.756L1281.44 823.432"/>
<path class="l4" d="M1281.44 823.432L1281.97 825.037"/>
<path class="l4" d="M1281.97 825.037L1282.51 828.247"/>
<path class="l4" d="M1282.51 828.247L1283.04 825.037"/>
<path class="l4" d="M1283.04 825.037L1283.58 823.432"/>
<path class="l4" d="M1283.58 823.432L1284.65 820.756"/>
<path class="l4" d="M1284.65 820.756L1285.72 818.616"/>
<path class="l4" d="M1413.06 810.768L1413.06 822.183"/>
<path class="l4" d="M1419.48 803.634L1419.48 829.317"/>
<path class="l4" d="M1416.27 818.616L1417.34 820.756"/>
<path class="l4" d="M1417.34 820.756L1418.41 823.432"/>
<path class="l4" d="M1418.41 823.432L1418.95 825.037"/>
<path class="l4" d="M1418.95 825.037L1419.48 828.247"/>
<path class="l4" d="M1419.48 828.247L1420.02 825.037"/>
<path class="l4" d="M1420.02 825.037L1420.55 823.432"/>
<path class="l4" d="M1420.55 823.432L1421.62 820.756"/>
<path class="l4" d="M1421.62 820.756L1422.69 818.616"/>
<path class="l5" d="M453.662 102.491L454.804 102.491L454.804 103.633L453.662 103.633L453.662 102.491z"/>
<path class="l5" d="M487.906 68.2475L489.048 68.2475L489.048 69.3889L487.906 69.3889L487.906 68.2475z"/>
<path class="l5" d="M453.662 34.0036L454.804 34.0036L454.804 35.1451L453.662 35.1451L453.662 34.0036z"/>
<path class="l5" d="M590.638 102.491L591.779 102.491L591.779 103.633L590.638 103.633L590.638 102.491z"/>
<path class="l5" d="M624.882 68.2475L626.023 68.2475L626.023 69.3889L624.882 69.3889L624.882 68.2475z"/>
<path class="l5" d="M590.638 34.0036L591.779 34.0036L591.779 35.1451L590.638 35.1451L590.638 34.0036z"/>
<path class="l5" d="M727.613 102.491L728.755 102.491L728.755 103.633L727.613 103.633L727.613 102.491z"/>
<path class="l5" d="M761.857 68.2475L762.999 68.2475L762.999 69.3889L761.857 69.3889L761.857 68.2475z"/>
<path class="l5" d="M727.613 34.0036L728.755 34.0036L728.755 35.1451L727.613 35.1451L727.613 34.0036z"/>
<path class="l5" d="M864.589 102.491L865.73 102.491L865.73 103.633L864.589 103.633L864.589 102.491z"/>
<path class="l5" d="M898.833 68.2475L899.974 68.2475L899.974 69.3889L898.833 69.3889L898.833 68.2475z"/>
<path class="l5" d="M864.589 34.0036L865.73 34.0036L865.73 35.1451L864.589 35.1451L864.589 34.0036z"/>
<path class="l5" d="M1001.56 102.491L1002.71 102.491L1002.71 103.633L1001.56 103.633L1001.56 102.491z"/>
<path class="l5" d="M1035.81 68.2475L1036.95 68.2475L1036.95 69.3889L1035.81 69.3889L1035.81 68.2475z"/>
<path class="l5" d="M1001.56 34.0036L1002.71 34.0036L1002.71 35.1451L1001.56 35.1451L1001.56 34.0036z"/>
<path class="l5" d="M1138.54 102.491L1139.68 102.491L1139.68 103.633L1138.54 103.633L1138.54 102.491z"/>
<path class="l5" d="M1172.78 68.2475L1173.92 68.2475L1173.92 69.3889L1172.78 69.3889L1172.78 68.2475z"/>
<path class="l5" d="M1138.54 34.0036L1139.68 34.0036L1139.68 35.1451L1138.54 35.1451L1138.54 34.0036z"/>
<path class="l5" d="M1275.52 102.491L1276.66 102.491L1276.66 103.633L1275.52 103.633L1275.52 102.491z"/>
<path class="l5" d="M1309.76 68.2475L1310.9 68.2475L1310.9 69.3889L1309.76 69.3889L1309.76 68.2475z"/>
<path class="l5" d="M1275.52 34.0036L1276.66 34.0036L1276.66 35.1451L1275.52 35.1451L1275.52 34.0036z"/>
<path class="l5" d="M1412.49 102.491L1413.63 102.491L1413.63 103.633L1412.49 103.633L1412.49 102.491z"/>
<path class="l5" d="M1446.73 68.2475L1447.88 68.2475L1447.88 69.3889L1446.73 69.3889L1446.73 68.2475z"/>
<path class="l5" d="M1412.49 34.0036L1413.63 34.0036L1413.63 35.1451L1412.49 35.1451L1412.49 34.0036z"/>
<path class="l5" d="M1549.47 102.491L1550.61 102.491L1550.61 103.633L1549.47 103.633L1549.47 102.491z"/>
<path class="l5" d="M1583.71 68.2475L1584.85 68.2475L1584.85 69.3889L1583.71 69.3889L1583.71 68.2475z"/>
<path class="l5" d="M1549.47 34.0036L1550.61 34.0036L1550.61 35.1451L1549.47 35.1451L1549.47 34.0036z"/>
<path class="l5" d="M370.764 34.5744L374.331 34.5744"/>
<path class="l5" d="M358.636 28.867L354.355 34.5744L358.636 40.2817L366.483 40.2817L370.764 34.5744L366.483 28.867L358.636 28.867"/>
<path class="l5" d="M372.904 33.1475L375.758 33.1475L375.758 36.0012L372.904 36.0012L372.904 33.1475z"/>
<path class="l5" d="M1550.04 34.5744L1560.02 34.5744"/>
<path class="l5" d="M1570.01 34.5744L1565.73 28.867L1555.74 28.867L1560.02 34.5744L1555.74 40.2817L1565.73 40.2817L1570.01 34.5744"/>
<path class="l5" d="M1548.61 33.1475L1551.46 33.1475L1551.46 36.0012L1548.61 36.0012L1548.61 33.1475z"/>
<path class="l5" d="M368.624 68.8182L374.331 68.8182"/>
<path class="l5" d="M368.624 68.8182L364.343 63.1109L354.355 63.1109L358.636 68.8182L354.355 74.5255L364.343 74.5255L368.624 68.8182"/>
<path class="l5" d="M372.904 67.3914L375.758 67.3914L375.758 70.245L372.904 70.245L372.904 67.3914z"/>
<path class="l5" d="M590.638 239.467L591.779 239.467L591.779 240.608L590.638 240.608L590.638 239.467z"/>
<path class="l5" d="M624.882 205.223L626.023 205.223L626.023 206.364L624.882 206.364L624.882 205.223z"/>
<path class="l5" d="M590.638 170.979L591.779 170.979L591.779 172.121L590.638 172.121L590.638 170.979z"/>
<path class="l5" d="M590.638 353.613L591.779 353.613L591.779 354.754L590.638 354.754L590.638 353.613z"/>
<path class="l5" d="M624.882 319.369L626.023 319.369L626.023 320.511L624.882 320.511L624.882 319.369z"/>
<path class="l5" d="M590.638 285.125L591.779 285.125L591.779 286.267L590.638 286.267L590.638 285.125z"/>
<path class="l5" d="M727.613 239.467L728.755 239.467L728.755 240.608L727.613 240.608L727.613 239.467z"/>
<path class="l5" d="M761.857 205.223L762.999 205.223L762.999 206.364L761.857 206.364L761.857 205.223z"/>
<path class="l5" d="M727.613 170.979L728.755 170.979L728.755 172.121L727.613 172.121L727.613 170.979z"/>
<path class="l5" d="M727.613 353.613L728.755 353.613L728.755 354.754L727.613 354.754L727.613 353.613z"/>
<path class="l5" d="M761.857 319.369L762.999 319.369L762.999 320.511L761.857 320.511L761.857 319.369z"/>
<path class="l5" d="M727.613 285.125L728.755 285.125L728.755 286.267L727.613 286.267L727.613 285.125z"/>
<path class="l5" d="M864.589 239.467L865.73 239.467L865.73 240.608L864.589 240.608L864.589 239.467z"/>
<path class="l5" d="M898.833 205.223L899.974 205.223L899.974 206.364L898.833 206.364L898.833 205.223z"/>
<path class="l5" d="M864.589 170.979L865.73 170.979L865.73 172.121L864.589 172.121L864.589 170.979z"/>
<path class="l5" d="M864.589 353.613L865.73 353.613L865.73 354.754L864.589 354.754L864.589 353.613z"/>
<path class="l5" d="M898.833 319.369L899.974 319.369L899.974 320.511L898.833 320.511L898.833 319.369z"/>
<path class="l5" d="M864.589 285.125L865.73 285.125L865.73 286.267L864.589 286.267L864.589 285.125z"/>
<path class="l5" d="M1001.56 239.467L1002.71 239.467L1002.71 240.608L1001.56 240.608L1001.56 239.467z"/>
<path class="l5" d="M1035.81 205.223L1036.95 205.223L1036.95 206.364L1035.81 206.364L1035.81 205.223z"/>
<path class="l5" d="M1001.56 170.979L1002.71 170.979L1002.71 172.121L1001.56 172.121L1001.56 170.979z"/>
<path class="l5" d="M1001.56 353.613L1002.71 353.613L1002.71 354.754L1001.56 354.754L1001.56 353.613z"/>
<path class="l5" d="M1035.81 319.369L1036.95 319.369L1036.95 320.511L1035.81 320.511L1035.81 319.369z"/>
<path class="l5" d="M1001.56 285.125L1002.71 285.125L1002.71 286.267L1001.56 286.267L1001.56 285.125z"/>
<path class="l5" d="M1138.54 239.467L1139.68 239.467L1139.68 240.608L1138.54 240.608L1138.54 239.467z"/>
<path class="l5" d="M1172.78 205.223L1173.92 205.223L1173.92 206.364L1172.78 206.364L1172.78 205.223z"/>
<path class="l5" d="M1138.54 170.979L1139.68 170.979L1139.68 172.121L1138.54 172.121L1138.54 170.979z"/>
<path class="l5" d="M1138.54 353.613L1139.68 353.613L1139.68 354.754L1138.54 354.754L1138.54 353.613z"/>
<path class="l5" d="M1172.78 319.369L1173.92 319.369L1173.92 320.511L1172.78 320.511L1172.78 319.369z"/>
<path class="l5" d="M1138.54 285.125L1139.68 285.125L1139.68 286.267L1138.54 286.267L1138.54 285.125z"/>
<path class="l5" d="M1275.52 239.467L1276.66 239.467L1276.66 240.608L1275.52 240.608L1275.52 239.467z"/>
<path class="l5" d="M1309.76 205.223L1310.9 205.223L1310.9 206.364L1309.76 206.364L1309.76 205.223z"/>
<path class="l5" d="M1275.52 170.979L1276.66 170.979L1276.66 172.121L1275.52 172.121L1275.52 170.979z"/>
<path class="l5" d="M1275.52 353.613L1276.66 353.613L1276.66 354.754L1275.52 354.754L1275.52 353.613z"/>
<path class="l5" d="M1309.76 319.369L1310.9 319.369L1310.9 320.511L1309.76 320.511L1309.76 319.369z"/>
<path class="l5" d="M1275.52 285.125L1276.66 285.125L1276.66 286.267L1275.52 286.267L1275.52 285.125z"/>
<path class="l5" d="M1491.54 238.611L1494.39 238.611L1494.39 241.464L1491.54 241.464L1491.54 238.611z"/>
<path class="l5" d="M590.638 718.881L591.779 718.881L591.779 720.022L590.638 720.022L590.638 718.881z"/>
<path class="l5" d="M556.394 753.125L557.536 753.125L557.536 754.266L556.394 754.266L556.394 753.125z"/>
<path class="l5" d="M590.638 787.369L591.779 787.369L591.779 788.51L590.638 788.51L590.638 787.369z"/>
<path class="l5" d="M368.624 753.695L374.331 753.695"/>
<path class="l5" d="M368.624 753.695L364.343 747.988L354.355 747.988L358.636 753.695L354.355 759.403L364.343 759.403L368.624 753.695"/>
<path class="l5" d="M372.904 752.269L375.758 752.269L375.758 755.122L372.904 755.122L372.904 752.269z"/>
<path class="l5" d="M370.764 833.598L374.331 833.598"/>
<path class="l5" d="M358.636 827.89L354.355 833.598L358.636 839.305L366.483 839.305L370.764 833.598L366.483 827.89L358.636 827.89"/>
<path class="l5" d="M372.904 832.171L375.758 832.171L375.758 835.025L372.904 835.025L372.904 832.171z"/>
<path class="l5" d="M539.843 434.086L545.55 434.086"/>
<path class="l5" d="M539.843 434.086L535.562 428.379L525.575 428.379L529.855 434.086L525.575 439.793L535.562 439.793L539.843 434.086"/>
<path class="l5" d="M544.123 432.659L546.977 432.659L546.977 435.513L544.123 435.513L544.123 432.659z"/>
<path class="l5" d="M676.818 434.086L682.526 434.086"/>
<path class="l5" d="M676.818 434.086L672.538 428.379L662.55 428.379L666.831 434.086L662.55 439.793L672.538 439.793L676.818 434.086"/>
<path class="l5" d="M681.099 432.659L683.952 432.659L683.952 435.513L681.099 435.513L681.099 432.659z"/>
<path class="l5" d="M813.794 434.086L819.501 434.086"/>
<path class="l5" d="M813.794 434.086L809.513 428.379L799.525 428.379L803.806 434.086L799.525 439.793L809.513 439.793L813.794 434.086"/>
<path class="l5" d="M818.074 432.659L820.928 432.659L820.928 435.513L818.074 435.513L818.074 432.659z"/>
<path class="l5" d="M950.769 434.086L956.476 434.086"/>
<path class="l5" d="M950.769 434.086L946.489 428.379L936.501 428.379L940.781 434.086L936.501 439.793L946.489 439.793L950.769 434.086"/>
<path class="l5" d="M955.05 432.659L957.903 432.659L957.903 435.513L955.05 435.513L955.05 432.659z"/>
<path class="l5" d="M1087.74 434.086L1093.45 434.086"/>
<path class="l5" d="M1087.74 434.086L1083.46 428.379L1073.48 428.379L1077.76 434.086L1073.48 439.793L1083.46 439.793L1087.74 434.086"/>
<path class="l5" d="M1092.03 432.659L1094.88 432.659L1094.88 435.513L1092.03 435.513L1092.03 432.659z"/>
<path class="l5" d="M1224.72 434.086L1230.43 434.086"/>
<path class="l5" d="M1224.72 434.086L1220.44 428.379L1210.45 428.379L1214.73 434.086L1210.45 439.793L1220.44 439.793L1224.72 434.086"/>
<path class="l5" d="M1229 432.659L1231.85 432.659L1231.85 435.513L1229 435.513L1229 432.659z"/>
<path class="l5" d="M1361.7 434.086L1367.4 434.086"/>
<path class="l5" d="M1361.7 434.086L1357.41 428.379L1347.43 428.379L1351.71 434.086L1347.43 439.793L1357.41 439.793L1361.7 434.086"/>
<path class="l5" d="M1365.98 432.659L1368.83 432.659L1368.83 435.513L1365.98 435.513L1365.98 432.659z"/>
<path class="l5" d="M590.638 810.198L591.779 810.198L591.779 811.339L590.638 811.339L590.638 810.198z"/>
<path class="l5" d="M590.638 821.612L591.779 821.612L591.779 822.754L590.638 822.754L590.638 821.612z"/>
<path class="l5" d="M590.638 399.271L591.779 399.271L591.779 400.413L590.638 400.413L590.638 399.271z"/>
<path class="l5" d="M556.394 433.515L557.536 433.515L557.536 434.657L556.394 434.657L556.394 433.515z"/>
<path class="l5" d="M590.638 467.759L591.779 467.759L591.779 468.901L590.638 468.901L590.638 467.759z"/>
<path class="l5" d="M727.613 399.271L728.755 399.271L728.755 400.413L727.613 400.413L727.613 399.271z"/>
<path class="l5" d="M693.369 433.515L694.511 433.515L694.511 434.657L693.369 434.657L693.369 433.515z"/>
<path class="l5" d="M727.613 467.759L728.755 467.759L728.755 468.901L727.613 468.901L727.613 467.759z"/>
<path class="l5" d="M864.589 399.271L865.73 399.271L865.73 400.413L864.589 400.413L864.589 399.271z"/>
<path class="l5" d="M830.345 433.515L831.486 433.515L831.486 434.657L830.345 434.657L830.345 433.515z"/>
<path class="l5" d="M864.589 467.759L865.73 467.759L865.73 468.901L864.589 468.901L864.589 467.759z"/>
<path class="l5" d="M1001.56 399.271L1002.71 399.271L1002.71 400.413L1001.56 400.413L1001.56 399.271z"/>
<path class="l5" d="M967.32 433.515L968.462 433.515L968.462 434.657L967.32 434.657L967.32 433.515z"/>
<path class="l5" d="M1001.56 467.759L1002.71 467.759L1002.71 468.901L1001.56 468.901L1001.56 467.759z"/>
<path class="l5" d="M1138.54 399.271L1139.68 399.271L1139.68 400.413L1138.54 400.413L1138.54 399.271z"/>
<path class="l5" d="M1104.3 433.515L1105.44 433.515L1105.44 434.657L1104.3 434.657L1104.3 433.515z"/>
<path class="l5" d="M1138.54 467.759L1139.68 467.759L1139.68 468.901L1138.54 468.901L1138.54 467.759z"/>
<path class="l5" d="M1275.52 399.271L1276.66 399.271L1276.66 400.413L1275.52 400.413L1275.52 399.271z"/>
<path class="l5" d="M1241.27 433.515L1242.41 433.515L1242.41 434.657L1241.27 434.657L1241.27 433.515z"/>
<path class="l5" d="M1275.52 467.759L1276.66 467.759L1276.66 468.901L1275.52 468.901L1275.52 467.759z"/>
<path class="l5" d="M1412.49 399.271L1413.63 399.271L1413.63 400.413L1412.49 400.413L1412.49 399.271z"/>
<path class="l5" d="M1378.25 433.515L1379.39 433.515L1379.39 434.657L1378.25 434.657L1378.25 433.515z"/>
<path class="l5" d="M1412.49 467.759L1413.63 467.759L1413.63 468.901L1412.49 468.901L1412.49 467.759z"/>
<path class="l5" d="M727.613 718.881L728.755 718.881L728.755 720.022L727.613 720.022L727.613 718.881z"/>
<path class="l5" d="M693.369 753.125L694.511 753.125L694.511 754.266L693.369 754.266L693.369 753.125z"/>
<path class="l5" d="M727.613 787.369L728.755 787.369L728.755 788.51L727.613 788.51L727.613 787.369z"/>
<path class="l5" d="M864.589 718.881L865.73 718.881L865.73 720.022L864.589 720.022L864.589 718.881z"/>
<path class="l5" d="M830.345 753.125L831.486 753.125L831.486 754.266L830.345 754.266L830.345 753.125z"/>
<path class="l5" d="M864.589 787.369L865.73 787.369L865.73 788.51L864.589 788.51L864.589 787.369z"/>
<path class="l5" d="M1001.56 718.881L1002.71 718.881L1002.71 720.022L1001.56 720.022L1001.56 718.881z"/>
<path class="l5" d="M967.32 753.125L968.462 753.125L968.462 754.266L967.32 754.266L967.32 753.125z"/>
<path class="l5" d="M1001.56 787.369L1002.71 787.369L1002.71 788.51L1001.56 788.51L1001.56 787.369z"/>
<path class="l5" d="M1138.54 718.881L1139.68 718.881L1139.68 720.022L1138.54 720.022L1138.54 718.881z"/>
<path class="l5" d="M1104.3 753.125L1105.44 753.125L1105.44 754.266L1104.3 754.266L1104.3 753.125z"/>
<path class="l5" d="M1138.54 787.369L1139.68 787.369L1139.68 788.51L1138.54 788.51L1138.54 787.369z"/>
<path class="l5" d="M1275.52 718.881L1276.66 718.881L1276.66 720.022L1275.52 720.022L1275.52 718.881z"/>
<path class="l5" d="M1241.27 753.125L1242.41 753.125L1242.41 754.266L1241.27 754.266L1241.27 753.125z"/>
<path class="l5" d="M1275.52 787.369L1276.66 787.369L1276.66 788.51L1275.52 788.51L1275.52 787.369z"/>
<path class="l5" d="M1412.49 718.881L1413.63 718.881L1413.63 720.022L1412.49 720.022L1412.49 718.881z"/>
<path class="l5" d="M1378.25 753.125L1379.39 753.125L1379.39 754.266L1378.25 754.266L1378.25 753.125z"/>
<path class="l5" d="M1412.49 787.369L1413.63 787.369L1413.63 788.51L1412.49 788.51L1412.49 787.369z"/>
<path class="l5" d="M590.638 559.076L591.779 559.076L591.779 560.218L590.638 560.218L590.638 559.076z"/>
<path class="l5" d="M556.394 593.32L557.536 593.32L557.536 594.461L556.394 594.461L556.394 593.32z"/>
<path class="l5" d="M590.638 627.564L591.779 627.564L591.779 628.705L590.638 628.705L590.638 627.564z"/>
<path class="l5" d="M727.613 559.076L728.755 559.076L728.755 560.218L727.613 560.218L727.613 559.076z"/>
<path class="l5" d="M693.369 593.32L694.511 593.32L694.511 594.461L693.369 594.461L693.369 593.32z"/>
<path class="l5" d="M727.613 627.564L728.755 627.564L728.755 628.705L727.613 628.705L727.613 627.564z"/>
<path class="l5" d="M864.589 559.076L865.73 559.076L865.73 560.218L864.589 560.218L864.589 559.076z"/>
<path class="l5" d="M830.345 593.32L831.486 593.32L831.486 594.461L830.345 594.461L830.345 593.32z"/>
<path class="l5" d="M864.589 627.564L865.73 627.564L865.73 628.705L864.589 628.705L864.589 627.564z"/>
<path class="l5" d="M1001.56 559.076L1002.71 559.076L1002.71 560.218L1001.56 560.218L1001.56 559.076z"/>
<path class="l5" d="M967.32 593.32L968.462 593.32L968.462 594.461L967.32 594.461L967.32 593.32z"/>
<path class="l5" d="M1001.56 627.564L1002.71 627.564L1002.71 628.705L1001.56 628.705L1001.56 627.564z"/>
<path class="l5" d="M1138.54 559.076L1139.68 559.076L1139.68 560.218L1138.54 560.218L1138.54 559.076z"/>
<path class="l5" d="M1104.3 593.32L1105.44 593.32L1105.44 594.461L1104.3 594.461L1104.3 593.32z"/>
<path class="l5" d="M1138.54 627.564L1139.68 627.564L1139.68 628.705L1138.54 628.705L1138.54 627.564z"/>
<path class="l5" d="M1275.52 559.076L1276.66 559.076L1276.66 560.218L1275.52 560.218L1275.52 559.076z"/>
<path class="l5" d="M1241.27 593.32L1242.41 593.32L1242.41 594.461L1241.27 594.461L1241.27 593.32z"/>
<path class="l5" d="M1275.52 627.564L1276.66 627.564L1276.66 628.705L1275.52 628.705L1275.52 627.564z"/>
<path class="l5" d="M1412.49 559.076L1413.63 559.076L1413.63 560.218L1412.49 560.218L1412.49 559.076z"/>
<path class="l5" d="M1378.25 593.32L1379.39 593.32L1379.39 594.461L1378.25 594.461L1378.25 593.32z"/>
<path class="l5" d="M1412.49 627.564L1413.63 627.564L1413.63 628.705L1412.49 628.705L1412.49 627.564z"/>
<path class="l5" d="M368.624 593.891L374.331 593.891"/>
<path class="l5" d="M368.624 593.891L364.343 588.183L354.355 588.183L358.636 593.891L354.355 599.598L364.343 599.598L368.624 593.891"/>
<path class="l5" d="M372.904 592.464L375.758 592.464L375.758 595.318L372.904 595.318L372.904 592.464z"/>
<path class="l5" d="M727.613 810.198L728.755 810.198L728.755 811.339L727.613 811.339L727.613 810.198z"/>
<path class="l5" d="M727.613 821.612L728.755 821.612L728.755 822.754L727.613 822.754L727.613 821.612z"/>
<path class="l5" d="M864.589 810.198L865.73 810.198L865.73 811.339L864.589 811.339L864.589 810.198z"/>
<path class="l5" d="M864.589 821.612L865.73 821.612L865.73 822.754L864.589 822.754L864.589 821.612z"/>
<path class="l5" d="M1001.56 810.198L1002.71 810.198L1002.71 811.339L1001.56 811.339L1001.56 810.198z"/>
<path class="l5" d="M1001.56 821.612L1002.71 821.612L1002.71 822.754L1001.56 822.754L1001.56 821.612z"/>
<path class="l5" d="M1138.54 810.198L1139.68 810.198L1139.68 811.339L1138.54 811.339L1138.54 810.198z"/>
<path class="l5" d="M1138.54 821.612L1139.68 821.612L1139.68 822.754L1138.54 822.754L1138.54 821.612z"/>
<path class="l5" d="M1275.52 810.198L1276.66 810.198L1276.66 811.339L1275.52 811.339L1275.52 810.198z"/>
<path class="l5" d="M1275.52 821.612L1276.66 821.612L1276.66 822.754L1275.52 822.754L1275.52 821.612z"/>
<path class="l5" d="M1412.49 810.198L1413.63 810.198L1413.63 811.339L1412.49 811.339L1412.49 810.198z"/>
<path class="l5" d="M1412.49 821.612L1413.63 821.612L1413.63 822.754L1412.49 822.754L1412.49 821.612z"/>
<text fill="#cccccc"  xml:space="preserve" font-size="11.8712" transform="translate(423.526, 82.542)" >M43</text>
<text fill="#cccccc"  xml:space="preserve" font-size="11.8712" transform="translate(393.526, 65.42)" >nfet_01v8</text>
<text fill="#aaaa00"  xml:space="preserve" font-size="11.8712" transform="translate(361.526, 48.2981)" >1 x {wid} / {len}</text>
<text fill="#cccccc"  xml:space="preserve" font-size="11.8712" transform="translate(560.501, 82.542)" >M45</text>
<text fill="#cccccc"  xml:space="preserve" font-size="11.8712" transform="translate(530.501, 65.42)" >nfet_01v8</text>
<text fill="#aaaa00"  xml:space="preserve" font-size="11.8712" transform="translate(498.501, 48.2981)" >1 x {wid} / {len}</text>
<text fill="#cccccc"  xml:space="preserve" font-size="11.8712" transform="translate(697.477, 82.542)" >M46</text>
<text fill="#cccccc"  xml:space="preserve" font-size="11.8712" transform="translate(667.477, 65.42)" >nfet_01v8</text>
<text fill="#aaaa00"  xml:space="preserve" font-size="11.8712" transform="translate(635.477, 48.2981)" >1 x {wid} / {len}</text>
<text fill="#cccccc"  xml:space="preserve" font-size="11.8712" transform="translate(834.452, 82.542)" >M47</text>
<text fill="#cccccc"  xml:space="preserve" font-size="11.8712" transform="translate(804.452, 65.42)" >nfet_01v8</text>
<text fill="#aaaa00"  xml:space="preserve" font-size="11.8712" transform="translate(772.452, 48.2981)" >1 x {wid} / {len}</text>
<text fill="#cccccc"  xml:space="preserve" font-size="11.8712" transform="translate(971.428, 82.542)" >M48</text>
<text fill="#cccccc"  xml:space="preserve" font-size="11.8712" transform="translate(941.428, 65.42)" >nfet_01v8</text>
<text fill="#aaaa00"  xml:space="preserve" font-size="11.8712" transform="translate(909.428, 48.2981)" >1 x {wid} / {len}</text>
<text fill="#cccccc"  xml:space="preserve" font-size="11.8712" transform="translate(1108.4, 82.542)" >M49</text>
<text fill="#cccccc"  xml:space="preserve" font-size="11.8712" transform="translate(1078.4, 65.42)" >nfet_01v8</text>
<text fill="#aaaa00"  xml:space="preserve" font-size="11.8712" transform="translate(1046.4, 48.2981)" >1 x {wid} / {len}</text>
<text fill="#cccccc"  xml:space="preserve" font-size="11.8712" transform="translate(1245.38, 82.542)" >M50</text>
<text fill="#cccccc"  xml:space="preserve" font-size="11.8712" transform="translate(1215.38, 65.42)" >nfet_01v8</text>
<text fill="#aaaa00"  xml:space="preserve" font-size="11.8712" transform="translate(1183.38, 48.2981)" >1 x {wid} / {len}</text>
<text fill="#cccccc"  xml:space="preserve" font-size="11.8712" transform="translate(1382.35, 82.542)" >M51</text>
<text fill="#cccccc"  xml:space="preserve" font-size="11.8712" transform="translate(1352.35, 65.42)" >nfet_01v8</text>
<text fill="#aaaa00"  xml:space="preserve" font-size="11.8712" transform="translate(1320.35, 48.2981)" >1 x {wid} / {len}</text>
<text fill="#cccccc"  xml:space="preserve" font-size="11.8712" transform="translate(1519.33, 82.542)" >M52</text>
<text fill="#cccccc"  xml:space="preserve" font-size="11.8712" transform="translate(1489.33, 65.42)" >nfet_01v8</text>
<text fill="#aaaa00"  xml:space="preserve" font-size="11.8712" transform="translate(1457.33, 48.2981)" >1 x {wid} / {len}</text>
<text fill="#00ccee"  xml:space="preserve" font-size="19.5875" transform="translate(311.68, 40.5942)" >VDD</text>
<text fill="#00ccee"  xml:space="preserve" font-size="19.5875" transform="translate(1572.87, 42.372)" >Iout</text>
<text fill="#00ccee"  xml:space="preserve" font-size="19.5875" transform="translate(328.928, 76.6159)" >Vg</text>
<text fill="#cccccc"  xml:space="preserve" font-size="11.8712" transform="translate(560.501, 219.517)" >M97</text>
<text fill="#cccccc"  xml:space="preserve" font-size="11.8712" transform="translate(530.501, 202.395)" >nfet_01v8</text>
<text fill="#aaaa00"  xml:space="preserve" font-size="11.8712" transform="translate(498.501, 185.274)" >1 x {wid} / {len}</text>
<text fill="#cccccc"  xml:space="preserve" font-size="11.8712" transform="translate(560.501, 333.664)" >M98</text>
<text fill="#cccccc"  xml:space="preserve" font-size="11.8712" transform="translate(530.501, 316.542)" >nfet_01v8</text>
<text fill="#aaaa00"  xml:space="preserve" font-size="11.8712" transform="translate(498.501, 299.42)" >1 x {wid} / {len}</text>
<text fill="#cccccc"  xml:space="preserve" font-size="11.8712" transform="translate(697.477, 219.517)" >M99</text>
<text fill="#cccccc"  xml:space="preserve" font-size="11.8712" transform="translate(667.477, 202.395)" >nfet_01v8</text>
<text fill="#aaaa00"  xml:space="preserve" font-size="11.8712" transform="translate(635.477, 185.274)" >1 x {wid} / {len}</text>
<text fill="#cccccc"  xml:space="preserve" font-size="11.8712" transform="translate(690.477, 333.664)" >M100</text>
<text fill="#cccccc"  xml:space="preserve" font-size="11.8712" transform="translate(667.477, 316.542)" >nfet_01v8</text>
<text fill="#aaaa00"  xml:space="preserve" font-size="11.8712" transform="translate(635.477, 299.42)" >1 x {wid} / {len}</text>
<text fill="#cccccc"  xml:space="preserve" font-size="11.8712" transform="translate(827.452, 219.517)" >M101</text>
<text fill="#cccccc"  xml:space="preserve" font-size="11.8712" transform="translate(804.452, 202.395)" >nfet_01v8</text>
<text fill="#aaaa00"  xml:space="preserve" font-size="11.8712" transform="translate(772.452, 185.274)" >1 x {wid} / {len}</text>
<text fill="#cccccc"  xml:space="preserve" font-size="11.8712" transform="translate(827.452, 333.664)" >M102</text>
<text fill="#cccccc"  xml:space="preserve" font-size="11.8712" transform="translate(804.452, 316.542)" >nfet_01v8</text>
<text fill="#aaaa00"  xml:space="preserve" font-size="11.8712" transform="translate(772.452, 299.42)" >1 x {wid} / {len}</text>
<text fill="#cccccc"  xml:space="preserve" font-size="11.8712" transform="translate(964.428, 219.517)" >M103</text>
<text fill="#cccccc"  xml:space="preserve" font-size="11.8712" transform="translate(941.428, 202.395)" >nfet_01v8</text>
<text fill="#aaaa00"  xml:space="preserve" font-size="11.8712" transform="translate(909.428, 185.274)" >1 x {wid} / {len}</text>
<text fill="#cccccc"  xml:space="preserve" font-size="11.8712" transform="translate(964.428, 333.664)" >M104</text>
<text fill="#cccccc"  xml:space="preserve" font-size="11.8712" transform="translate(941.428, 316.542)" >nfet_01v8</text>
<text fill="#aaaa00"  xml:space="preserve" font-size="11.8712" transform="translate(909.428, 299.42)" >1 x {wid} / {len}</text>
<text fill="#cccccc"  xml:space="preserve" font-size="11.8712" transform="translate(1101.4, 219.517)" >M105</text>
<text fill="#cccccc"  xml:space="preserve" font-size="11.8712" transform="translate(1078.4, 202.395)" >nfet_01v8</text>
<text fill="#aaaa00"  xml:space="preserve" font-size="11.8712" transform="translate(1046.4, 185.274)" >1 x {wid} / {len}</text>
<text fill="#cccccc"  xml:space="preserve" font-size="11.8712" transform="translate(1101.4, 333.664)" >M106</text>
<text fill="#cccccc"  xml:space="preserve" font-size="11.8712" transform="translate(1078.4, 316.542)" >nfet_01v8</text>
<text fill="#aaaa00"  xml:space="preserve" font-size="11.8712" transform="translate(1046.4, 299.42)" >1 x {wid} / {len}</text>
<text fill="#cccccc"  xml:space="preserve" font-size="11.8712" transform="translate(1238.38, 219.517)" >M107</text>
<text fill="#cccccc"  xml:space="preserve" font-size="11.8712" transform="translate(1215.38, 202.395)" >nfet_01v8</text>
<text fill="#aaaa00"  xml:space="preserve" font-size="11.8712" transform="translate(1183.38, 185.274)" >1 x {wid} / {len}</text>
<text fill="#cccccc"  xml:space="preserve" font-size="11.8712" transform="translate(1238.38, 333.664)" >M108</text>
<text fill="#cccccc"  xml:space="preserve" font-size="11.8712" transform="translate(1215.38, 316.542)" >nfet_01v8</text>
<text fill="#aaaa00"  xml:space="preserve" font-size="11.8712" transform="translate(1183.38, 299.42)" >1 x {wid} / {len}</text>
<text fill="#00ccee"  xml:space="preserve" font-size="19.5875" transform="translate(1501.52, 244.63)" >Vprobe</text>
<text fill="#cccccc"  xml:space="preserve" font-size="11.8712" transform="translate(596.916, 747.913)" >M109</text>
<text fill="#cccccc"  xml:space="preserve" font-size="11.8712" transform="translate(596.916, 765.035)" >nfet_01v8</text>
<text fill="#aaaa00"  xml:space="preserve" font-size="11.8712" transform="translate(596.916, 782.157)" >1 x {wid_b} / {len_b}</text>
<text fill="#00ccee"  xml:space="preserve" font-size="19.5875" transform="translate(316.928, 761.493)" >Vbn</text>
<text fill="#00ccee"  xml:space="preserve" font-size="19.5875" transform="translate(308.68, 839.618)" >GND</text>
<text fill="#00ccee"  xml:space="preserve" font-size="19.5875" transform="translate(499.148, 441.884)" >D0</text>
<text fill="#00ccee"  xml:space="preserve" font-size="19.5875" transform="translate(636.123, 441.884)" >D1</text>
<text fill="#00ccee"  xml:space="preserve" font-size="19.5875" transform="translate(773.099, 441.884)" >D2</text>
<text fill="#00ccee"  xml:space="preserve" font-size="19.5875" transform="translate(910.074, 441.884)" >D3</text>
<text fill="#00ccee"  xml:space="preserve" font-size="19.5875" transform="translate(1047.05, 441.884)" >D4</text>
<text fill="#00ccee"  xml:space="preserve" font-size="19.5875" transform="translate(1184.02, 441.884)" >D5</text>
<text fill="#00ccee"  xml:space="preserve" font-size="19.5875" transform="translate(1321, 441.884)" >D6</text>
<text fill="#cccccc"  xml:space="preserve" font-size="11.8712" transform="translate(606.547, 819.255)" >Vib0</text>
<text fill="#cccccc"  xml:space="preserve" font-size="11.8712" transform="translate(596.916, 428.304)" >M110</text>
<text fill="#cccccc"  xml:space="preserve" font-size="11.8712" transform="translate(596.916, 445.426)" >nfet_01v8</text>
<text fill="#aaaa00"  xml:space="preserve" font-size="11.8712" transform="translate(596.916, 462.548)" >1 x {wid_p} / {len_p}</text>
<text fill="#cccccc"  xml:space="preserve" font-size="11.8712" transform="translate(733.891, 428.304)" >M111</text>
<text fill="#cccccc"  xml:space="preserve" font-size="11.8712" transform="translate(733.891, 445.426)" >nfet_01v8</text>
<text fill="#aaaa00"  xml:space="preserve" font-size="11.8712" transform="translate(733.891, 462.548)" >1 x {wid_p} / {len_p}</text>
<text fill="#cccccc"  xml:space="preserve" font-size="11.8712" transform="translate(870.867, 428.304)" >M112</text>
<text fill="#cccccc"  xml:space="preserve" font-size="11.8712" transform="translate(870.867, 445.426)" >nfet_01v8</text>
<text fill="#aaaa00"  xml:space="preserve" font-size="11.8712" transform="translate(870.867, 462.548)" >1 x {wid_p} / {len_p}</text>
<text fill="#cccccc"  xml:space="preserve" font-size="11.8712" transform="translate(1007.84, 428.304)" >M113</text>
<text fill="#cccccc"  xml:space="preserve" font-size="11.8712" transform="translate(1007.84, 445.426)" >nfet_01v8</text>
<text fill="#aaaa00"  xml:space="preserve" font-size="11.8712" transform="translate(1007.84, 462.548)" >1 x {wid_p} / {len_p}</text>
<text fill="#cccccc"  xml:space="preserve" font-size="11.8712" transform="translate(1144.82, 428.304)" >M114</text>
<text fill="#cccccc"  xml:space="preserve" font-size="11.8712" transform="translate(1144.82, 445.426)" >nfet_01v8</text>
<text fill="#aaaa00"  xml:space="preserve" font-size="11.8712" transform="translate(1144.82, 462.548)" >1 x {wid_p} / {len_p}</text>
<text fill="#cccccc"  xml:space="preserve" font-size="11.8712" transform="translate(1281.79, 428.304)" >M115</text>
<text fill="#cccccc"  xml:space="preserve" font-size="11.8712" transform="translate(1281.79, 445.426)" >nfet_01v8</text>
<text fill="#aaaa00"  xml:space="preserve" font-size="11.8712" transform="translate(1281.79, 462.548)" >1 x {wid_p} / {len_p}</text>
<text fill="#cccccc"  xml:space="preserve" font-size="11.8712" transform="translate(1418.77, 428.304)" >M116</text>
<text fill="#cccccc"  xml:space="preserve" font-size="11.8712" transform="translate(1418.77, 445.426)" >nfet_01v8</text>
<text fill="#aaaa00"  xml:space="preserve" font-size="11.8712" transform="translate(1418.77, 462.548)" >1 x {wid_p} / {len_p}</text>
<text fill="#cccccc"  xml:space="preserve" font-size="11.8712" transform="translate(733.891, 747.913)" >M117</text>
<text fill="#cccccc"  xml:space="preserve" font-size="11.8712" transform="translate(733.891, 765.035)" >nfet_01v8</text>
<text fill="#aaaa00"  xml:space="preserve" font-size="11.8712" transform="translate(733.891, 782.157)" >1 x {wid_b} / {len_b}</text>
<text fill="#cccccc"  xml:space="preserve" font-size="11.8712" transform="translate(870.867, 747.913)" >M118</text>
<text fill="#cccccc"  xml:space="preserve" font-size="11.8712" transform="translate(870.867, 765.035)" >nfet_01v8</text>
<text fill="#aaaa00"  xml:space="preserve" font-size="11.8712" transform="translate(870.867, 782.157)" >1 x {wid_b} / {len_b}</text>
<text fill="#cccccc"  xml:space="preserve" font-size="11.8712" transform="translate(1007.84, 747.913)" >M119</text>
<text fill="#cccccc"  xml:space="preserve" font-size="11.8712" transform="translate(1007.84, 765.035)" >nfet_01v8</text>
<text fill="#aaaa00"  xml:space="preserve" font-size="11.8712" transform="translate(1007.84, 782.157)" >1 x {wid_b} / {len_b}</text>
<text fill="#cccccc"  xml:space="preserve" font-size="11.8712" transform="translate(1144.82, 747.913)" >M120</text>
<text fill="#cccccc"  xml:space="preserve" font-size="11.8712" transform="translate(1144.82, 765.035)" >nfet_01v8</text>
<text fill="#aaaa00"  xml:space="preserve" font-size="11.8712" transform="translate(1144.82, 782.157)" >1 x {wid_b} / {len_b}</text>
<text fill="#cccccc"  xml:space="preserve" font-size="11.8712" transform="translate(1281.79, 747.913)" >M121</text>
<text fill="#cccccc"  xml:space="preserve" font-size="11.8712" transform="translate(1281.79, 765.035)" >nfet_01v8</text>
<text fill="#aaaa00"  xml:space="preserve" font-size="11.8712" transform="translate(1281.79, 782.157)" >1 x {wid_b} / {len_b}</text>
<text fill="#cccccc"  xml:space="preserve" font-size="11.8712" transform="translate(1418.77, 747.913)" >M122</text>
<text fill="#cccccc"  xml:space="preserve" font-size="11.8712" transform="translate(1418.77, 765.035)" >nfet_01v8</text>
<text fill="#aaaa00"  xml:space="preserve" font-size="11.8712" transform="translate(1418.77, 782.157)" >1 x {wid_b} / {len_b}</text>
<text fill="#cccccc"  xml:space="preserve" font-size="11.8712" transform="translate(596.916, 588.109)" >M123</text>
<text fill="#cccccc"  xml:space="preserve" font-size="11.8712" transform="translate(596.916, 605.231)" >nfet_01v8</text>
<text fill="#aaaa00"  xml:space="preserve" font-size="11.8712" transform="translate(596.916, 622.353)" >1 x {wid_b} / {len_b}</text>
<text fill="#cccccc"  xml:space="preserve" font-size="11.8712" transform="translate(733.891, 588.109)" >M124</text>
<text fill="#cccccc"  xml:space="preserve" font-size="11.8712" transform="translate(733.891, 605.231)" >nfet_01v8</text>
<text fill="#aaaa00"  xml:space="preserve" font-size="11.8712" transform="translate(733.891, 622.353)" >1 x {wid_b} / {len_b}</text>
<text fill="#cccccc"  xml:space="preserve" font-size="11.8712" transform="translate(870.867, 588.109)" >M125</text>
<text fill="#cccccc"  xml:space="preserve" font-size="11.8712" transform="translate(870.867, 605.231)" >nfet_01v8</text>
<text fill="#aaaa00"  xml:space="preserve" font-size="11.8712" transform="translate(870.867, 622.353)" >1 x {wid_b} / {len_b}</text>
<text fill="#cccccc"  xml:space="preserve" font-size="11.8712" transform="translate(1007.84, 588.109)" >M126</text>
<text fill="#cccccc"  xml:space="preserve" font-size="11.8712" transform="translate(1007.84, 605.231)" >nfet_01v8</text>
<text fill="#aaaa00"  xml:space="preserve" font-size="11.8712" transform="translate(1007.84, 622.353)" >1 x {wid_b} / {len_b}</text>
<text fill="#cccccc"  xml:space="preserve" font-size="11.8712" transform="translate(1144.82, 588.109)" >M127</text>
<text fill="#cccccc"  xml:space="preserve" font-size="11.8712" transform="translate(1144.82, 605.231)" >nfet_01v8</text>
<text fill="#aaaa00"  xml:space="preserve" font-size="11.8712" transform="translate(1144.82, 622.353)" >1 x {wid_b} / {len_b}</text>
<text fill="#cccccc"  xml:space="preserve" font-size="11.8712" transform="translate(1281.79, 588.109)" >M128</text>
<text fill="#cccccc"  xml:space="preserve" font-size="11.8712" transform="translate(1281.79, 605.231)" >nfet_01v8</text>
<text fill="#aaaa00"  xml:space="preserve" font-size="11.8712" transform="translate(1281.79, 622.353)" >1 x {wid_b} / {len_b}</text>
<text fill="#cccccc"  xml:space="preserve" font-size="11.8712" transform="translate(1418.77, 588.109)" >M129</text>
<text fill="#cccccc"  xml:space="preserve" font-size="11.8712" transform="translate(1418.77, 605.231)" >nfet_01v8</text>
<text fill="#aaaa00"  xml:space="preserve" font-size="11.8712" transform="translate(1418.77, 622.353)" >1 x {wid_b} / {len_b}</text>
<text fill="#00ccee"  xml:space="preserve" font-size="19.5875" transform="translate(330.928, 601.688)" >Vc</text>
<text fill="#cccccc"  xml:space="preserve" font-size="17.8068" transform="translate(665.404, 895.425)" >SPICE</text>
<text fill="#cccccc"  xml:space="preserve" font-size="17.8068" style="font-family:Monospace;" transform="translate(676.818, 923.961)" >.param len=2 wid=9 len_b=4 wid_b=3 len_p=4 wid_p=1</text>
<text fill="#cccccc"  xml:space="preserve" font-size="11.8712" transform="translate(743.522, 819.255)" >Vib1</text>
<text fill="#cccccc"  xml:space="preserve" font-size="11.8712" transform="translate(880.498, 819.255)" >Vib2</text>
<text fill="#cccccc"  xml:space="preserve" font-size="11.8712" transform="translate(1017.47, 819.255)" >Vib3</text>
<text fill="#cccccc"  xml:space="preserve" font-size="11.8712" transform="translate(1154.45, 819.255)" >Vib4</text>
<text fill="#cccccc"  xml:space="preserve" font-size="11.8712" transform="translate(1291.42, 819.255)" >Vib5</text>
<text fill="#cccccc"  xml:space="preserve" font-size="11.8712" transform="translate(1428.4, 819.255)" >Vib6</text>
<path class="l1" d="M454.233 103.062L534.136 103.062"/>
<path class="l1" d="M1413.06 103.062L1492.96 103.062"/>
<path class="l1" d="M762.428 68.8182L899.403 68.8182"/>
<path class="l1" d="M1310.33 68.8182L1447.31 68.8182"/>
<path class="l1" d="M899.403 68.8182L1036.38 68.8182"/>
<path class="l1" d="M1036.38 68.8182L1173.35 68.8182"/>
<path class="l1" d="M1173.35 68.8182L1310.33 68.8182"/>
<path class="l1" d="M454.233 34.5744L534.136 34.5744"/>
<path class="l1" d="M591.209 34.5744L728.184 34.5744"/>
<path class="l1" d="M728.184 34.5744L865.16 34.5744"/>
<path class="l1" d="M865.16 34.5744L1002.13 34.5744"/>
<path class="l1" d="M1002.13 34.5744L1139.11 34.5744"/>
<path class="l1" d="M1139.11 34.5744L1276.09 34.5744"/>
<path class="l1" d="M374.331 34.5744L454.233 34.5744"/>
<path class="l1" d="M1413.06 34.5744L1550.04 34.5744"/>
<path class="l1" d="M1447.31 68.8182L1584.28 68.8182"/>
<path class="l1" d="M1492.96 103.062L1550.04 103.062"/>
<path class="l1" d="M534.136 34.5744L591.209 34.5744"/>
<path class="l1" d="M625.453 68.8182L762.428 68.8182"/>
<path class="l1" d="M534.136 103.062L591.209 103.062"/>
<path class="l1" d="M488.477 68.8182L625.453 68.8182"/>
<path class="l1" d="M374.331 68.8182L488.477 68.8182"/>
<path class="l1" d="M591.209 240.038L591.209 285.696"/>
<path class="l1" d="M568.379 171.55L591.209 171.55"/>
<path class="l1" d="M568.379 171.55L568.379 354.184"/>
<path class="l1" d="M568.379 354.184L591.209 354.184"/>
<path class="l1" d="M728.184 240.038L728.184 285.696"/>
<path class="l1" d="M705.355 171.55L728.184 171.55"/>
<path class="l1" d="M705.355 171.55L705.355 354.184"/>
<path class="l1" d="M705.355 354.184L728.184 354.184"/>
<path class="l1" d="M865.16 240.038L865.16 285.696"/>
<path class="l1" d="M842.33 171.55L865.16 171.55"/>
<path class="l1" d="M842.33 171.55L842.33 354.184"/>
<path class="l1" d="M842.33 354.184L865.16 354.184"/>
<path class="l1" d="M1002.13 240.038L1002.13 285.696"/>
<path class="l1" d="M979.306 171.55L1002.13 171.55"/>
<path class="l1" d="M979.306 171.55L979.306 354.184"/>
<path class="l1" d="M979.306 354.184L1002.13 354.184"/>
<path class="l1" d="M1139.11 240.038L1139.11 285.696"/>
<path class="l1" d="M1116.28 171.55L1139.11 171.55"/>
<path class="l1" d="M1116.28 171.55L1116.28 354.184"/>
<path class="l1" d="M1116.28 354.184L1139.11 354.184"/>
<path class="l1" d="M1276.09 240.038L1276.09 285.696"/>
<path class="l1" d="M1253.26 171.55L1276.09 171.55"/>
<path class="l1" d="M1253.26 171.55L1253.26 354.184"/>
<path class="l1" d="M1253.26 354.184L1276.09 354.184"/>
<path class="l1" d="M385.745 68.8182L385.745 262.867"/>
<path class="l1" d="M1139.11 240.038L1253.26 240.038"/>
<path class="l1" d="M1002.13 240.038L1116.28 240.038"/>
<path class="l1" d="M865.16 240.038L979.306 240.038"/>
<path class="l1" d="M728.184 240.038L842.33 240.038"/>
<path class="l1" d="M591.209 240.038L705.355 240.038"/>
<path class="l1" d="M591.209 103.062L591.209 171.55"/>
<path class="l1" d="M728.184 103.062L728.184 171.55"/>
<path class="l1" d="M865.16 103.062L865.16 171.55"/>
<path class="l1" d="M1002.13 103.062L1002.13 171.55"/>
<path class="l1" d="M1139.11 103.062L1139.11 171.55"/>
<path class="l1" d="M1276.09 103.062L1276.09 171.55"/>
<path class="l1" d="M1413.06 103.062L1413.06 240.038"/>
<path class="l1" d="M1276.09 240.038L1413.06 240.038"/>
<path class="l1" d="M1413.06 240.038L1413.06 354.184"/>
<path class="l1" d="M1413.06 240.038L1492.96 240.038"/>
<path class="l1" d="M545.55 434.086L556.965 434.086"/>
<path class="l1" d="M682.526 434.086L693.94 434.086"/>
<path class="l1" d="M819.501 434.086L830.916 434.086"/>
<path class="l1" d="M956.476 434.086L967.891 434.086"/>
<path class="l1" d="M499.892 753.695L556.965 753.695"/>
<path class="l1" d="M556.965 753.695L693.94 753.695"/>
<path class="l1" d="M693.94 753.695L830.916 753.695"/>
<path class="l1" d="M830.916 753.695L967.891 753.695"/>
<path class="l1" d="M1093.45 434.086L1104.87 434.086"/>
<path class="l1" d="M1230.43 434.086L1241.84 434.086"/>
<path class="l1" d="M1367.4 434.086L1378.82 434.086"/>
<path class="l1" d="M967.891 753.695L1104.87 753.695"/>
<path class="l1" d="M1104.87 753.695L1241.84 753.695"/>
<path class="l1" d="M1241.84 753.695L1378.82 753.695"/>
<path class="l1" d="M1276.09 833.598L1413.06 833.598"/>
<path class="l1" d="M1139.11 833.598L1276.09 833.598"/>
<path class="l1" d="M1002.13 833.598L1139.11 833.598"/>
<path class="l1" d="M865.16 833.598L1002.13 833.598"/>
<path class="l1" d="M728.184 833.598L865.16 833.598"/>
<path class="l1" d="M591.209 833.598L728.184 833.598"/>
<path class="l1" d="M374.331 833.598L591.209 833.598"/>
<path class="l1" d="M374.331 753.695L499.892 753.695"/>
<path class="l1" d="M591.209 787.939L591.209 810.768"/>
<path class="l1" d="M591.209 822.183L591.209 833.598"/>
<path class="l1" d="M728.184 787.939L728.184 810.768"/>
<path class="l1" d="M728.184 822.183L728.184 833.598"/>
<path class="l1" d="M865.16 787.939L865.16 810.768"/>
<path class="l1" d="M865.16 822.183L865.16 833.598"/>
<path class="l1" d="M1002.13 787.939L1002.13 810.768"/>
<path class="l1" d="M1002.13 822.183L1002.13 833.598"/>
<path class="l1" d="M1139.11 787.939L1139.11 810.768"/>
<path class="l1" d="M1139.11 822.183L1139.11 833.598"/>
<path class="l1" d="M1276.09 787.939L1276.09 810.768"/>
<path class="l1" d="M1276.09 822.183L1276.09 833.598"/>
<path class="l1" d="M1413.06 787.939L1413.06 810.768"/>
<path class="l1" d="M1413.06 822.183L1413.06 833.598"/>
<path class="l1" d="M374.331 593.891L556.965 593.891"/>
<path class="l1" d="M556.965 593.891L693.94 593.891"/>
<path class="l1" d="M693.94 593.891L830.916 593.891"/>
<path class="l1" d="M830.916 593.891L967.891 593.891"/>
<path class="l1" d="M967.891 593.891L1104.87 593.891"/>
<path class="l1" d="M1104.87 593.891L1241.84 593.891"/>
<path class="l1" d="M1241.84 593.891L1378.82 593.891"/>
<path class="l1" d="M1413.06 468.33L1413.06 559.647"/>
<path class="l1" d="M1276.09 468.33L1276.09 559.647"/>
<path class="l1" d="M1139.11 468.33L1139.11 559.647"/>
<path class="l1" d="M1002.13 468.33L1002.13 559.647"/>
<path class="l1" d="M865.16 468.33L865.16 559.647"/>
<path class="l1" d="M728.184 468.33L728.184 559.647"/>
<path class="l1" d="M591.209 468.33L591.209 559.647"/>
<path class="l1" d="M591.209 628.135L591.209 719.452"/>
<path class="l1" d="M728.184 628.135L728.184 719.452"/>
<path class="l1" d="M865.16 628.135L865.16 719.452"/>
<path class="l1" d="M1002.13 628.135L1002.13 719.452"/>
<path class="l1" d="M1139.11 628.135L1139.11 719.452"/>
<path class="l1" d="M1276.09 628.135L1276.09 719.452"/>
<path class="l1" d="M1413.06 628.135L1413.06 719.452"/>
<path class="l1" d="M591.209 354.184L591.209 399.842"/>
<path class="l1" d="M728.184 354.184L728.184 399.842"/>
<path class="l1" d="M865.16 354.184L865.16 399.842"/>
<path class="l1" d="M1002.13 354.184L1002.13 399.842"/>
<path class="l1" d="M1139.11 354.184L1139.11 399.842"/>
<path class="l1" d="M1276.09 354.184L1276.09 399.842"/>
<path class="l1" d="M1413.06 354.184L1413.06 399.842"/>
<path class="l1" d="M385.745 262.867L385.745 319.94"/>
<path class="l1" d="M385.745 319.94L625.453 319.94"/>
<path class="l1" d="M625.453 319.94L762.428 319.94"/>
<path class="l1" d="M762.428 319.94L899.403 319.94"/>
<path class="l1" d="M899.403 319.94L1036.38 319.94"/>
<path class="l1" d="M1036.38 319.94L1173.35 319.94"/>
<path class="l1" d="M1173.35 319.94L1310.33 319.94"/>
<path class="l1" d="M1173.35 205.794L1310.33 205.794"/>
<path class="l1" d="M1036.38 205.794L1173.35 205.794"/>
<path class="l1" d="M899.403 205.794L1036.38 205.794"/>
<path class="l1" d="M762.428 205.794L899.403 205.794"/>
<path class="l1" d="M625.453 205.794L762.428 205.794"/>
<path class="l1" d="M385.745 205.794L625.453 205.794"/>
<circle class="l1" cx="385.745" cy="68.8182" r="4.22341"/>
<circle class="l1" cx="385.745" cy="205.794" r="4.22341"/>
<circle class="l1" cx="705.355" cy="240.038" r="4.22341"/>
<circle class="l1" cx="842.33" cy="240.038" r="4.22341"/>
<circle class="l1" cx="728.184" cy="833.598" r="4.22341"/>
<circle class="l1" cx="591.209" cy="833.598" r="4.22341"/>
<circle class="l1" cx="591.209" cy="833.598" r="4.22341"/>
<circle class="l1" cx="591.209" cy="833.598" r="4.22341"/>
<circle class="l1" cx="728.184" cy="833.598" r="4.22341"/>
<circle class="l1" cx="728.184" cy="833.598" r="4.22341"/>
<circle class="l1" cx="865.16" cy="833.598" r="4.22341"/>
<circle class="l1" cx="979.306" cy="240.038" r="4.22341"/>
<circle class="l1" cx="1116.28" cy="240.038" r="4.22341"/>
<circle class="l1" cx="1253.26" cy="240.038" r="4.22341"/>
<circle class="l1" cx="1139.11" cy="833.598" r="4.22341"/>
<circle class="l1" cx="1002.13" cy="833.598" r="4.22341"/>
<circle class="l1" cx="865.16" cy="833.598" r="4.22341"/>
<circle class="l1" cx="865.16" cy="833.598" r="4.22341"/>
<circle class="l1" cx="1002.13" cy="833.598" r="4.22341"/>
<circle class="l1" cx="1002.13" cy="833.598" r="4.22341"/>
<circle class="l1" cx="1139.11" cy="833.598" r="4.22341"/>
<circle class="l1" cx="1139.11" cy="833.598" r="4.22341"/>
<circle class="l1" cx="1276.09" cy="833.598" r="4.22341"/>
<circle class="l1" cx="1413.06" cy="240.038" r="4.22341"/>
<circle class="l1" cx="1413.06" cy="240.038" r="4.22341"/>
<circle class="l1" cx="1413.06" cy="240.038" r="4.22341"/>
<circle class="l1" cx="1413.06" cy="240.038" r="4.22341"/>
<circle class="l1" cx="1276.09" cy="833.598" r="4.22341"/>
<circle class="l1" cx="1276.09" cy="833.598" r="4.22341"/>
</svg>
