<svg xmlns="http://www.w3.org/2000/svg" xmlns:xlink="http://www.w3.org/1999/xlink" width="1920" height="947" version="1.1">
<style type="text/css">
.l0{
  fill: #000000;
  stroke: #000000;
  stroke-linecap:round;
  stroke-linejoin:round;
  stroke-width: 1.7273;
}
.l1{
  fill: #00ccee;
  stroke: #00ccee;
  stroke-linecap:round;
  stroke-linejoin:round;
  stroke-width: 1.7273;
}
.l2{
  fill: #4f4f4f; fill-opacity: 0.2;
  stroke: #4f4f4f;
  stroke-linecap:round;
  stroke-linejoin:round;
  stroke-width: 1.7273;
}
.l3{
  fill: #cccccc; fill-opacity: 0.5;
  stroke: #cccccc;
  stroke-linecap:round;
  stroke-linejoin:round;
  stroke-width: 1.7273;
}
.l4{
  fill: #88dd00;
  stroke: #88dd00;
  stroke-linecap:round;
  stroke-linejoin:round;
  stroke-width: 1.7273;
}
.l5{
  fill: #bb2200;
  stroke: #bb2200;
  stroke-linecap:round;
  stroke-linejoin:round;
  stroke-width: 1.7273;
}
.l6{
  fill: #00ccee; fill-opacity: 0.5;
  stroke: #00ccee;
  stroke-linecap:round;
  stroke-linejoin:round;
  stroke-width: 1.7273;
}
.l7{
  fill: #ff0000; fill-opacity: 0.5;
  stroke: #ff0000;
  stroke-linecap:round;
  stroke-linejoin:round;
  stroke-width: 1.7273;
}
.l8{
  fill: #ffff00; fill-opacity: 0.5;
  stroke: #ffff00;
  stroke-linecap:round;
  stroke-linejoin:round;
  stroke-width: 1.7273;
}
.l9{
  fill: #ffffff; fill-opacity: 0.5;
  stroke: #ffffff;
  stroke-linecap:round;
  stroke-linejoin:round;
  stroke-width: 1.7273;
}
.l10{
  fill: #ff00ff;
  stroke: #ff00ff;
  stroke-linecap:round;
  stroke-linejoin:round;
  stroke-width: 1.7273;
}
.l11{
  fill: #00ff00; fill-opacity: 0.5;
  stroke: #00ff00;
  stroke-linecap:round;
  stroke-linejoin:round;
  stroke-width: 1.7273;
}
.l12{
  fill: #0044ff; fill-opacity: 0.5;
  stroke: #0044ff;
  stroke-linecap:round;
  stroke-linejoin:round;
  stroke-width: 1.7273;
}
.l13{
  fill: #aaaa00; fill-opacity: 0.5;
  stroke: #aaaa00;
  stroke-linecap:round;
  stroke-linejoin:round;
  stroke-width: 1.7273;
}
.l14{
  fill: #aaccaa; fill-opacity: 0.2;
  stroke: #aaccaa;
  stroke-linecap:round;
  stroke-linejoin:round;
  stroke-width: 1.7273;
}
.l15{
  fill: #ff7777; fill-opacity: 0.5;
  stroke: #ff7777;
  stroke-linecap:round;
  stroke-linejoin:round;
  stroke-width: 1.7273;
}
.l16{
  fill: #bfff81; fill-opacity: 0.5;
  stroke: #bfff81;
  stroke-linecap:round;
  stroke-linejoin:round;
  stroke-width: 1.7273;
}
.l17{
  fill: #00ffcc; fill-opacity: 0.2;
  stroke: #00ffcc;
  stroke-linecap:round;
  stroke-linejoin:round;
  stroke-width: 1.7273;
}
.l18{
  fill: #ce0097; fill-opacity: 0.5;
  stroke: #ce0097;
  stroke-linecap:round;
  stroke-linejoin:round;
  stroke-width: 1.7273;
}
.l19{
  fill: #d2d46b; fill-opacity: 0.2;
  stroke: #d2d46b;
  stroke-linecap:round;
  stroke-linejoin:round;
  stroke-width: 1.7273;
}
.l20{
  fill: #ef6158; fill-opacity: 0.2;
  stroke: #ef6158;
  stroke-linecap:round;
  stroke-linejoin:round;
  stroke-width: 1.7273;
}
.l21{
  fill: #fdb200; fill-opacity: 0.2;
  stroke: #fdb200;
  stroke-linecap:round;
  stroke-linejoin:round;
  stroke-width: 1.7273;
}
text {font-family: Sans-Serif;}
</style>
<rect class="l0" x="0" y="0" width="1920" height="947"/>
<path class="l4" d="M1130.6 391.493L1146.59 391.493"/>
<path class="l4" d="M1146.59 391.493L1146.59 407.486"/>
<path class="l4" d="M1140.59 407.486L1184.58 407.486"/>
<path class="l4" d="M1178.58 391.493L1178.58 407.486"/>
<path class="l4" d="M1178.58 391.493L1194.57 391.493"/>
<path class="l4" d="M1146.59 411.485L1178.58 411.485"/>
<path class="l4" d="M1162.58 417.482L1162.58 423.48"/>
<circle class="l4" cx="1162.58" cy="414.483" r="2.99878" style="fill:none;" />
<path class="l4" d="M1045.3 562.09L1061.29 562.09"/>
<path class="l4" d="M1061.29 562.09L1061.29 578.083"/>
<path class="l4" d="M1055.29 578.083L1099.28 578.083"/>
<path class="l4" d="M1093.28 562.09L1093.28 578.083"/>
<path class="l4" d="M1093.28 562.09L1109.27 562.09"/>
<path class="l4" d="M1061.29 582.082L1093.28 582.082"/>
<path class="l4" d="M1077.29 582.082L1077.29 594.077"/>
<path class="l4" d="M1130.6 562.09L1146.59 562.09"/>
<path class="l4" d="M1146.59 562.09L1146.59 578.083"/>
<path class="l4" d="M1140.59 578.083L1184.58 578.083"/>
<path class="l4" d="M1178.58 562.09L1178.58 578.083"/>
<path class="l4" d="M1178.58 562.09L1194.57 562.09"/>
<path class="l4" d="M1146.59 582.082L1178.58 582.082"/>
<path class="l4" d="M1162.58 582.082L1162.58 594.077"/>
<path class="l4" d="M1215.9 562.09L1231.89 562.09"/>
<path class="l4" d="M1231.89 562.09L1231.89 578.083"/>
<path class="l4" d="M1225.89 578.083L1269.87 578.083"/>
<path class="l4" d="M1263.88 562.09L1263.88 578.083"/>
<path class="l4" d="M1263.88 562.09L1279.87 562.09"/>
<path class="l4" d="M1231.89 582.082L1263.88 582.082"/>
<path class="l4" d="M1247.88 582.082L1247.88 594.077"/>
<path class="l4" d="M1322.52 562.09L1338.51 562.09"/>
<path class="l4" d="M1338.51 562.09L1338.51 578.083"/>
<path class="l4" d="M1332.52 578.083L1376.5 578.083"/>
<path class="l4" d="M1370.5 562.09L1370.5 578.083"/>
<path class="l4" d="M1370.5 562.09L1386.49 562.09"/>
<path class="l4" d="M1338.51 582.082L1370.5 582.082"/>
<path class="l4" d="M1354.51 582.082L1354.51 594.077"/>
<path class="l4" d="M1045.3 391.493L1061.29 391.493"/>
<path class="l4" d="M1061.29 391.493L1061.29 407.486"/>
<path class="l4" d="M1055.29 407.486L1099.28 407.486"/>
<path class="l4" d="M1093.28 391.493L1093.28 407.486"/>
<path class="l4" d="M1093.28 391.493L1109.27 391.493"/>
<path class="l4" d="M1061.29 411.485L1093.28 411.485"/>
<path class="l4" d="M1077.29 417.482L1077.29 423.48"/>
<circle class="l4" cx="1077.29" cy="414.483" r="2.99878" style="fill:none;" />
<path class="l4" d="M1215.9 391.493L1231.89 391.493"/>
<path class="l4" d="M1231.89 391.493L1231.89 407.486"/>
<path class="l4" d="M1225.89 407.486L1269.87 407.486"/>
<path class="l4" d="M1263.88 391.493L1263.88 407.486"/>
<path class="l4" d="M1263.88 391.493L1279.87 391.493"/>
<path class="l4" d="M1231.89 411.485L1263.88 411.485"/>
<path class="l4" d="M1247.88 417.482L1247.88 423.48"/>
<circle class="l4" cx="1247.88" cy="414.483" r="2.99878" style="fill:none;" />
<path class="l4" d="M1322.52 391.493L1338.51 391.493"/>
<path class="l4" d="M1338.51 391.493L1338.51 407.486"/>
<path class="l4" d="M1332.52 407.486L1376.5 407.486"/>
<path class="l4" d="M1370.5 391.493L1370.5 407.486"/>
<path class="l4" d="M1370.5 391.493L1386.49 391.493"/>
<path class="l4" d="M1338.51 411.485L1370.5 411.485"/>
<path class="l4" d="M1354.51 417.482L1354.51 423.48"/>
<circle class="l4" cx="1354.51" cy="414.483" r="2.99878" style="fill:none;" />
<path class="l4" d="M1178.58 220.895L1194.57 220.895"/>
<path class="l4" d="M1178.58 204.902L1178.58 220.895"/>
<path class="l4" d="M1140.59 204.902L1184.58 204.902"/>
<path class="l4" d="M1146.59 204.902L1146.59 220.895"/>
<path class="l4" d="M1130.6 220.895L1146.59 220.895"/>
<path class="l4" d="M1146.59 200.904L1178.58 200.904"/>
<path class="l4" d="M1162.58 188.908L1162.58 194.906"/>
<circle class="l4" cx="1162.58" cy="197.905" r="2.99878" style="fill:none;" />
<path class="l4" d="M1045.3 220.895L1061.29 220.895"/>
<path class="l4" d="M1061.29 220.895L1061.29 236.889"/>
<path class="l4" d="M1055.29 236.889L1099.28 236.889"/>
<path class="l4" d="M1093.28 220.895L1093.28 236.889"/>
<path class="l4" d="M1093.28 220.895L1109.27 220.895"/>
<path class="l4" d="M1061.29 240.887L1093.28 240.887"/>
<path class="l4" d="M1077.29 246.885L1077.29 252.882"/>
<circle class="l4" cx="1077.29" cy="243.886" r="2.99878" style="fill:none;" />
<path class="l4" d="M1263.88 220.895L1279.87 220.895"/>
<path class="l4" d="M1263.88 204.902L1263.88 220.895"/>
<path class="l4" d="M1225.89 204.902L1269.87 204.902"/>
<path class="l4" d="M1231.89 204.902L1231.89 220.895"/>
<path class="l4" d="M1215.9 220.895L1231.89 220.895"/>
<path class="l4" d="M1231.89 200.904L1263.88 200.904"/>
<path class="l4" d="M1247.88 188.908L1247.88 194.906"/>
<circle class="l4" cx="1247.88" cy="197.905" r="2.99878" style="fill:none;" />
<path class="l4" d="M1301.19 220.895L1317.19 220.895"/>
<path class="l4" d="M1317.19 220.895L1317.19 236.889"/>
<path class="l4" d="M1311.19 236.889L1355.17 236.889"/>
<path class="l4" d="M1349.17 220.895L1349.17 236.889"/>
<path class="l4" d="M1349.17 220.895L1365.17 220.895"/>
<path class="l4" d="M1317.19 240.887L1349.17 240.887"/>
<path class="l4" d="M1333.18 246.885L1333.18 252.882"/>
<circle class="l4" cx="1333.18" cy="243.886" r="2.99878" style="fill:none;" />
<path class="l4" d="M960 220.895L975.993 220.895"/>
<path class="l4" d="M975.993 220.895L975.993 236.889"/>
<path class="l4" d="M969.996 236.889L1013.98 236.889"/>
<path class="l4" d="M1007.98 220.895L1007.98 236.889"/>
<path class="l4" d="M1007.98 220.895L1023.97 220.895"/>
<path class="l4" d="M975.993 240.887L1007.98 240.887"/>
<path class="l4" d="M991.987 246.885L991.987 252.882"/>
<circle class="l4" cx="991.987" cy="243.886" r="2.99878" style="fill:none;" />
<path class="l4" d="M773.409 391.493L789.403 391.493"/>
<path class="l4" d="M773.409 391.493L773.409 407.486"/>
<path class="l4" d="M735.425 407.486L779.407 407.486"/>
<path class="l4" d="M741.422 391.493L741.422 407.486"/>
<path class="l4" d="M725.429 391.493L741.422 391.493"/>
<path class="l4" d="M741.422 411.485L773.409 411.485"/>
<path class="l4" d="M757.416 417.482L757.416 423.48"/>
<circle class="l4" cx="757.416" cy="414.483" r="2.99878" style="fill:none;" />
<path class="l4" d="M858.708 562.09L874.701 562.09"/>
<path class="l4" d="M858.708 562.09L858.708 578.083"/>
<path class="l4" d="M820.723 578.083L864.705 578.083"/>
<path class="l4" d="M826.721 562.09L826.721 578.083"/>
<path class="l4" d="M810.727 562.09L826.721 562.09"/>
<path class="l4" d="M826.721 582.082L858.708 582.082"/>
<path class="l4" d="M842.714 582.082L842.714 594.077"/>
<path class="l4" d="M773.409 562.09L789.403 562.09"/>
<path class="l4" d="M773.409 562.09L773.409 578.083"/>
<path class="l4" d="M735.425 578.083L779.407 578.083"/>
<path class="l4" d="M741.422 562.09L741.422 578.083"/>
<path class="l4" d="M725.429 562.09L741.422 562.09"/>
<path class="l4" d="M741.422 582.082L773.409 582.082"/>
<path class="l4" d="M757.416 582.082L757.416 594.077"/>
<path class="l4" d="M688.111 562.09L704.104 562.09"/>
<path class="l4" d="M688.111 562.09L688.111 578.083"/>
<path class="l4" d="M650.126 578.083L694.108 578.083"/>
<path class="l4" d="M656.124 562.09L656.124 578.083"/>
<path class="l4" d="M640.13 562.09L656.124 562.09"/>
<path class="l4" d="M656.124 582.082L688.111 582.082"/>
<path class="l4" d="M672.117 582.082L672.117 594.077"/>
<path class="l4" d="M581.487 562.09L597.481 562.09"/>
<path class="l4" d="M581.487 562.09L581.487 578.083"/>
<path class="l4" d="M543.503 578.083L587.485 578.083"/>
<path class="l4" d="M549.5 562.09L549.5 578.083"/>
<path class="l4" d="M533.507 562.09L549.5 562.09"/>
<path class="l4" d="M549.5 582.082L581.487 582.082"/>
<path class="l4" d="M565.494 582.082L565.494 594.077"/>
<path class="l4" d="M858.708 391.493L874.701 391.493"/>
<path class="l4" d="M858.708 391.493L858.708 407.486"/>
<path class="l4" d="M820.723 407.486L864.705 407.486"/>
<path class="l4" d="M826.721 391.493L826.721 407.486"/>
<path class="l4" d="M810.727 391.493L826.721 391.493"/>
<path class="l4" d="M826.721 411.485L858.708 411.485"/>
<path class="l4" d="M842.714 417.482L842.714 423.48"/>
<circle class="l4" cx="842.714" cy="414.483" r="2.99878" style="fill:none;" />
<path class="l4" d="M688.111 391.493L704.104 391.493"/>
<path class="l4" d="M688.111 391.493L688.111 407.486"/>
<path class="l4" d="M650.126 407.486L694.108 407.486"/>
<path class="l4" d="M656.124 391.493L656.124 407.486"/>
<path class="l4" d="M640.13 391.493L656.124 391.493"/>
<path class="l4" d="M656.124 411.485L688.111 411.485"/>
<path class="l4" d="M672.117 417.482L672.117 423.48"/>
<circle class="l4" cx="672.117" cy="414.483" r="2.99878" style="fill:none;" />
<path class="l4" d="M581.487 391.493L597.481 391.493"/>
<path class="l4" d="M581.487 391.493L581.487 407.486"/>
<path class="l4" d="M543.503 407.486L587.485 407.486"/>
<path class="l4" d="M549.5 391.493L549.5 407.486"/>
<path class="l4" d="M533.507 391.493L549.5 391.493"/>
<path class="l4" d="M549.5 411.485L581.487 411.485"/>
<path class="l4" d="M565.494 417.482L565.494 423.48"/>
<circle class="l4" cx="565.494" cy="414.483" r="2.99878" style="fill:none;" />
<path class="l4" d="M725.429 220.895L741.422 220.895"/>
<path class="l4" d="M741.422 204.902L741.422 220.895"/>
<path class="l4" d="M735.425 204.902L779.407 204.902"/>
<path class="l4" d="M773.409 204.902L773.409 220.895"/>
<path class="l4" d="M773.409 220.895L789.403 220.895"/>
<path class="l4" d="M741.422 200.904L773.409 200.904"/>
<path class="l4" d="M757.416 188.908L757.416 194.906"/>
<circle class="l4" cx="757.416" cy="197.905" r="2.99878" style="fill:none;" />
<path class="l4" d="M858.708 220.895L874.701 220.895"/>
<path class="l4" d="M858.708 220.895L858.708 236.889"/>
<path class="l4" d="M820.723 236.889L864.705 236.889"/>
<path class="l4" d="M826.721 220.895L826.721 236.889"/>
<path class="l4" d="M810.727 220.895L826.721 220.895"/>
<path class="l4" d="M826.721 240.887L858.708 240.887"/>
<path class="l4" d="M842.714 246.885L842.714 252.882"/>
<circle class="l4" cx="842.714" cy="243.886" r="2.99878" style="fill:none;" />
<path class="l4" d="M640.13 220.895L656.124 220.895"/>
<path class="l4" d="M656.124 204.902L656.124 220.895"/>
<path class="l4" d="M650.126 204.902L694.108 204.902"/>
<path class="l4" d="M688.111 204.902L688.111 220.895"/>
<path class="l4" d="M688.111 220.895L704.104 220.895"/>
<path class="l4" d="M656.124 200.904L688.111 200.904"/>
<path class="l4" d="M672.117 188.908L672.117 194.906"/>
<circle class="l4" cx="672.117" cy="197.905" r="2.99878" style="fill:none;" />
<path class="l4" d="M602.812 220.895L618.806 220.895"/>
<path class="l4" d="M602.812 220.895L602.812 236.889"/>
<path class="l4" d="M564.828 236.889L608.81 236.889"/>
<path class="l4" d="M570.825 220.895L570.825 236.889"/>
<path class="l4" d="M554.832 220.895L570.825 220.895"/>
<path class="l4" d="M570.825 240.887L602.812 240.887"/>
<path class="l4" d="M586.819 246.885L586.819 252.882"/>
<circle class="l4" cx="586.819" cy="243.886" r="2.99878" style="fill:none;" />
<path class="l4" d="M944.007 220.895L960 220.895"/>
<path class="l4" d="M944.007 220.895L944.007 236.889"/>
<path class="l4" d="M906.022 236.889L950.004 236.889"/>
<path class="l4" d="M912.02 220.895L912.02 236.889"/>
<path class="l4" d="M896.026 220.895L912.02 220.895"/>
<path class="l4" d="M912.02 240.887L944.007 240.887"/>
<path class="l4" d="M928.013 246.885L928.013 252.882"/>
<circle class="l4" cx="928.013" cy="243.886" r="2.99878" style="fill:none;" />
<path class="l4" d="M773.409 732.687L789.403 732.687"/>
<path class="l4" d="M773.409 732.687L773.409 748.681"/>
<path class="l4" d="M735.425 748.681L779.407 748.681"/>
<path class="l4" d="M741.422 732.687L741.422 748.681"/>
<path class="l4" d="M725.429 732.687L741.422 732.687"/>
<path class="l4" d="M741.422 752.679L773.409 752.679"/>
<path class="l4" d="M757.416 752.679L757.416 764.674"/>
<path class="l4" d="M666.786 732.687L682.78 732.687"/>
<path class="l4" d="M666.786 732.687L666.786 748.681"/>
<path class="l4" d="M628.801 748.681L672.784 748.681"/>
<path class="l4" d="M634.799 732.687L634.799 748.681"/>
<path class="l4" d="M618.806 732.687L634.799 732.687"/>
<path class="l4" d="M634.799 752.679L666.786 752.679"/>
<path class="l4" d="M650.793 752.679L650.793 764.674"/>
<path class="l4" d="M858.708 732.687L874.701 732.687"/>
<path class="l4" d="M858.708 732.687L858.708 748.681"/>
<path class="l4" d="M820.723 748.681L864.705 748.681"/>
<path class="l4" d="M826.721 732.687L826.721 748.681"/>
<path class="l4" d="M810.727 732.687L826.721 732.687"/>
<path class="l4" d="M826.721 752.679L858.708 752.679"/>
<path class="l4" d="M842.714 752.679L842.714 764.674"/>
<path class="l4" d="M581.487 732.687L597.481 732.687"/>
<path class="l4" d="M581.487 732.687L581.487 748.681"/>
<path class="l4" d="M543.503 748.681L587.485 748.681"/>
<path class="l4" d="M549.5 732.687L549.5 748.681"/>
<path class="l4" d="M533.507 732.687L549.5 732.687"/>
<path class="l4" d="M549.5 752.679L581.487 752.679"/>
<path class="l4" d="M565.494 752.679L565.494 764.674"/>
<path class="l4" d="M1130.6 732.687L1146.59 732.687"/>
<path class="l4" d="M1146.59 732.687L1146.59 748.681"/>
<path class="l4" d="M1140.59 748.681L1184.58 748.681"/>
<path class="l4" d="M1178.58 732.687L1178.58 748.681"/>
<path class="l4" d="M1178.58 732.687L1194.57 732.687"/>
<path class="l4" d="M1146.59 752.679L1178.58 752.679"/>
<path class="l4" d="M1162.58 752.679L1162.58 764.674"/>
<path class="l4" d="M1237.22 732.687L1253.21 732.687"/>
<path class="l4" d="M1253.21 732.687L1253.21 748.681"/>
<path class="l4" d="M1247.22 748.681L1291.2 748.681"/>
<path class="l4" d="M1285.2 732.687L1285.2 748.681"/>
<path class="l4" d="M1285.2 732.687L1301.19 732.687"/>
<path class="l4" d="M1253.21 752.679L1285.2 752.679"/>
<path class="l4" d="M1269.21 752.679L1269.21 764.674"/>
<path class="l4" d="M1045.3 732.687L1061.29 732.687"/>
<path class="l4" d="M1061.29 732.687L1061.29 748.681"/>
<path class="l4" d="M1055.29 748.681L1099.28 748.681"/>
<path class="l4" d="M1093.28 732.687L1093.28 748.681"/>
<path class="l4" d="M1093.28 732.687L1109.27 732.687"/>
<path class="l4" d="M1061.29 752.679L1093.28 752.679"/>
<path class="l4" d="M1077.29 752.679L1077.29 764.674"/>
<path class="l4" d="M1322.52 732.687L1338.51 732.687"/>
<path class="l4" d="M1338.51 732.687L1338.51 748.681"/>
<path class="l4" d="M1332.52 748.681L1376.5 748.681"/>
<path class="l4" d="M1370.5 732.687L1370.5 748.681"/>
<path class="l4" d="M1370.5 732.687L1386.49 732.687"/>
<path class="l4" d="M1338.51 752.679L1370.5 752.679"/>
<path class="l4" d="M1354.51 752.679L1354.51 764.674"/>
<path class="l4" d="M864.039 903.284L938.675 903.284"/>
<path class="l4" d="M864.039 903.284L864.039 924.609"/>
<path class="l5" d="M1194.04 390.96L1195.1 390.96L1195.1 392.026L1194.04 392.026L1194.04 390.96z"/>
<path class="l5" d="M1162.05 422.947L1163.12 422.947L1163.12 424.013L1162.05 424.013L1162.05 422.947z"/>
<path class="l5" d="M1130.06 390.96L1131.13 390.96L1131.13 392.026L1130.06 392.026L1130.06 390.96z"/>
<path class="l5" d="M1044.77 561.557L1045.83 561.557L1045.83 562.623L1044.77 562.623L1044.77 561.557z"/>
<path class="l5" d="M1076.75 593.544L1077.82 593.544L1077.82 594.61L1076.75 594.61L1076.75 593.544z"/>
<path class="l5" d="M1108.74 561.557L1109.81 561.557L1109.81 562.623L1108.74 562.623L1108.74 561.557z"/>
<path class="l5" d="M1130.06 561.557L1131.13 561.557L1131.13 562.623L1130.06 562.623L1130.06 561.557z"/>
<path class="l5" d="M1162.05 593.544L1163.12 593.544L1163.12 594.61L1162.05 594.61L1162.05 593.544z"/>
<path class="l5" d="M1194.04 561.557L1195.1 561.557L1195.1 562.623L1194.04 562.623L1194.04 561.557z"/>
<path class="l5" d="M1215.36 561.557L1216.43 561.557L1216.43 562.623L1215.36 562.623L1215.36 561.557z"/>
<path class="l5" d="M1247.35 593.544L1248.42 593.544L1248.42 594.61L1247.35 594.61L1247.35 593.544z"/>
<path class="l5" d="M1279.34 561.557L1280.4 561.557L1280.4 562.623L1279.34 562.623L1279.34 561.557z"/>
<path class="l5" d="M1321.99 561.557L1323.05 561.557L1323.05 562.623L1321.99 562.623L1321.99 561.557z"/>
<path class="l5" d="M1353.97 593.544L1355.04 593.544L1355.04 594.61L1353.97 594.61L1353.97 593.544z"/>
<path class="l5" d="M1385.96 561.557L1387.03 561.557L1387.03 562.623L1385.96 562.623L1385.96 561.557z"/>
<path class="l5" d="M1108.74 390.96L1109.81 390.96L1109.81 392.026L1108.74 392.026L1108.74 390.96z"/>
<path class="l5" d="M1076.75 422.947L1077.82 422.947L1077.82 424.013L1076.75 424.013L1076.75 422.947z"/>
<path class="l5" d="M1044.77 390.96L1045.83 390.96L1045.83 392.026L1044.77 392.026L1044.77 390.96z"/>
<path class="l5" d="M1279.34 390.96L1280.4 390.96L1280.4 392.026L1279.34 392.026L1279.34 390.96z"/>
<path class="l5" d="M1247.35 422.947L1248.42 422.947L1248.42 424.013L1247.35 424.013L1247.35 422.947z"/>
<path class="l5" d="M1215.36 390.96L1216.43 390.96L1216.43 392.026L1215.36 392.026L1215.36 390.96z"/>
<path class="l5" d="M1385.96 390.96L1387.03 390.96L1387.03 392.026L1385.96 392.026L1385.96 390.96z"/>
<path class="l5" d="M1353.97 422.947L1355.04 422.947L1355.04 424.013L1353.97 424.013L1353.97 422.947z"/>
<path class="l5" d="M1321.99 390.96L1323.05 390.96L1323.05 392.026L1321.99 392.026L1321.99 390.96z"/>
<path class="l5" d="M1130.06 220.362L1131.13 220.362L1131.13 221.429L1130.06 221.429L1130.06 220.362z"/>
<path class="l5" d="M1162.05 188.375L1163.12 188.375L1163.12 189.442L1162.05 189.442L1162.05 188.375z"/>
<path class="l5" d="M1194.04 220.362L1195.1 220.362L1195.1 221.429L1194.04 221.429L1194.04 220.362z"/>
<path class="l5" d="M1108.74 220.362L1109.81 220.362L1109.81 221.429L1108.74 221.429L1108.74 220.362z"/>
<path class="l5" d="M1076.75 252.349L1077.82 252.349L1077.82 253.416L1076.75 253.416L1076.75 252.349z"/>
<path class="l5" d="M1044.77 220.362L1045.83 220.362L1045.83 221.429L1044.77 221.429L1044.77 220.362z"/>
<path class="l5" d="M1215.36 220.362L1216.43 220.362L1216.43 221.429L1215.36 221.429L1215.36 220.362z"/>
<path class="l5" d="M1247.35 188.375L1248.42 188.375L1248.42 189.442L1247.35 189.442L1247.35 188.375z"/>
<path class="l5" d="M1279.34 220.362L1280.4 220.362L1280.4 221.429L1279.34 221.429L1279.34 220.362z"/>
<path class="l5" d="M1364.64 220.362L1365.7 220.362L1365.7 221.429L1364.64 221.429L1364.64 220.362z"/>
<path class="l5" d="M1332.65 252.349L1333.71 252.349L1333.71 253.416L1332.65 253.416L1332.65 252.349z"/>
<path class="l5" d="M1300.66 220.362L1301.73 220.362L1301.73 221.429L1300.66 221.429L1300.66 220.362z"/>
<path class="l5" d="M1023.44 220.362L1024.51 220.362L1024.51 221.429L1023.44 221.429L1023.44 220.362z"/>
<path class="l5" d="M991.454 252.349L992.52 252.349L992.52 253.416L991.454 253.416L991.454 252.349z"/>
<path class="l5" d="M959.467 220.362L960.533 220.362L960.533 221.429L959.467 221.429L959.467 220.362z"/>
<path class="l5" d="M724.896 390.96L725.962 390.96L725.962 392.026L724.896 392.026L724.896 390.96z"/>
<path class="l5" d="M756.883 422.947L757.949 422.947L757.949 424.013L756.883 424.013L756.883 422.947z"/>
<path class="l5" d="M788.87 390.96L789.936 390.96L789.936 392.026L788.87 392.026L788.87 390.96z"/>
<path class="l5" d="M874.168 561.557L875.235 561.557L875.235 562.623L874.168 562.623L874.168 561.557z"/>
<path class="l5" d="M842.181 593.544L843.248 593.544L843.248 594.61L842.181 594.61L842.181 593.544z"/>
<path class="l5" d="M810.194 561.557L811.261 561.557L811.261 562.623L810.194 562.623L810.194 561.557z"/>
<path class="l5" d="M788.87 561.557L789.936 561.557L789.936 562.623L788.87 562.623L788.87 561.557z"/>
<path class="l5" d="M756.883 593.544L757.949 593.544L757.949 594.61L756.883 594.61L756.883 593.544z"/>
<path class="l5" d="M724.896 561.557L725.962 561.557L725.962 562.623L724.896 562.623L724.896 561.557z"/>
<path class="l5" d="M703.571 561.557L704.637 561.557L704.637 562.623L703.571 562.623L703.571 561.557z"/>
<path class="l5" d="M671.584 593.544L672.65 593.544L672.65 594.61L671.584 594.61L671.584 593.544z"/>
<path class="l5" d="M639.597 561.557L640.663 561.557L640.663 562.623L639.597 562.623L639.597 561.557z"/>
<path class="l5" d="M596.948 561.557L598.014 561.557L598.014 562.623L596.948 562.623L596.948 561.557z"/>
<path class="l5" d="M564.961 593.544L566.027 593.544L566.027 594.61L564.961 594.61L564.961 593.544z"/>
<path class="l5" d="M532.974 561.557L534.04 561.557L534.04 562.623L532.974 562.623L532.974 561.557z"/>
<path class="l5" d="M810.194 390.96L811.261 390.96L811.261 392.026L810.194 392.026L810.194 390.96z"/>
<path class="l5" d="M842.181 422.947L843.248 422.947L843.248 424.013L842.181 424.013L842.181 422.947z"/>
<path class="l5" d="M874.168 390.96L875.235 390.96L875.235 392.026L874.168 392.026L874.168 390.96z"/>
<path class="l5" d="M639.597 390.96L640.663 390.96L640.663 392.026L639.597 392.026L639.597 390.96z"/>
<path class="l5" d="M671.584 422.947L672.65 422.947L672.65 424.013L671.584 424.013L671.584 422.947z"/>
<path class="l5" d="M703.571 390.96L704.637 390.96L704.637 392.026L703.571 392.026L703.571 390.96z"/>
<path class="l5" d="M532.974 390.96L534.04 390.96L534.04 392.026L532.974 392.026L532.974 390.96z"/>
<path class="l5" d="M564.961 422.947L566.027 422.947L566.027 424.013L564.961 424.013L564.961 422.947z"/>
<path class="l5" d="M596.948 390.96L598.014 390.96L598.014 392.026L596.948 392.026L596.948 390.96z"/>
<path class="l5" d="M788.87 220.362L789.936 220.362L789.936 221.429L788.87 221.429L788.87 220.362z"/>
<path class="l5" d="M756.883 188.375L757.949 188.375L757.949 189.442L756.883 189.442L756.883 188.375z"/>
<path class="l5" d="M724.896 220.362L725.962 220.362L725.962 221.429L724.896 221.429L724.896 220.362z"/>
<path class="l5" d="M810.194 220.362L811.261 220.362L811.261 221.429L810.194 221.429L810.194 220.362z"/>
<path class="l5" d="M842.181 252.349L843.248 252.349L843.248 253.416L842.181 253.416L842.181 252.349z"/>
<path class="l5" d="M874.168 220.362L875.235 220.362L875.235 221.429L874.168 221.429L874.168 220.362z"/>
<path class="l5" d="M703.571 220.362L704.637 220.362L704.637 221.429L703.571 221.429L703.571 220.362z"/>
<path class="l5" d="M671.584 188.375L672.65 188.375L672.65 189.442L671.584 189.442L671.584 188.375z"/>
<path class="l5" d="M639.597 220.362L640.663 220.362L640.663 221.429L639.597 221.429L639.597 220.362z"/>
<path class="l5" d="M554.298 220.362L555.365 220.362L555.365 221.429L554.298 221.429L554.298 220.362z"/>
<path class="l5" d="M586.285 252.349L587.352 252.349L587.352 253.416L586.285 253.416L586.285 252.349z"/>
<path class="l5" d="M618.272 220.362L619.339 220.362L619.339 221.429L618.272 221.429L618.272 220.362z"/>
<path class="l5" d="M895.493 220.362L896.559 220.362L896.559 221.429L895.493 221.429L895.493 220.362z"/>
<path class="l5" d="M927.48 252.349L928.546 252.349L928.546 253.416L927.48 253.416L927.48 252.349z"/>
<path class="l5" d="M959.467 220.362L960.533 220.362L960.533 221.429L959.467 221.429L959.467 220.362z"/>
<path class="l5" d="M800.065 66.2917L800.065 71.6229"/>
<path class="l5" d="M800.065 66.2917L805.396 62.2934L805.396 52.9638L800.065 56.9622L794.734 52.9638L794.734 62.2934L800.065 66.2917"/>
<path class="l5" d="M798.732 70.2901L801.398 70.2901L801.398 72.9557L798.732 72.9557L798.732 70.2901z"/>
<path class="l5" d="M960 388.161L960 391.493"/>
<path class="l5" d="M965.331 376.832L960 372.834L954.669 376.832L954.669 384.162L960 388.161L965.331 384.162L965.331 376.832"/>
<path class="l5" d="M958.667 390.16L961.333 390.16L961.333 392.825L958.667 392.825L958.667 390.16z"/>
<path class="l5" d="M960 62.2934L960 71.6229"/>
<path class="l5" d="M960 52.9638L954.669 56.9622L954.669 66.2917L960 62.2934L965.331 66.2917L965.331 56.9622L960 52.9638"/>
<path class="l5" d="M958.667 70.2901L961.333 70.2901L961.333 72.9557L958.667 72.9557L958.667 70.2901z"/>
<path class="l5" d="M788.87 732.154L789.936 732.154L789.936 733.22L788.87 733.22L788.87 732.154z"/>
<path class="l5" d="M756.883 764.141L757.949 764.141L757.949 765.207L756.883 765.207L756.883 764.141z"/>
<path class="l5" d="M724.896 732.154L725.962 732.154L725.962 733.22L724.896 733.22L724.896 732.154z"/>
<path class="l5" d="M682.246 732.154L683.313 732.154L683.313 733.22L682.246 733.22L682.246 732.154z"/>
<path class="l5" d="M650.259 764.141L651.326 764.141L651.326 765.207L650.259 765.207L650.259 764.141z"/>
<path class="l5" d="M618.272 732.154L619.339 732.154L619.339 733.22L618.272 733.22L618.272 732.154z"/>
<path class="l5" d="M874.168 732.154L875.235 732.154L875.235 733.22L874.168 733.22L874.168 732.154z"/>
<path class="l5" d="M842.181 764.141L843.248 764.141L843.248 765.207L842.181 765.207L842.181 764.141z"/>
<path class="l5" d="M810.194 732.154L811.261 732.154L811.261 733.22L810.194 733.22L810.194 732.154z"/>
<path class="l5" d="M596.948 732.154L598.014 732.154L598.014 733.22L596.948 733.22L596.948 732.154z"/>
<path class="l5" d="M564.961 764.141L566.027 764.141L566.027 765.207L564.961 765.207L564.961 764.141z"/>
<path class="l5" d="M532.974 732.154L534.04 732.154L534.04 733.22L532.974 733.22L532.974 732.154z"/>
<path class="l5" d="M1130.06 732.154L1131.13 732.154L1131.13 733.22L1130.06 733.22L1130.06 732.154z"/>
<path class="l5" d="M1162.05 764.141L1163.12 764.141L1163.12 765.207L1162.05 765.207L1162.05 764.141z"/>
<path class="l5" d="M1194.04 732.154L1195.1 732.154L1195.1 733.22L1194.04 733.22L1194.04 732.154z"/>
<path class="l5" d="M1236.69 732.154L1237.75 732.154L1237.75 733.22L1236.69 733.22L1236.69 732.154z"/>
<path class="l5" d="M1268.67 764.141L1269.74 764.141L1269.74 765.207L1268.67 765.207L1268.67 764.141z"/>
<path class="l5" d="M1300.66 732.154L1301.73 732.154L1301.73 733.22L1300.66 733.22L1300.66 732.154z"/>
<path class="l5" d="M1044.77 732.154L1045.83 732.154L1045.83 733.22L1044.77 733.22L1044.77 732.154z"/>
<path class="l5" d="M1076.75 764.141L1077.82 764.141L1077.82 765.207L1076.75 765.207L1076.75 764.141z"/>
<path class="l5" d="M1108.74 732.154L1109.81 732.154L1109.81 733.22L1108.74 733.22L1108.74 732.154z"/>
<path class="l5" d="M1321.99 732.154L1323.05 732.154L1323.05 733.22L1321.99 733.22L1321.99 732.154z"/>
<path class="l5" d="M1353.97 764.141L1355.04 764.141L1355.04 765.207L1353.97 765.207L1353.97 764.141z"/>
<path class="l5" d="M1385.96 732.154L1387.03 732.154L1387.03 733.22L1385.96 733.22L1385.96 732.154z"/>
<path class="l5" d="M608.143 871.297L608.143 874.629"/>
<path class="l5" d="M602.812 885.958L608.143 889.956L613.474 885.958L613.474 878.628L608.143 874.629L602.812 878.628L602.812 885.958"/>
<path class="l5" d="M606.81 869.965L609.476 869.965L609.476 872.63L606.81 872.63L606.81 869.965z"/>
<path class="l5" d="M560.163 785.999L565.494 785.999"/>
<path class="l5" d="M560.163 785.999L556.164 780.668L546.835 780.668L550.833 785.999L546.835 791.33L556.164 791.33L560.163 785.999"/>
<path class="l5" d="M564.161 784.666L566.827 784.666L566.827 787.332L564.161 787.332L564.161 784.666z"/>
<text fill="#cccccc"  xml:space="preserve" font-size="11.0888" transform="translate(1141.16, 386.162) rotate(270)" >M1</text>
<text fill="#cccccc"  xml:space="preserve" font-size="11.0888" transform="translate(1157.16, 386.162) rotate(270)" >pfet_01v8</text>
<text fill="#aaaa00"  xml:space="preserve" font-size="11.0888" transform="translate(1173.15, 386.162) rotate(270)" >1 x {wid} / {len}</text>
<text fill="#cccccc"  xml:space="preserve" font-size="11.0888" transform="translate(1071.86, 556.759) rotate(270)" >M2</text>
<text fill="#cccccc"  xml:space="preserve" font-size="11.0888" transform="translate(1087.85, 556.759) rotate(270)" >nfet_01v8</text>
<text fill="#aaaa00"  xml:space="preserve" font-size="11.0888" transform="translate(1103.84, 556.759) rotate(270)" >1 x {wid} / {len}</text>
<text fill="#cccccc"  xml:space="preserve" font-size="11.0888" transform="translate(1157.16, 556.759) rotate(270)" >M3</text>
<text fill="#cccccc"  xml:space="preserve" font-size="11.0888" transform="translate(1173.15, 556.759) rotate(270)" >nfet_01v8</text>
<text fill="#aaaa00"  xml:space="preserve" font-size="11.0888" transform="translate(1189.14, 556.759) rotate(270)" >1 x {wid} / {len}</text>
<text fill="#cccccc"  xml:space="preserve" font-size="11.0888" transform="translate(1242.45, 556.759) rotate(270)" >M4</text>
<text fill="#cccccc"  xml:space="preserve" font-size="11.0888" transform="translate(1258.45, 556.759) rotate(270)" >nfet_01v8</text>
<text fill="#aaaa00"  xml:space="preserve" font-size="11.0888" transform="translate(1274.44, 556.759) rotate(270)" >1 x {wid} / {len}</text>
<text fill="#cccccc"  xml:space="preserve" font-size="11.0888" transform="translate(1349.08, 556.759) rotate(270)" >M5</text>
<text fill="#cccccc"  xml:space="preserve" font-size="11.0888" transform="translate(1365.07, 556.759) rotate(270)" >nfet_01v8</text>
<text fill="#aaaa00"  xml:space="preserve" font-size="11.0888" transform="translate(1381.06, 556.759) rotate(270)" >1 x {wid} / {len}</text>
<text fill="#cccccc"  xml:space="preserve" font-size="11.0888" transform="translate(1055.86, 386.162) rotate(270)" >M8</text>
<text fill="#cccccc"  xml:space="preserve" font-size="11.0888" transform="translate(1071.86, 386.162) rotate(270)" >pfet_01v8</text>
<text fill="#aaaa00"  xml:space="preserve" font-size="11.0888" transform="translate(1087.85, 386.162) rotate(270)" >1 x {wid} / {len}</text>
<text fill="#cccccc"  xml:space="preserve" font-size="11.0888" transform="translate(1226.46, 386.162) rotate(270)" >M9</text>
<text fill="#cccccc"  xml:space="preserve" font-size="11.0888" transform="translate(1242.45, 386.162) rotate(270)" >pfet_01v8</text>
<text fill="#aaaa00"  xml:space="preserve" font-size="11.0888" transform="translate(1258.45, 386.162) rotate(270)" >1 x {wid} / {len}</text>
<text fill="#cccccc"  xml:space="preserve" font-size="11.0888" transform="translate(1333.08, 386.162) rotate(270)" >M10</text>
<text fill="#cccccc"  xml:space="preserve" font-size="11.0888" transform="translate(1349.08, 386.162) rotate(270)" >pfet_01v8</text>
<text fill="#aaaa00"  xml:space="preserve" font-size="11.0888" transform="translate(1365.07, 386.162) rotate(270)" >1 x {wid} / {len}</text>
<text fill="#cccccc"  xml:space="preserve" font-size="11.0888" transform="translate(1191.42, 248.227) rotate(270)" >M11</text>
<text fill="#cccccc"  xml:space="preserve" font-size="11.0888" transform="translate(1175.43, 276.227) rotate(270)" >pfet_01v8</text>
<text fill="#aaaa00"  xml:space="preserve" font-size="11.0888" transform="translate(1159.44, 305.227) rotate(270)" >1 x {wid} / {len}</text>
<text fill="#cccccc"  xml:space="preserve" font-size="11.0888" transform="translate(1055.86, 215.564) rotate(270)" >M12</text>
<text fill="#cccccc"  xml:space="preserve" font-size="11.0888" transform="translate(1071.86, 215.564) rotate(270)" >pfet_01v8</text>
<text fill="#aaaa00"  xml:space="preserve" font-size="11.0888" transform="translate(1087.85, 215.564) rotate(270)" >1 x {wid} / {len}</text>
<text fill="#cccccc"  xml:space="preserve" font-size="11.0888" transform="translate(1276.72, 248.227) rotate(270)" >M13</text>
<text fill="#cccccc"  xml:space="preserve" font-size="11.0888" transform="translate(1260.73, 276.227) rotate(270)" >pfet_01v8</text>
<text fill="#aaaa00"  xml:space="preserve" font-size="11.0888" transform="translate(1244.74, 305.227) rotate(270)" >1 x {wid} / {len}</text>
<text fill="#cccccc"  xml:space="preserve" font-size="11.0888" transform="translate(1311.76, 215.564) rotate(270)" >M14</text>
<text fill="#cccccc"  xml:space="preserve" font-size="11.0888" transform="translate(1327.75, 215.564) rotate(270)" >pfet_01v8</text>
<text fill="#aaaa00"  xml:space="preserve" font-size="11.0888" transform="translate(1343.75, 215.564) rotate(270)" >1 x {wid} / {len}</text>
<text fill="#cccccc"  xml:space="preserve" font-size="11.0888" transform="translate(970.565, 215.564) rotate(270)" >M15</text>
<text fill="#cccccc"  xml:space="preserve" font-size="11.0888" transform="translate(986.559, 215.564) rotate(270)" >pfet_01v8</text>
<text fill="#aaaa00"  xml:space="preserve" font-size="11.0888" transform="translate(1002.55, 215.564) rotate(270)" >1 x {wid} / {len}</text>
<text fill="#cccccc"  xml:space="preserve" font-size="11.0888" transform="translate(786.256, 386.162) rotate(270)" >M16</text>
<text fill="#cccccc"  xml:space="preserve" font-size="11.0888" transform="translate(770.262, 386.162) rotate(270)" >pfet_01v8</text>
<text fill="#aaaa00"  xml:space="preserve" font-size="11.0888" transform="translate(754.269, 386.162) rotate(270)" >1 x {wid} / {len}</text>
<text fill="#cccccc"  xml:space="preserve" font-size="11.0888" transform="translate(855.561, 556.759) rotate(270)" >M17</text>
<text fill="#cccccc"  xml:space="preserve" font-size="11.0888" transform="translate(839.567, 556.759) rotate(270)" >nfet_01v8</text>
<text fill="#aaaa00"  xml:space="preserve" font-size="11.0888" transform="translate(823.574, 556.759) rotate(270)" >1 x {wid} / {len}</text>
<text fill="#cccccc"  xml:space="preserve" font-size="11.0888" transform="translate(770.262, 556.759) rotate(270)" >M18</text>
<text fill="#cccccc"  xml:space="preserve" font-size="11.0888" transform="translate(754.269, 556.759) rotate(270)" >nfet_01v8</text>
<text fill="#aaaa00"  xml:space="preserve" font-size="11.0888" transform="translate(738.275, 556.759) rotate(270)" >1 x {wid} / {len}</text>
<text fill="#cccccc"  xml:space="preserve" font-size="11.0888" transform="translate(684.964, 556.759) rotate(270)" >M19</text>
<text fill="#cccccc"  xml:space="preserve" font-size="11.0888" transform="translate(668.97, 556.759) rotate(270)" >nfet_01v8</text>
<text fill="#aaaa00"  xml:space="preserve" font-size="11.0888" transform="translate(652.977, 556.759) rotate(270)" >1 x {wid} / {len}</text>
<text fill="#cccccc"  xml:space="preserve" font-size="11.0888" transform="translate(578.34, 556.759) rotate(270)" >M20</text>
<text fill="#cccccc"  xml:space="preserve" font-size="11.0888" transform="translate(562.347, 556.759) rotate(270)" >nfet_01v8</text>
<text fill="#aaaa00"  xml:space="preserve" font-size="11.0888" transform="translate(546.353, 556.759) rotate(270)" >1 x {wid} / {len}</text>
<text fill="#cccccc"  xml:space="preserve" font-size="11.0888" transform="translate(871.554, 386.162) rotate(270)" >M23</text>
<text fill="#cccccc"  xml:space="preserve" font-size="11.0888" transform="translate(855.561, 386.162) rotate(270)" >pfet_01v8</text>
<text fill="#aaaa00"  xml:space="preserve" font-size="11.0888" transform="translate(839.567, 386.162) rotate(270)" >1 x {wid} / {len}</text>
<text fill="#cccccc"  xml:space="preserve" font-size="11.0888" transform="translate(700.957, 386.162) rotate(270)" >M24</text>
<text fill="#cccccc"  xml:space="preserve" font-size="11.0888" transform="translate(684.964, 386.162) rotate(270)" >pfet_01v8</text>
<text fill="#aaaa00"  xml:space="preserve" font-size="11.0888" transform="translate(668.97, 386.162) rotate(270)" >1 x {wid} / {len}</text>
<text fill="#cccccc"  xml:space="preserve" font-size="11.0888" transform="translate(594.334, 386.162) rotate(270)" >M25</text>
<text fill="#cccccc"  xml:space="preserve" font-size="11.0888" transform="translate(578.34, 386.162) rotate(270)" >pfet_01v8</text>
<text fill="#aaaa00"  xml:space="preserve" font-size="11.0888" transform="translate(562.347, 386.162) rotate(270)" >1 x {wid} / {len}</text>
<text fill="#cccccc"  xml:space="preserve" font-size="11.0888" transform="translate(735.994, 248.227) rotate(270)" >M26</text>
<text fill="#cccccc"  xml:space="preserve" font-size="11.0888" transform="translate(751.988, 276.227) rotate(270)" >pfet_01v8</text>
<text fill="#aaaa00"  xml:space="preserve" font-size="11.0888" transform="translate(767.981, 305.227) rotate(270)" >1 x {wid} / {len}</text>
<text fill="#cccccc"  xml:space="preserve" font-size="11.0888" transform="translate(871.554, 215.564) rotate(270)" >M27</text>
<text fill="#cccccc"  xml:space="preserve" font-size="11.0888" transform="translate(855.561, 215.564) rotate(270)" >pfet_01v8</text>
<text fill="#aaaa00"  xml:space="preserve" font-size="11.0888" transform="translate(839.567, 215.564) rotate(270)" >1 x {wid} / {len}</text>
<text fill="#cccccc"  xml:space="preserve" font-size="11.0888" transform="translate(650.696, 248.227) rotate(270)" >M28</text>
<text fill="#cccccc"  xml:space="preserve" font-size="11.0888" transform="translate(666.689, 276.227) rotate(270)" >pfet_01v8</text>
<text fill="#aaaa00"  xml:space="preserve" font-size="11.0888" transform="translate(682.683, 305.227) rotate(270)" >1 x {wid} / {len}</text>
<text fill="#cccccc"  xml:space="preserve" font-size="11.0888" transform="translate(615.659, 215.564) rotate(270)" >M29</text>
<text fill="#cccccc"  xml:space="preserve" font-size="11.0888" transform="translate(599.665, 215.564) rotate(270)" >pfet_01v8</text>
<text fill="#aaaa00"  xml:space="preserve" font-size="11.0888" transform="translate(583.672, 215.564) rotate(270)" >1 x {wid} / {len}</text>
<text fill="#cccccc"  xml:space="preserve" font-size="11.0888" transform="translate(956.853, 215.564) rotate(270)" >M30</text>
<text fill="#cccccc"  xml:space="preserve" font-size="11.0888" transform="translate(940.86, 215.564) rotate(270)" >pfet_01v8</text>
<text fill="#aaaa00"  xml:space="preserve" font-size="11.0888" transform="translate(924.866, 215.564) rotate(270)" >1 x {wid} / {len}</text>
<text fill="#00ccee"  xml:space="preserve" font-size="18.2966" transform="translate(805.022, 51.631) rotate(270)" >Iin</text>
<text fill="#00ccee"  xml:space="preserve" font-size="18.2966" transform="translate(966.617, 370.335) rotate(270)" >VDD</text>
<text fill="#00ccee"  xml:space="preserve" font-size="18.2966" transform="translate(967.284, 50.2982) rotate(270)" >Iout</text>
<text fill="#cccccc"  xml:space="preserve" font-size="11.0888" transform="translate(770.262, 727.356) rotate(270)" >M21</text>
<text fill="#cccccc"  xml:space="preserve" font-size="11.0888" transform="translate(754.269, 727.356) rotate(270)" >nfet_01v8</text>
<text fill="#aaaa00"  xml:space="preserve" font-size="11.0888" transform="translate(738.275, 727.356) rotate(270)" >1 x {wid} / {len}</text>
<text fill="#cccccc"  xml:space="preserve" font-size="11.0888" transform="translate(663.639, 727.356) rotate(270)" >M22</text>
<text fill="#cccccc"  xml:space="preserve" font-size="11.0888" transform="translate(647.646, 727.356) rotate(270)" >nfet_01v8</text>
<text fill="#aaaa00"  xml:space="preserve" font-size="11.0888" transform="translate(631.652, 727.356) rotate(270)" >1 x {wid} / {len}</text>
<text fill="#cccccc"  xml:space="preserve" font-size="11.0888" transform="translate(855.561, 727.356) rotate(270)" >M32</text>
<text fill="#cccccc"  xml:space="preserve" font-size="11.0888" transform="translate(839.567, 727.356) rotate(270)" >nfet_01v8</text>
<text fill="#aaaa00"  xml:space="preserve" font-size="11.0888" transform="translate(823.574, 727.356) rotate(270)" >1 x {wid} / {len}</text>
<text fill="#cccccc"  xml:space="preserve" font-size="11.0888" transform="translate(578.34, 727.356) rotate(270)" >M33</text>
<text fill="#cccccc"  xml:space="preserve" font-size="11.0888" transform="translate(562.347, 727.356) rotate(270)" >nfet_01v8</text>
<text fill="#aaaa00"  xml:space="preserve" font-size="11.0888" transform="translate(546.353, 727.356) rotate(270)" >1 x {wid} / {len}</text>
<text fill="#cccccc"  xml:space="preserve" font-size="11.0888" transform="translate(1157.16, 727.356) rotate(270)" >M6</text>
<text fill="#cccccc"  xml:space="preserve" font-size="11.0888" transform="translate(1173.15, 727.356) rotate(270)" >nfet_01v8</text>
<text fill="#aaaa00"  xml:space="preserve" font-size="11.0888" transform="translate(1189.14, 727.356) rotate(270)" >1 x {wid} / {len}</text>
<text fill="#cccccc"  xml:space="preserve" font-size="11.0888" transform="translate(1263.78, 727.356) rotate(270)" >M7</text>
<text fill="#cccccc"  xml:space="preserve" font-size="11.0888" transform="translate(1279.77, 727.356) rotate(270)" >nfet_01v8</text>
<text fill="#aaaa00"  xml:space="preserve" font-size="11.0888" transform="translate(1295.77, 727.356) rotate(270)" >1 x {wid} / {len}</text>
<text fill="#cccccc"  xml:space="preserve" font-size="11.0888" transform="translate(1071.86, 727.356) rotate(270)" >M34</text>
<text fill="#cccccc"  xml:space="preserve" font-size="11.0888" transform="translate(1087.85, 727.356) rotate(270)" >nfet_01v8</text>
<text fill="#aaaa00"  xml:space="preserve" font-size="11.0888" transform="translate(1103.84, 727.356) rotate(270)" >1 x {wid} / {len}</text>
<text fill="#cccccc"  xml:space="preserve" font-size="11.0888" transform="translate(1349.08, 727.356) rotate(270)" >M35</text>
<text fill="#cccccc"  xml:space="preserve" font-size="11.0888" transform="translate(1365.07, 727.356) rotate(270)" >nfet_01v8</text>
<text fill="#aaaa00"  xml:space="preserve" font-size="11.0888" transform="translate(1381.06, 727.356) rotate(270)" >1 x {wid} / {len}</text>
<text fill="#00ccee"  xml:space="preserve" font-size="18.2966" transform="translate(613.766, 932.455) rotate(270)" >GND</text>
<text fill="#00ccee"  xml:space="preserve" font-size="18.2966" transform="translate(511.502, 793.283)" >Vbn</text>
<text fill="#cccccc"  xml:space="preserve" font-size="16.6332" transform="translate(869.37, 897.063)" >SPICE</text>
<text fill="#cccccc"  xml:space="preserve" font-size="16.6332" style="font-family:Monospace;" transform="translate(880.033, 923.719)" >.param len=3 wid=3</text>
<path class="l1" d="M1279.87 562.09L1322.52 562.09"/>
<path class="l1" d="M1194.57 562.09L1215.9 562.09"/>
<path class="l1" d="M1109.27 562.09L1130.6 562.09"/>
<path class="l1" d="M1045.3 444.804L1045.3 562.09"/>
<path class="l1" d="M1045.3 444.804L1077.29 444.804"/>
<path class="l1" d="M1077.29 423.48L1077.29 444.804"/>
<path class="l1" d="M1077.29 444.804L1162.58 444.804"/>
<path class="l1" d="M1162.58 423.48L1162.58 444.804"/>
<path class="l1" d="M1162.58 444.804L1247.88 444.804"/>
<path class="l1" d="M1247.88 423.48L1247.88 444.804"/>
<path class="l1" d="M1205.23 391.493L1205.23 444.804"/>
<path class="l1" d="M1194.57 391.493L1205.23 391.493"/>
<path class="l1" d="M1205.23 391.493L1215.9 391.493"/>
<path class="l1" d="M1109.27 391.493L1130.6 391.493"/>
<path class="l1" d="M1279.87 391.493L1322.52 391.493"/>
<path class="l1" d="M1119.93 380.83L1119.93 391.493"/>
<path class="l1" d="M1119.93 380.83L1301.19 380.83"/>
<path class="l1" d="M1301.19 380.83L1301.19 391.493"/>
<path class="l1" d="M1109.27 220.895L1130.6 220.895"/>
<path class="l1" d="M1194.57 220.895L1215.9 220.895"/>
<path class="l1" d="M1279.87 220.895L1301.19 220.895"/>
<path class="l1" d="M1386.49 391.493L1407.82 391.493"/>
<path class="l1" d="M1407.82 391.493L1407.82 562.09"/>
<path class="l1" d="M1386.49 562.09L1407.82 562.09"/>
<path class="l1" d="M1354.51 423.48L1354.51 444.804"/>
<path class="l1" d="M1354.51 444.804L1407.82 444.804"/>
<path class="l1" d="M1119.93 124.935L1119.93 220.895"/>
<path class="l1" d="M991.987 252.882L1045.3 252.882"/>
<path class="l1" d="M1045.3 220.895L1045.3 252.882"/>
<path class="l1" d="M1386.49 199.571L1386.49 220.895"/>
<path class="l1" d="M1365.17 220.895L1386.49 220.895"/>
<path class="l1" d="M1023.97 220.895L1023.97 274.207"/>
<path class="l1" d="M1023.97 274.207L1290.53 274.207"/>
<path class="l1" d="M1290.53 220.895L1290.53 274.207"/>
<path class="l1" d="M1162.58 167.584L1162.58 188.908"/>
<path class="l1" d="M1162.58 167.584L1247.88 167.584"/>
<path class="l1" d="M1247.88 167.584L1247.88 188.908"/>
<path class="l1" d="M1247.88 167.584L1386.49 167.584"/>
<path class="l1" d="M1386.49 167.584L1386.49 199.571"/>
<path class="l1" d="M1386.49 167.584L1429.14 167.584"/>
<path class="l1" d="M1429.14 167.584L1429.14 732.687"/>
<path class="l1" d="M1077.29 327.519L1407.82 327.519"/>
<path class="l1" d="M1077.29 252.882L1077.29 327.519"/>
<path class="l1" d="M1333.18 252.882L1333.18 327.519"/>
<path class="l1" d="M1407.82 327.519L1407.82 391.493"/>
<path class="l1" d="M960 391.493L1045.3 391.493"/>
<path class="l1" d="M1023.97 306.194L1023.97 732.687"/>
<path class="l1" d="M1023.97 306.194L1045.3 306.194"/>
<path class="l1" d="M1045.3 252.882L1045.3 306.194"/>
<path class="l1" d="M597.481 562.09L640.13 562.09"/>
<path class="l1" d="M704.104 562.09L725.429 562.09"/>
<path class="l1" d="M789.403 562.09L810.727 562.09"/>
<path class="l1" d="M874.701 444.804L874.701 562.09"/>
<path class="l1" d="M842.714 444.804L874.701 444.804"/>
<path class="l1" d="M842.714 423.48L842.714 444.804"/>
<path class="l1" d="M757.416 444.804L842.714 444.804"/>
<path class="l1" d="M757.416 423.48L757.416 444.804"/>
<path class="l1" d="M672.117 444.804L757.416 444.804"/>
<path class="l1" d="M672.117 423.48L672.117 444.804"/>
<path class="l1" d="M714.766 391.493L714.766 444.804"/>
<path class="l1" d="M714.766 391.493L725.429 391.493"/>
<path class="l1" d="M704.104 391.493L714.766 391.493"/>
<path class="l1" d="M789.403 391.493L810.727 391.493"/>
<path class="l1" d="M597.481 391.493L640.13 391.493"/>
<path class="l1" d="M800.065 380.83L800.065 391.493"/>
<path class="l1" d="M618.806 380.83L800.065 380.83"/>
<path class="l1" d="M618.806 380.83L618.806 391.493"/>
<path class="l1" d="M789.403 220.895L810.727 220.895"/>
<path class="l1" d="M704.104 220.895L725.429 220.895"/>
<path class="l1" d="M618.806 220.895L640.13 220.895"/>
<path class="l1" d="M512.182 391.493L533.507 391.493"/>
<path class="l1" d="M512.182 391.493L512.182 562.09"/>
<path class="l1" d="M512.182 562.09L533.507 562.09"/>
<path class="l1" d="M565.494 423.48L565.494 444.804"/>
<path class="l1" d="M512.182 444.804L565.494 444.804"/>
<path class="l1" d="M800.065 124.935L800.065 220.895"/>
<path class="l1" d="M874.701 252.882L928.013 252.882"/>
<path class="l1" d="M874.701 220.895L874.701 252.882"/>
<path class="l1" d="M533.507 199.571L533.507 220.895"/>
<path class="l1" d="M533.507 220.895L554.832 220.895"/>
<path class="l1" d="M896.026 220.895L896.026 274.207"/>
<path class="l1" d="M629.468 274.207L896.026 274.207"/>
<path class="l1" d="M629.468 220.895L629.468 274.207"/>
<path class="l1" d="M757.416 167.584L757.416 188.908"/>
<path class="l1" d="M672.117 167.584L757.416 167.584"/>
<path class="l1" d="M672.117 167.584L672.117 188.908"/>
<path class="l1" d="M533.507 167.584L672.117 167.584"/>
<path class="l1" d="M533.507 167.584L533.507 199.571"/>
<path class="l1" d="M490.858 167.584L533.507 167.584"/>
<path class="l1" d="M490.858 167.584L490.858 732.687"/>
<path class="l1" d="M512.182 327.519L842.714 327.519"/>
<path class="l1" d="M842.714 252.882L842.714 327.519"/>
<path class="l1" d="M586.819 252.882L586.819 327.519"/>
<path class="l1" d="M512.182 327.519L512.182 391.493"/>
<path class="l1" d="M874.701 391.493L960 391.493"/>
<path class="l1" d="M896.026 306.194L896.026 732.687"/>
<path class="l1" d="M874.701 306.194L896.026 306.194"/>
<path class="l1" d="M874.701 252.882L874.701 306.194"/>
<path class="l1" d="M800.065 124.935L1119.93 124.935"/>
<path class="l1" d="M960 71.6229L960 220.895"/>
<path class="l1" d="M800.065 71.6229L800.065 124.935"/>
<path class="l1" d="M917.351 295.532L917.351 391.493"/>
<path class="l1" d="M714.766 295.532L917.351 295.532"/>
<path class="l1" d="M714.766 220.895L714.766 295.532"/>
<path class="l1" d="M917.351 295.532L1205.23 295.532"/>
<path class="l1" d="M1205.23 220.895L1205.23 295.532"/>
<path class="l1" d="M1077.29 594.077L1077.29 615.402"/>
<path class="l1" d="M1077.29 615.402L1162.58 615.402"/>
<path class="l1" d="M1162.58 594.077L1162.58 615.402"/>
<path class="l1" d="M1162.58 615.402L1247.88 615.402"/>
<path class="l1" d="M1247.88 594.077L1247.88 615.402"/>
<path class="l1" d="M1247.88 615.402L1354.51 615.402"/>
<path class="l1" d="M1354.51 594.077L1354.51 615.402"/>
<path class="l1" d="M842.714 594.077L842.714 615.402"/>
<path class="l1" d="M757.416 615.402L842.714 615.402"/>
<path class="l1" d="M757.416 594.077L757.416 615.402"/>
<path class="l1" d="M672.117 615.402L757.416 615.402"/>
<path class="l1" d="M672.117 594.077L672.117 615.402"/>
<path class="l1" d="M565.494 615.402L672.117 615.402"/>
<path class="l1" d="M565.494 594.077L565.494 615.402"/>
<path class="l1" d="M757.416 764.674L757.416 785.999"/>
<path class="l1" d="M650.793 785.999L757.416 785.999"/>
<path class="l1" d="M650.793 764.674L650.793 785.999"/>
<path class="l1" d="M757.416 785.999L842.714 785.999"/>
<path class="l1" d="M842.714 764.674L842.714 785.999"/>
<path class="l1" d="M874.701 732.687L896.026 732.687"/>
<path class="l1" d="M565.494 785.999L650.793 785.999"/>
<path class="l1" d="M565.494 764.674L565.494 785.999"/>
<path class="l1" d="M842.714 785.999L1077.29 785.999"/>
<path class="l1" d="M842.714 615.402L1077.29 615.402"/>
<path class="l1" d="M960 615.402L960 785.999"/>
<path class="l1" d="M597.481 732.687L618.806 732.687"/>
<path class="l1" d="M522.845 711.362L522.845 732.687"/>
<path class="l1" d="M522.845 711.362L693.442 711.362"/>
<path class="l1" d="M693.442 711.362L693.442 732.687"/>
<path class="l1" d="M682.78 732.687L693.442 732.687"/>
<path class="l1" d="M789.403 732.687L810.727 732.687"/>
<path class="l1" d="M714.766 732.687L725.429 732.687"/>
<path class="l1" d="M714.766 711.362L714.766 732.687"/>
<path class="l1" d="M714.766 711.362L885.364 711.362"/>
<path class="l1" d="M885.364 711.362L885.364 732.687"/>
<path class="l1" d="M1162.58 764.674L1162.58 785.999"/>
<path class="l1" d="M1162.58 785.999L1269.21 785.999"/>
<path class="l1" d="M1269.21 764.674L1269.21 785.999"/>
<path class="l1" d="M1077.29 785.999L1162.58 785.999"/>
<path class="l1" d="M1077.29 764.674L1077.29 785.999"/>
<path class="l1" d="M1023.97 732.687L1045.3 732.687"/>
<path class="l1" d="M1386.49 732.687L1429.14 732.687"/>
<path class="l1" d="M1269.21 785.999L1354.51 785.999"/>
<path class="l1" d="M1354.51 764.674L1354.51 785.999"/>
<path class="l1" d="M1301.19 732.687L1322.52 732.687"/>
<path class="l1" d="M1397.16 711.362L1397.16 732.687"/>
<path class="l1" d="M1226.56 711.362L1397.16 711.362"/>
<path class="l1" d="M1226.56 711.362L1226.56 732.687"/>
<path class="l1" d="M1226.56 732.687L1237.22 732.687"/>
<path class="l1" d="M1109.27 732.687L1130.6 732.687"/>
<path class="l1" d="M1194.57 732.687L1205.23 732.687"/>
<path class="l1" d="M1205.23 711.362L1205.23 732.687"/>
<path class="l1" d="M1034.64 711.362L1205.23 711.362"/>
<path class="l1" d="M1034.64 711.362L1034.64 732.687"/>
<path class="l1" d="M490.858 732.687L522.845 732.687"/>
<path class="l1" d="M522.845 732.687L533.507 732.687"/>
<path class="l1" d="M608.143 732.687L608.143 871.297"/>
<path class="l1" d="M800.065 732.687L800.065 839.31"/>
<path class="l1" d="M608.143 839.31L800.065 839.31"/>
<path class="l1" d="M608.143 562.09L608.143 732.687"/>
<path class="l1" d="M1119.93 732.687L1119.93 839.31"/>
<path class="l1" d="M800.065 839.31L1119.93 839.31"/>
<path class="l1" d="M1311.86 732.687L1311.86 839.31"/>
<path class="l1" d="M1119.93 839.31L1311.86 839.31"/>
<path class="l1" d="M1311.86 562.09L1311.86 732.687"/>
<circle class="l1" cx="512.182" cy="391.493" r="3.94506"/>
<circle class="l1" cx="586.819" cy="327.519" r="3.94506"/>
<circle class="l1" cx="533.507" cy="167.584" r="3.94506"/>
<circle class="l1" cx="533.507" cy="167.584" r="3.94506"/>
<circle class="l1" cx="533.507" cy="167.584" r="3.94506"/>
<circle class="l1" cx="672.117" cy="167.584" r="3.94506"/>
<circle class="l1" cx="522.845" cy="732.687" r="3.94506"/>
<circle class="l1" cx="522.845" cy="732.687" r="3.94506"/>
<circle class="l1" cx="522.845" cy="732.687" r="3.94506"/>
<circle class="l1" cx="650.793" cy="785.999" r="3.94506"/>
<circle class="l1" cx="672.117" cy="615.402" r="3.94506"/>
<circle class="l1" cx="512.182" cy="444.804" r="3.94506"/>
<circle class="l1" cx="512.182" cy="391.493" r="3.94506"/>
<circle class="l1" cx="512.182" cy="391.493" r="3.94506"/>
<circle class="l1" cx="917.351" cy="295.532" r="3.94506"/>
<circle class="l1" cx="714.766" cy="220.895" r="3.94506"/>
<circle class="l1" cx="917.351" cy="295.532" r="3.94506"/>
<circle class="l1" cx="917.351" cy="295.532" r="3.94506"/>
<circle class="l1" cx="917.351" cy="391.493" r="3.94506"/>
<circle class="l1" cx="800.065" cy="124.935" r="3.94506"/>
<circle class="l1" cx="800.065" cy="124.935" r="3.94506"/>
<circle class="l1" cx="874.701" cy="252.882" r="3.94506"/>
<circle class="l1" cx="672.117" cy="167.584" r="3.94506"/>
<circle class="l1" cx="672.117" cy="167.584" r="3.94506"/>
<circle class="l1" cx="629.468" cy="220.895" r="3.94506"/>
<circle class="l1" cx="874.701" cy="252.882" r="3.94506"/>
<circle class="l1" cx="874.701" cy="252.882" r="3.94506"/>
<circle class="l1" cx="800.065" cy="124.935" r="3.94506"/>
<circle class="l1" cx="800.065" cy="220.895" r="3.94506"/>
<circle class="l1" cx="618.806" cy="391.493" r="3.94506"/>
<circle class="l1" cx="800.065" cy="391.493" r="3.94506"/>
<circle class="l1" cx="1045.3" cy="252.882" r="3.94506"/>
<circle class="l1" cx="608.143" cy="562.09" r="3.94506"/>
<circle class="l1" cx="608.143" cy="732.687" r="3.94506"/>
<circle class="l1" cx="800.065" cy="732.687" r="3.94506"/>
<circle class="l1" cx="800.065" cy="839.31" r="3.94506"/>
<circle class="l1" cx="608.143" cy="732.687" r="3.94506"/>
<circle class="l1" cx="885.364" cy="732.687" r="3.94506"/>
<circle class="l1" cx="960" cy="615.402" r="3.94506"/>
<circle class="l1" cx="960" cy="785.999" r="3.94506"/>
<circle class="l1" cx="842.714" cy="615.402" r="3.94506"/>
<circle class="l1" cx="1077.29" cy="615.402" r="3.94506"/>
<circle class="l1" cx="842.714" cy="785.999" r="3.94506"/>
<circle class="l1" cx="1077.29" cy="785.999" r="3.94506"/>
<circle class="l1" cx="842.714" cy="785.999" r="3.94506"/>
<circle class="l1" cx="757.416" cy="785.999" r="3.94506"/>
<circle class="l1" cx="842.714" cy="785.999" r="3.94506"/>
<circle class="l1" cx="650.793" cy="785.999" r="3.94506"/>
<circle class="l1" cx="650.793" cy="785.999" r="3.94506"/>
<circle class="l1" cx="757.416" cy="785.999" r="3.94506"/>
<circle class="l1" cx="757.416" cy="785.999" r="3.94506"/>
<circle class="l1" cx="672.117" cy="615.402" r="3.94506"/>
<circle class="l1" cx="672.117" cy="615.402" r="3.94506"/>
<circle class="l1" cx="757.416" cy="615.402" r="3.94506"/>
<circle class="l1" cx="757.416" cy="615.402" r="3.94506"/>
<circle class="l1" cx="757.416" cy="615.402" r="3.94506"/>
<circle class="l1" cx="842.714" cy="615.402" r="3.94506"/>
<circle class="l1" cx="842.714" cy="615.402" r="3.94506"/>
<circle class="l1" cx="714.766" cy="391.493" r="3.94506"/>
<circle class="l1" cx="714.766" cy="391.493" r="3.94506"/>
<circle class="l1" cx="714.766" cy="391.493" r="3.94506"/>
<circle class="l1" cx="714.766" cy="444.804" r="3.94506"/>
<circle class="l1" cx="757.416" cy="444.804" r="3.94506"/>
<circle class="l1" cx="757.416" cy="444.804" r="3.94506"/>
<circle class="l1" cx="757.416" cy="444.804" r="3.94506"/>
<circle class="l1" cx="842.714" cy="444.804" r="3.94506"/>
<circle class="l1" cx="842.714" cy="444.804" r="3.94506"/>
<circle class="l1" cx="842.714" cy="444.804" r="3.94506"/>
<circle class="l1" cx="800.065" cy="839.31" r="3.94506"/>
<circle class="l1" cx="1119.93" cy="839.31" r="3.94506"/>
<circle class="l1" cx="608.143" cy="839.31" r="3.94506"/>
<circle class="l1" cx="800.065" cy="839.31" r="3.94506"/>
<circle class="l1" cx="1205.23" cy="220.895" r="3.94506"/>
<circle class="l1" cx="1045.3" cy="252.882" r="3.94506"/>
<circle class="l1" cx="1407.82" cy="391.493" r="3.94506"/>
<circle class="l1" cx="1333.18" cy="327.519" r="3.94506"/>
<circle class="l1" cx="1386.49" cy="167.584" r="3.94506"/>
<circle class="l1" cx="1386.49" cy="167.584" r="3.94506"/>
<circle class="l1" cx="1247.88" cy="167.584" r="3.94506"/>
<circle class="l1" cx="1386.49" cy="167.584" r="3.94506"/>
<circle class="l1" cx="1247.88" cy="167.584" r="3.94506"/>
<circle class="l1" cx="1247.88" cy="167.584" r="3.94506"/>
<circle class="l1" cx="1290.53" cy="220.895" r="3.94506"/>
<circle class="l1" cx="1045.3" cy="252.882" r="3.94506"/>
<circle class="l1" cx="1119.93" cy="220.895" r="3.94506"/>
<circle class="l1" cx="1301.19" cy="391.493" r="3.94506"/>
<circle class="l1" cx="1119.93" cy="391.493" r="3.94506"/>
<circle class="l1" cx="1311.86" cy="562.09" r="3.94506"/>
<circle class="l1" cx="1311.86" cy="732.687" r="3.94506"/>
<circle class="l1" cx="1311.86" cy="732.687" r="3.94506"/>
<circle class="l1" cx="1119.93" cy="732.687" r="3.94506"/>
<circle class="l1" cx="1119.93" cy="839.31" r="3.94506"/>
<circle class="l1" cx="1034.64" cy="732.687" r="3.94506"/>
<circle class="l1" cx="1397.16" cy="732.687" r="3.94506"/>
<circle class="l1" cx="1269.21" cy="785.999" r="3.94506"/>
<circle class="l1" cx="1077.29" cy="785.999" r="3.94506"/>
<circle class="l1" cx="1077.29" cy="785.999" r="3.94506"/>
<circle class="l1" cx="1162.58" cy="785.999" r="3.94506"/>
<circle class="l1" cx="1269.21" cy="785.999" r="3.94506"/>
<circle class="l1" cx="1162.58" cy="785.999" r="3.94506"/>
<circle class="l1" cx="1269.21" cy="785.999" r="3.94506"/>
<circle class="l1" cx="1162.58" cy="785.999" r="3.94506"/>
<circle class="l1" cx="1247.88" cy="615.402" r="3.94506"/>
<circle class="l1" cx="1247.88" cy="615.402" r="3.94506"/>
<circle class="l1" cx="1162.58" cy="615.402" r="3.94506"/>
<circle class="l1" cx="1247.88" cy="615.402" r="3.94506"/>
<circle class="l1" cx="1162.58" cy="615.402" r="3.94506"/>
<circle class="l1" cx="1077.29" cy="615.402" r="3.94506"/>
<circle class="l1" cx="1162.58" cy="615.402" r="3.94506"/>
<circle class="l1" cx="1077.29" cy="615.402" r="3.94506"/>
<circle class="l1" cx="1407.82" cy="444.804" r="3.94506"/>
<circle class="l1" cx="1407.82" cy="391.493" r="3.94506"/>
<circle class="l1" cx="1407.82" cy="391.493" r="3.94506"/>
<circle class="l1" cx="1205.23" cy="391.493" r="3.94506"/>
<circle class="l1" cx="1205.23" cy="391.493" r="3.94506"/>
<circle class="l1" cx="1205.23" cy="391.493" r="3.94506"/>
<circle class="l1" cx="1205.23" cy="444.804" r="3.94506"/>
<circle class="l1" cx="1162.58" cy="444.804" r="3.94506"/>
<circle class="l1" cx="1162.58" cy="444.804" r="3.94506"/>
<circle class="l1" cx="1077.29" cy="444.804" r="3.94506"/>
<circle class="l1" cx="1162.58" cy="444.804" r="3.94506"/>
<circle class="l1" cx="1077.29" cy="444.804" r="3.94506"/>
<circle class="l1" cx="1077.29" cy="444.804" r="3.94506"/>
<circle class="l1" cx="1119.93" cy="839.31" r="3.94506"/>
</svg>
